<svg width="466" height="197" viewBox="0 0 466 197" fill="none" xmlns="http://www.w3.org/2000/svg">
<path fill-rule="evenodd" clip-rule="evenodd" d="M225.567 147.008C230.359 147.008 234.385 148.073 237.646 150.205C240.93 152.316 243.416 155.249 245.102 159.004C246.81 162.759 247.664 167.093 247.664 172.004C247.664 176.914 246.81 181.246 245.102 185.001C243.416 188.756 240.93 191.699 237.646 193.832C234.385 195.943 230.359 197 225.567 197C220.797 197 216.769 195.943 213.485 193.832C210.202 191.699 207.718 188.755 206.032 185.001C204.346 181.246 203.503 176.914 203.502 172.004C203.502 167.093 204.346 162.759 206.032 159.004C207.718 155.249 210.202 152.316 213.485 150.205C216.769 148.072 220.797 147.008 225.567 147.008ZM225.567 151.705C221.818 151.705 218.7 152.561 216.215 154.271C213.731 155.982 211.855 158.371 210.59 161.437C209.348 164.481 208.716 168.004 208.694 172.004C208.672 176.003 209.28 179.524 210.522 182.568C211.787 185.59 213.673 187.968 216.18 189.701C218.687 191.412 221.818 192.277 225.567 192.3C229.316 192.299 232.444 191.445 234.951 189.734C237.458 188.023 239.334 185.645 240.576 182.601C241.841 179.535 242.472 176.002 242.472 172.004C242.472 168.004 241.841 164.481 240.576 161.437C239.334 158.393 237.458 156.017 234.951 154.306C232.444 152.596 229.316 151.728 225.567 151.705Z" fill="black"/>
<path d="M287.043 147.008C292.612 147.008 297.16 148.44 300.687 151.306C304.215 154.15 306.634 157.972 307.943 162.771L302.949 164.07C301.928 160.271 300.099 157.26 297.459 155.039C294.819 152.817 291.347 151.705 287.043 151.705C283.294 151.705 280.176 152.56 277.691 154.271C275.206 155.982 273.331 158.371 272.066 161.437C270.824 164.481 270.182 168.004 270.138 172.004C270.116 176.003 270.724 179.524 271.966 182.568C273.23 185.612 275.117 188.001 277.623 189.734C280.153 191.445 283.293 192.3 287.043 192.3C291.347 192.3 294.819 191.188 297.459 188.966C300.099 186.722 301.928 183.711 302.949 179.934L307.943 181.234C306.634 186.033 304.215 189.867 300.687 192.734C297.16 195.577 292.611 197 287.043 197C282.273 197 278.245 195.943 274.961 193.832C271.678 191.699 269.194 188.755 267.508 185.001C265.822 181.246 264.978 176.914 264.978 172.004C264.978 167.093 265.822 162.759 267.508 159.004C269.194 155.249 271.678 152.316 274.961 150.205C278.245 148.072 282.273 147.008 287.043 147.008Z" fill="black"/>
<path d="M447.662 147.04C450.857 147.04 453.708 147.608 456.215 148.741C458.744 149.874 460.829 151.496 462.471 153.606C464.113 155.695 465.202 158.172 465.735 161.038L460.608 161.971C460.275 159.883 459.509 158.072 458.311 156.538C457.113 155.006 455.584 153.826 453.721 153.004C451.879 152.16 449.848 151.727 447.63 151.705C445.477 151.705 443.558 152.073 441.872 152.806C440.208 153.517 438.888 154.494 437.912 155.738C436.936 156.983 436.447 158.405 436.447 160.005C436.447 161.627 436.892 162.927 437.779 163.905C438.689 164.882 439.799 165.65 441.108 166.205C442.439 166.76 443.725 167.214 444.967 167.569L454.352 170.336C455.328 170.602 456.471 170.991 457.78 171.502C459.111 171.991 460.397 172.703 461.64 173.637C462.904 174.548 463.947 175.747 464.768 177.236C465.589 178.724 466 180.613 466 182.902C466 185.123 465.555 187.111 464.668 188.866C463.802 190.621 462.573 192.101 460.976 193.3C459.401 194.5 457.546 195.41 455.416 196.032C453.309 196.676 451.002 197 448.496 197C445.146 197 442.127 196.443 439.442 195.332C436.78 194.199 434.573 192.6 432.82 190.534C431.09 188.468 429.959 186.011 429.427 183.167L434.418 182.335C435.217 185.445 436.902 187.889 439.475 189.666C442.048 191.421 445.122 192.3 448.694 192.3C451.045 192.3 453.154 191.934 455.018 191.201C456.881 190.446 458.346 189.378 459.411 188.001C460.475 186.623 461.008 184.99 461.009 183.102C461.009 181.858 460.786 180.801 460.342 179.934C459.899 179.046 459.311 178.312 458.579 177.735C457.847 177.157 457.048 176.68 456.182 176.303C455.317 175.903 454.474 175.579 453.653 175.334L441.506 171.703C440.042 171.281 438.689 170.747 437.446 170.102C436.204 169.436 435.117 168.648 434.185 167.737C433.276 166.804 432.564 165.716 432.054 164.472C431.544 163.228 431.29 161.805 431.29 160.205C431.29 157.495 431.999 155.15 433.419 153.173C434.839 151.195 436.779 149.672 439.242 148.605C441.704 147.539 444.512 147.018 447.662 147.04Z" fill="black"/>
<path fill-rule="evenodd" clip-rule="evenodd" d="M139.34 195.999H134.248L130.221 184.366H108.934L104.931 195.999H99.8391L116.344 148.006H122.835L139.34 195.999ZM110.515 179.769H128.628L119.542 153.531L110.515 179.769Z" fill="black"/>
<path d="M169.359 190.434L184.068 148.006H189.159L172.652 195.999H166.163L149.656 148.006H154.747L169.359 190.434Z" fill="black"/>
<path fill-rule="evenodd" clip-rule="evenodd" d="M363.471 195.999H358.38L354.35 184.366H333.063L329.06 195.999H323.968L340.475 148.006H346.964L363.471 195.999ZM334.644 179.769H352.757L343.671 153.536L334.644 179.769Z" fill="black"/>
<path d="M413.207 152.706H396.467V195.999H391.576V152.706H374.836V148.006H413.207V152.706Z" fill="black"/>
<path fill-rule="evenodd" clip-rule="evenodd" d="M44.0155 30.9958C52.8419 30.9958 60.2651 33.1489 66.2832 37.4537C66.8413 37.8529 67.3834 38.27 67.9163 38.6959V33.5779H88.3776V132.936C88.3776 135.232 88.2629 137.385 88.0336 139.394C87.8617 141.46 87.5176 143.499 87.0018 145.508C85.5115 151.19 82.732 155.868 78.6629 159.541C74.6509 163.214 69.7214 165.942 63.8755 167.721C58.0297 169.558 51.6967 170.474 44.8767 170.474C39.604 170.474 34.589 169.614 29.832 167.892C25.0749 166.227 20.8045 163.874 17.0217 160.832C13.2963 157.847 10.2582 154.345 7.90827 150.327L29.572 139.825C31.0622 142.58 33.1856 144.675 35.9366 146.11C38.7444 147.544 41.7812 148.26 45.0473 148.261C48.5435 148.261 51.8403 147.66 54.9354 146.454C58.0304 145.306 60.495 143.554 62.3291 141.201C64.2199 138.905 65.1086 136.035 64.994 132.592V123.319C58.9698 127.202 51.5777 129.147 42.813 129.147C34.2735 129.147 26.7937 126.997 20.3746 122.692C13.9556 118.387 8.94077 112.531 5.32995 105.127C1.77642 97.723 0 89.3701 0 80.0715C8.28071e-05 70.601 1.80315 62.1916 5.41391 54.8447C9.08207 47.4403 14.214 41.6144 20.8052 37.3669C27.3959 33.12 35.1326 30.996 44.0155 30.9958ZM47.455 51.8314C42.2397 51.8315 37.9422 53.1245 34.5607 55.7072C31.2367 58.2326 28.7719 61.647 27.1671 65.9515C25.5623 70.1988 24.7594 74.9059 24.7594 80.0715C24.7594 85.2948 25.5329 90.0602 27.0804 94.3652C28.6279 98.6123 31.0073 102 34.2168 104.525C37.4263 107.05 41.5534 108.312 46.5965 108.312C51.8119 108.312 55.9679 107.136 59.0628 104.783C62.215 102.43 64.477 99.1279 65.8526 94.8805C67.2281 90.633 67.9163 85.6965 67.9163 80.0715C67.9162 74.4467 67.2281 69.5099 65.8526 65.2625C64.477 61.0156 62.2708 57.7159 59.2335 55.3628C56.2531 53.0094 52.3268 51.8314 47.455 51.8314Z" fill="#0D4D5C"/>
<path d="M137.558 126.565H114.174V0H137.558V126.565Z" fill="#0D4D5C"/>
<path d="M266.327 31.3402C276.93 31.3402 284.927 34.4976 290.315 40.8115C295.76 47.0679 298.483 55.2765 298.483 65.4361V126.565H275.097V71.6337C275.096 65.4924 273.635 60.7291 270.712 57.3427C267.846 53.899 263.864 52.1759 258.763 52.1759C255.496 52.1759 252.658 52.9505 250.251 54.5003C247.844 55.9925 245.952 58.1166 244.577 60.8714C243.259 63.5688 242.6 66.6976 242.6 70.2558V126.565H219.216V71.6337C219.216 65.4927 217.754 60.7291 214.831 57.3427C211.966 53.8988 207.981 52.1759 202.88 52.1759C198.008 52.1761 194.081 53.8697 191.101 57.2559C188.179 60.5848 186.719 64.9185 186.719 70.2558V126.565H163.162V33.5779H183.794V43.7733C186.488 40.449 189.782 37.7107 193.682 35.5605C198.84 32.7481 204.6 31.3404 210.961 31.3402C218.24 31.3402 224.202 32.8898 228.844 35.9891C232.722 38.5468 235.76 41.81 237.96 45.7749C240.911 41.4059 244.721 37.9721 249.392 35.4737C254.493 32.7188 260.138 31.3404 266.327 31.3402Z" fill="#0D4D5C"/>
</svg>
