<?xml version="1.0" standalone="no"?>
<!DOCTYPE svg PUBLIC "-//W3C//DTD SVG 1.1//EN" "http://www.w3.org/Graphics/SVG/1.1/DTD/svg11.dtd">
<svg xmlns="http://www.w3.org/2000/svg">
  <defs>
    <font id="CrimsonText" horiz-adv-x="485">
      <font-face font-family="Crimson Text" units-per-em="1024" panose-1="0 0 0 0 0 0 0 0 0 0" ascent="972" descent="-359" alphabetic="0"/>
      <glyph unicode=" " glyph-name="space" horiz-adv-x="228"/>
      <glyph unicode="!" glyph-name="exclam" horiz-adv-x="187" d="M136,148q-7,0-6,18q2,25 8,73.5t13.5,108t16,120T183,577q3,17 20,35.5T242,631q15,0 23-13t8-30t-12-62.5T231.5,418t-36-127T164,170q-2-9-12.5-15.5T136,148ZM121-13Q102-13 89.5,0.5T77,34q0,27 21,48t46,21q19,0 31-12.5T187,58q0-27-20.5-49T121-13Z"/>
      <glyph unicode="&quot;" glyph-name="quotedbl" horiz-adv-x="298" d="M85,447q7,68 3.5,111.5T85,636q2,12 12,26.5t24.5,25T152,698q23,0 29-10q5-12-1-55q-3-16-10-39t-18-55q-11-31-19-53.5T121,449q-3-10-12.5-13t-17,0T85,447Zm151,0q7,68 3.5,111.5T236,636q2,12 12,26.5t24.5,25T303,698q23,0 29-10q5-12-1-55q-3-16-10-39t-18-55q-11-31-19-53.5T272,449q-3-10-12.5-13t-17,0T236,447Z"/>
      <glyph unicode="#" glyph-name="numbersign" horiz-adv-x="419" d="M50,16q-22,0-22,5L81,175H5q-7,0-7,6q0,13 8.5,31.5T23,231h77l29,86H53q-7,0-7,6q0,13 8.5,31.5T71,373h77l51,151q3,8 33,8q22,0 22-6L201,373h87l51,151q3,8 33,8q22,0 22-6L341,373h76q7,0 7-5q0-13-8.5-32T399,317H322l-29-86h76q7,0 7-6q0-13-8.5-31.5T351,175H274L223,24q-3-8-33-8q-22,0-22,5l53,154H134L83,24q-3-8-33-8ZM153,231h87l29,86H182l-29-86Z"/>
      <glyph unicode="$" glyph-name="dollar" horiz-adv-x="438" d="M150-52q-32,0-31,9L134,0Q94,5 39,17q2,32 3,51.5T43,96q0,35-1,54t-1,20q0,7 19,7q8,0 19-8q0-20 4.5-40.5T101,85q14-28 48-41l87,248q-10,7-20.5,14T195,320q-34,23-58.5,55.5T112,443q0,58 30,103.5T223,618t113,26q9,0 22-2l14,41q32,0 31-7l-14-39q7-1 14-3q20-5 36-8.5t26-4.5q-2-13-4.5-36T455,538.5t-5-40T448,481q-2-5-5-5q-15,0-23,6q-2,2-2,11q0,29-13,53t-34,39L293,359q20-14 40.5-27.5T371,304q20-17 40-47t20-65q0-28-14.5-62.5T373,64.5T300.5,14T198-6q-14,0-31,2L150-52Zm89,449q11-9 27-19l77,221q-13,4-26,4q-57,0-92-33.5T190,486q0-52 49-89ZM345,166q0,29-24,57t-58,51L181,36q12-2 26-2q36,0 67.5,16t51,45.5T345,166Z"/>
      <glyph unicode="%" glyph-name="percent" horiz-adv-x="618" d="M174,338q-54,0-85,38.5T58,469q0,51 25,97.5T149.5,643T240,673q55,0 84-38.5T353,541q0-50-25-96.5T262.5,368T174,338ZM1-12Q-11-12-14-1L582,652q11,11 22,11q23,0 27-13L35,0Q23-12 1-12ZM186,366q30,0 53,25.5t36,66T288,541q0,42-13.5,73.5T230,646q-30,0-54.5-24.5t-39.5-63T121,478q0-45 16-78.5T186,366ZM386-8q-54,0-85,38.5T270,123q0,51 25,97.5T361.5,297T452,327q55,0 84-38.5T565,195q0-50-25-96.5T474.5,22T386-8Zm12,28q30,0 53,25.5t36,66T500,195q0,42-13.5,73.5T442,300q-30,0-54.5-24.5t-39.5-63T333,132q0-45 16-78.5T398,20Z"/>
      <glyph unicode="&amp;" glyph-name="ampersand" horiz-adv-x="625" d="M307-14q-66,0-122.5,27t-91,74.5T59,196q0,41 18.5,78.5t47.5,66T185,381q-38,44-38,98q0,44 27,79.5t69,56T329,635q46,0 80.5-25T444,543q0-19-10-38t-24-31t-26-12q-9,0-9,7q6,18 8,27.5t2,17.5q0,32-23,54t-55,22q-30,0-55-16t-40-42t-15-58q0-50 33-79q24,7 39,7q28,0 51.5-11T344,360q0-19-20-29.5T279,320q-38,0-62,21q-72-61-72-137q0-48 23-88t62.5-63.5T319,29q55,0 103,28.5t78,76T530,237q0,39-23.5,68.5T447,335q-28,0-49-15t-21-40q0-16 10.5-22t24-9t24-9.5T446,217q0-17-9.5-30T413,170q-16,0-34,11.5T348.5,213T336,258q0,37 20,65.5T409,369t71,17q40-1 54.5-1.5T556,384q35,0 61.5,15.5T644,444q0,15-9,25.5T612,480q-15,0-26.5-9T559,462q-12,0-20.5,10T530,495q0,23 26,43q56,0 90.5-25T681,444t-30.5-71T569,346q-3,0-9.5,0.5T543,348q55-49 55-124q0-49-24-92.5t-64.5-76t-93-51T307-14Z"/>
      <glyph unicode="&apos;" glyph-name="quotesingle" horiz-adv-x="147" d="M85,447q7,68 3.5,111.5T85,636q2,12 12,26.5t24.5,25T152,698q23,0 29-10q5-12-1-55q-3-16-10-39t-18-55q-11-31-19-53.5T121,449q-3-10-12.5-13t-17,0T85,447Z"/>
      <glyph unicode="(" glyph-name="parenleft" horiz-adv-x="292" d="M130-121q-34,0-72,87Q21,53 21,174q0,70 15.5,143T77,456.5T132,574q29,48 58.5,87.5t57.5,63T298,748q9,0 9-20q0-5-2-7q-41-20-91-101q-34-54-65-130.5t-50-161T80,164Q80,69 103-8q23-74 44-87q1,0 1-3q0-6-6.5-14.5T130-121Z"/>
      <glyph unicode=")" glyph-name="parenright" horiz-adv-x="276" d="M-8-121q-9,0-9,18q0,7 3,8Q2-86 20.5-64.5T56-18T83,23q53,87 90,202.5T210,477q0,62-8.5,113.5t-23,86T145,721l-1,2q0,5 6,15t11,10q40,0 74-84q34-83 34-207q0-95-23.5-188T187,108Q157,49 120.5-3.5T50-88.5T-8-121Z"/>
      <glyph unicode="*" glyph-name="asterisk" horiz-adv-x="343" d="M129,298q-10,0-16.5,7.5T106,326q0,23 33,75q32,53 32,63q0,9-9,9q-7,0-55-20q-46-21-68-21Q9,432 9,456q0,20 16.5,32T70,500q16,0 43-3q13-2 22-3t13-1q25,0 25,17q0,10-25,50q-26,40-26,63q0,18 10.5,29.5T156,664q24,0 28.5-25.5T189,580q0-66 12-66q10,0 23,18t28,41.5T285,615t39,18q23,0 23-24q0-19-21-38t-45-30q-25-12-46-26t-21-24q0-9 18.5-14.5T276,465t43.5-16.5T338,419q0-14-11-25t-26-11q-16,0-30.5,12.5t-27,29t-23.5,29T200,466q-12,0-15-19.5t-5-48T170,341q-6-21-17.5-32T129,298Z"/>
      <glyph unicode="+" glyph-name="plus" horiz-adv-x="457" d="M164,12q-7,0-12,3q-4,3-3,6l35,192q2,9-3,9H2q-5,0-5,9q0,19 22,47H197q3,0 3.5,3t1.5,6l15,86q5,31 9,55t8,42q2,6 13,10t24,6t19,2q12,0 10-9q-11-67-20-115.5T266,288q-2-10 2-10H449q4,0 4-9q0-24-21-47H253q-4,0-5-7L214,30q-1-8-18-13t-32-5Z"/>
      <glyph unicode="," glyph-name="comma" horiz-adv-x="209" d="M-17-163q-4,0-11,6.5T-35-143q0,4 24,23Q5-106 21-86.5T48.5-46T60-5q0,19-6.5,38.5T47,66q0,25 24.5,44T123,129q13,0 25-4q3-7 3-23q0-10-2.5-26T141,43Q130-6 103-45.5t-57-67T-4-154l-13-9Z"/>
      <glyph unicode="-" glyph-name="hyphen" horiz-adv-x="295" d="M24,199q-5,0-5,15q0,10 7,28t14,19l227,12q6,0 6-12q0-7-4-19t-9-21.5T250,210L24,199Z"/>
      <glyph unicode="." glyph-name="period" horiz-adv-x="189" d="M40-14Q21-14 8.5-0.5T-4,33q0,27 21,48t46,21q19,0 31-12.5T106,57q0-27-20.5-49T40-14Z"/>
      <glyph unicode="/" glyph-name="slash" horiz-adv-x="463" d="M3-33q-13,0-18,5L410,739q13,22 44,22q12,0 24-6L54-12Q41-33 3-33Z"/>
      <glyph unicode="0" glyph-name="zero" horiz-adv-x="458" d="M214-3q-53,0-86,29.5t-48,79T65,215q0,49 11,106t33,113.5T164,538t77,75t98,28q56,0 89-31.5T475.5,528T490,422q0-45-11.5-101.5T445,207.5T389.5,103T312,26T214-3Zm3,38q40,0 71,31t54,81t38.5,107t23,109.5T411,451q0,40-6.5,74.5t-22.5,56T337,603q-39,0-70-31t-54.5-80T173,387T149,280t-8-85q0-20 3-47t11-53t23-43t39-17Z"/>
      <glyph unicode="1" glyph-name="one" horiz-adv-x="364" d="M57-3q-3,4 0,16.5T63,26q9,0 24.5,3t29,8T132,46q4,8 8,22.5t8,34.5l70,360q6,29 8.5,47.5T218,529t-30-12.5T152,496q-5,3-8.5,11.5T140,521q0,3 3,6Q322,642 326,642h2q8,0 8-19q-16-32-28-94L232,135q-12-59-10-89q1-4 12.5-9T260,29t20-3q3,0 0-18q-2-8-3-11q-46,2-73.5,3.5T166,2q-7,0-34.5-1.5T57-3Z"/>
      <glyph unicode="2" glyph-name="two" horiz-adv-x="410" d="M35,0q-6,15-3,33q82,74 153,151.5t118,149T360,459t-9,83.5T291,572q-78,0-140-83q-5,0-10,6.5t-4,9.5q12,28 64,78q26,24 64,41.5T342,642q41,0 66.5-23.5t35-60.5t0.5-79q-6-31-23-67q-18-36-37.5-65.5T332,280q-24-27-41-46.5t-36.5-39t-49-46.5T127,79q-7-7 0-7H298q23,0 30,5t20,12q9,5 17,19t13,27.5t6,14.5q6,10 15,10q15,0 16-4q-4-10-14-36T380,65T362,16Q356,0 340,0H35Z"/>
      <glyph unicode="3" glyph-name="three" horiz-adv-x="410" d="M161-5Q82-5 46,25q-3,3-4,13t0,16q5,22 16.5,34.5T86,101q14,0 22-14.5T132,56q23-21 66-21q40,0 80,35t55,110q8,40-2,71.5T298,302t-55,19q-35,0-62-7q-6,11-2,26l4,10q67,12 112,48t57,98q7,34-12.5,60.5T288,583q-29,0-50-11.5t-33-24T188,532q-4,0-5.5,9.5T182,558q33,40 69,62t86,22q27,0 49.5-16T421,581t4-67q-9-44-34.5-74.5T322,379q27-11 52.5-34t39-58t4.5-81q-12-63-49.5-110.5T277,21.5T161-5Z"/>
      <glyph unicode="4" glyph-name="four" horiz-adv-x="410" d="M285-6q-9,0-15,0T260-5q-8,2-8,7l34,172H50q-5,8 0,31L415,633q11,12 24,12t10-10L370,232h67q9,0 6-7q-6-34-16-51H359L325-1q-5-5-40-5ZM128,232H297l52,266q1,2 0,5.5t-3,3.5l-2-2L124,244q-1-1-1-3q-1-9 5-9Z"/>
      <glyph unicode="5" glyph-name="five" horiz-adv-x="410" d="M166-5Q83-5 47,25q-4,3-5,13t1,16q4,22 15.5,34.5T87,101q13,0 21.5-14.5T133,56q23-21 70-21q39,0 77,35.5T333,180q8,29 2,62t-31.5,57T225,323q-47,0-83-11q-3,2-6.5,5.5T128,326L230,623q92,3 147,6.5t74,7.5q3-7 1-21q-2-13-6.5-27T436,561q-27-8-107-11l-82-4q-6-2-8-8q-4-10-18.5-50T181,378q30,13 90,13q50,0 86.5-25.5T411,298t7-92q-12-61-49-109T279.5,22T166-5Z"/>
      <glyph unicode="6" glyph-name="six" horiz-adv-x="410" d="M205-6Q137-6 97.5,37T58,162q0,76 31,146.5T174.5,440t126,111T453,637q8,0 8-25q-85-36-142.5-83.5T225,429T170,325.5T144.5,229T138,152q0-50 20-84.5T219,33q30,0 60,24.5t50.5,66T350,217q0,50-23.5,81T254,329q-19,0-34-7.5T201,314q-6,5-6,14q0,12 16.5,22T249,366t35,6q43,0 75.5-19T411,301t19-75q0-43-19-84.5T359.5,67T287,14T205-6Z"/>
      <glyph unicode="7" glyph-name="seven" horiz-adv-x="410" d="M113-6Q103-6 94,4.5T86,22L436,553H212q-22,0-41-25.5T138,474q-2-4-14-5t-18,2l27,68q11,28 19,48.5T164,621q5,12 17,12H450q7,0 16.5,0.5T488,635l25,1q6,0 4-9q-2-11-11-24.5T488.5,577T477,560L123-3q-3-3-10-3Z"/>
      <glyph unicode="8" glyph-name="eight" horiz-adv-x="410" d="M201-9Q134-9 95,25.5T56,117q0,51 21,85.5T133.5,264T212,318q5,4 2,6q-28,20-48,53.5T146,452q0,35 16.5,69t44,61.5t61,44T335,643q56,0 91-32t35-88q0-41-19-73.5t-50-58T325,344q-6-3-1-6q38-28 64.5-67T415,189q0-34-17-68.5t-46.5-64T283.5,9T201-9Zm96,371q2,0 6,2q42,27 66,67.5T393,516q0,38-18.5,65T323,608q-32,0-55.5-23.5T231,530t-13-56q0-57 74-110q3-2 5-2ZM210,27q40,0 67.5,20.5t41.5,50T333,154q0,43-27.5,80.5T243,295q-6,4-9,1q-56-34-80-78.5T130,123q0-43 23-69.5T210,27Z"/>
      <glyph unicode="9" glyph-name="nine" horiz-adv-x="430" d="M326,637q68,0 107.5-43T473,469q0-76-31-146.5T356.5,191T230.5,80T78-6q-8,0-8,25q85,36 142.5,83.5T306,202t55,103.5T386.5,402t6.5,77q0,50-20,84.5T312,598q-30,0-60.5-24.5t-50.5-66T181,414q0-50 23.5-81T277,302q20,0 34.5,7.5T330,317q6-4 6-14q0-11-16.5-21.5T282,265t-35-6q-42,0-75,19t-52,52.5T101,405q0,43 19,84.5T171.5,564T244,617t82,20Z"/>
      <glyph unicode=":" glyph-name="colon" horiz-adv-x="271" d="M113-13Q94-13 81.5,0.5T69,34q0,27 21,48t46,21q19,0 31-12.5T179,58q0-27-20.5-49T113-13Zm65,333q-19,0-31.5,13.5T134,367q0,27 21,48t46,21q19,0 31-12.5T244,391q0-27-20.5-49T178,320Z"/>
      <glyph unicode=";" glyph-name="semicolon" horiz-adv-x="239" d="M179,320q-19,0-31.5,13.5T135,367q0,27 21,48t46,21q19,0 31-12.5T245,391q0-27-20.5-49T179,320ZM-31-169q-4,0-11,6.5T-49-149q0,4 24,23Q-9-112 7-92.5T34.5-52T46-11q0,19-6.5,38.5T33,60q0,25 24.5,44T109,123q13,0 25-4q3-7 3-23q0-10-2.5-26T127,37Q116-12 89-51.5t-57-67T-18-160l-13-9Z"/>
      <glyph unicode="&lt;" glyph-name="less" horiz-adv-x="406" d="M324-15L9,177q-10,7-10,26q0,27 23,38L403,428q1,1 4,1q7,0 7-35q0-18-5-20L74,209L348,41q2-2 2-5q0-6-5.5-18.5T333-5t-9-10Z"/>
      <glyph unicode="=" glyph-name="equal" horiz-adv-x="503" d="M48,259q-4,0-4,6q0,3 4,15t9,23.5T66,315H481q6,0 6-5q0-3-17-45q-1-6-6-6H48ZM20,117q-5,0-5,6q0,4 4,16t9.5,23T38,173H454q6,0 6-5q0-1-18-45l-7-6H20Z"/>
      <glyph unicode="&gt;" glyph-name="greater" horiz-adv-x="419" d="M-3-15q-6,0-6,48l5,8L337,209L65,374q-2,2-2,4q0,4 5.5,16.5t12,24T89,430l4-2L400,241q12-7 12-20q0-32-24-44L3-13q-6-2-6-2Z"/>
      <glyph unicode="?" glyph-name="question" horiz-adv-x="294" d="M189,181q-16,0-39,14.5t-41,37T91,279q0,53 42,83l119,84q47,33 47,71q0,29-14.5,44.5T245,577q-23,0-41-23q-19-24-37-24q-34,0-34,52q5,14 27,31.5T207,631q40,0 73-18.5t52.5-48T352,502q0-25-6-50t-30-47q-33-27-63.5-45.5T193,321q-33-22-33-60q0-19 13-37t26-27q0-10-10-16ZM117-13Q98-13 85.5,0.5T73,34q0,27 21,48t46,21q19,0 31-12.5T183,58q0-27-20.5-49T117-13Z"/>
      <glyph unicode="@" glyph-name="at" horiz-adv-x="723" d="M311-168q-68,0-130.5,24T70-60Q29-9 14.5,56T15,185q22,118 92,211q68,90 161.5,135.5T467,577q67,0 115.5-28.5T661,471t40-110.5T700,233q-13-69-39-119.5T604,37T543-1T483-13T432.5,3.5t-29,41T399,92q0,1-1.5,1T394,90q-13-18-41.5-40.5T293,10T240-7q-32,0-52,24q-19,23-23,55.5t3,68.5q10,51 36,99t66,86.5t92,61T476,410l81-9l-18-53L474,125q-29-98 25-98q33,0 61.5,21T607,101q37,66 44,113q12,61 4.5,117.5T622,432t-69.5,70T448,528q-65,0-126-23T210,440.5t-86-97T76,223q-10-60-9-112T87,15q31-73 96-107t159-34q34,0 67,13v-9q-2-14-26.5-30T311-168ZM278,53q18,0 40.5,13.5t44.5,33t37.5,39T419,170l43,152q2,8 3.5,18T459,352q-45,15-89.5-5t-79-72T240,143q-9-47 4-68.5T278,53Z"/>
      <glyph unicode="A" glyph-name="A" horiz-adv-x="619" d="M-22-3q-2,2-2,8q0,19 7,19q11,0 30.5,6T41,45q22,23 61,94L378,635q15,27 39,27q2,0 8-2l83-528l12-72q2-10 13.5-18t25-13T578,24q2,0 2-5q0-10-5-22q-46,2-72.5,3.5T471,2q-34,0-61-1.5T364-3q-1,1-1,6q0,21 7,21q10,0 28,6t23,14q7,14 7,47q0,18-18,148q0,7-12,8q-13,1-32,1.5T309,249q-10,0-33.5-1T216,244q-2,0-12.5-16.5t-25-41t-28-51.5T128,86.5T119,55t10-17t23-10.5T174,24q2,0 2-6q0-9-5-21L76,2Q50,4 25.5,1.5T-22-3ZM246,299q17,0 46-0.5t58.5,0T397,300q4,0 4,4q-7,48-15.5,103.5T368,526Q245,303 245,301t1-2Z"/>
      <glyph unicode="B" glyph-name="B" horiz-adv-x="551" d="M25-3q-1,1-1,9q0,20 7,20q8,0 22.5,3.5T81,38T96,49q14,30 26,93l72,372q5,29 8,52t3,41q0,5-11,10.5T170,627t-21,4q-2,0-2,4q0,16 7,23q37-1 79.5-1.5t84,0T392,657q40,0 78-13t63-41.5T558,528q0-57-34.5-97.5T438,364l-6-3q20-3 45-23.5T520,285t18-70q0-54-32.5-103.5T411.5,31T262,0H135L25-3ZM309,373q32,0 55,4t51,17q58,27 58,122q0,100-103,100q-72,0-75-13L250,386q-3-13 59-13ZM266,41q64,0 104,25t59,64t19,81q0,53-33,86.5T309,331q-71,0-74-15L197,116q-3-15-4-27t-1-21q0-18 19-22.5T266,41Z"/>
      <glyph unicode="C" glyph-name="C" horiz-adv-x="580" d="M321-6Q242-6 183,31.5t-91,100T60,267q0,66 29.5,137.5T168,534q49,59 120.5,96T437,667q68,0 213-45L630,498q-3-15-24-15q-8,0-11,3q0,15-1,27t-10,35q-14,37-52,57T432,625q-51,0-101-29.5T240,515T175,398T151,259q0-64 23.5-114t68-79T350,37q74,0 126,33q24,15 40.5,34.5t26.5,34T556,153t12-10.5t8-14.5q-46-87-50-91q-10-11-42.5-21t-76-16T321-6Z"/>
      <glyph unicode="D" glyph-name="D" horiz-adv-x="668" d="M25-3q-1,1-1,8q0,19 5,19q8,0 23,4t28.5,9.5T96,49q14,30 26,93l72,372q7,35 9.5,58.5T205,607q0,6-11,11.5t-24,9T149,631q-2,0-2,4q0,16 7,23q23-1 49.5-1.5T261,656q21,0 51.5,0.5t61,1T424,658q87,0 145.5-33T658,535t30-130q0-69-26.5-140.5T584,132T460,34T294-3q-20,0-49.5,1.5T186,1.5T136,2L25-3ZM317,43q67,0 119.5,32t89,85.5T581,280t19,134q0,88-44,144T422,614q-107,0-120-16q-8-10-14.5-30T275,519L202,139q-7-34-5.5-51T201,63q9-20 116-20Z"/>
      <glyph unicode="E" glyph-name="E" horiz-adv-x="544" d="M452-4q-17,0-49,1T332.5-1t-77,2T185,2.5T136,2L25-3q-1,1-1,8q0,19 5,19q8,0 23,4t28.5,9.5T96,49q14,30 26,93l72,372q7,35 9.5,58.5T205,607q0,6-11,11.5t-24,9T149,631q-2,0-2,4q0,16 7,23q23-1 49.5-1.5T261,656q20,0 55.5,1t85.5,3t88,3t64,1q-1-9-1-30.5t0.5-45t1-41T555,528q-5-5-18-5q-12,0-12,7q-3,56-26,71t-73,15H372q-72,0-76-13q-11-31-18-67L246,361q0-5 8-6.5t29-1.5h45q33,0 52,1.5t30,8t19,21T449,424q3,7 14,7q12,0 15-5L441,234q-5-4-14-4q-14,0-14,8q-1,24-3.5,41T398,301q-5,3-29,5.5T301,309q-66,0-68-9L204,152q-5-26-7.5-48T193,65q-1-20 24.5-20.5T299,44q44,0 73.5,4T423,64t38.5,35.5T498,162q3,6 15,6q17,0 21-6Q464,33 452-4Z"/>
      <glyph unicode="F" glyph-name="F" horiz-adv-x="439" d="M-8-3Q-9-2-9,5q0,19 5,19q8,0 23,4t28.5,9.5T63,49q14,30 26,93l72,372q7,35 9.5,58.5T172,607q0,6-11,11.5t-24,9T116,631q-2,0-2,4q0,16 7,23q23-1 49.5-1.5T228,656q20,0 55,1t84,3q50,2 88,3t64,1q-1-6-1-26t0.5-44t1-43t0.5-23q-5-5-18-5q-12,0-12,7q-3,56-26,71t-73,15H337q-72,0-76-13q-11-31-18-67L211,361q0-5 8-6.5t29-1.5h45q33,0 52,1.5t30,8t19,21T414,424q3,7 14,7q12,0 15-5L406,234q-5-4-14-4q-12,0-14,8q-1,14-2.5,35T363,301q-4,3-28.5,5.5T266,309q-66,0-68-9L164,128q-4-20-6-39.5T156,49q0-8 18.5-15T224,24q2,0 2-8q0-13-6-19q-46,2-75.5,3.5T103,2q0,0-27.5-1.5T-8-3Z"/>
      <glyph unicode="G" glyph-name="G" horiz-adv-x="642" d="M293-6Q223-6 169,28T84.5,121T54,254q0,77 31,150.5t84,133T290,632t143,35q68,0 213-45q-7-49-12.5-81.5T625,492q-1-9-23-9q-9,0-11,5q0,69-41.5,103T428,625q-58,0-108.5-32t-89-84.5t-60-114T149,273q0-64 22.5-117.5t65-86T337,37q82,0 125,22q8,5 11,17l29,146q1,5 2,12.5t1,13.5t-13.5,12t-30,10T436,274q-2,0-2,5q0,14 8,22q54-2 76-3.5t33-1.5q7,0 34.5,1.5T660,301q0-27-6-27q-11,0-28-4.5T595.5,257T580,236L556,97q-2-15-0.5-18.5T557,63q0-7-6-12T523,37q-28-11-83.5-27T293-6Z"/>
      <glyph unicode="H" glyph-name="H" horiz-adv-x="626" d="M-6-3Q-8-1-8,5q0,19 7,19q8,0 22.5,3t27,8T63,46q8,17 14,41t12,55l71,370q5,28 8,50.5t3,41.5q0,8-10.5,14T137,627.5T115,631q-2,0-2,5q0,14 8,22q8,0 27.5-1.5t42-3T229,652q25,0 62,3q38,3 44,3v-3q0-24-7-24q-5,0-19.5-4T281,618t-15-10q-8-19-14.5-42T240,515L215,374v-1q0-4 27-6q13-1 43.5-1.5T365,365q129,0 131,8l27,139q5,28 8,50.5t3,41.5q0,8-10.5,14T500,627.5T478,631q-2,0-2,5q0,14 8,22q8,0 27.5-1.5t42-3T592,652q24,0 63,3l44,3v-3q0-24-7-24q-5,0-19-4t-27-9t-15-10q-7-16-13.5-39.5T605,515L532,139q-5-28-8-50.5T521,49q0-8 13.5-14.5T562,26l13-2q2,0 2-4q0-11-6-23q-46,2-72.5,3.5T467,2L357-3q-2,2-2,8q0,19 7,19q8,0 22.5,3t27,8T426,46q8,17 14,41t12,55l32,165v1q0,5-23,7q-12,1-40.5,1T347,316q-143,0-146-12L169,139q-5-28-8-50.5T158,49q0-8 13.5-14.5T198,26l14-2q2,0 2-4q0-11-6-23q-46,2-72,3.5T104,2L-6-3Z"/>
      <glyph unicode="I" glyph-name="I" horiz-adv-x="323" d="M14-3q-2,2-2,8q0,19 7,19q8,0 22.5,3t27,8T83,46q8,17 14,41t12,55l71,370q5,28 8,50.5t3,41.5q0,8-10.5,14T157,627.5T135,631q-2,0-2,5q0,14 8,22q8,0 27.5-1.5t42-3T249,652q11,0 33,1.5t43.5,3T355,658v-3q0-24-7-24q-5,0-19.5-4T301,618t-15-10q-14-30-26-93L189,139q-5-28-8-50.5T178,49q0-8 15.5-14.5T232,24q2,0 2-4q0-11-6-23q-46,2-72,3.5T124,2L14-3Z"/>
      <glyph unicode="J" glyph-name="J" horiz-adv-x="294" d="M-74-233q-7,9-6,18l1,6q55,18 91,55T72.5-53T115,109l75,403q6,32 8.5,55t2.5,37q0,8-12,14t-27,9.5T138,631q-2,0-2,5q0,14 8,22q8,0 27.5-1.5t42-3T252,652q11,0 33,1.5t43.5,3T358,658v-3q0-24-7-24q-5,0-17.5-4t-24-9T296,608q-8-19-14.5-42T270,515L195,116Q185,59 163.5,0T109-110T30.5-194.5T-74-233Z"/>
      <glyph unicode="K" glyph-name="K" horiz-adv-x="671" d="M573-2q-38,0-70,13.5T457,44Q357,171 302.5,241.5T237,326q31,19 76.5,58.5t97,91T508,578q3,3 10,11t13.5,16.5T538,618q0,9-17.5,13T490,635q-3,0-3,6q0,9 5,17q26-2 52.5-4t45.5-2q24,0 63,3l44,3q0-23-6-23q-69-7-106-44L341,347q-5-5-5-12q0-8 6-16L546,72q12-14 33-24t42-15t30-5q2,0 2-6q0-9-5-21q-51-3-75-3ZM26-3q-2,2-2,8q0,19 7,19q8,0 22.5,3t27,8T95,46q16,36 26,96l71,370q5,28 8,50.5t3,41.5q0,8-10.5,14T169,627.5T147,631q-2,0-2,5q0,14 8,22q8,0 27.5-1.5t42-3T261,652q11,0 33,1.5t43.5,3T367,658v-3q0-24-7-24q-5,0-19.5-4T313,618t-15-10q-14-30-26-93L201,139q-5-28-8-50.5T190,49q0-8 15.5-14.5T244,24q2,0 2-4q0-11-6-23q-46,2-72,3.5T136,2L26-3Z"/>
      <glyph unicode="L" glyph-name="L" horiz-adv-x="496" d="M419-4Q368-4 255-1q-56,2-94,3T103,2L-8-3Q-9-2-9,5q0,24 7,24q9,0 23.5,2.5t27,7.5T63,49q14,30 26,93l71,370q5,28 8,50.5t3,41.5q0,8-10.5,14T137,627.5T115,631q-2,0-2,5q0,14 8,22q8,0 27.5-1.5t42-3T229,652q11,0 33,1.5t43.5,3T335,658v-3q0-24-7-24q-5,0-19.5-4T281,618t-15-10q-14-30-26-93L169,139q-5-29-7.5-47.5T159,65q0-15 9-18q4-1 23-2t75-1q44,0 73.5,4T390,64t38.5,35.5T465,162q3,6 15,6q17,0 21-6Q431,33 419-4Z"/>
      <glyph unicode="M" glyph-name="M" horiz-adv-x="806" d="M-27-3q-2,2-2,10q0,17 7,17q8,0 25.5,3.5T37,37T55,48q19,36 33,89L197,528q7,25 10,39.5t3,36.5q0,8-14,14t-30,9.5T142,631q-2,0-2,7q0,16 6,20l94-2q29-1 52.5,0t42.5,2q5-41 23.5-165T411,163q0-1 1-1q3,0 3,2L593,523l63,135q27-3 79-3q17,0 39,1t48,3q2-5 0-17t-5-12q-13,0-27.5-7T768,606q-13-16-17-42.5T745,517L706,135q-6-52-6-79q0-21 16-26q17-6 42-6q2,0 2-9q0-12-6-18q-46,2-73.5,4T645,2L540-3q-2,6-2,5q0,6 2.5,14t4.5,8q9,0 23,2t26,6.5T608,42q12,28 14.5,44t5.5,46l40,390q3,30 3,39q0,6-6,6q-2,0-3-4L401,31q-4-9-18.5-21T356-2q-2,0-8,2L263,567q-2,2-2,2q-3,0-3-2L141,136q-9-34-14-54.5T122,53q0-5 12-12t28.5-12T190,24q2,0 2-6q0-9-5-21q-46,2-72.5,3.5T83,2L-27-3Z"/>
      <glyph unicode="N" glyph-name="N" horiz-adv-x="690" d="M546-8q-14,0-26,23q-1,1-246,566L185,141q-10-47-10-89q0-8 16-15t32-10l17-3q2,0 2-5q0-10-5-22q-46,2-72,3.5T133,2L23-3q-2,2-2,8q0,19 7,19q8,0 25.5,3.5T87,37t18,11q5,11 12.5,35T132,144l77,372q9,44 9,90q0,8-12.5,13.5T177,628t-27,3q-2,0-2,7q0,16 7,20q39-2 64-3t35-1q9,0 32.5,1t61.5,3q8-30 27-81.5T421,461t58-131t61-127q4,10 6.5,20.5T551,244l51,269q6,32 9.5,55.5T615,605q0,8-13.5,14t-30,9T545,631q-2,0-2,7q0,16 7,20l105-5q7,0 34.5,1.5T764,658q0-27-6-27t-24.5-3.5t-35-8.5T680,609q-7-16-13-39t-12-54L580,136q-3-16-6.5-35.5T566,56t-6.5-40T556-4q-4-4-10-4Z"/>
      <glyph unicode="O" glyph-name="O" horiz-adv-x="650" d="M291-10q-71,0-124.5,35T84,121T55,259q0,74 29.5,146.5T166,537t119,94.5T427,667q68,0 121.5-34.5t85-93T665,409q0-84-30.5-160t-83-134T432,23.5T291-10Zm26,43q52,0 98.5,31t82,82.5T553,263t20,132T553.5,513.5T496,595t-92,30T303,595t-82-81.5t-55-115T146,267t20-121t58.5-83T317,33Z"/>
      <glyph unicode="P" glyph-name="P" horiz-adv-x="505" d="M26-3q-2,2-2,8q0,19 7,19q8,0 22,3t27,8.5T95,46q11,21 26,96l82,412q2,13 3.5,26t1.5,26q0,12-19.5,18.5T155,631q-2,0-2,7q0,16 7,20q44-3 104-3q16,0 41,0.5t49.5,1.5t40.5,1q39,0 78-20t65.5-54.5T565,504q0-43-19-81t-51.5-66.5t-73-45T339,295q-46,0-70,9q-1,4-1.5,6.5T267,314q0,10 6,16q7-1 13-1.5t11-0.5q46,0 87.5,22.5t68.5,65T480,516q0,105-108,105q-46,0-62-4.5T292,601L199,128q-9-45-9-79q0-8 16-14.5T238,26l17-2q2,0 2-8q0-13-6-19L149,2L26-3Z"/>
      <glyph unicode="Q" glyph-name="Q" horiz-adv-x="652" d="M551-186q-63,0-125,20q-72,25-145.5,58T118-52q0,4 6.5,13.5T136-27q8,1 34,6.5T242-5Q185,7 143,43.5T78,136T55,259q0,74 29.5,146.5T166,537t119,94.5T427,667q68,0 121.5-34.5t85-93T665,409q0-82-28.5-155.5T555,121T430,22T271-35q31-5 140-51q111-47 177-47q25,0 53,10.5t53.5,25T734-71q23-11 23-24q-12-16-44.5-37.5t-75-37.5T551-186ZM317,33q52,0 98.5,31t82,82.5T553,263t20,132T553.5,513.5T496,595t-92,30T303,595t-82-81.5t-55-115T146,267t20-121t58.5-83T317,33Z"/>
      <glyph unicode="R" glyph-name="R" horiz-adv-x="624" d="M533-4Q468-4 424,61q-22,32-46,91.5T326,297q-5,14-44,14q-16,0-32.5-0.5T230,294L201,139q-5-28-8-50.5T190,49q0-8 13.5-14.5T230,26l14-2q2,0 2-4q0-11-6-23q-46,2-72.5,3.5T136,2L26-3q-2,2-2,8q0,19 7,19q8,0 22.5,3t27,8T95,46q5,14 12,38t14,58l82,414q2,13 3.5,25.5T208,606t-20,18.5T155,631q-2,0-2,7q0,16 7,20q44-3 104-3q26,0 63,1.5t62,1.5q45,0 86-14t67-44t26-78q0-45-23.5-81.5t-60-65T407,327q-8-4-5-12q13-44 31-91t37-86.5T504,74q17-27 35-36t51-9q7-19 1-28q-13-2-27-3.5T533-4ZM292,352q56,0 99,22.5T458.5,437T483,527q0,94-110,94q-50,0-64-3q-13-3-16-16L245,369v-2q0-15 47-15Z"/>
      <glyph unicode="S" glyph-name="S" horiz-adv-x="439" d="M200-6Q146-6 41,18q2,32 3,52.5T45,99q0,37-1,56.5T43,176q0,7 19,7q8,0 19-8q0-21 4.5-42T103,88q12-24 39.5-38.5T209,35q36,0 67.5,16.5t51,47.5T347,172q0,30-24,58.5T265,283q-17,11-34,23t-34,25q-34,24-58.5,57T114,458q0,60 30,107t81,74t113,27q25,0 67-11q20-5 36-8.5t26-4.5q-2-14-4.5-37.5t-5.5-48T452,515t-2-18q-2-5-5-5q-15,0-23,6q-2,2-2,12q0,32-14,57.5T369,608t-50,15q-57,0-92-34.5T192,502q0-53 49-92q28-22 65.5-47T373,314q20-17 40-48.5T433,199q0-30-14.5-65T375,67T302.5,14.5T200-6Z"/>
      <glyph unicode="T" glyph-name="T" horiz-adv-x="591" d="M155-3q-2,2-2,8q0,19 7,19q8,0 22.5,3t27,8T224,46q16,36 26,96l69,355q7,35 10,59t3,38q0,5-2,11q-4,5-31.5,7.5T233,615q-35,0-56-6.5T142,583t-31-57q-2-5-10-5q-13,0-20,7l44,143q39-11 63-11q47,0 101-3t101-3q48,0 103,3t103,3q11,0 27.5,3t38.5,8L652,528q-8-7-23-7q-9,0-9,5q0,54-19.5,71.5T534,615q-98,0-106-15q-7-15-14-40t-14-60L330,139q-5-28-8-50.5T319,49q0-8 13.5-14.5T359,26l14-2q2,0 2-4q0-11-6-23q-46,2-72,3.5T265,2L155-3Z"/>
      <glyph unicode="U" glyph-name="U" horiz-adv-x="651" d="M291,0Q204,0 155.5,53T107,206q0,19 3.5,45.5T121,312l39,200q5,29 8,52t3,40q0,8-10.5,14T137,627.5T115,631q-2,0-2,5q0,14 8,22q8,0 27.5-1.5t42-3T229,652q25,0 62,3q38,3 44,3v-3q0-24-7-24q-5,0-19.5-4T281,618t-15-10q-14-30-26-93L199,298q-4-22-6-43.5T191,213q0-77 33-120.5T322,49q163,0 205,225l44,238q7,35 9.5,57.5T583,602q0,8-14,14.5T537.5,627T508,631q-2,0-2,6q0,17 7,21q8,0 27.5-1.5t42-3T621,652q30,0 59.5,2.5T728,658q0-27-7-27q-5,0-22-4t-33-9t-20-10t-11.5-29.5T619,510L574,276q-20-106-55.5-166T428,25T291,0Z"/>
      <glyph unicode="V" glyph-name="V" horiz-adv-x="654" d="M284-14q-4,0-9,6L176,551q-6,34-15,55q-5,11-22.5,18T110,631q-2,0-2,5q0,18 7,22q41-2 67.5-3t37.5-1q17,0 44,1t65,3v-3q0-24-7-24q-35,0-47.5-8.5T262,594q0-7 1.5-14.5T266,562l77-419L583,554q12,21 12,48q0,13-17,21t-37,8q-2,0-2,5q0,18 7,22q36-2 59.5-3t33.5-1q11,0 36,1t63,3v-6q0-21-8-21q-19,0-43-13t-39-39L322,19q-19-33-38-33Z"/>
      <glyph unicode="W" glyph-name="W" horiz-adv-x="973" d="M348-13q-5,0-8,5L198,510q-8,30-17,54t-18,42q-5,10-21.5,17.5T115,631q-2,0-2,5q0,18 7,22l45-3q14-1 27.5-2t25.5-1q30,0 59.5,2.5T326,658v-3q0-24-7-24q-24,0-38-11t-14-26q0-10 7-37L401,112L522,295L448,560q-4,14-9,25.5T429,606q-6,10-22.5,17.5T380,631q-2,0-2,5q0,16 8,22q9,0 27.5-1.5t40.5-3t38-1.5t37,1.5t39,3t24,1.5v-3q0-7-2.5-15.5T584,631q-24,0-37.5-11T533,594q0-13 6-37l45-161l85,138q25,40 25,59t-17.5,28.5T648,631q-2,0-2,5q0,18 7,22q87-6 95-6q29,0 60,3q32,3 40,3q0-27-7-27q-10,0-25.5-5.5T787,612t-19-14q-19-20-70-100L598,344l68-238L909,534q25,43 25,59q0,19-17.5,28.5T888,631q-2,0-2,5q0,18 7,22q87-6 95-6q29,0 60,3q32,3 40,3q0-27-7-27q-10,0-25.5-5.5T1027,612t-19-14q-16-19-34-43.5T938,498L657,19q-18-32-43-32q-6,0-8,5L536,245L390,19q-21-32-42-32Z"/>
      <glyph unicode="X" glyph-name="X" horiz-adv-x="656" d="M11-3q-1,1-1,4q0,23 5,23q22,0 49,7t41,23Q356,334 356,336L278,520q-12,29-19.5,44.5t-15,25T223,609q-9,8-28,15t-28,7q-2,0-2,5q0,18 7,22q8,0 29-2t45.5-3.5T289,652l123,6v-4q0-23-6-23q-21,0-42.5-10.5T342,591q0-9 5-24q74-169 75-168q21,22 50,53.5t56.5,63t46,55T593,600q0,13-19,22t-39,9q-2,0-2,5q0,18 7,22q102-6 111-6q27,0 56,2t55,4v-3q0-24-7-24q-8,0-28-4t-40-11t-28-16Q440,357 440,355q10-24 24.5-58t30-71t30-70.5t25-57T564,69q10-16 27.5-26t35-14.5T654,24q2,0 2-5q0-16-3-22q-46,2-74,3.5T542,2L408-3q-2,2-2,8q0,19 7,19q8,0 21,4t23.5,11.5T468,56q0,12-2,18q-91,217-92,217t-50-55Q176,69 176,54q0-30 55-30q4,0 4-9q0-13-5-18q-8,1-34,1T127-2Q78-2 49.5-2T11-3Z"/>
      <glyph unicode="Y" glyph-name="Y" horiz-adv-x="593" d="M180-3q-1,1-1,7q0,20 7,20q8,0 21.5,3T234,35.5T250,46q6,11 12.5,33.5T275,136l26,142q1,3-20,71q-10,33-21,65.5T238,480l-21,65q-15,46-39,64q-10,7-29,14.5T122,631q-2,0-2,5q0,18 7,22q8,0 29-1.5t45.5-3T244,652q10,0 124,6v-5q0-22-7-22q-10,0-25-4.5t-26.5-14T298,589q0-11 4-22l69-212l46,59l50,66q81,107 81,120q-1,13-21.5,22T486,631q-2,0-2,6q0,17 7,21q9,0 40-3q16-1 29-2.5t23-0.5l119,6q1-1 1-5q0-22-7-22q-6,0-22.5-4.5T640,615t-25-15q-4-4-22-27.5t-44-58t-54.5-73t-53-73T401,311t-17-26L356,139q-5-28-8-50.5T345,49q0-8 13.5-14.5T386,26l13-2q2,0 2-4q0-11-6-23q-46,2-72.5,3.5T291,2L180-3Z"/>
      <glyph unicode="Z" glyph-name="Z" horiz-adv-x="546" d="M40,0q-4,7-4,17q0,15 8,26L510,608l-201-1q-42,0-67.5-11.5t-44-38T157,484q-3-4-10-4q-18,0-27,9q7,17 20.5,61.5T176,665q5-1 25-3t45.5-3t47-2t29.5-1q23-1 50-1t58,0q34,0 58,1t37,2l96,8q2-1 3-15.5t0-17.5q-1-4-115-143q-57-70-114.5-138.5T282,214L169,76q-8-10-8-17q0-8 10-8H381q64,0 93,32q13,14 26.5,36T517,152q3,8 27,8q10,0 14-6q-17-43-31.5-81.5T501,0H40Z"/>
      <glyph unicode="[" glyph-name="bracketleft" horiz-adv-x="307" d="M146-114q-34,6-69,9T4-102q-7,0-10.5,8T-9-78L145,717q2,7 7.5,15t15.5,8q23,0 47.5,1t50.5,3l52,5q5,0 5-6q0-11-5-19q-5-7-10-12t-14-7q-19-4-42.5-7T203,695q-6,0-8-8L51-49q-2-8 5-8q22,0 46-4.5T148-75q9-4 6-27q-1-5-3.5-9t-4.5-3Z"/>
      <glyph unicode="\" glyph-name="backslash" horiz-adv-x="212" d="M165-39l-23,2L6,755q12,6 20,6q40,0 41-22L193,13q1-2 1-8q0-16-8.5-29.5T165-39Z"/>
      <glyph unicode="]" glyph-name="bracketright" horiz-adv-x="299" d="M-13-114q-3-1-3.5,2.5T-17-105q0,5 6.5,16T3-74q17,8 45,12.5T99-57q6,0 8,6L251,687q2,8-5,8q-22,0-45,2.5T166,703l-12,3q-12,12-12,22q0,23 8,21l8-1q16-2 57.5-5t82.5-3q13,0 13-15q0-1-1-6t-5-27t-13.5-71T265,484T221.5,258.5T156-79q-1-7-6.5-15T134-102q-34,0-70.5-3T7-111l-20-3Z"/>
      <glyph unicode="^" glyph-name="asciicircum" horiz-adv-x="303" d="M21,475q-8,0-8,25q16,14 45,40.5T119,602t55,75q5,9 7,11t5,2q10,0 13-6q7-16 14-38t24-58q13-27 33-51.5T296,500q-2-8-7-16.5T279,475q-7,0-21.5,13T226,521t-31.5,40.5T172,597q-16-19-39.5-40.5T85,516.5t-41.5-30T21,475Z"/>
      <glyph unicode="_" glyph-name="underscore" horiz-adv-x="485" d="M14-43q-5,0-5,6q0,4 4.5,16T24,2t9,11H447q6,0 6-4q0-5-18-46l-6-6H14Z"/>
      <glyph unicode="`" glyph-name="grave" horiz-adv-x="228" d="M251,482q-6,0-24.5,9t-42,23.5t-46,30.5t-37,30.5T87,598q0,15 16.5,21.5T136,626q15,0 20-5l16-16l28-29q64-70 64-76t-4.5-12t-8.5-6Z"/>
      <glyph unicode="a" glyph-name="a" horiz-adv-x="457" d="M321-6Q305-6 296,8.5T287,46q0,8 1.5,21.5T294,99l5,26q-13-24-36-54.5t-50.5-53T158-5Q114-5 88.5,34.5T63,130T88,240t66.5,98T247,408.5T349,435q40,0 73-13L364,121q-3-17-4.5-25.5T358,78q0-22 10-22q8,0 19.5,9t23,20.5T428,104l6,7q2,0 7.5-9.5T447,88q-8-14-30-36.5t-48-40T321-6ZM188,53q19,0 40,20t41,53t36,72t23,76l20,102q-12,13-41,13q-30,0-60-21t-55-55.5t-40-77T137,151q0-98 51-98Z"/>
      <glyph unicode="b" glyph-name="b" horiz-adv-x="420" d="M181-6q-38,0-68.5,28.5T82,104q0,15 3,33l83,422q4,20 6.5,33.5T177,612q0,19-61,19q-3,0-3,6q0,12 8,20q66,6 126,28q6-3 6-19q0-6-3-24.5T240,591L181,303q38,64 80.5,98T334,435q44,0 66.5-39T423,304q0-64-21.5-120T345,85T267,18T181-6Zm26,41q27,0 52.5,20.5T305,111t32,79t12,90q0,24-2,47t-11,38t-31,15q-15,0-37-21t-45.5-55t-42-73T155,156q-11-55 3-88t49-33Z"/>
      <glyph unicode="c" glyph-name="c" horiz-adv-x="349" d="M175-6Q123-6 95.5,34.5T68,146q0,48 19.5,98.5t52,94t71.5,70T290,435q47,0 87-34q3-12 3-20q0-11-7-27t-27-16q-16,0-25,14t-18,28t-25,14q-28,0-60-31t-54-83.5T142,162q0-106 66-106q22,0 44,14t40,32l9,9q2,0 7.5-9.5T314,88q-9-14-30.5-36.5t-50-40T175-6Z"/>
      <glyph unicode="d" glyph-name="d" horiz-adv-x="442" d="M321-6Q305-6 296,8.5T287,46q0,12 2.5,28.5t6,31T300,126q-16-30-40-60.5T209.5,15T159-5Q113-5 88,34.5T63,130q0,54 25,108t67,98.5T247,408t100,27h13l28,149q3,14 3,28q0,19-61,19q-3,0-3,6q0,12 8,20q71,6 129,28q6-4 6-19l-15-75L361,106q-3-12-3-25q0-25 10-25q8,0 19.5,8.5t22.5,20T427,103l7,8q2,0 7.5-9.5T447,88q-8-14-30.5-36.5T368,11.5T321-6ZM188,53q19,0 40.5,20.5T270,127t35.5,72T328,276l12,65q4,19-4,33.5T309,389q-30,0-60.5-21t-56-55.5t-40.5-77T137,150q0-97 51-97Z"/>
      <glyph unicode="e" glyph-name="e" horiz-adv-x="356" d="M173-6Q121-6 93.5,34.5T66,146q0,48 20,98.5t53,94t72,70T288,435q46,0 66.5-23.5T375,360q0-43-45-87q-30-28-64.5-48.5t-66.5-31T145,183q-4,0-4-35q0-45 17.5-68.5T206,56q27,0 48.5,16T296,108l3,3q2,0 7.5-9.5T312,88q-9-16-32-38T229,11T173-6ZM152,218q18,0 43.5,13t50,34.5t41,47.5T303,364q0,30-25,30q-24,0-47-19.5t-41.5-48t-30-57.5T148,222q0-4 4-4Z"/>
      <glyph unicode="f" glyph-name="f" horiz-adv-x="307" d="M-36-231q-35,0-55,12.5T-117-190q-1,23 11,41t30,18q11,0 18-9t14-21.5T-27.5-183T-2-192q20,0 37.5,22T67-114.5T91-46t14,61l60,339v2q0,5-3,5H97q-2,0-2,3q0,6 7.5,16.5t19,18.5t21.5,8h29q5,0 6,9q14,82 48.5,146t82,100.5T406,699q64,0 82-34q0-65-36-65q-15,0-27,15.5T400,646t-30,15q-32,0-68-65q-9-16-19-42t-18-53.5t-13.5-51T246,413v-2q0-4 3-4H364q5,0 5-12q0-15-11-34H241q-4,0-6-8L180,54Q154-89 94.5-160T-36-231Z"/>
      <glyph unicode="g" glyph-name="g" horiz-adv-x="438" d="M172-233q-69,0-112.5,26T16-135q0,38 23.5,64T97-26.5T160,6L142,18q-25,16-25,36q0,12 17,26t40.5,26T217,122q-20,0-43,10q-25,10-47.5,36.5T104,231q0,56 27.5,102.5T202,408t91,28q27,0 46.5-6.5t40-13.5t49.5-7h43q6,0 6-8q0-7-3.5-17T467,370H411q-6,0-6-6q6-36 6-52q0-58-25-101t-66-66q-23-14-47.5-25t-41-21T215,77q0-9 22.5-19t52-20T339,18q28-14 47.5-39T406-78q0-71-63.5-113T172-233Zm68,389q28,0 50,20.5T324.5,229T337,294q0,40-16,72t-44,32t-50.5-22t-35-56.5T179,247q0-39 16-65t45-26ZM221-190q49,0 85,20.5T342-118q0,32-20.5,52T269-32.5T202-8q-19-8-27.5-12T146-35Q90-65 90-110q0-80 131-80Z"/>
      <glyph unicode="h" glyph-name="h" horiz-adv-x="465" d="M348-6Q332-6 323,8.5T314,46q0,8 1.5,21T321,99l35,165q4,17 5.5,30.5T363,318q0,43-19,43q-16,0-44-25t-58-66t-54.5-91T152,78L135,0q-12-4-31-4T70,0L178,559q9,44 9,53q0,19-61,19q-3,0-3,6q0,12 8,20q68,6 126,28q6-3 6-19q0-4-3-22.5T250,591L181,238q5,9 16,24.5T225,300q22,30 52,61t59,52.5T385,435q50,0 50-66q0-22-3.5-49.5T421,260L388,106q-3-12-3-25q0-25 10-25q17,0 33.5,18.5T455,104l6,7q2,0 7.5-9.5T474,88q-8-14-30.5-36.5T395,11.5T348-6Z"/>
      <glyph unicode="i" glyph-name="i" horiz-adv-x="266" d="M213,546q-19,0-28,11.5T176,585q0,21 14.5,41T233,646q19,0 27.5-11.5T269,607q0-21-14.5-41T213,546ZM201,435q16,0 25-14.5t9-37.5q0-21-6-53L188,120q-1-6-3.5-19.5T182,79q0-23 10-23q8,0 19.5,9t23,20.5T252,104l6,7q2,0 7.5-9.5T271,88q-8-14-30.5-36.5T192,11.5T145-6Q129-6 120,8.5T111,46q0,8 1.5,21T118,99l41,209q3,16 4,26t1,14q0,25-10,25q-8,0-24.5-15T104,332l-5-6q-2,0-7.5,9.5T86,349q8,14 29,34t45,36t41,16Z"/>
      <glyph unicode="j" glyph-name="j" horiz-adv-x="273" d="M236,646q15,0 25.5-12T272,606q0-24-15.5-42T218,546q-16,0-25,12.5T184,589q0,23 15,40t37,17ZM207,435q16,0 25-14.5t9-37.5q0-20-6-53L180,45Q159-62 114-124q-28-38-68-68.5T-25-235q-9,8-9,20q50,29 88,91.5T108,22l56,280q5,23 5.5,34t0.5,16q0,21-10,21q-4,0-10.5-4.5T135,357q-13-11-21.5-21T105,326q-2,0-7.5,9.5T92,349q8,14 29,34t45,36t41,16Z"/>
      <glyph unicode="k" glyph-name="k" horiz-adv-x="485" d="M119-5q-7,0-15,1.5T86,0L195,559q4,20 6.5,33.5T204,612q0,19-61,19q-3,0-3,6q0,12 8,20q66,6 126,28q6-3 6-19q0-6-3.5-24.5T267,591L215,322l11,13q15,17 38.5,40.5T319,417t65,18q30,0 52.5-19.5T459,367q0-65-57.5-107T254,203q60-90 92-119t53-29q18,0 34.5,15T458,99q3,0 9.5-8T474,79q-3-11-19.5-31T417,12T376-4q-31,0-51.5,16.5T280,54q-15,16-34,44t-34.5,55T189,191L152,0q-20-5-33-5Zm88,235q14,0 32,4t40,10q23,7 48.5,20t43,33.5T388,345q0,43-40,43q-16,0-40-19.5T260.5,321T221,268t-16-36q0-2 2-2Z"/>
      <glyph unicode="l" glyph-name="l" horiz-adv-x="245" d="M117-6Q102-6 92.5,8.5T83,46q0,8 1.5,21.5T90,99l94,485q3,15 3,28q0,19-61,19q-3,0-3,6q0,12 8,20q34,3 66,10t62,18q6-3 6-19q0-6-3.5-24.5T252,591L157,106q-3-12-3-25q0-25 10-25q6,0 14.5,5.5T196,75q15,13 24.5,24.5T230,111q3,0 8-9.5T243,88q-8-14-30.5-36.5T164,11.5T117-6Z"/>
      <glyph unicode="m" glyph-name="m" horiz-adv-x="726" d="M600-6Q584-6 575,8.5T566,46q0,8 1.5,21T573,99l35,165q4,17 5.5,30.5T615,318q0,16-2.5,29.5T596,361q-17,0-44-24t-56-63t-52-86T412,95L394,0H327l56,284q2,11 3,20.5t1,17.5q0,39-20,39q-18,0-45-26.5T267,266t-50.5-89T185,88L167,0q-13-2-21.5-3T133-4T121-3T100,0l60,308q2,18 3.5,28t1.5,12q0,25-10,25q-4,0-10.5-4.5T130,357q-13-11-21.5-21T100,326q-2,0-7.5,9.5T87,349q8,14 29,34t45,36t41,16q16,0 25-14.5t9-37.5q0-21-6-53l-18-93q18,32 42.5,66.5t50,64.5t49,48.5T395,435q27,0 42-16q14-16 17-33.5t3-45.5q0-8-3.5-30.5T443,251q17,29 41,60.5t51,60t52,46T630,435q33,0 45-16.5T687,369q0-22-3.5-49.5T673,260L640,106q-3-12-3-25q0-25 10-25q11,0 22,9t21,20.5T707,104l6,7q2,0 7.5-9.5T726,88q-8-14-30.5-36.5T647,11.5T600-6Z"/>
      <glyph unicode="n" glyph-name="n" horiz-adv-x="489" d="M363-6Q347-6 338,8.5T329,46q0,8 1.5,21T336,99l35,165q4,17 5.5,30.5T378,318q0,43-19,43q-16,0-43.5-24T258,272.5t-54.5-91T167,78L150,0q-12-4-31-4T85,0l59,308q4,18 4.5,28t0.5,12q0,25-10,25q-4,0-10.5-4.5T114,357q-13-11-21.5-21T84,326q-2,0-7.5,9.5T71,349q8,14 29,34t45,36t41,16q16,0 25-14.5t9-37.5q0-21-6-53l-18-92q5,9 16,24.5T240,300q22,30 52,61t59,52.5T400,435q50,0 50-66q0-22-3.5-49.5T436,260L403,106q-3-12-3-25q0-25 10-25q8,0 19.5,9t23,20.5T470,104l6,7q2,0 7.5-9.5T489,88q-8-14-30.5-36.5T410,11.5T363-6Z"/>
      <glyph unicode="o" glyph-name="o" horiz-adv-x="412" d="M191-5Q131-5 99.5,34T68,145q0,52 20,103.5T140.5,342t71,67.5T288,435q59,0 91.5-41T412,281q0-51-20-102T339.5,86.5T268,20T191-5Zm18,41q25,0 48,21.5t40.5,57t28,77T336,273q0,59-16,90t-44,31q-25,0-48.5-21.5t-42.5-57t-30-77T144,158q0-58 18.5-90T209,36Z"/>
      <glyph unicode="p" glyph-name="p" horiz-adv-x="440" d="M3-235q-3,2-3,8q0,16 4,21q27,0 40,16q12,15 16,43l79,408L91,213q-6,8-6,20q0,4 3,7l59,63l26,130q13,4 33,4q19,0 32-7q-4-21-7-35t-4-21q30,27 58.5,44T353,435q46,0 71-39.5T449,300q0-68-44-141q-29-48-66.5-85t-75-57.5T194-4q-24,0-40,8L126-145q-3-13-3-28q0-18 14-23q14-3 47-3q2,0 2-6q0-14-5-22H163q-6,1-10.5,1t-6.5,0q-68,0-143-9ZM213,42q29,0 57.5,20.5t52.5,55t38,77T375,280q0,97-62,97q-58,0-96-53L174,103q-4-23 4-42t35-19Z"/>
      <glyph unicode="q" glyph-name="q" horiz-adv-x="438" d="M180-235q-1,5-0.5,17.5T184-205q5,0 10,0.5t10,1.5q11,2 29,16t23,40l51,272q-18-31-44-61T209.5,14.5T159-5Q115-5 89,34.5T63,130T88.5,240t67,98T248,408.5T350,435q47,0 80-13L324-147q-1-8-1.5-13.5T322-170q0-28 46-28q2,0 2-6q0-16-5-24l-40,1q-35,0-71.5-2T180-235Zm9,288q20,0 42.5,21T275,128t37.5,71.5T336,274l20,102q-12,13-49,13q-33,0-63.5-20.5t-54.5-54t-38-74T137,159q0-106 52-106Z"/>
      <glyph unicode="r" glyph-name="r" horiz-adv-x="356" d="M126-3Q107-3 89,0l60,308q7,36 4.5,50.5T144,373q-4,0-10.5-4.5T119,357q-13-11-21.5-21T89,326q-2,0-7.5,9.5T76,349q8,14 29,34t45,36t41,16q16,0 25-14.5t9-37.5q0-21-6-53l-16-84q13,29 31.5,60.5T278,370q48,65 86,65q31,0 52-32q0-67-36-67q-8,0-13.5,6.5t-12,12.5T337,361q-15,0-38.5-24T250,274t-44.5-83.5T178,105L159,0q-16-3-33-3Z"/>
      <glyph unicode="s" glyph-name="s" horiz-adv-x="282" d="M124-6Q67-6 34,32q-5,8-5,19q0,18 9.5,32T63,97q14,0 25-14q11-15 27.5-30T159,38q22,0 35.5,14.5T208,84q0,26-19.5,55.5T146,192t-42.5,56T84,315q0,28 18.5,56.5t50,47.5T223,438q57,0 90-38q5-13 5-21q0-18-9.5-31T284,335q-14,0-25,15q-11,14-27.5,29T188,394q-21,0-33-14t-12-32q0-26 19.5-55.5T205,240t42.5-56T267,117q0-55-40-89T124-6Z"/>
      <glyph unicode="t" glyph-name="t" horiz-adv-x="298" d="M138-6Q122-6 113,8.5T104,46q0,8 1.5,21T111,99l54,279H94q-3,0-3,11q0,13 12,31h70l24,122q1,10 49,10q14,0 18-1L239,420h91q5,0 5-13q0-12-9-29H231L178,106q-3-12-3-25q0-25 10-25q17,0 33.5,18.5T245,104l6,7q2,0 7.5-9.5T264,88q-9-14-31-36.5t-48-40T138-6Z"/>
      <glyph unicode="u" glyph-name="u" horiz-adv-x="472" d="M154-6q-50,0-50,66q0,23 3.5,50.5T118,169l30,139q4,18 4.5,28t0.5,12q0,25-10,25q-4,0-10.5-4.5T118,357q-13-11-21.5-21T88,326q-2,0-7.5,9.5T75,349q8,14 29,34t45,36t41,16q16,0 25-14.5t9-37.5q0-27-6-53L183,165q-3-14-5-27.5T176,111q0-43 19-43q14,0 38,21t57,64q29,38 53.5,92T379,351l17,78q12,4 31,4t34-4L399,106q-3-12-3-25q0-25 10-25q8,0 19.5,9t23,20.5T466,104l6,7q2,0 7.5-9.5T485,88q-8-14-30.5-36.5T406,11.5T359-6Q343-6 334,8.5T325,46q0,8 1.5,21T332,99l18,92q-5-10-15-25t-26-37q-20-28-49-59.5T202.5,16T154-6Z"/>
      <glyph unicode="v" glyph-name="v" horiz-adv-x="410" d="M179,0q-34,0-54,24.5T105,88q0,29 4,44l34,176q2,11 4,20.5t2,19.5q0,25-10,25q-13,0-27-15T89,332l-5-6q-2,0-7.5,9.5T71,349q8,14 29,34t45,36t41,16q16,0 25-14.5t9-37.5q0-21-6-53L184,177q-4-24-6-39.5T176,114q0-28 9-40t32-12q18,0 40.5,17t45,45T344,185.5t30.5,66T386,309q0,20-14,45q-15,24-15,36q0,18 12,31.5T398,435q18,0 32-8q14-26 14-58q0-83-48-172q-32-59-71.5-103.5T247,24.5T179,0Z"/>
      <glyph unicode="w" glyph-name="w" horiz-adv-x="609" d="M179,0q-34,0-54,24.5T105,88q0,14 1.5,25t2.5,19l34,176q6,21 6,40q0,25-10,25q-13,0-27-15T89,332l-5-6q-2,0-7.5,9.5T71,349q8,14 29,34t45,36t41,16q16,0 25-14.5t9-37.5q0-21-6-53L184,177q-4-24-6-39.5T176,114q0-28 9-40t32-12q22,0 51.5,26T325,154q24,197 33,231q14,50 40,50q38,0 38-47q0-63-41-177q-4-25-5.5-41T388,147q0-48 9-66q7-19 32-19q29,0 56.5,24.5t50,62.5t36,81T585,309q0,20-14,45q-15,24-15,36q0,18 12,31.5T597,435q18,0 32-8q14-26 14-58q0-63-27-131.5T550,118T467,33.5T391,0q-35,0-54.5,24.5T317,91Q238,0 179,0Z"/>
      <glyph unicode="x" glyph-name="x" horiz-adv-x="476" d="M114-6Q81-6 56,14q-8,14-8,26q0,15 10.5,25.5T80,76q14,0 30-15q16-16 30-16q12,0 27,26l79,136L205,341q-10,34-27,34q-15,0-32-15.5T122,331q-4,0-10,8t-6,12q2,12 19,32t40,36t43,16q43,0 68-87l21-71l59,101q33,57 84,57q33,0 58-20q8-18 8-26q0-15-10.5-25.5T474,353q-13,0-29,16q-16,15-31,15q-12,0-27-26L312,230L355,89q10-34 27-34q15,0 32,15.5T438,99q4,0 10-8t6-12q-2-11-19-31.5T395.5,11T352-5q-42,0-68,87l-23,78L198,51Q165-6 114-6Z"/>
      <glyph unicode="y" glyph-name="y" horiz-adv-x="497" d="M33-233q-26,0-43,12t-17,29q0,32 23,44q22-13 67-13q82,0 144,89q23,35 23,134q0,54-3,109t-9.5,100.5t-18,73.5T170,373q-6,0-16.5-8t-21-19T115,326q-2,0-7.5,9.5T102,349q3,8 16.5,22T150,399.5t36,25T216,435q29,0 49-46t27-138q5-55 7-93t3-68t1-62q26,32 53,77t45.5,92.5T420,285q0,60-25,107q13,43 50,43q44,0 44-79q0-109-86-252Q360,32 309.5-29T208-136t-96.5-71.5T33-233Z"/>
      <glyph unicode="z" glyph-name="z" horiz-adv-x="404" d="M62,0Q50,0 50,26q0,7 75,89q25,28 52.5,58t68,73.5T348,357q-11-10-22-14.5T308,338q-22,0-46.5,9T216,365t-34,9q-15,0-28-15.5t-21.5-32T120,306t-9,3q-2,4-3,8.5t-2,8.5q6,18 21.5,43.5T164,415t41,20q8,0 35.5-6t60-12.5T356,410q18,0 33,12.5T422,435q12,0 12-26q0-1-18-22t-46.5-52.5t-59.5-66t-58-64T210,159L134,77q8,7 21.5,13.5T176,97q25,0 48.5-9T268,70t34-9q16,0 33,22q15,19 20.5,29t9.5,17q3,7 9-3q2-4 3-8t2-8q-6-17-21.5-43.5T321.5,20T279,0q-9,0-36,6.5t-59,13T128,26q-18,0-33-13T62,0Z"/>
      <glyph unicode="{" glyph-name="braceleft" horiz-adv-x="275" d="M118-125q-51,0-83,38T3,12Q3,59 24,99q20,41 40.5,73.5T85,233q0,27-24,40q-13,7-28.5,12.5T13,292v6q0,18 8,31q30,9 52.5,18.5t35,27T121,425q0,10-2,25t-6,36q-9,41-9,63q0,33 13.5,68t38,65.5t58,49T288,750q3,0 3-4q0-6-5-15t-10-10q-8-1-24.5-8T213,692q-22-15-38-45.5T159,577q0-19 6-55q2-18 3.5-32.5T170,464q0-46-15.5-81T116,328.5T71,308q23-1 41-25t18-61q0-41-21-79Q86,103 65,69T44,0q0-25 12-46.5T85-81t32-15q7-1 7-16q0-13-6-13Z"/>
      <glyph unicode="|" glyph-name="bar" horiz-adv-x="203" d="M3-123q-5,0-10,2.5t-4,5.5L158,757q16,16 44,16q5,0 11-2t4-5L49-106q-6-6-19-11.5T3-123Z"/>
      <glyph unicode="}" glyph-name="braceright" horiz-adv-x="268" d="M-14-125q-3,0-3,4q0,6 5.5,15T-1-96q20,2 47.5,20.5T95-25t21,72q0,10-2.5,24T106,102q-10,33-10,59q0,42 16.5,75t41,52.5T200,308q-22,1-38,24t-16,59q0,51 42,127q42,77 42,113q0,25-12,44.5t-28.5,32T157,721q-7,1-7,16q0,13 6,13q52,0 85.5-33.5T275,623q0-38-13-73.5T232,491q-16-22-30-50t-14-51q0-19 12-31q12-13 24-18t35-12q1-1 1-8q0-16-7-29q-15-4-30-8.5T197,274q-22-10-33.5-27.5T152,199q0-18 9-59q4-20 6-35t2-26q0-34-15-70T113.5-57.5T55-106.5T-14-125Z"/>
      <glyph unicode="~" glyph-name="asciitilde" horiz-adv-x="473" d="M329,250q-43,0-105,27q-63,26-106,26q-18,0-35-7q-18-7-26.5-13.5T25,259q-6,6-6,10q0,19 22.5,38.5t55,33T157,354q43,0 104-26q60-27 104-27q16,0 35,8q12,5 19,9t15.5,10T458,345q6-6 6-10q0-16-20-36t-50.5-34.5T329,250Z"/>
      <glyph unicode="&#xa0;" glyph-name="uni00A0" horiz-adv-x="228"/>
      <glyph unicode="&#xa1;" glyph-name="exclamdown" horiz-adv-x="197" d="M150,441q19,0 31.5-13.5T194,394q0-27-21-48t-46-21q-19,0-31,12.5T84,370q0,27 20.5,49T150,441ZM131,280q8,0 6-18q-2-20-7-62t-12-97T103.5-10.5t-15-112T75-216q-3-17-20-35.5T16-270Q1-270-7-257t-8,30q0,14 8.5,53T16-80T46,36T77.5,155T103,258q2,9 12.5,15.5T131,280Z"/>
      <glyph unicode="&#xa2;" glyph-name="cent" horiz-adv-x="362" d="M160-45q-32,0-31,9L143,5Q107,21 88,60.5T69,152q0,51 20,100.5t53,90T214,408t77,27l14,39q33,0 31-8l-12-35q16-4 31-12t23-18q1-4 1.5-9.5T380,379q0-18-11.5-29.5T340,338q-15,0-35,29l-2,3L197,61q12-4 27-4q26,0 58,18t46,42q2,0 5.5-8T338,95q0-11-13.5-27.5T289,34.5T241,7T190-4q-8,0-16,1L160-45ZM143,162q0-25 6-47t20-36L278,395q-3,1-6,1q-21,0-43.5-19t-42-51.5T155,251t-12-89Z"/>
      <glyph unicode="&#xa3;" glyph-name="sterling" horiz-adv-x="438" d="M58-9Q50-9 46.5-2.5T44,10q6,8 14,18.5T76,50l26,32q11,18 24,59.5T149,249l4,30H100q-5,0-2,13q3,16 11,27h50l2,13q5,37 8.5,60t4.5,31q12,63 43,110.5T291.5,608T385,635q49,0 64-37q-3-20-13-39.5T410,539q-18,0-35,27q-16,27-35,27q-33,0-51-21t-27.5-55T244,444q-2-10-6-34.5T228,344l-4-25H357q4,0 3-10q-3-19-20-30H218l-3-21q-7-50-27.5-93T139,84q23,9 69,9q28,0 76-16q47-16 64-16q20,0 31,9.5T397,88q5,6 12.5,16t14,19.5T430,134q9,0 9-17q0-3-2-9Q374-8 305-8q-33,0-90,19q-58,18-80,18Q104,29 58-9Z"/>
      <glyph unicode="&#xa4;" glyph-name="currency" horiz-adv-x="447" d="M332,100l-37,55q-52-35-106-35q-61,0-98,40L32,110q-1-1-4-1q-8,0-16.5,14.5T2,154l60,51q-12,29-12,63q0,87 62,155q-19,29-27,40.5T75.5,478T74,481q0,8 17,21.5T124,520l37-55q47,31 101,31q58,0 96-41l66,55q1,1 4,1q8,0 16.5-14.5T454,466l-67-56q11-31 11-63q0-80-56-148l40-60q0-8-17-21.5T332,100ZM203,152q34,0 62.5,27.5t46,71T329,341q0,53-23,87.5T247,463q-33,0-62-27.5t-47-71T120,273q0-53 23-87t60-34Z"/>
      <glyph unicode="&#xa5;" glyph-name="yen" horiz-adv-x="578" d="M165-3q-3,8-2,13q2,14 7,14q8,0 21,3t25.5,8.5T232,46q7,15 13,38t12,54H171q-5,0-2,13q2,14 11,25h84l8,40H187q-5,0-2,13q3,15 10,25h85q4,10 2,16q0,14-80,262q-5,17-12.5,33T174,594q-6,9-25,15t-31,6q-3,0-1,11q1,11 6,16l48-3q33-3 59-3l118,6q1-5-2-16t-6-11q-16,0-36.5-8T280,583q-2-8 4-29l61-206q5-7 10,2Q516,548 523,584q2,11-13,21q-16,10-43,10q-4,2-1.5,13t6.5,14q6,0 21.5-1.5t33.5-3t30-1.5q18,0 129,6q0-12-1-15q-1-12-6-12q-8,0-27-4t-38-10.5T587,586q-20-26-48.5-63T480,446.5t-56-75t-43-60T363,282l-5-28h85q5,0 2-13q-3-15-10-25H350l-7-40h85q5,0 2-13q-3-15-10-25H335q-12-65-11-92q1-4 11-9.5t22-9T374,24q4,0 2-12q-1-10-5-15q-45,2-69.5,3.5T272,2L165-3Z"/>
      <glyph unicode="&#xa6;" glyph-name="brokenbar" horiz-adv-x="203" d="M102,383q-5,0-10.5,2.5T87,391l70,363q16,16 44,16q5,0 11-2t4-5L147,400q-15-17-45-17ZM3-123q-5,0-10,2.5t-4,5.5L59,248q16,16 44,16q5,0 11-2t4-5L49-106q-6-6-19-11.5T3-123Z"/>
      <glyph unicode="&#xa7;" glyph-name="section" horiz-adv-x="348" d="M82-63Q23-63 9-27Q11,0 22,17T51,34q10,0 16.5-9T80,3.5T95-18t24-9q30,0 52.5,27.5T194,65q0,29-17.5,52.5T134,158L84,193q-25,17-42.5,44T24,298q0,100 84,166v7q-1,3-1,7q0,46 19.5,85.5t56.5,64T272,652q57,0 72-37q-4-60-42-60q-12,0-20.5,15T263,599.5T233,614q-30,0-52.5-26.5T158,523q0-29 17.5-52.5T218,430l50-34q25-18 42.5-45T328,290q0-102-83-165l1-14q0-43-17.5-83t-54-65.5T82-63ZM238,159q38,27 38,76q0,32-21,57.5T208,333t-54,40.5T115,429q-21-16-30-32t-9-43q0-32 21-58t48-41q26-15 54-40.5T238,159Z"/>
      <glyph unicode="&#xa8;" glyph-name="dieresis" horiz-adv-x="279" d="M112,507q-19,0-28,11.5T75,546q0,21 14.5,41T132,607q19,0 27.5-11.5T168,568q0-21-14.5-41T112,507Zm168,0q-19,0-28,11.5T243,546q0,21 14.5,41T300,607q19,0 27.5-11.5T336,568q0-21-14.5-41T280,507Z"/>
      <glyph unicode="&#xa9;" glyph-name="copyright" horiz-adv-x="547" d="M229,69q-60,0-106.5,28T50,174.5T24,286q0,65 26,124t70,105t100,73t116,27q61,0 107-28t72.5-77T542,398q0-64-26-123.5T445.5,169T345,96T229,69Zm7,31q53,0 102,24t89,64.5t63,93T513,391q0,56-23.5,99.5T425,559t-95,25q-52,0-101.5-24t-89-65T77,401.5T54,292q0-55 23-98.5T141.5,125T236,100Zm19,95q-48,0-78.5,31.5T146,307q0,45 22.5,85t60,65.5T309,483q59,0 100-19q2-6 2-8q1-7 1-19.5t0-30.5q0-12-16-12q-4,0-6,2q0,18-17.5,35.5T314,449q-28,0-54-18.5T217.5,382T201,315q0-42 23.5-65T279,227q44,0 63,16q16,13 18.5,18.5T370,279q1,1 4,1l14-4q-2-5-8.5-19.5t-13-27.5T357,214q-45-19-102-19Z"/>
      <glyph unicode="&#xaa;" glyph-name="ordfeminine" horiz-adv-x="320" d="M255,249q-11,0-17.5,10T231,285q0,6 1.5,15.5T236,322l3,19q-9-17-25-38.5T179,265t-38-16q-31,0-51,28T70,344t18,77t48,69t66,49.5T274,558q14,0 28.5-2.5T329,548L289,342q-4-21-4-30q0-16 7-16q8,0 21.5,11T334,326l4,5q2,0 7-7t2-9q-6-10-22-26t-35-28t-35-12Zm-93,45q18,0 38,23t36.5,58T260,445l14,71q-8,9-29,9q-27,0-53.5-25.5t-44-66T130,348q0-54 32-54Z"/>
      <glyph unicode="&#xab;" glyph-name="guillemotleft" horiz-adv-x="465" d="M252,73q-6,9-28,32.5T168,161T91,227q-4,3-4,10q0,18 13,31q54,31 100,62.5T278,387t43,36q19-6 19-16q0-5-3.5-9t-8.5-9q-16-16-31.5-28T269,338q-7-6-23-20.5t-32.5-30t-29-27T170,247l63-90q7-10 17.5-23.5t18.5-25T277,94q0-13-19-18l-6-3Zm167,0q-6,9-28,32.5T335,161t-77,66q-4,3-4,10q0,18 13,31q54,31 100,62.5T445,387t43,36q19-6 19-16q0-5-3.5-9t-8.5-9q-16-16-31.5-28T436,338q-7-6-23-20.5t-32.5-30t-29-27T337,247l63-90q7-10 17.5-23.5t18.5-25T444,94q0-13-19-18l-6-3Z"/>
      <glyph unicode="&#xac;" glyph-name="logicalnot" horiz-adv-x="474" d="M374,160q-6,0-10.5,2t-3.5,6l37,186q2,10-10,10H22q-3,12-3,18q0,13 7,25.5T40,420H454q11,0 9-11L416,169q-9-9-42-9Z"/>
      <glyph unicode="&#xae;" glyph-name="registered" horiz-adv-x="547" d="M236,133q-105,0-164,81q-30,40-39,90t1.5,103T73,510t73,90q91,80 196,80q70,0 120.5-37t73-98.5T544,407q-11-57-40.5-106.5t-72-87t-92.5-59T236,133Zm7,32q92,0 172,71q54,48 80.5,109.5t24,123.5T482,578q-52,70-145,70q-62,0-119-32.5t-98-87T66,407q-13-66 6.5-121t64-88T243,165ZM146,272q-2,9 2,13q12,2 18.5,3t9.5,6t4.5,12.5T185,330l33,169q2,11 3,18t1,11q0,6-7.5,9.5T200,541q-2,0-2,2l3,10q3,0 8,0t12-1q15-1 22-1.5t15,0t22,1.5q11,1 19,1.5t15,0.5q31,0 52.5-16T388,493q0-46-58-79q0-12 8.5-32.5T361,333q12-22 21.5-34.5T408,286q0-5-2-11q-6-3-18-3q-42,0-60,22q-20,23-51,104q-3,9-17,9q-11,0-13-8l-17-89V299q0-6 3-8q12-6 19-6q1,0 1-3l-2-10q-19,1-31.5,1.5T201,274q-7,0-20.5-0.5T146,272ZM292,428q23,0 36.5,19T342,491q0,38-38,38q-33,0-34-10l-16-79q0-12 38-12Z"/>
      <glyph unicode="&#xaf;" glyph-name="macron" horiz-adv-x="353" d="M71,534q0,0-1,0.5T67,536q-1,3 0,7q0,3 3,12t7.5,17t8.5,8H279q5,0 4-7q-2-10-12-32l-8-7H71Z"/>
      <glyph unicode="&#xb0;" glyph-name="degree" horiz-adv-x="201" d="M89,437q-33,0-54,23T14,517q0,32 16.5,58.5T73,618t53,16q33,0 54-22.5T201,555q0-30-16.5-57t-42-44T89,437Zm7,37q26,0 47.5,22.5T165,548q0,21-12.5,35T119,597q-27,0-48-21.5T50,524q0-21 12.5-35.5T96,474Z"/>
      <glyph unicode="&#xb1;" glyph-name="plusminus" horiz-adv-x="497" d="M217,123q-5,0-11,2.5t-4,6.5l36,196q0,5-4,5H55q-5,0-5,9q0,19 22,47H250q4,0 4,4q3,14 7,37t9,54t9,55t8,42q2,6 13,10t24,6t19,2q12,0 10-9q-11-67-20-116t-15-80q-2-5 3-5H502q4,0 4-9q0-24-21-47H306q-4,0-4-4L267,141q-1-8-18-13t-32-5ZM-3,36q-5,0-5,9q0,19 22,47H444q4,0 4-9q0-24-21-47H-3Z"/>
      <glyph unicode="&#xb2;" glyph-name="uni00B2" horiz-adv-x="323" d="M69,366q-8,5-8,17q0,9 6,16l44,41q15,14 43.5,41t58,59t50,63.5T283,657q0,20-11.5,34.5T237,706q-17,0-39-11.5T161,666q-2-2-4-2q-3,0-7,8.5T147,687l1,8q24,26 59.5,45T274,759q37,0 60-24t23-60q0-28-15.5-59T302,557.5T252,510q-25-20-49.5-38t-40-31T147,423q0-1 1-1H275q20,0 28.5,9T316,449t7,9q8,2 12,0.5t5-2.5q-1-1-10.5-23.5T303,366H69Z"/>
      <glyph unicode="&#xb3;" glyph-name="uni00B3" horiz-adv-x="252" d="M94,355q-27,0-48,8.5T22,381q1,17 11.5,30.5T57,425t30-17t33-17q40,0 70,31.5T220,500q0,52-48,52q-4,0-49-6q-5,8-5,14q0,13 11,16q56,12 79,41.5T231,670q0,16-12,25t-29,9q-20,0-46-19t-29-19q-2,0-4.5,8T109,701q51,54 120,54q26,0 47-17.5T297,691q0-34-22-55.5T227,598l-10-6q15,0 31.5-10t28-28.5T288,511q0-40-27-75.5t-71-58T94,355Z"/>
      <glyph unicode="&#xb4;" glyph-name="acute" horiz-adv-x="216" d="M74,494q-2,0-4.5,4T67,506q0,3 12,18.5t30.5,36t38,40T182,632q8,5 26,5q39,0 39-24q0-9-16-23.5t-40-31t-49-31t-44-24T74,494Z"/>
      <glyph unicode="&#xb5;" glyph-name="uni00B5" horiz-adv-x="428" d="M43-221q-14,0-26.5,25T4-133Q4-60 87,204q3,18 8.5,46.5t11,60t11,60T127,417q15,20 27,20q6,0 17-6.5T190.5,415t6.5-15q-3-17-17-56t-37-98l-9-23q-14-60-11-109q2-50 25-50q75,0 162,158l54,203q2,12 15,12q6,0 17-6.5T415.5,415t6.5-15q-2-16-16.5-54T367,246l-9-23Q324,67 379,67q29,0 59,30q3,0 7-10q2-6 0-11q-16-33-45.5-56.5T342-4q-30,2-36,36q-6,32-1,96Q221-9 138-9q-25,0-36,31q-2,8-5.5,24.5T93,76Q88,46 82,15T72-43q-3-24-3.5-53t4-55.5T87-194q-1-10-15.5-18.5T43-221Z"/>
      <glyph unicode="&#xb6;" glyph-name="paragraph" horiz-adv-x="432" d="M113-4q0,8 2.5,17.5T121,23q6,0 20,3.5t27,9T182,45q5,14 11.5,41T207,144.5t12.5,62t9.5,52t4,27.5q0,5-18,5q-42,0-70.5,20.5t-43,54.5T87,438q0,40 17,78t45.5,69T213,634t71,18q10,0 31-1t42.5-2t30.5-1l105,5q1-1 1-7q0-22-7-22t-20.5-2.5t-25-7T427,604q-4-9-12-46.5t-17.5-92T376,349q0-3 4-3l41,8q1-2 1-8q0-24-23-30q-22-6-27-8.5t-5-3.5q-3-13-8-42t-11.5-63.5t-12-67.5t-9-56T323,47q0-7 11.5-12.5T360,26t20-3q2,0 2-5q0-18-7-22q-10,1-37.5,2T279,0.5T225,2q-31,0-62-2T113-4ZM292,332l36,6q5,0 6,6q47,247 47,257q0,3-6,6.5T362,611q-20,0-23-12q-26-127-40-192.5T285,337q0-6 7-5ZM252,36q7,0 13.5,4.5T273,50q6,25 18.5,86.5T323,295q0,4-2,4q-1,0-11-2t-27-4q-5,0-7-7L232,47q-2-11 20-11Z"/>
      <glyph unicode="&#xb7;" glyph-name="periodcentered" horiz-adv-x="131" d="M63,206q-19,0-31.5,13.5T19,253q0,27 21,48t46,21q19,0 31-12.5T129,277q0-27-20.5-49T63,206Z"/>
      <glyph unicode="&#xb8;" glyph-name="cedilla" horiz-adv-x="405" d="M45,0L20-27H48q21,0 31.5-17T85-85q-8-40-42.5-64.5T-36-174q-24,0-35,10v17q2,6 7.5,11t10.5,5q9,0 17-7.5t21-7.5q22,0 37,11.5T40-107q2,10-1,22T23.5-68T-17-75q-2,0-6,6t-2,9q2,2 11.5,14T7-20T22,0H45Z"/>
      <glyph unicode="&#xb9;" glyph-name="uni00B9" horiz-adv-x="243" d="M74,367q-2,2-2,6q0,18 7,18q10,0 29,5t22,10q10,17 16,48l34,173q2,13 3.5,23t1.5,17q0,16-10,16q-2,0-47-15q-2,2-4.5,3.5T119,677q-5,8 1,12q2,1 27,13t58.5,29.5T267,766h4q6,0 6-24q-9-20-15-40t-10-40L210,454q-4-17-4-23.5t2-23.5q1-3 10-6.5t20-6t15-2.5q2,0 2-6q0-14-4-19q-22,0-44.5,1.5T161,370q-22,0-43.5-1.5T74,367Z"/>
      <glyph unicode="&#xba;" glyph-name="ordmasculine" horiz-adv-x="308" d="M176,250q-42,0-64,27.5T90,355q0,36 14,72t36.5,65.5T190,540t54,18q41,0 63.5-29T330,450q0-36-14-71.5T279,314t-50-46.5T176,250Zm14,42q22,0 40,23t29,57.5T270,441q0,76-37,76q-21,0-40-23.5T162,436t-12-68q0-37 11.5-56.5T190,292Z"/>
      <glyph unicode="&#xbb;" glyph-name="guillemotright" horiz-adv-x="465" d="M76,73Q58,79 58,88q0,5 3.5,9.5T69,108q2,3 14,12.5T108,141t18,16l99,90l-29,43q-13,18-21.5,30T161,338q-44,58-44,62q0,12 26,23q6-11 28.5-36.5t57-56.5T303,268q5-8 5-16q0-20-12-25Q137,129 76,73Zm167,0q-18,6-18,15q0,5 3.5,9.5T236,108q2,3 14,12.5T275,141t18,16l99,90l-29,43q-13,18-21.5,30T328,338q-44,58-44,62q0,12 26,23q6-11 28.5-36.5t57-56.5T470,268q5-8 5-16q0-20-12-25Q304,129 243,73Z"/>
      <glyph unicode="&#xbc;" glyph-name="onequarter" horiz-adv-x="683" d="M52,253q-2,2-2,6q0,18 7,18q10,0 29,5t22,10q10,17 16,48l34,173q2,13 3.5,23t1.5,17q0,16-10,16q-2,0-47-15q-2,2-4.5,3.5T97,563q-5,8 1,12q2,1 27,13t58.5,29.5T245,652h4q6,0 6-24q-9-20-15-40t-10-40L188,340q-4-17-4-23.5t2-23.5q1-3 10-6.5t20-6t15-2.5q2,0 2-6q0-14-4-19q-22,0-44.5,1.5T139,256q-22,0-43.5-1.5T52,253ZM165-14q-13,0-23,6.5T132,4q0,3 4,10L581,642q14-2 23-8t9-11q0-3-2-5L165-14Zm357,4q-38,0-36,9l20,108v1q0,2-3,2H364q-7,11-7,26L588,385q7,7 15,7q24,0 23-7L581,157v-1q0-3 4-3h24q9,0 9-7q0-28-11-36H575q-2,0-4-5L549-5q-12-5-27-5ZM510,153q4,0 6,5l26,129q0,4-3,4L417,161q-1-1-1-3q0-5 3-5h91Z"/>
      <glyph unicode="&#xbd;" glyph-name="onehalf" horiz-adv-x="705" d="M52,253q-2,2-2,6q0,18 7,18q10,0 29,5t22,10q10,17 16,48l34,173q2,13 3.5,23t1.5,17q0,16-10,16q-2,0-47-15q-2,2-4.5,3.5T97,563q-5,8 1,12q2,1 27,13t58.5,29.5T245,652h4q6,0 6-24q-9-20-15-40t-10-40L188,340q-4-17-4-23.5t2-23.5q1-3 10-6.5t20-6t15-2.5q2,0 2-6q0-14-4-19q-22,0-44.5,1.5T139,256q-22,0-43.5-1.5T52,253ZM165-14q-13,0-23,6.5T132,4q0,3 4,10L581,642q14-2 23-8t9-11q0-3-2-5L165-14ZM380,0q-8,5-8,17q0,9 6,16l44,41q15,14 43.5,41t58,59t50,63.5T594,291q0,20-11.5,34.5T548,340q-17,0-39-11.5T472,300q-2-2-4-2q-3,0-7,8.5T458,321l1,8q24,26 59.5,45T585,393q37,0 60-24t23-60q0-28-15.5-59T613,191.5T563,144q-25-20-49.5-38t-40-31T458,57q0-1 1-1H586q20,0 28.5,9T627,83t7,9q8,2 12,0.5t5-2.5q-1-1-10.5-23.5T614,0H380Z"/>
      <glyph unicode="&#xbe;" glyph-name="threequarters" horiz-adv-x="692" d="M72,242q-27,0-48,8.5T0,268q1,17 11.5,30.5T35,312t30-17t33-17q40,0 70,31.5T198,387q0,52-48,52q-4,0-49-6q-5,8-5,14q0,13 11,16q56,12 79,41.5T209,557q0,16-12,25t-29,9q-20,0-46-19T93,553q-2,0-4.5,8T87,588q51,54 120,54q26,0 47-17.5T275,578q0-34-22-55.5T205,485l-10-6q15,0 31.5-10t28-28.5T266,398q0-40-27-75.5t-71-58T72,242ZM174-14q-13,0-23,6.5T141,4q0,3 4,10L590,642q14-2 23-8t9-11q0-3-2-5L174-14Zm357,4q-38,0-36,9l20,108v1q0,2-3,2H373q-7,11-7,26L597,385q7,7 15,7q24,0 23-7L590,157v-1q0-3 4-3h24q9,0 9-7q0-28-11-36H584q-2,0-4-5L558-5q-12-5-27-5ZM519,153q4,0 6,5l26,129q0,4-3,4L426,161q-1-1-1-3q0-5 3-5h91Z"/>
      <glyph unicode="&#xbf;" glyph-name="questiondown" horiz-adv-x="277" d="M222,437q19,0 31.5-13.5T266,390q0-27-21-48t-46-21q-19,0-31,12.5T156,366q0,27 20.5,49T222,437ZM150,243q16,0 39-14.5T230,192t18-47q0-53-42-83L87-22Q40-55 40-93q0-29 14.5-44.5T94-153q23,0 41,23q20,24 37,24q34,0 34-52q-5-14-27-31.5T132-207q-40,0-73,18.5T6.5-140T-13-78q0,26 6,50.5T23,19Q56,46 87,65t59,38q33,23 33,60q0,19-13,37t-26,27q0,10 10,16Z"/>
      <glyph unicode="&#xc0;" glyph-name="Agrave" horiz-adv-x="619" d="M-22-3q-2,2-2,8q0,19 7,19q11,0 30.5,6T41,45q22,23 61,94L378,635q15,27 39,27q2,0 8-2l83-528l12-72q2-10 13.5-18t25-13T578,24q2,0 2-5q0-10-5-22q-46,2-72.5,3.5T471,2q-34,0-61-1.5T364-3q-1,1-1,6q0,21 7,21q10,0 28,6t23,14q7,14 7,47q0,18-18,148q0,7-12,8q-13,1-32,1.5T309,249q-10,0-33.5-1T216,244q-2,0-12.5-16.5t-25-41t-28-51.5T128,86.5T119,55t10-17t23-10.5T174,24q2,0 2-6q0-9-5-21L76,2Q50,4 25.5,1.5T-22-3ZM246,299q17,0 46-0.5t58.5,0T397,300q4,0 4,4q-7,48-15.5,103.5T368,526Q245,303 245,301t1-2ZM460,711q-9,0-35,8t-55,20.5T320,764t-21,21q0,10 16,17q14,7 42,7q9,0 17-2q12-7 28.5-20.5t32.5-27T462,735t11-14q0-10-13-10Z"/>
      <glyph unicode="&#xc1;" glyph-name="Aacute" horiz-adv-x="619" d="M-22-3q-2,2-2,8q0,19 7,19q11,0 30.5,6T41,45q22,23 61,94L378,635q15,27 39,27q2,0 8-2l83-528l12-72q2-10 13.5-18t25-13T578,24q2,0 2-5q0-10-5-22q-46,2-72.5,3.5T471,2q-34,0-61-1.5T364-3q-1,1-1,6q0,21 7,21q10,0 28,6t23,14q7,14 7,47q0,18-18,148q0,7-12,8q-13,1-32,1.5T309,249q-10,0-33.5-1T216,244q-2,0-12.5-16.5t-25-41t-28-51.5T128,86.5T119,55t10-17t23-10.5T174,24q2,0 2-6q0-9-5-21L76,2Q50,4 25.5,1.5T-22-3ZM246,299q17,0 46-0.5t58.5,0T397,300q4,0 4,4q-7,48-15.5,103.5T368,526Q245,303 245,301t1-2ZM393,711q-13,0-13,10q0,3 11,14t27,24.5t32.5,27T479,807q8,2 17,2q28,0 43-7t15-17q0-9-21-21t-50-24.5T428,719t-35-8Z"/>
      <glyph unicode="&#xc2;" glyph-name="Acircumflex" horiz-adv-x="619" d="M-22-3q-2,2-2,8q0,19 7,19q11,0 30.5,6T41,45q22,23 61,94L378,635q15,27 39,27q2,0 8-2l83-528l12-72q2-10 13.5-18t25-13T578,24q2,0 2-5q0-10-5-22q-46,2-72.5,3.5T471,2q-34,0-61-1.5T364-3q-1,1-1,6q0,21 7,21q10,0 28,6t23,14q7,14 7,47q0,18-18,148q0,7-12,8q-13,1-32,1.5T309,249q-10,0-33.5-1T216,244q-2,0-12.5-16.5t-25-41t-28-51.5T128,86.5T119,55t10-17t23-10.5T174,24q2,0 2-6q0-9-5-21L76,2Q50,4 25.5,1.5T-22-3ZM246,299q17,0 46-0.5t58.5,0T397,300q4,0 4,4q-7,48-15.5,103.5T368,526Q245,303 245,301t1-2Zm59,429q-12,0-6,20q13,13 33.5,25.5T376,804q17,12 31,23.5T431,850q10,8 13,8q8,0 11-8q9-16 17-28t15-20q22-23 38.5-37.5T542,748q-6-20-15-20q-20,0-99,58q-20-12-46.5-25.5t-48.5-23T305,728Z"/>
      <glyph unicode="&#xc3;" glyph-name="Atilde" horiz-adv-x="619" d="M-22-3q-2,2-2,8q0,19 7,19q11,0 30.5,6T41,45q22,23 61,94L378,635q15,27 39,27q2,0 8-2l83-528l12-72q2-10 13.5-18t25-13T578,24q2,0 2-5q0-10-5-22q-46,2-72.5,3.5T471,2q-34,0-61-1.5T364-3q-1,1-1,6q0,21 7,21q10,0 28,6t23,14q7,14 7,47q0,18-18,148q0,7-12,8q-13,1-32,1.5T309,249q-10,0-33.5-1T216,244q-2,0-12.5-16.5t-25-41t-28-51.5T128,86.5T119,55t10-17t23-10.5T174,24q2,0 2-6q0-9-5-21L76,2Q50,4 25.5,1.5T-22-3ZM246,299q17,0 46-0.5t58.5,0T397,300q4,0 4,4q-7,48-15.5,103.5T368,526Q245,303 245,301t1-2ZM503,728q-31,0-75,27q-44,26-76,26q-16,0-42-22t-28-22q-8,0-3,17q3,15 23,38q39,40 80,40q31,0 75-26q44-27 75-27q18,0 31.5,11T587,812t14,11q8,0 3-17q-3-16-23-39q-36-39-78-39Z"/>
      <glyph unicode="&#xc4;" glyph-name="Adieresis" horiz-adv-x="619" d="M-22-3q-2,2-2,8q0,19 7,19q11,0 30.5,6T41,45q22,23 61,94L378,635q15,27 39,27q2,0 8-2l83-528l12-72q2-10 13.5-18t25-13T578,24q2,0 2-5q0-10-5-22q-46,2-72.5,3.5T471,2q-34,0-61-1.5T364-3q-1,1-1,6q0,21 7,21q10,0 28,6t23,14q7,14 7,47q0,18-18,148q0,7-12,8q-13,1-32,1.5T309,249q-10,0-33.5-1T216,244q-2,0-12.5-16.5t-25-41t-28-51.5T128,86.5T119,55t10-17t23-10.5T174,24q2,0 2-6q0-9-5-21L76,2Q50,4 25.5,1.5T-22-3ZM246,299q17,0 46-0.5t58.5,0T397,300q4,0 4,4q-7,48-15.5,103.5T368,526Q245,303 245,301t1-2ZM500,729q-19,0-28.5,12T462,769q0,21 15,40.5T519,829q20,0 29-11.5t9-28.5q0-21-15-40.5T500,729Zm-169,0q-19,0-27.5,11.5T295,768q0,21 14.5,41T351,829q20,0 28.5-11.5T388,790q0-21-14.5-41T331,729Z"/>
      <glyph unicode="&#xc5;" glyph-name="Aring" horiz-adv-x="619" d="M-22-3q-2,2-2,8q0,19 7,19q11,0 30.5,6T41,45q22,23 61,94L378,635q15,27 39,27q2,0 8-2l83-528l12-72q2-10 13.5-18t25-13T578,24q2,0 2-5q0-10-5-22q-46,2-72.5,3.5T471,2q-34,0-61-1.5T364-3q-1,1-1,6q0,21 7,21q10,0 28,6t23,14q7,14 7,47q0,18-18,148q0,7-12,8q-13,1-32,1.5T309,249q-10,0-33.5-1T216,244q-2,0-12.5-16.5t-25-41t-28-51.5T128,86.5T119,55t10-17t23-10.5T174,24q2,0 2-6q0-9-5-21L76,2Q50,4 25.5,1.5T-22-3ZM246,299q17,0 46-0.5t58.5,0T397,300q4,0 4,4q-7,48-15.5,103.5T368,526Q245,303 245,301t1-2ZM401,656q-31,0-53.5,21.5T325,733q0,27 14,49t36.5,35.5T423,831q32,0 53.5-22T498,755q0-43-28-71t-69-28Zm3,32q26,0 43,18.5T464,752q0,20-12,33.5T420,799q-23,0-41.5-19T360,735q0-21 12.5-34T404,688Z"/>
      <glyph unicode="&#xc6;" glyph-name="AE" horiz-adv-x="847" d="M795-4Q742-4 652-1q-45,2-77.5,3T522,2L396-3q-1,1-1,6q0,8 3,18t6,10q8,0 24.5,3T460,41.5T477,50q4,6 8,17.5T492,95q3,17 5,31.5t5,37.5q5,47 7,77t3,44q0,8-6,8l-68,1q-20,0-37,0t-30-1q-3,0-6-3L256,131q-22-32-33.5-52.5T211,50q0-6 9.5-12t22-10T262,24q1,0 1-2q0-10-9-25L160,2q-25,2-49-0.5T64-3q-1,1-1,6q0,6 3,13.5T72,24q10,0 30.5,6T132,45q20,17 39.5,41T211,139L523,586q5,8 5,15q0,24-30,24q-3,0-3,5q0,16 10,26h87q21,0 57,1t88,3t90.5,3t64.5,1l-4-65q-1-22-2.5-39.5T883,530q-5-5-17-5t-12,7q-2,56-30,72q-13,8-25,10t-27,2H713q-78,0-82-13q-8-26-15-98L601,347v-1q0-6 31-6h33q40,0 58.5,3t28,16T774,402l4,9q3,7 15,7t15-5q-8-31-14.5-79T782,221q-5-4-15-4q-12,0-13,7q-1,14-2.5,33.5T737,288q-11,8-100,8q-40,0-41-10L580,111q-2-22-3.5-34T575,63q0-13 16.5-16T636,44q50,0 80,4.5T763,61q30,16 70,101q3,6 15,6q17,0 21-6Q818,64 795-4ZM454,339q20,0 34.5,0.5T513,341l6,5l21,201L400,344q-2-4 1-4q10-1 23-1t30,0Z"/>
      <glyph unicode="&#xc7;" glyph-name="Ccedilla" horiz-adv-x="580" d="M321-6Q242-6 183,31.5t-91,100T60,267q0,66 29.5,137.5T168,534q49,59 120.5,96T437,667q68,0 213-45L630,498q-3-15-24-15q-8,0-11,3q0,15-1,27t-10,35q-14,37-52,57T432,625q-51,0-101-29.5T240,515T175,398T151,259q0-64 23.5-114t68-79T350,37q74,0 126,33q24,15 40.5,34.5t26.5,34T556,153t12-10.5t8-14.5q-46-87-50-91q-10-11-42.5-21t-76-16T321-6ZM301,0L276-27h28q21,0 31.5-17T341-85q-8-40-42.5-64.5T220-174q-24,0-35,10v17q2,6 7.5,11t10.5,5q9,0 17-7.5t21-7.5q22,0 37,11.5T296-107q2,10-1,22T279.5-68T239-75q-2,0-6,6t-2,9q2,2 11.5,14T263-20T278,0h23Z"/>
      <glyph unicode="&#xc8;" glyph-name="Egrave" horiz-adv-x="544" d="M452-4q-17,0-49,1T332.5-1t-77,2T185,2.5T136,2L25-3q-1,1-1,8q0,19 5,19q8,0 23,4t28.5,9.5T96,49q14,30 26,93l72,372q7,35 9.5,58.5T205,607q0,6-11,11.5t-24,9T149,631q-2,0-2,4q0,16 7,23q23-1 49.5-1.5T261,656q20,0 55.5,1t85.5,3t88,3t64,1q-1-9-1-30.5t0.5-45t1-41T555,528q-5-5-18-5q-12,0-12,7q-3,56-26,71t-73,15H372q-72,0-76-13q-11-31-18-67L246,361q0-5 8-6.5t29-1.5h45q33,0 52,1.5t30,8t19,21T449,424q3,7 14,7q12,0 15-5L441,234q-5-4-14-4q-14,0-14,8q-1,24-3.5,41T398,301q-5,3-29,5.5T301,309q-66,0-68-9L204,152q-5-26-7.5-48T193,65q-1-20 24.5-20.5T299,44q44,0 73.5,4T423,64t38.5,35.5T498,162q3,6 15,6q17,0 21-6Q464,33 452-4ZM423,711q-9,0-35,8t-55,20.5T283,764t-21,21q0,10 16,17q14,7 42,7q9,0 17-2q12-7 28.5-20.5t32.5-27T425,735t11-14q0-10-13-10Z"/>
      <glyph unicode="&#xc9;" glyph-name="Eacute" horiz-adv-x="544" d="M452-4q-17,0-49,1T332.5-1t-77,2T185,2.5T136,2L25-3q-1,1-1,8q0,19 5,19q8,0 23,4t28.5,9.5T96,49q14,30 26,93l72,372q7,35 9.5,58.5T205,607q0,6-11,11.5t-24,9T149,631q-2,0-2,4q0,16 7,23q23-1 49.5-1.5T261,656q20,0 55.5,1t85.5,3t88,3t64,1q-1-9-1-30.5t0.5-45t1-41T555,528q-5-5-18-5q-12,0-12,7q-3,56-26,71t-73,15H372q-72,0-76-13q-11-31-18-67L246,361q0-5 8-6.5t29-1.5h45q33,0 52,1.5t30,8t19,21T449,424q3,7 14,7q12,0 15-5L441,234q-5-4-14-4q-14,0-14,8q-1,24-3.5,41T398,301q-5,3-29,5.5T301,309q-66,0-68-9L204,152q-5-26-7.5-48T193,65q-1-20 24.5-20.5T299,44q44,0 73.5,4T423,64t38.5,35.5T498,162q3,6 15,6q17,0 21-6Q464,33 452-4ZM356,711q-13,0-13,10q0,3 11,14t27,24.5t32.5,27T442,807q8,2 17,2q28,0 43-7t15-17q0-9-21-21t-50-24.5T391,719t-35-8Z"/>
      <glyph unicode="&#xca;" glyph-name="Ecircumflex" horiz-adv-x="544" d="M452-4q-17,0-49,1T332.5-1t-77,2T185,2.5T136,2L25-3q-1,1-1,8q0,19 5,19q8,0 23,4t28.5,9.5T96,49q14,30 26,93l72,372q7,35 9.5,58.5T205,607q0,6-11,11.5t-24,9T149,631q-2,0-2,4q0,16 7,23q23-1 49.5-1.5T261,656q20,0 55.5,1t85.5,3t88,3t64,1q-1-9-1-30.5t0.5-45t1-41T555,528q-5-5-18-5q-12,0-12,7q-3,56-26,71t-73,15H372q-72,0-76-13q-11-31-18-67L246,361q0-5 8-6.5t29-1.5h45q33,0 52,1.5t30,8t19,21T449,424q3,7 14,7q12,0 15-5L441,234q-5-4-14-4q-14,0-14,8q-1,24-3.5,41T398,301q-5,3-29,5.5T301,309q-66,0-68-9L204,152q-5-26-7.5-48T193,65q-1-20 24.5-20.5T299,44q44,0 73.5,4T423,64t38.5,35.5T498,162q3,6 15,6q17,0 21-6Q464,33 452-4ZM268,728q-12,0-6,20q13,13 33.5,25.5T339,804q17,12 31,23.5T394,850q10,8 13,8q8,0 11-8q9-16 17-28t15-20q22-23 38.5-37.5T505,748q-6-20-15-20q-20,0-99,58q-20-12-46.5-25.5t-48.5-23T268,728Z"/>
      <glyph unicode="&#xcb;" glyph-name="Edieresis" horiz-adv-x="544" d="M452-4q-17,0-49,1T332.5-1t-77,2T185,2.5T136,2L25-3q-1,1-1,8q0,19 5,19q8,0 23,4t28.5,9.5T96,49q14,30 26,93l72,372q7,35 9.5,58.5T205,607q0,6-11,11.5t-24,9T149,631q-2,0-2,4q0,16 7,23q23-1 49.5-1.5T261,656q20,0 55.5,1t85.5,3t88,3t64,1q-1-9-1-30.5t0.5-45t1-41T555,528q-5-5-18-5q-12,0-12,7q-3,56-26,71t-73,15H372q-72,0-76-13q-11-31-18-67L246,361q0-5 8-6.5t29-1.5h45q33,0 52,1.5t30,8t19,21T449,424q3,7 14,7q12,0 15-5L441,234q-5-4-14-4q-14,0-14,8q-1,24-3.5,41T398,301q-5,3-29,5.5T301,309q-66,0-68-9L204,152q-5-26-7.5-48T193,65q-1-20 24.5-20.5T299,44q44,0 73.5,4T423,64t38.5,35.5T498,162q3,6 15,6q17,0 21-6Q464,33 452-4Zm11,733q-19,0-28.5,12T425,769q0,21 15,40.5T482,829q20,0 29-11.5t9-28.5q0-21-15-40.5T463,729Zm-169,0q-19,0-27.5,11.5T258,768q0,21 14.5,41T314,829q20,0 28.5-11.5T351,790q0-21-14.5-41T294,729Z"/>
      <glyph unicode="&#xcc;" glyph-name="Igrave" horiz-adv-x="323" d="M14-3q-2,2-2,8q0,19 7,19q8,0 22.5,3t27,8T83,46q8,17 14,41t12,55l71,370q5,28 8,50.5t3,41.5q0,8-10.5,14T157,627.5T135,631q-2,0-2,5q0,14 8,22q8,0 27.5-1.5t42-3T249,652q11,0 33,1.5t43.5,3T355,658v-3q0-24-7-24q-5,0-19.5-4T301,618t-15-10q-14-30-26-93L189,139q-5-28-8-50.5T178,49q0-8 15.5-14.5T232,24q2,0 2-4q0-11-6-23q-46,2-72,3.5T124,2L14-3ZM303,711q-9,0-35,8t-55,20.5T163,764t-21,21q0,10 16,17q14,7 42,7q9,0 17-2q12-7 28.5-20.5t32.5-27T305,735t11-14q0-10-13-10Z"/>
      <glyph unicode="&#xcd;" glyph-name="Iacute" horiz-adv-x="323" d="M14-3q-2,2-2,8q0,19 7,19q8,0 22.5,3t27,8T83,46q8,17 14,41t12,55l71,370q5,28 8,50.5t3,41.5q0,8-10.5,14T157,627.5T135,631q-2,0-2,5q0,14 8,22q8,0 27.5-1.5t42-3T249,652q11,0 33,1.5t43.5,3T355,658v-3q0-24-7-24q-5,0-19.5-4T301,618t-15-10q-14-30-26-93L189,139q-5-28-8-50.5T178,49q0-8 15.5-14.5T232,24q2,0 2-4q0-11-6-23q-46,2-72,3.5T124,2L14-3ZM236,711q-13,0-13,10q0,3 11,14t27,24.5t32.5,27T322,807q8,2 17,2q28,0 43-7t15-17q0-9-21-21t-50-24.5T271,719t-35-8Z"/>
      <glyph unicode="&#xce;" glyph-name="Icircumflex" horiz-adv-x="323" d="M14-3q-2,2-2,8q0,19 7,19q8,0 22.5,3t27,8T83,46q8,17 14,41t12,55l71,370q5,28 8,50.5t3,41.5q0,8-10.5,14T157,627.5T135,631q-2,0-2,5q0,14 8,22q8,0 27.5-1.5t42-3T249,652q11,0 33,1.5t43.5,3T355,658v-3q0-24-7-24q-5,0-19.5-4T301,618t-15-10q-14-30-26-93L189,139q-5-28-8-50.5T178,49q0-8 15.5-14.5T232,24q2,0 2-4q0-11-6-23q-46,2-72,3.5T124,2L14-3ZM148,728q-12,0-6,20q13,13 33.5,25.5T219,804q17,12 31,23.5T274,850q10,8 13,8q8,0 11-8q9-16 17-28t15-20q22-23 38.5-37.5T385,748q-6-20-15-20q-20,0-99,58q-20-12-46.5-25.5t-48.5-23T148,728Z"/>
      <glyph unicode="&#xcf;" glyph-name="Idieresis" horiz-adv-x="323" d="M14-3q-2,2-2,8q0,19 7,19q8,0 22.5,3t27,8T83,46q8,17 14,41t12,55l71,370q5,28 8,50.5t3,41.5q0,8-10.5,14T157,627.5T135,631q-2,0-2,5q0,14 8,22q8,0 27.5-1.5t42-3T249,652q11,0 33,1.5t43.5,3T355,658v-3q0-24-7-24q-5,0-19.5-4T301,618t-15-10q-14-30-26-93L189,139q-5-28-8-50.5T178,49q0-8 15.5-14.5T232,24q2,0 2-4q0-11-6-23q-46,2-72,3.5T124,2L14-3ZM343,729q-19,0-28.5,12T305,769q0,21 15,40.5T362,829q20,0 29-11.5t9-28.5q0-21-15-40.5T343,729Zm-169,0q-19,0-27.5,11.5T138,768q0,21 14.5,41T194,829q20,0 28.5-11.5T231,790q0-21-14.5-41T174,729Z"/>
      <glyph unicode="&#xd0;" glyph-name="Eth" horiz-adv-x="668" d="M25-3q-1,1-1,8q0,19 5,19q8,0 23,4t28.5,9.5T96,49q14,30 26,93l33,171H100q-5,0-5,13q0,18 6,27h62l31,161q7,35 9.5,58.5T205,607q0,6-11,11.5t-24,9T149,631q-2,0-2,4q0,16 7,23q23-1 49.5-1.5T261,656q21,0 51.5,0.5t61,1T424,658q87,0 145.5-33T658,535t30-130q0-69-26.5-140.5T584,132T460,34T294-3q-20,0-49.5,1.5T186,1.5T136,2L25-3ZM317,43q67,0 119.5,32t89,85.5T581,280t19,134q0,88-44,144T422,614q-107,0-120-16q-8-10-14.5-30T275,519L243,353H446q6,0 6-10q0-16-6-30H235L202,139q-7-34-5.5-51T201,63q9-20 116-20Z"/>
      <glyph unicode="&#xd1;" glyph-name="Ntilde" horiz-adv-x="690" d="M546-8q-14,0-26,23q-1,1-246,566L185,141q-10-47-10-89q0-8 16-15t32-10l17-3q2,0 2-5q0-10-5-22q-46,2-72,3.5T133,2L23-3q-2,2-2,8q0,19 7,19q8,0 25.5,3.5T87,37t18,11q5,11 12.5,35T132,144l77,372q9,44 9,90q0,8-12.5,13.5T177,628t-27,3q-2,0-2,7q0,16 7,20q39-2 64-3t35-1q9,0 32.5,1t61.5,3q8-30 27-81.5T421,461t58-131t61-127q4,10 6.5,20.5T551,244l51,269q6,32 9.5,55.5T615,605q0,8-13.5,14t-30,9T545,631q-2,0-2,7q0,16 7,20l105-5q7,0 34.5,1.5T764,658q0-27-6-27t-24.5-3.5t-35-8.5T680,609q-7-16-13-39t-12-54L580,136q-3-16-6.5-35.5T566,56t-6.5-40T556-4q-4-4-10-4Zm-9,736q-31,0-75,27q-44,26-76,26q-16,0-42-22t-28-22q-8,0-3,17q3,15 23,38q39,40 80,40q31,0 75-26q44-27 75-27q18,0 31.5,11T621,812t14,11q8,0 3-17q-3-16-23-39q-36-39-78-39Z"/>
      <glyph unicode="&#xd2;" glyph-name="Ograve" horiz-adv-x="650" d="M291-10q-71,0-124.5,35T84,121T55,259q0,74 29.5,146.5T166,537t119,94.5T427,667q68,0 121.5-34.5t85-93T665,409q0-84-30.5-160t-83-134T432,23.5T291-10Zm26,43q52,0 98.5,31t82,82.5T553,263t20,132T553.5,513.5T496,595t-92,30T303,595t-82-81.5t-55-115T146,267t20-121t58.5-83T317,33ZM482,711q-9,0-35,8t-55,20.5T342,764t-21,21q0,10 16,17q14,7 42,7q9,0 17-2q12-7 28.5-20.5t32.5-27T484,735t11-14q0-10-13-10Z"/>
      <glyph unicode="&#xd3;" glyph-name="Oacute" horiz-adv-x="650" d="M291-10q-71,0-124.5,35T84,121T55,259q0,74 29.5,146.5T166,537t119,94.5T427,667q68,0 121.5-34.5t85-93T665,409q0-84-30.5-160t-83-134T432,23.5T291-10Zm26,43q52,0 98.5,31t82,82.5T553,263t20,132T553.5,513.5T496,595t-92,30T303,595t-82-81.5t-55-115T146,267t20-121t58.5-83T317,33Zm98,678q-13,0-13,10q0,3 11,14t27,24.5t32.5,27T501,807q8,2 17,2q28,0 43-7t15-17q0-9-21-21t-50-24.5T450,719t-35-8Z"/>
      <glyph unicode="&#xd4;" glyph-name="Ocircumflex" horiz-adv-x="650" d="M291-10q-71,0-124.5,35T84,121T55,259q0,74 29.5,146.5T166,537t119,94.5T427,667q68,0 121.5-34.5t85-93T665,409q0-84-30.5-160t-83-134T432,23.5T291-10Zm26,43q52,0 98.5,31t82,82.5T553,263t20,132T553.5,513.5T496,595t-92,30T303,595t-82-81.5t-55-115T146,267t20-121t58.5-83T317,33Zm10,695q-12,0-6,20q13,13 33.5,25.5T398,804q17,12 31,23.5T453,850q10,8 13,8q8,0 11-8q9-16 17-28t15-20q22-23 38.5-37.5T564,748q-6-20-15-20q-20,0-99,58q-20-12-46.5-25.5t-48.5-23T327,728Z"/>
      <glyph unicode="&#xd5;" glyph-name="Otilde" horiz-adv-x="650" d="M291-10q-71,0-124.5,35T84,121T55,259q0,74 29.5,146.5T166,537t119,94.5T427,667q68,0 121.5-34.5t85-93T665,409q0-84-30.5-160t-83-134T432,23.5T291-10Zm26,43q52,0 98.5,31t82,82.5T553,263t20,132T553.5,513.5T496,595t-92,30T303,595t-82-81.5t-55-115T146,267t20-121t58.5-83T317,33ZM525,728q-31,0-75,27q-44,26-76,26q-16,0-42-22t-28-22q-8,0-3,17q3,15 23,38q39,40 80,40q31,0 75-26q44-27 75-27q18,0 31.5,11T609,812t14,11q8,0 3-17q-3-16-23-39q-36-39-78-39Z"/>
      <glyph unicode="&#xd6;" glyph-name="Odieresis" horiz-adv-x="650" d="M291-10q-71,0-124.5,35T84,121T55,259q0,74 29.5,146.5T166,537t119,94.5T427,667q68,0 121.5-34.5t85-93T665,409q0-84-30.5-160t-83-134T432,23.5T291-10Zm26,43q52,0 98.5,31t82,82.5T553,263t20,132T553.5,513.5T496,595t-92,30T303,595t-82-81.5t-55-115T146,267t20-121t58.5-83T317,33ZM522,729q-19,0-28.5,12T484,769q0,21 15,40.5T541,829q20,0 29-11.5t9-28.5q0-21-15-40.5T522,729Zm-169,0q-19,0-27.5,11.5T317,768q0,21 14.5,41T373,829q20,0 28.5-11.5T410,790q0-21-14.5-41T353,729Z"/>
      <glyph unicode="&#xd7;" glyph-name="multiply" horiz-adv-x="394" d="M24,60q-4,0-10.5,18T7,108L161,243q2,2 2,3q0,4-1,5L61,388q0,6 8,17.5T86.5,426T99,435l4-4L207,290q2-2 4-2l2,1L371,430q3,3 6,3q5,0 11-17.5t6-31.5L241,248l-2-2l1-2L340,108q0-6-6.5-17.5T319,69.5T307,60q-5,0-7,3L197,203q-2,2-3,2q-2,0-4-2L29,63q-3-3-5-3Z"/>
      <glyph unicode="&#xd8;" glyph-name="Oslash" horiz-adv-x="650" d="M114-13q-7,3-16,11T92,10l36,46Q93,93 74,145T55,259q0,74 29.5,146.5T166,537t119,94.5T427,667q40,0 76.5-13T569,617l39,50q7-2 16.5-10t6.5-12l-38-49q33-35 52.5-83.5T665,409q0-84-30.5-160t-83-134T432,23.5T291-10q-41,0-76,12T152,35L114-13Zm32,280q0-87 32-147L527,563q-22,29-53,45.5T404,625q-54,0-101-30t-82-81.5t-55-115T146,267ZM317,33q52,0 98.5,31t82,82.5T553,263t20,132q0,82-29,139L196,92q22-28 52.5-43.5T317,33Z"/>
      <glyph unicode="&#xd9;" glyph-name="Ugrave" horiz-adv-x="651" d="M291,0Q204,0 155.5,53T107,206q0,19 3.5,45.5T121,312l39,200q5,29 8,52t3,40q0,8-10.5,14T137,627.5T115,631q-2,0-2,5q0,14 8,22q8,0 27.5-1.5t42-3T229,652q25,0 62,3q38,3 44,3v-3q0-24-7-24q-5,0-19.5-4T281,618t-15-10q-14-30-26-93L199,298q-4-22-6-43.5T191,213q0-77 33-120.5T322,49q163,0 205,225l44,238q7,35 9.5,57.5T583,602q0,8-14,14.5T537.5,627T508,631q-2,0-2,6q0,17 7,21q8,0 27.5-1.5t42-3T621,652q30,0 59.5,2.5T728,658q0-27-7-27q-5,0-22-4t-33-9t-20-10t-11.5-29.5T619,510L574,276q-20-106-55.5-166T428,25T291,0ZM474,711q-9,0-35,8t-55,20.5T334,764t-21,21q0,10 16,17q14,7 42,7q9,0 17-2q12-7 28.5-20.5t32.5-27T476,735t11-14q0-10-13-10Z"/>
      <glyph unicode="&#xda;" glyph-name="Uacute" horiz-adv-x="651" d="M291,0Q204,0 155.5,53T107,206q0,19 3.5,45.5T121,312l39,200q5,29 8,52t3,40q0,8-10.5,14T137,627.5T115,631q-2,0-2,5q0,14 8,22q8,0 27.5-1.5t42-3T229,652q25,0 62,3q38,3 44,3v-3q0-24-7-24q-5,0-19.5-4T281,618t-15-10q-14-30-26-93L199,298q-4-22-6-43.5T191,213q0-77 33-120.5T322,49q163,0 205,225l44,238q7,35 9.5,57.5T583,602q0,8-14,14.5T537.5,627T508,631q-2,0-2,6q0,17 7,21q8,0 27.5-1.5t42-3T621,652q30,0 59.5,2.5T728,658q0-27-7-27q-5,0-22-4t-33-9t-20-10t-11.5-29.5T619,510L574,276q-20-106-55.5-166T428,25T291,0ZM407,711q-13,0-13,10q0,3 11,14t27,24.5t32.5,27T493,807q8,2 17,2q28,0 43-7t15-17q0-9-21-21t-50-24.5T442,719t-35-8Z"/>
      <glyph unicode="&#xdb;" glyph-name="Ucircumflex" horiz-adv-x="651" d="M291,0Q204,0 155.5,53T107,206q0,19 3.5,45.5T121,312l39,200q5,29 8,52t3,40q0,8-10.5,14T137,627.5T115,631q-2,0-2,5q0,14 8,22q8,0 27.5-1.5t42-3T229,652q25,0 62,3q38,3 44,3v-3q0-24-7-24q-5,0-19.5-4T281,618t-15-10q-14-30-26-93L199,298q-4-22-6-43.5T191,213q0-77 33-120.5T322,49q163,0 205,225l44,238q7,35 9.5,57.5T583,602q0,8-14,14.5T537.5,627T508,631q-2,0-2,6q0,17 7,21q8,0 27.5-1.5t42-3T621,652q30,0 59.5,2.5T728,658q0-27-7-27q-5,0-22-4t-33-9t-20-10t-11.5-29.5T619,510L574,276q-20-106-55.5-166T428,25T291,0Zm28,728q-12,0-6,20q13,13 33.5,25.5T390,804q17,12 31,23.5T445,850q10,8 13,8q8,0 11-8q9-16 17-28t15-20q22-23 38.5-37.5T556,748q-6-20-15-20q-20,0-99,58q-20-12-46.5-25.5t-48.5-23T319,728Z"/>
      <glyph unicode="&#xdc;" glyph-name="Udieresis" horiz-adv-x="651" d="M291,0Q204,0 155.5,53T107,206q0,19 3.5,45.5T121,312l39,200q5,29 8,52t3,40q0,8-10.5,14T137,627.5T115,631q-2,0-2,5q0,14 8,22q8,0 27.5-1.5t42-3T229,652q25,0 62,3q38,3 44,3v-3q0-24-7-24q-5,0-19.5-4T281,618t-15-10q-14-30-26-93L199,298q-4-22-6-43.5T191,213q0-77 33-120.5T322,49q163,0 205,225l44,238q7,35 9.5,57.5T583,602q0,8-14,14.5T537.5,627T508,631q-2,0-2,6q0,17 7,21q8,0 27.5-1.5t42-3T621,652q30,0 59.5,2.5T728,658q0-27-7-27q-5,0-22-4t-33-9t-20-10t-11.5-29.5T619,510L574,276q-20-106-55.5-166T428,25T291,0ZM514,729q-19,0-28.5,12T476,769q0,21 15,40.5T533,829q20,0 29-11.5t9-28.5q0-21-15-40.5T514,729Zm-169,0q-19,0-27.5,11.5T309,768q0,21 14.5,41T365,829q20,0 28.5-11.5T402,790q0-21-14.5-41T345,729Z"/>
      <glyph unicode="&#xdd;" glyph-name="Yacute" horiz-adv-x="593" d="M180-3q-1,1-1,7q0,20 7,20q8,0 21.5,3T234,35.5T250,46q6,11 12.5,33.5T275,136l26,142q1,3-20,71q-10,33-21,65.5T238,480l-21,65q-15,46-39,64q-10,7-29,14.5T122,631q-2,0-2,5q0,18 7,22q8,0 29-1.5t45.5-3T244,652q10,0 124,6v-5q0-22-7-22q-10,0-25-4.5t-26.5-14T298,589q0-11 4-22l69-212l46,59l50,66q81,107 81,120q-1,13-21.5,22T486,631q-2,0-2,6q0,17 7,21q9,0 40-3q16-1 29-2.5t23-0.5l119,6q1-1 1-5q0-22-7-22q-6,0-22.5-4.5T640,615t-25-15q-4-4-22-27.5t-44-58t-54.5-73t-53-73T401,311t-17-26L356,139q-5-28-8-50.5T345,49q0-8 13.5-14.5T386,26l13-2q2,0 2-4q0-11-6-23q-46,2-72.5,3.5T291,2L180-3ZM407,711q-13,0-13,10q0,3 11,14t27,24.5t32.5,27T493,807q8,2 17,2q28,0 43-7t15-17q0-9-21-21t-50-24.5T442,719t-35-8Z"/>
      <glyph unicode="&#xde;" glyph-name="Thorn" horiz-adv-x="521" d="M49-3q-2,4-2,8q0,21 7,21q8,0 22.5,2.5T104,36t16,10q8,17 13.5,39.5T144,135l76,388q7,33 9,55.5t1,33.5q0,6-11.5,10.5t-25,7.5T172,633q-2,0-1,13q2,11 7,16l111-5q7,0 34,1.5t74,3.5q0-12-1-15q-2-14-6-14q-6,0-20.5-3.5t-28-8T326,612q-7-16-13.5-41t-11-46T297,500q0-3 2-3q5,0 27.5,7t62.5,7q39,0 75-15.5T523.5,449T547,369q0-44-19-86.5T476.5,205T403,149t-85-21q-40,0-54,11.5T248,156q-2,4-2,7t1.5,7.5T250,179q2,5 3,3q27-11 55-11q49,0 82.5,30.5t51.5,75T460,364q0,103-94,103q-48,0-66-7q-13-4-19-37L226,139q-12-56-10-93q1-4 12-9t24.5-8T272,26q2,0 2-5q0-1 0-4t-1-6q-1-9-5-14q-46,2-72.5,3.5T161,2L49-3Z"/>
      <glyph unicode="&#xdf;" glyph-name="germandbls" horiz-adv-x="495" d="M-7-234q-36,0-56.5,13.5T-90-191q7,58 39,58q12,0 17-9.5t9-21.5t12-21.5T12-195q16,0 28,18t21,47.5t16,63T90-3l67,357q1,7-3,7H89q-2,0-2,3q0,6 7.5,16.5t19,18.5t21.5,8h29q4,0 10,30q9,43 23.5,88T235,608.5t56.5,62T372,694q37,0 71-13t55.5-38T520,581q0-38-19-69.5t-47-55T399,419q-34-18-52-34t-18-33q0-15 12.5-30T368,296t19-16q7-5 19.5-16.5t25.5-23T453,220q15-16 21-35t6-38q0-40-18.5-73.5T411.5,20T340,0q-42,0-75,14T228,42q9,58 44,58q12,0 18.5-10.5T302,66t14-23.5T343,32q34,0 53,29.5T415,125q0,13-3.5,25.5T397,175q-16,18-37,37t-38,33t-21,18q-10,11-19.5,23.5T272,324q0,26 14,45t34.5,35T362,435q82,61 82,154q0,33-22,50t-54,17q-27,0-50.5-22.5T277,574t-26-81L165,46Q136-103 96-169Q55-234-7-234Z"/>
      <glyph unicode="&#xe0;" glyph-name="agrave" horiz-adv-x="457" d="M321-6Q305-6 296,8.5T287,46q0,8 1.5,21.5T294,99l5,26q-13-24-36-54.5t-50.5-53T158-5Q114-5 88.5,34.5T63,130T88,240t66.5,98T247,408.5T349,435q40,0 73-13L364,121q-3-17-4.5-25.5T358,78q0-22 10-22q8,0 19.5,9t23,20.5T428,104l6,7q2,0 7.5-9.5T447,88q-8-14-30-36.5t-48-40T321-6ZM188,53q19,0 40,20t41,53t36,72t23,76l20,102q-12,13-41,13q-30,0-60-21t-55-55.5t-40-77T137,151q0-98 51-98ZM342,482q-6,0-24.5,9t-42,23.5t-46,30.5t-37,30.5T178,598q0,15 16.5,21.5T227,626q15,0 20-5l16-16l28-29q64-70 64-76t-4.5-12t-8.5-6Z"/>
      <glyph unicode="&#xe1;" glyph-name="aacute" horiz-adv-x="457" d="M321-6Q305-6 296,8.5T287,46q0,8 1.5,21.5T294,99l5,26q-13-24-36-54.5t-50.5-53T158-5Q114-5 88.5,34.5T63,130T88,240t66.5,98T247,408.5T349,435q40,0 73-13L364,121q-3-17-4.5-25.5T358,78q0-22 10-22q8,0 19.5,9t23,20.5T428,104l6,7q2,0 7.5-9.5T447,88q-8-14-30-36.5t-48-40T321-6ZM188,53q19,0 40,20t41,53t36,72t23,76l20,102q-12,13-41,13q-30,0-60-21t-55-55.5t-40-77T137,151q0-98 51-98ZM305,494q-2,0-4.5,4t-2.5,8q0,3 12,18.5t30.5,36t38,40T413,632q8,5 26,5q39,0 39-24q0-9-16-23.5t-40-31t-49-31t-44-24T305,494Z"/>
      <glyph unicode="&#xe2;" glyph-name="acircumflex" horiz-adv-x="457" d="M321-6Q305-6 296,8.5T287,46q0,8 1.5,21.5T294,99l5,26q-13-24-36-54.5t-50.5-53T158-5Q114-5 88.5,34.5T63,130T88,240t66.5,98T247,408.5T349,435q40,0 73-13L364,121q-3-17-4.5-25.5T358,78q0-22 10-22q8,0 19.5,9t23,20.5T428,104l6,7q2,0 7.5-9.5T447,88q-8-14-30-36.5t-48-40T321-6ZM188,53q19,0 40,20t41,53t36,72t23,76l20,102q-12,13-41,13q-30,0-60-21t-55-55.5t-40-77T137,151q0-98 51-98Zm53,443q-5,0-6,7.5t0,12.5l62,51q38,30 54,51q9,9 11,9q3,0 9-9q12-19 19-30.5t9-13.5q19-25 33.5-40.5T447,516q-5-20-13-20q-18,0-86,58q-17-12-40-25.5t-42-23T241,496Z"/>
      <glyph unicode="&#xe3;" glyph-name="atilde" horiz-adv-x="457" d="M321-6Q305-6 296,8.5T287,46q0,8 1.5,21.5T294,99l5,26q-13-24-36-54.5t-50.5-53T158-5Q114-5 88.5,34.5T63,130T88,240t66.5,98T247,408.5T349,435q40,0 73-13L364,121q-3-17-4.5-25.5T358,78q0-22 10-22q8,0 19.5,9t23,20.5T428,104l6,7q2,0 7.5-9.5T447,88q-8-14-30-36.5t-48-40T321-6ZM188,53q19,0 40,20t41,53t36,72t23,76l20,102q-12,13-41,13q-30,0-60-21t-55-55.5t-40-77T137,151q0-98 51-98ZM432,504q-28,0-66,27q-40,26-67,26q-15,0-37-22t-24-22q-5,0-5,6q0,17 13.5,37.5t34.5,36T326,608q28,0 66-26q38-27 66-27q13,0 24,11t20,22t16,11q4,0 4-9q0-15-12.5-35.5T477,519t-45-15Z"/>
      <glyph unicode="&#xe4;" glyph-name="adieresis" horiz-adv-x="457" d="M321-6Q305-6 296,8.5T287,46q0,8 1.5,21.5T294,99l5,26q-13-24-36-54.5t-50.5-53T158-5Q114-5 88.5,34.5T63,130T88,240t66.5,98T247,408.5T349,435q40,0 73-13L364,121q-3-17-4.5-25.5T358,78q0-22 10-22q8,0 19.5,9t23,20.5T428,104l6,7q2,0 7.5-9.5T447,88q-8-14-30-36.5t-48-40T321-6ZM188,53q19,0 40,20t41,53t36,72t23,76l20,102q-12,13-41,13q-30,0-60-21t-55-55.5t-40-77T137,151q0-98 51-98Zm71,454q-19,0-28,11.5T222,546q0,21 14.5,41T279,607q19,0 27.5-11.5T315,568q0-21-14.5-41T259,507Zm168,0q-19,0-28,11.5T390,546q0,21 14.5,41T447,607q19,0 27.5-11.5T483,568q0-21-14.5-41T427,507Z"/>
      <glyph unicode="&#xe5;" glyph-name="aring" horiz-adv-x="457" d="M321-6Q305-6 296,8.5T287,46q0,8 1.5,21.5T294,99l5,26q-13-24-36-54.5t-50.5-53T158-5Q114-5 88.5,34.5T63,130T88,240t66.5,98T247,408.5T349,435q40,0 73-13L364,121q-3-17-4.5-25.5T358,78q0-22 10-22q8,0 19.5,9t23,20.5T428,104l6,7q2,0 7.5-9.5T447,88q-8-14-30-36.5t-48-40T321-6ZM188,53q19,0 40,20t41,53t36,72t23,76l20,102q-12,13-41,13q-30,0-60-21t-55-55.5t-40-77T137,151q0-98 51-98ZM343,504q-31,0-53.5,21.5T267,581q0,27 14,49t36.5,35.5T365,679q32,0 53.5-22T440,603q0-43-28-71t-69-28Zm3,32q26,0 43,18.5T406,600q0,20-12,33.5T362,647q-23,0-41.5-19T302,583q0-21 12.5-34T346,536Z"/>
      <glyph unicode="&#xe6;" glyph-name="ae" horiz-adv-x="560" d="M131-7Q93-7 66.5,13.5T40,76q0,41 23.5,69T124,193t69,31t64,17q8,2 11,16l17,83q0,2 0.5,5.5T286,356q0,18-14,30t-33,12q-26,0-48-23t-29-59q-6-34-49-34q-26,0-26,13q0,19 17.5,43t46,46.5t61.5,37T276,436q36,0 52.5-16T353,372q29,27 58,45t62,18q46,0 66.5-23.5T560,360q0-31-24-62.5T475,240t-76-41.5T330,183q-4,0-4-35q0-45 17.5-68.5T391,56q27,0 48.5,16T481,108l3,3q2,0 7.5-9.5T497,88q-9-16-32-38T414,11T358-6q-31,0-58.5,18T259,79q-17-33-45.5-59.5T131-7ZM337,218q18,0 43.5,13t50,34.5t41,47.5T488,364q0,30-25,30q-24,0-47-19.5t-41.5-48t-30-57.5T333,222q0-4 4-4ZM162,40q24,0 41.5,15.5t29,40T248,145l8,46q-34-6-65.5-19T139,139T119,90q0-21 12-35.5T162,40Z"/>
      <glyph unicode="&#xe7;" glyph-name="ccedilla" horiz-adv-x="349" d="M175-6Q123-6 95.5,34.5T68,146q0,48 19.5,98.5t52,94t71.5,70T290,435q47,0 87-34q3-12 3-20q0-11-7-27t-27-16q-16,0-25,14t-18,28t-25,14q-28,0-60-31t-54-83.5T142,162q0-106 66-106q22,0 44,14t40,32l9,9q2,0 7.5-9.5T314,88q-9-14-30.5-36.5t-50-40T175-6Zm33,6L183-27h28q21,0 31.5-17T248-85q-8-40-42.5-64.5T127-174q-24,0-35,10v17q2,6 7.5,11t10.5,5q9,0 17-7.5t21-7.5q22,0 37,11.5T203-107q2,10-1,22T186.5-68T146-75q-2,0-6,6t-2,9q2,2 11.5,14T170-20T185,0h23Z"/>
      <glyph unicode="&#xe8;" glyph-name="egrave" horiz-adv-x="356" d="M173-6Q121-6 93.5,34.5T66,146q0,48 20,98.5t53,94t72,70T288,435q46,0 66.5-23.5T375,360q0-43-45-87q-30-28-64.5-48.5t-66.5-31T145,183q-4,0-4-35q0-45 17.5-68.5T206,56q27,0 48.5,16T296,108l3,3q2,0 7.5-9.5T312,88q-9-16-32-38T229,11T173-6ZM152,218q18,0 43.5,13t50,34.5t41,47.5T303,364q0,30-25,30q-24,0-47-19.5t-41.5-48t-30-57.5T148,222q0-4 4-4ZM300,482q-6,0-24.5,9t-42,23.5t-46,30.5t-37,30.5T136,598q0,15 16.5,21.5T185,626q15,0 20-5l16-16l28-29q64-70 64-76t-4.5-12t-8.5-6Z"/>
      <glyph unicode="&#xe9;" glyph-name="eacute" horiz-adv-x="356" d="M173-6Q121-6 93.5,34.5T66,146q0,48 20,98.5t53,94t72,70T288,435q46,0 66.5-23.5T375,360q0-43-45-87q-30-28-64.5-48.5t-66.5-31T145,183q-4,0-4-35q0-45 17.5-68.5T206,56q27,0 48.5,16T296,108l3,3q2,0 7.5-9.5T312,88q-9-16-32-38T229,11T173-6ZM152,218q18,0 43.5,13t50,34.5t41,47.5T303,364q0,30-25,30q-24,0-47-19.5t-41.5-48t-30-57.5T148,222q0-4 4-4ZM263,494q-2,0-4.5,4t-2.5,8q0,3 12,18.5t30.5,36t38,40T371,632q8,5 26,5q39,0 39-24q0-9-16-23.5t-40-31t-49-31t-44-24T263,494Z"/>
      <glyph unicode="&#xea;" glyph-name="ecircumflex" horiz-adv-x="356" d="M173-6Q121-6 93.5,34.5T66,146q0,48 20,98.5t53,94t72,70T288,435q46,0 66.5-23.5T375,360q0-43-45-87q-30-28-64.5-48.5t-66.5-31T145,183q-4,0-4-35q0-45 17.5-68.5T206,56q27,0 48.5,16T296,108l3,3q2,0 7.5-9.5T312,88q-9-16-32-38T229,11T173-6ZM152,218q18,0 43.5,13t50,34.5t41,47.5T303,364q0,30-25,30q-24,0-47-19.5t-41.5-48t-30-57.5T148,222q0-4 4-4Zm47,278q-5,0-6,7.5t0,12.5l62,51q38,30 54,51q9,9 11,9q3,0 9-9q12-19 19-30.5t9-13.5q19-25 33.5-40.5T405,516q-5-20-13-20q-18,0-86,58q-17-12-40-25.5t-42-23T199,496Z"/>
      <glyph unicode="&#xeb;" glyph-name="edieresis" horiz-adv-x="356" d="M173-6Q121-6 93.5,34.5T66,146q0,48 20,98.5t53,94t72,70T288,435q46,0 66.5-23.5T375,360q0-43-45-87q-30-28-64.5-48.5t-66.5-31T145,183q-4,0-4-35q0-45 17.5-68.5T206,56q27,0 48.5,16T296,108l3,3q2,0 7.5-9.5T312,88q-9-16-32-38T229,11T173-6ZM152,218q18,0 43.5,13t50,34.5t41,47.5T303,364q0,30-25,30q-24,0-47-19.5t-41.5-48t-30-57.5T148,222q0-4 4-4Zm65,289q-19,0-28,11.5T180,546q0,21 14.5,41T237,607q19,0 27.5-11.5T273,568q0-21-14.5-41T217,507Zm168,0q-19,0-28,11.5T348,546q0,21 14.5,41T405,607q19,0 27.5-11.5T441,568q0-21-14.5-41T385,507Z"/>
      <glyph unicode="&#xec;" glyph-name="igrave" horiz-adv-x="266" d="M201,435q16,0 25-14.5t9-37.5q0-21-6-53L188,120q-1-6-3.5-19.5T182,79q0-23 10-23q8,0 19.5,9t23,20.5T252,104l6,7q2,0 7.5-9.5T271,88q-8-14-30.5-36.5T192,11.5T145-6Q129-6 120,8.5T111,46q0,8 1.5,21T118,99l41,209q3,16 4,26t1,14q0,25-10,25q-8,0-24.5-15T104,332l-5-6q-2,0-7.5,9.5T86,349q8,14 29,34t45,36t41,16Zm4,47q-6,0-24.5,9t-42,23.5T92.5,545t-37,30.5T41,598q0,15 16.5,21.5T90,626q15,0 20-5l16-16l28-29q64-70 64-76t-4.5-12t-8.5-6Z"/>
      <glyph unicode="&#xed;" glyph-name="iacute" horiz-adv-x="266" d="M201,435q16,0 25-14.5t9-37.5q0-21-6-53L188,120q-1-6-3.5-19.5T182,79q0-23 10-23q8,0 19.5,9t23,20.5T252,104l6,7q2,0 7.5-9.5T271,88q-8-14-30.5-36.5T192,11.5T145-6Q129-6 120,8.5T111,46q0,8 1.5,21T118,99l41,209q3,16 4,26t1,14q0,25-10,25q-8,0-24.5-15T104,332l-5-6q-2,0-7.5,9.5T86,349q8,14 29,34t45,36t41,16Zm-33,59q-2,0-4.5,4t-2.5,8q0,3 12,18.5t30.5,36t38,40T276,632q8,5 26,5q39,0 39-24q0-9-16-23.5t-40-31t-49-31t-44-24T168,494Z"/>
      <glyph unicode="&#xee;" glyph-name="icircumflex" horiz-adv-x="266" d="M201,435q16,0 25-14.5t9-37.5q0-21-6-53L188,120q-1-6-3.5-19.5T182,79q0-23 10-23q8,0 19.5,9t23,20.5T252,104l6,7q2,0 7.5-9.5T271,88q-8-14-30.5-36.5T192,11.5T145-6Q129-6 120,8.5T111,46q0,8 1.5,21T118,99l41,209q3,16 4,26t1,14q0,25-10,25q-8,0-24.5-15T104,332l-5-6q-2,0-7.5,9.5T86,349q8,14 29,34t45,36t41,16Zm-97,61q-5,0-6,7.5T98,516l62,51q38,30 54,51q9,9 11,9q3,0 9-9q12-19 19-30.5t9-13.5q19-25 33.5-40.5T310,516q-5-20-13-20q-18,0-86,58q-17-12-40-25.5t-42-23T104,496Z"/>
      <glyph unicode="&#xef;" glyph-name="idieresis" horiz-adv-x="266" d="M201,435q16,0 25-14.5t9-37.5q0-21-6-53L188,120q-1-6-3.5-19.5T182,79q0-23 10-23q8,0 19.5,9t23,20.5T252,104l6,7q2,0 7.5-9.5T271,88q-8-14-30.5-36.5T192,11.5T145-6Q129-6 120,8.5T111,46q0,8 1.5,21T118,99l41,209q3,16 4,26t1,14q0,25-10,25q-8,0-24.5-15T104,332l-5-6q-2,0-7.5,9.5T86,349q8,14 29,34t45,36t41,16Zm65,72q-16,0-25,13t-9,31q0,23 14.5,39.5T283,607q15,0 26-12t11-28q0-24-15.5-42T266,507Zm-133,0q-16,0-25,13t-9,31q0,23 14.5,39.5T150,607q15,0 26-12t11-28q0-24-15.5-42T133,507Z"/>
      <glyph unicode="&#xf0;" glyph-name="eth" horiz-adv-x="435" d="M210-7Q138-7 102,41T66,159q0,48 16.5,97t46,90T198,412.5T285,438q50,0 68-31q3,97-57,169L194,509q-15,26-9,32l89,58q-37,36-92,65q1,6 7,15t11,9q64-18 114-62l121,79q16-25 10-31L337,603q40-45 63.5-107.5T424,355q0-38-8.5-86T390,172.5t-42.5-89T287.5,18T210-7Zm1,39q33,0 58,28t41,69.5T334,214t8,73q0,21-7,47t-23.5,45T267,398q-33,0-56.5-26.5t-38-66T151,227t-7-64q0-55 18-93t49-38Z"/>
      <glyph unicode="&#xf1;" glyph-name="ntilde" horiz-adv-x="489" d="M363-6Q347-6 338,8.5T329,46q0,8 1.5,21T336,99l35,165q4,17 5.5,30.5T378,318q0,43-19,43q-16,0-43.5-24T258,272.5t-54.5-91T167,78L150,0q-12-4-31-4T85,0l59,308q4,18 4.5,28t0.5,12q0,25-10,25q-4,0-10.5-4.5T114,357q-13-11-21.5-21T84,326q-2,0-7.5,9.5T71,349q8,14 29,34t45,36t41,16q16,0 25-14.5t9-37.5q0-21-6-53l-18-92q5,9 16,24.5T240,300q22,30 52,61t59,52.5T400,435q50,0 50-66q0-22-3.5-49.5T436,260L403,106q-3-12-3-25q0-25 10-25q8,0 19.5,9t23,20.5T470,104l6,7q2,0 7.5-9.5T489,88q-8-14-30.5-36.5T410,11.5T363-6Zm34,510q-28,0-66,27q-40,26-67,26q-15,0-37-22t-24-22q-5,0-5,6q0,17 13.5,37.5t34.5,36T291,608q28,0 66-26q38-27 66-27q13,0 24,11t20,22t16,11q4,0 4-9q0-15-12.5-35.5T442,519t-45-15Z"/>
      <glyph unicode="&#xf2;" glyph-name="ograve" horiz-adv-x="412" d="M191-5Q131-5 99.5,34T68,145q0,52 20,103.5T140.5,342t71,67.5T288,435q59,0 91.5-41T412,281q0-51-20-102T339.5,86.5T268,20T191-5Zm18,41q25,0 48,21.5t40.5,57t28,77T336,273q0,59-16,90t-44,31q-25,0-48.5-21.5t-42.5-57t-30-77T144,158q0-58 18.5-90T209,36Zm95,446q-6,0-24.5,9t-42,23.5t-46,30.5t-37,30.5T140,598q0,15 16.5,21.5T189,626q15,0 20-5l16-16l28-29q64-70 64-76t-4.5-12t-8.5-6Z"/>
      <glyph unicode="&#xf3;" glyph-name="oacute" horiz-adv-x="412" d="M191-5Q131-5 99.5,34T68,145q0,52 20,103.5T140.5,342t71,67.5T288,435q59,0 91.5-41T412,281q0-51-20-102T339.5,86.5T268,20T191-5Zm18,41q25,0 48,21.5t40.5,57t28,77T336,273q0,59-16,90t-44,31q-25,0-48.5-21.5t-42.5-57t-30-77T144,158q0-58 18.5-90T209,36Zm58,458q-2,0-4.5,4t-2.5,8q0,3 12,18.5t30.5,36t38,40T375,632q8,5 26,5q39,0 39-24q0-9-16-23.5t-40-31t-49-31t-44-24T267,494Z"/>
      <glyph unicode="&#xf4;" glyph-name="ocircumflex" horiz-adv-x="412" d="M191-5Q131-5 99.5,34T68,145q0,52 20,103.5T140.5,342t71,67.5T288,435q59,0 91.5-41T412,281q0-51-20-102T339.5,86.5T268,20T191-5Zm18,41q25,0 48,21.5t40.5,57t28,77T336,273q0,59-16,90t-44,31q-25,0-48.5-21.5t-42.5-57t-30-77T144,158q0-58 18.5-90T209,36Zm-6,460q-5,0-6,7.5t0,12.5l62,51q38,30 54,51q9,9 11,9q3,0 9-9q12-19 19-30.5t9-13.5q19-25 33.5-40.5T409,516q-5-20-13-20q-18,0-86,58q-17-12-40-25.5t-42-23T203,496Z"/>
      <glyph unicode="&#xf5;" glyph-name="otilde" horiz-adv-x="412" d="M191-5Q131-5 99.5,34T68,145q0,52 20,103.5T140.5,342t71,67.5T288,435q59,0 91.5-41T412,281q0-51-20-102T339.5,86.5T268,20T191-5Zm18,41q25,0 48,21.5t40.5,57t28,77T336,273q0,59-16,90t-44,31q-25,0-48.5-21.5t-42.5-57t-30-77T144,158q0-58 18.5-90T209,36ZM394,504q-28,0-66,27q-40,26-67,26q-15,0-37-22t-24-22q-5,0-5,6q0,17 13.5,37.5t34.5,36T288,608q28,0 66-26q38-27 66-27q13,0 24,11t20,22t16,11q4,0 4-9q0-15-12.5-35.5T439,519t-45-15Z"/>
      <glyph unicode="&#xf6;" glyph-name="odieresis" horiz-adv-x="412" d="M191-5Q131-5 99.5,34T68,145q0,52 20,103.5T140.5,342t71,67.5T288,435q59,0 91.5-41T412,281q0-51-20-102T339.5,86.5T268,20T191-5Zm18,41q25,0 48,21.5t40.5,57t28,77T336,273q0,59-16,90t-44,31q-25,0-48.5-21.5t-42.5-57t-30-77T144,158q0-58 18.5-90T209,36Zm12,471q-19,0-28,11.5T184,546q0,21 14.5,41T241,607q19,0 27.5-11.5T277,568q0-21-14.5-41T221,507Zm168,0q-19,0-28,11.5T352,546q0,21 14.5,41T409,607q19,0 27.5-11.5T445,568q0-21-14.5-41T389,507Z"/>
      <glyph unicode="&#xf7;" glyph-name="divide" horiz-adv-x="458" d="M256,390q-16,0-25,13t-9,31q0,23 14.5,39.5T273,490q15,0 26-12t11-28q0-24-15.5-42T256,390ZM5,215q-5,0-5,9q0,26 22,54H452q4,0 4-9q0-31-21-54H5ZM182,4q-16,0-25,13t-9,31q0,23 14.5,39.5T199,104q15,0 25.5-12T235,64q0-24-15-42T182,4Z"/>
      <glyph unicode="&#xf8;" glyph-name="oslash" horiz-adv-x="413" d="M100,0Q76,12 81,20l22,29Q72,94 72,163q0,53 18,101.5t47.5,87t67,61T281,435q54,0 89-41l19,25q23-12 19-19l-22-29q24-43 24-104q0-53-17.5-101.5T345,78.5t-67-61T202-5q-47,0-81,32L100,0Zm46,172q0-33 6-60L325,336q-9,28-25,44.5T264,397q-25,0-46.5-20T180,323.5t-25-73T146,172ZM218,34q25,0 46.5,20T302,107.5t25,73t9,78.5q0,23-3,43L162,80q20-46 56-46Z"/>
      <glyph unicode="&#xf9;" glyph-name="ugrave" horiz-adv-x="472" d="M154-6q-50,0-50,66q0,23 3.5,50.5T118,169l30,139q4,18 4.5,28t0.5,12q0,25-10,25q-4,0-10.5-4.5T118,357q-13-11-21.5-21T88,326q-2,0-7.5,9.5T75,349q8,14 29,34t45,36t41,16q16,0 25-14.5t9-37.5q0-27-6-53L183,165q-3-14-5-27.5T176,111q0-43 19-43q14,0 38,21t57,64q29,38 53.5,92T379,351l17,78q12,4 31,4t34-4L399,106q-3-12-3-25q0-25 10-25q8,0 19.5,9t23,20.5T466,104l6,7q2,0 7.5-9.5T485,88q-8-14-30.5-36.5T406,11.5T359-6Q343-6 334,8.5T325,46q0,8 1.5,21T332,99l18,92q-5-10-15-25t-26-37q-20-28-49-59.5T202.5,16T154-6ZM311,482q-6,0-24.5,9t-42,23.5t-46,30.5t-37,30.5T147,598q0,15 16.5,21.5T196,626q15,0 20-5l16-16l28-29q64-70 64-76t-4.5-12t-8.5-6Z"/>
      <glyph unicode="&#xfa;" glyph-name="uacute" horiz-adv-x="472" d="M154-6q-50,0-50,66q0,23 3.5,50.5T118,169l30,139q4,18 4.5,28t0.5,12q0,25-10,25q-4,0-10.5-4.5T118,357q-13-11-21.5-21T88,326q-2,0-7.5,9.5T75,349q8,14 29,34t45,36t41,16q16,0 25-14.5t9-37.5q0-27-6-53L183,165q-3-14-5-27.5T176,111q0-43 19-43q14,0 38,21t57,64q29,38 53.5,92T379,351l17,78q12,4 31,4t34-4L399,106q-3-12-3-25q0-25 10-25q8,0 19.5,9t23,20.5T466,104l6,7q2,0 7.5-9.5T485,88q-8-14-30.5-36.5T406,11.5T359-6Q343-6 334,8.5T325,46q0,8 1.5,21T332,99l18,92q-5-10-15-25t-26-37q-20-28-49-59.5T202.5,16T154-6ZM274,494q-2,0-4.5,4t-2.5,8q0,3 12,18.5t30.5,36t38,40T382,632q8,5 26,5q39,0 39-24q0-9-16-23.5t-40-31t-49-31t-44-24T274,494Z"/>
      <glyph unicode="&#xfb;" glyph-name="ucircumflex" horiz-adv-x="472" d="M154-6q-50,0-50,66q0,23 3.5,50.5T118,169l30,139q4,18 4.5,28t0.5,12q0,25-10,25q-4,0-10.5-4.5T118,357q-13-11-21.5-21T88,326q-2,0-7.5,9.5T75,349q8,14 29,34t45,36t41,16q16,0 25-14.5t9-37.5q0-27-6-53L183,165q-3-14-5-27.5T176,111q0-43 19-43q14,0 38,21t57,64q29,38 53.5,92T379,351l17,78q12,4 31,4t34-4L399,106q-3-12-3-25q0-25 10-25q8,0 19.5,9t23,20.5T466,104l6,7q2,0 7.5-9.5T485,88q-8-14-30.5-36.5T406,11.5T359-6Q343-6 334,8.5T325,46q0,8 1.5,21T332,99l18,92q-5-10-15-25t-26-37q-20-28-49-59.5T202.5,16T154-6Zm56,502q-5,0-6,7.5t0,12.5l62,51q38,30 54,51q9,9 11,9q3,0 9-9q12-19 19-30.5t9-13.5q19-25 33.5-40.5T416,516q-5-20-13-20q-18,0-86,58q-17-12-40-25.5t-42-23T210,496Z"/>
      <glyph unicode="&#xfc;" glyph-name="udieresis" horiz-adv-x="472" d="M154-6q-50,0-50,66q0,23 3.5,50.5T118,169l30,139q4,18 4.5,28t0.5,12q0,25-10,25q-4,0-10.5-4.5T118,357q-13-11-21.5-21T88,326q-2,0-7.5,9.5T75,349q8,14 29,34t45,36t41,16q16,0 25-14.5t9-37.5q0-27-6-53L183,165q-3-14-5-27.5T176,111q0-43 19-43q14,0 38,21t57,64q29,38 53.5,92T379,351l17,78q12,4 31,4t34-4L399,106q-3-12-3-25q0-25 10-25q8,0 19.5,9t23,20.5T466,104l6,7q2,0 7.5-9.5T485,88q-8-14-30.5-36.5T406,11.5T359-6Q343-6 334,8.5T325,46q0,8 1.5,21T332,99l18,92q-5-10-15-25t-26-37q-20-28-49-59.5T202.5,16T154-6Zm74,513q-19,0-28,11.5T191,546q0,21 14.5,41T248,607q19,0 27.5-11.5T284,568q0-21-14.5-41T228,507Zm168,0q-19,0-28,11.5T359,546q0,21 14.5,41T416,607q19,0 27.5-11.5T452,568q0-21-14.5-41T396,507Z"/>
      <glyph unicode="&#xfd;" glyph-name="yacute" horiz-adv-x="497" d="M33-233q-26,0-43,12t-17,29q0,32 23,44q22-13 67-13q82,0 144,89q23,35 23,134q0,54-3,109t-9.5,100.5t-18,73.5T170,373q-6,0-16.5-8t-21-19T115,326q-2,0-7.5,9.5T102,349q3,8 16.5,22T150,399.5t36,25T216,435q29,0 49-46t27-138q5-55 7-93t3-68t1-62q26,32 53,77t45.5,92.5T420,285q0,60-25,107q13,43 50,43q44,0 44-79q0-109-86-252Q360,32 309.5-29T208-136t-96.5-71.5T33-233ZM298,494q-2,0-4.5,4t-2.5,8q0,3 12,18.5t30.5,36t38,40T406,632q8,5 26,5q39,0 39-24q0-9-16-23.5t-40-31t-49-31t-44-24T298,494Z"/>
      <glyph unicode="&#xfe;" glyph-name="thorn" horiz-adv-x="434" d="M-3-235q-3,2-3,8q0,16 4,21q27,0 40,16q12,15 16,43L186,539q5,28 7.5,47t2.5,30q-1,12-27,15q-27,2-27,3q0,0 2,6q0,2 3,9t6,7q82,9 128,38h2q3,0 6-6t3-10q-17-30-28-87q-19-96-30.5-153.5T221,374q30,27 58.5,44T347,435q46,0 71-39.5T443,300q0-68-44-141q-29-48-66.5-85t-75-57.5T188-4q-24,0-40,8L120-145q-3-13-3-28q0-18 14-23q14-3 47-3q2,0 2-6q0-14-5-22H157q-6,1-10.5,1t-6.5,0q-68,0-143-9ZM207,42q29,0 57.5,20.5t52.5,55t38,77T369,280q0,97-62,97q-58,0-96-53L168,103q-4-23 4-42t35-19Z"/>
      <glyph unicode="&#xff;" glyph-name="ydieresis" horiz-adv-x="497" d="M33-233q-26,0-43,12t-17,29q0,32 23,44q22-13 67-13q82,0 144,89q23,35 23,134q0,54-3,109t-9.5,100.5t-18,73.5T170,373q-6,0-16.5-8t-21-19T115,326q-2,0-7.5,9.5T102,349q3,8 16.5,22T150,399.5t36,25T216,435q29,0 49-46t27-138q5-55 7-93t3-68t1-62q26,32 53,77t45.5,92.5T420,285q0,60-25,107q13,43 50,43q44,0 44-79q0-109-86-252Q360,32 309.5-29T208-136t-96.5-71.5T33-233ZM252,507q-19,0-28,11.5T215,546q0,21 14.5,41T272,607q19,0 27.5-11.5T308,568q0-21-14.5-41T252,507Zm168,0q-19,0-28,11.5T383,546q0,21 14.5,41T440,607q19,0 27.5-11.5T476,568q0-21-14.5-41T420,507Z"/>
      <glyph unicode="&#x2013;" glyph-name="endash" horiz-adv-x="486" d="M70,200q-6,0-6,13q0,11 7,27.5T86,262H502q6,0 6-13q0-11-7-27.5T486,200H70Z"/>
      <glyph unicode="&#x2014;" glyph-name="emdash" horiz-adv-x="993" d="M70,200q-6,0-6,13q0,11 7,27.5T86,262H938q6,0 6-13q0-11-7-27.5T922,200H70Z"/>
      <glyph unicode="&#x2018;" glyph-name="quoteleft" horiz-adv-x="148" d="M141,482q-9,0-18,3q-10,22-1,70q7,41 40,80q28,32 54.5,51.5T254,706t14-18q-38-22-58-48t-25-43q-1-13 13-35q15-23 12-37q-4-18-25-30.5T141,482Z"/>
      <glyph unicode="&#x2019;" glyph-name="quoteright" horiz-adv-x="148" d="M129,484q-12,0-15,18q33,19 55.5,45T198,593q2,14-12,36q-15,23-12,36q4,18 24.5,30.5T242,708q9,0 18-3q10-21 0-70q-4-21-14-40.5T220,556q-28-33-54-52.5T129,484Z"/>
      <glyph unicode="&#x201a;" glyph-name="quotesinglbase" horiz-adv-x="209" d="M16-98Q4-98 1-80Q34-61 56.5-35T85,11q1,12-13,36Q57,70 60,83q4,18 25,30.5T129,126q9,0 18-3q10-21 0-70q-4-21-14-40.5T107-26Q79-59 53-78.5T16-98Z"/>
      <glyph unicode="&#x201c;" glyph-name="quotedblleft" horiz-adv-x="360" d="M275,482q-9,0-18,3q-10,22-1,70q7,41 40,80q28,32 54.5,51.5T388,706t14-18q-38-22-58-48t-25-43q-1-13 13-35q15-23 12-37q-4-18-25-30.5T275,482Zm-134,0q-9,0-18,3q-10,22-1,70q7,41 40,80q28,32 54.5,51.5T254,706t14-18q-38-22-58-48t-25-43q-1-13 13-35q15-23 12-37q-4-18-25-30.5T141,482Z"/>
      <glyph unicode="&#x201d;" glyph-name="quotedblright" horiz-adv-x="361" d="M262,484q-12,0-15,18q33,19 55.5,45T331,593q2,14-12,36q-15,23-12,36q4,18 24.5,30.5T375,708q9,0 18-3q10-21 0-70q-4-21-14-40.5T353,556q-28-33-54-52.5T262,484Zm-133,0q-12,0-15,18q33,19 55.5,45T198,593q2,14-12,36q-15,23-12,36q4,18 24.5,30.5T242,708q9,0 18-3q10-21 0-70q-4-21-14-40.5T220,556q-28-33-54-52.5T129,484Z"/>
      <glyph unicode="&#x201e;" glyph-name="quotedblbase" horiz-adv-x="209" d="M15-98Q3-98 0-80Q33-61 55.5-35T84,11q1,12-13,36Q56,70 59,83q4,18 25,30.5T128,126q9,0 18-3q10-21 0-70q-4-21-14-40.5T106-26Q78-59 52-78.5T15-98Zm133,0q-12,0-15,18q33,19 55.5,45T217,11q1,12-13,36q-15,23-12,36q4,18 25,30.5T261,126q9,0 18-3q10-21 0-70q-4-21-14-40.5T239-26q-28-33-54-52.5T148-98Z"/>
      <glyph unicode="&#x2022;" glyph-name="bullet" horiz-adv-x="376" d="M136,242q0,34 18,63.5t46.5,48T259,372q36,0 58.5-26T340,284q0-33-18-63t-46.5-48.5T217,154q-36,0-58.5,26T136,242Z"/>
      <glyph unicode="&#x2039;" glyph-name="guilsinglleft" horiz-adv-x="298" d="M252,73q-6,9-28,32.5T168,161T91,227q-4,3-4,10q0,18 13,31q54,31 100,62.5T278,387t43,36q19-6 19-16q0-5-3.5-9t-8.5-9q-16-16-31.5-28T269,338q-7-6-23-20.5t-32.5-30t-29-27T170,247l63-90q7-10 17.5-23.5t18.5-25T277,94q0-13-19-18l-6-3Z"/>
      <glyph unicode="&#x203a;" glyph-name="guilsinglright" horiz-adv-x="298" d="M76,73Q58,79 58,88q0,5 3.5,9.5T69,108q2,3 14,12.5T108,141t18,16l99,90l-29,43q-13,18-21.5,30T161,338q-44,58-44,62q0,12 26,23q6-11 28.5-36.5t57-56.5T303,268q5-8 5-16q0-20-12-25Q137,129 76,73Z"/>
    </font>
</defs>
</svg>
