<?xml version="1.0" standalone="no"?>
<!DOCTYPE svg PUBLIC "-//W3C//DTD SVG 1.1//EN" "http://www.w3.org/Graphics/SVG/1.1/DTD/svg11.dtd">
<svg xmlns="http://www.w3.org/2000/svg">
  <defs>
    <font id="CrimsonText" horiz-adv-x="547">
      <font-face font-family="Crimson Text" units-per-em="1024" panose-1="0 0 0 0 0 0 0 0 0 0" ascent="972" descent="-359" alphabetic="0"/>
      <glyph unicode=" " glyph-name="space" horiz-adv-x="229"/>
      <glyph unicode="!" glyph-name="exclam" horiz-adv-x="280" d="M139,152q-11-5-15,1.5T119,170L103,396q-5,70-9,116t-4,67q0,25 14.5,44T142,642q22,0 33.5-18.5T187,579q0-21-5.5-81T169,355T156,181q-1-15-4-20t-13-9Zm1-167Q116-15 98.5,2T81,43T98,84.5T140,102q26,0 42-17.5T198,43T181,2T140-15Z"/>
      <glyph unicode="&quot;" glyph-name="quotedbl" horiz-adv-x="348" d="M92,434q-14,0-15,13q-2,23-7,50T58,555q-15,62-15,80q0,11 7.5,25.5t21.5,26T105,698h5q18,0 25-12q7-13 7-53q0-29-15-91q-8-31-12.5-54T108,449q-1-15-16-15Zm163,0q-14,0-15,13q-2,23-7,50t-12,58q-15,62-15,80q0,11 7.5,25.5t21.5,26T268,698h5q18,0 25-12q7-13 7-53q0-29-15-91q-8-31-12.5-54T271,449q-1-15-16-15Z"/>
      <glyph unicode="#" glyph-name="numbersign" horiz-adv-x="476" d="M107,15q-12,0-14,9l23,151H30q-6,0-6,10q0,12 8,41q1,5 6,5h87l12,86H30q-6,2-6,11q0,12 8,41q1,5 6,5H146l24,156q9,9 47,9q12,0 10-9L204,374h94l24,156q9,9 47,9q12,0 10-9L355,374h82q7,0 7-7q0-14-9-43l-6-7H346l-13-86H437q7,0 7-7q0-14-9-43q-2-4-2-4q-2-2-3-2H325L301,24q-1-7-10-8t-20-1H258q-13,0-13,7v2l22,151H173L151,24q-2-7-13-8t-18-1H107Zm75,216h95l12,86H195l-13-86Z"/>
      <glyph unicode="$" glyph-name="dollar" horiz-adv-x="491" d="M199-52q-35,0-35,9l7,42Q132,5 73,15Q50,78 45,166q0,8 18,8q14,0 22-8q25-95 93-123l41,244q-84,46-124,86.5T55,473q0,49 26.5,87.5t70,61T245,644q16,0 32-2l7,41q35,0 35-7l-6-39q17-4 36-8t41-8q5-45 8-79.5t3-57.5q0-8-7-8q-24,1-26,11q-4,24-20.5,51T304,583L266,357q22-12 35.5-19T320,328t18-11t26-17t18-15q11-10 25-23t21-28q6-13 11.5-29.5T445,170q0-52-28.5-92T342,15T241-8q-13,0-34,2l-8-46ZM131,505q0-42 25-69.5T233,377l37,221q-15,4-30,4q-109,0-109-97ZM253,269l-1,1L213,33q14-2 30-2q49,0 84,29t35,81q0,21-7.5,39T341,208q-6,11-25,24q-13,10-18.5,13.5t-12.5,7T262,264l-9,5Z"/>
      <glyph unicode="%" glyph-name="percent" horiz-adv-x="680" d="M199,325q-41,0-75.5,21.5T69,404T49,484q0,46 19,82t53,57.5T199,645q43,0 76-21.5t52-58T346,484q0-42-18.5-78T276,347.5T199,325ZM91-12Q78-12 73-1L555,624q11,12 20,12q22,0 23.5-2.5T607,624L124,0Q114-12 91-12ZM205,350q40,0 57.5,37T280,476q0,37-10.5,70T240,600t-45,21q-41,0-61.5-37.5T113,496q0-36 13-69.5t34-55T205,350ZM487-7q-41,0-75.5,21.5T357,72t-20,80q0,46 19.5,82T410,291.5T488,313q43,0 75.5-21.5t51.5-58T634,152q0-42-18.5-78.5T564,15T487-7Zm7,25q40,0 57,37t17,89q0,37-11,70t-29.5,54T484,289q-41,0-62-37.5T401,164q0-35 13-69t34.5-55.5T494,18Z"/>
      <glyph unicode="&amp;" glyph-name="ampersand" horiz-adv-x="671" d="M248-3Q159-3 106.5,40T54,158q0,65 44,108.5T220,350q-21,35-39.5,80T162,519q0,38 19.5,69T234,637.5T309,656q67,0 106-29.5T454,544q0-61-39-104T305,353q29-49 66-99t82-100q13,19 23,37.5T494,227q16,33 16,44q0,14-16.5,15.5T465,289q-2,6-2,12q0,8 3,11h79q35,0 62.5,2t47.5,3q5-3 5-13q0-15-6-15q-8,0-22.5-3T604,279.5T585,272q-4-4-18-27.5T531,188t-50-65q32-33 49.5-49.5t28-22.5T579,45q14,0 30.5,17T631,91q8,0 15.5-6T654,73q-6-12-18-29T602.5,13.5T545,0q-26,0-54.5,18.5T446,54L430,72Q345-3 248-3Zm39,388q52,30 75.5,60.5T386,530q0,36-20,63t-52,27q-33,0-56-21.5T235,543q0-64 52-158ZM282,40q31,0 66.5,15T407,95q-19,20-44.5,52t-50,66T270,274l-27,40q-28-20-51.5-38.5T154,233t-14-61q0-66 41-99T282,40Z"/>
      <glyph unicode="&apos;" glyph-name="quotesingle" horiz-adv-x="186" d="M91,434q-14,0-15,13q-2,23-7,50T57,555q-15,62-15,80q0,11 7.5,25.5t21.5,26T104,698h5q18,0 25-12q7-13 7-53q0-29-15-91q-8-31-12.5-54T107,449q-1-15-16-15Z"/>
      <glyph unicode="(" glyph-name="parenleft" horiz-adv-x="323" d="M263-121q-21,0-52.5,34T147,2q-21,36-38,85.5T81.5,193T71,305q0,83 18.5,162T137,609.5t62.5,101T263,748q5,0 9-9t4-15q0-3-1-3q-25-12-49.5-51t-45-96.5T148,446.5T136,305q0-70 14-137.5T186,44t46-93t43-46q2-2 2-5q0-6-4.5-13.5T263-121Z"/>
      <glyph unicode=")" glyph-name="parenright" horiz-adv-x="322" d="M59-121q-5,0-9.5,7.5T45-100q0,3 2,5q19,9 43,46t46,93t36,123.5T186,305q0,72-12,141.5t-32.5,127T96.5,670T47,721q-1,0-1,3q0,6 4,15t9,9q30,0 63.5-37.5t62.5-101T232.5,467T251,305q0-56-10-112T214,87.5T176,2q-31-55-63.5-89T59-121Z"/>
      <glyph unicode="*" glyph-name="asterisk" horiz-adv-x="444" d="M205,299q-15,0-24,10.5T172,336q0,17 9.5,39.5t20,44.5T214,457q1,6-2,12t-14,4q-13-3-34.5-13t-44-18.5T79,433q-16,0-27.5,7.5T40,463q0,22 19,29.5T98,500q19,0 47-4t47-2q11,1 14,8t-2,14q-9,16-28,36.5t-35,42T125,635q0,14 11,22t22,8q17,0 27.5-16.5t16-37T209,578q2-12 5.5-27t9-26T235,514q8,0 19.5,17T274,564q6,11 16.5,27.5t24,29T343,633q13,0 21.5-9.5T373,601q0-14-11.5-26.5t-26.5-22T307,536q-16-9-28-16.5T260,505q-10-10-4.5-16t9.5-8q25-11 53.5-14.5T372,451q14-7 23-16.5t9-20.5t-9-21t-25-10q-18,0-38,15.5T293,433t-34,27q-12,7-17,6.5T235,452q-1-21 2-42.5t3-44.5q0-22-6.5-44T205,299Z"/>
      <glyph unicode="+" glyph-name="plus" horiz-adv-x="582" d="M268,6q-5,0-5,8V213q0,5-6,5H58q-6,0-6,10q0,12 8,41q1,5 6,5H258q5,0 5,6V470q-2,5 5,7q29,8 41,8l10-6V279q0-5 4-5H523q8,0 8-5q0-9-10-45q-2-4-2-4q-2-2-3-2H323q-4,0-4-3V23q0-10-45-16h-3q-1-1-3-1Z"/>
      <glyph unicode="," glyph-name="comma" horiz-adv-x="239" d="M67-163q-4,0-13.5,8T44-141q0,3 11,13t26,25.5t26,38T118-14q0,18-15,49Q88,67 88,76q0,22 22,37.5T160,129q15,0 24-4q13-19 13-64q0-64-35-120T68-163H67Z"/>
      <glyph unicode="-" glyph-name="hyphen" horiz-adv-x="375" d="M65,199q-7,0-7,11q0,51 12,51l243,12q6,0 6-9q0-8-2-27t-8-25l-3-2L65,199Z"/>
      <glyph unicode="." glyph-name="period" horiz-adv-x="233" d="M117-15Q93-15 75.5,2T58,43T75,84.5T117,102q26,0 42-17.5T175,43T158,2T117-15Z"/>
      <glyph unicode="/" glyph-name="slash" horiz-adv-x="424" d="M43-35q-5,0-9,1t-9,6L321,739q10,22 49,22q9,0 21-6L95-12Q93-24 74-29.5T43-35Z"/>
      <glyph unicode="0" glyph-name="zero" horiz-adv-x="516" d="M258-3Q192-3 143,40T67,156T40,319q0,91 27,163.5T143,598t115,43q68,0 116.5-42.5t75-115T476,319q0-90-27-163T373.5,40T258-3Zm-5,38q43,0 73,38t46,104t16,148q0,80-16,142.5t-44,99T263,603q-40,0-70.5-37T145,465T128,320q0-80 16-144.5T188.5,73T253,35Z"/>
      <glyph unicode="1" glyph-name="one" horiz-adv-x="378" d="M80-3q-4,4-4,17q0,12 4,12q9,0 25,3t30,8t15,9q6,24 6,57V463q0,31-2,48.5T142,529q-7,0-26.5-11T78,496q-6,3-12,11.5T60,521q0,4 2,6Q231,642 235,642h2q8,0 12-19q-10-31-10-94V135q0-29 2-51t6-38q2-4 15.5-9T292,29t22-3q4,0 4-18q0-10-1-11q-50,2-80,3.5T196,2q-8,0-37-1.5T80-3Z"/>
      <glyph unicode="2" glyph-name="two" horiz-adv-x="484" d="M60,0q-4,0-7.5,11.5T49,30q73,74 133,152t96,150.5T314,459t-27,83.5T216,572q-83,0-133-83q-6,0-12.5,6.5T64,505q3,12 17.5,34.5t39,46t58.5,40T256,642q45,0 77-23t49.5-60.5T400,479q0-47-19-94.5T331.5,292T266,206.5t-68-73T142,79q-3-5 2-7H337q28,0 40.5,16T403,149q5,11 14,11q14,0 18-4Q411,38 408,16Q407,0 388,0H60Z"/>
      <glyph unicode="3" glyph-name="three" horiz-adv-x="459" d="M170-5Q85-5 40,25Q30,32 30,54q0,47 37,47q15,0 27-14.5T126,56q29-21 76-21q44,0 79.5,34.5T317,180q0,40-17.5,71.5T253,302t-63,19q-38,0-65-7q-7,8-7,26q0,6 2,10q69,12 110,48t41,98q0,34-26.5,60.5T184,583q-29,0-49.5-11.5t-32-23.5T87,532q-4,0-8,9.5T75,558q27,40 61,62t88,22q29,0 57-16t46.5-45T346,514q0-44-21.5-74.5T263,379q36-12 68-36t52-58.5T403,206q0-63-30.5-110.5T289,21.5T170-5Z"/>
      <glyph unicode="4" glyph-name="four" horiz-adv-x="484" d="M330-6q-37,0-37,8V174H40q-7,8-7,31L336,633q9,12 23,12q13,0 13-10V232h62q16,0 16-48q0-5-6-10H372V-1q-3-5-42-5ZM111,232H293V498q0,9-5,9l-1-2L105,244q-1-1-1-3q0-9 7-9Z"/>
      <glyph unicode="5" glyph-name="five" horiz-adv-x="485" d="M201-5Q112-5 67,25Q57,32 57,54q0,47 37,47q15,0 27-14.5T153,56q29-21 80-21q42,0 75.5,35.5T342,180q0,62-35.5,102.5T196,323q-51,0-87-11q-4,2-8.5,5.5T91,326l48,297q98,3 157,6.5t78,7.5q2-4 3.5-9.5T379,611q0-20-6-50q-27-8-113-11l-87-4q-6-2-7-8q-5-28-12.5-67.5T137,378q32,13 94,13q54,0 98.5-25.5T401,298t27-92q0-61-29.5-109T318,22T201-5Z"/>
      <glyph unicode="6" glyph-name="six" horiz-adv-x="484" d="M235-6q-55,0-98.5,30t-68,79T44,208q0,78 29,145.5t79,124T266,577t134,70q6,0 14.5-11t8.5-16Q322,576 251.5,513.5T154,352q-1-10 1-10l3,2q10,8 30,16.5T231.5,375t43.5,6q47,0 84-27.5t59-70T440,195q0-55-28.5-101T336,21T235-6Zm12,39q44,0 77,38.5T357,174q0,68-32.5,112T229,330q-27,0-52-14.5T145,285q-13-31-15-75q0-46 15.5-86.5t42-65.5T247,33Z"/>
      <glyph unicode="7" glyph-name="seven" horiz-adv-x="483" d="M143-6Q132-6 120,4.5T108,22L374,553H133q-22,0-37-22T70,474q-1-4-14-5t-20,2q1,5 5,23.5t9.5,43t10,47.5T67,621q2,12 16,12H372q8,0 18,0.5t23,1.5l26,1q7,0 7-9q0-13-9-30t-20-37L154-3q-3-3-11-3Z"/>
      <glyph unicode="8" glyph-name="eight" horiz-adv-x="484" d="M239-9Q156-9 104.5,36T53,154q0,47 35,88.5T183,318q5,3 0,6q-39,23-70.5,64.5T81,480q0,43 23,80t61,60t82,23q46,0 83-19t59-53t22-80q0-77-112-147q-4-3 0-6q33-19 63-45.5t49-58T430,167q0-49-26.5-89t-70-63.5T239-9Zm26,371q2,0 6,2q68,45 68,122q0,32-12.5,59.5t-34.5,45T241,608q-37,0-61.5-32T155,492q0-68 104-128q3-2 6-2ZM241,27q50,0 79,30t29,81q0,35-19.5,63.5T286,250t-38,29q-19,13-25.5,15.5T214,297t-6-2.5t-9-6.5q-36-26-51.5-55.5T132,157q0-58 33-94t76-36Z"/>
      <glyph unicode="9" glyph-name="nine" horiz-adv-x="484" d="M105-6Q99-6 91,6T83,23q52,20 101.5,57.5t88,90T329,289q3,10-1,10q-8-10-28-18.5T257.5,267T217,262q-48,0-87,25T68,353.5T45,445q0,56 28.5,101.5t75,73T249,647q55,0 97.5-30T414,538.5T439,433q0-78-32-152T325,151Q274,96 217.5,55T105-6ZM255,311q47,0 71.5,32T352,428q1,49-14,90t-42,65.5T233,608q-43,0-74-40T128,463t33-108.5T255,311Z"/>
      <glyph unicode=":" glyph-name="colon" horiz-adv-x="233" d="M120-15Q96-15 78.5,2T61,43T78,84.5T120,102q26,0 42-17.5T178,43T161,2T120-15Zm0,326q-24,0-41.5,17T61,369t17,41.5T120,428q26,0 42-17.5T178,369t-17-41t-41-17Z"/>
      <glyph unicode=";" glyph-name="semicolon" horiz-adv-x="244" d="M66-171q-4,0-13.5,8T43-149q0,3 11,13t26,25.5t26,38T117-22q0,18-15,49Q87,59 87,68q0,22 22,37.5T159,121q15,0 24-4q13-19 13-64q0-64-35-120T67-171H66Zm76,482q-24,0-41.5,17T83,369t17,41.5T142,428q26,0 42-17.5T200,369t-17-41t-41-17Z"/>
      <glyph unicode="&lt;" glyph-name="less" horiz-adv-x="535" d="M459-15l-5,2L79,177q-18,11-18,40q0,15 18,24L448,428l5,2q8,0 17-47l-3-9L141,209L472,41q3-1 3-6q0-4-3-16.5t-6.5-23T459-15Z"/>
      <glyph unicode="=" glyph-name="equal" horiz-adv-x="571" d="M59,259q-7,0-7,10q4,46 15,46H516q4,0 4-5q0-9-10-45q-2-4-2-4q-2-2-3-2H59Zm0-142q-7,0-7,10t9,41q1,2 3,4q1,1 2,1H512q8,0 8-5q0-9-10-45q-2-4-2-4q-2-2-3-2H59Z"/>
      <glyph unicode="&gt;" glyph-name="greater" horiz-adv-x="535" d="M78-15q-2,0-6.5,10.5T64,18.5T61,35l3,6L395,209L70,374q-3,2-3,8q0,13 6.5,30.5T83,430l5-2L458,241q17-9 17-24q0-31-17-40L83-13q-6-2-5-2Z"/>
      <glyph unicode="?" glyph-name="question" horiz-adv-x="366" d="M110,160q-13,0-13,8v47q-1,17-1,28.5T96,262q0,27 6.5,46.5T138,350l44,33q26,20 45.5,33.5t30.5,28T269,482q0,38-24.5,60.5T188,565q-10,0-26.5-1.5t-31-3.5T112,558q-16,0-31.5,9T65,598q0,24 7,34q19,10 50,10q30,0 64-14t64.5-39T300,530t19-73q0-52-22.5-86.5T218,304q-14-8-31.5-20.5t-30.5-24T140,242q-10-17-10-69q0-13-20-13Zm8-175Q94-15 76.5,2T59,43T76,84.5T118,102q26,0 42-17.5T176,43T159,2T118-15Z"/>
      <glyph unicode="@" glyph-name="at" horiz-adv-x="819" d="M414-171q-80,0-146.5,32T153-54.5T78.5,60.5T52,185q0,90 30.5,162.5T168,471t128.5,78.5T457,577q74,0 133-30.5T691.5,466t65-111T779,233q0-64-19-120.5t-59-91T597-13q-32,0-57.5,16.5t-40,41T485,92q0,1-1.5,0.5T480,90q-10-18-36-40.5T388.5,10T335-7q-34,0-58.5,21T239,69t-13,72q0,72 33.5,133T355,372.5T501,410l89-9l-7-53L558,125q-1-10-1.5-17T556,97q0-70 50-70q33,0 57,18t38.5,46.5t21.5,61t7,61.5q0,86-36,157.5t-100,114T446,528q-69,0-129.5-23t-107-64.5t-72.5-97T111,223q0-104 39.5-183t119-122.5T469-126q17,0 36,7t29,13l6,2l2-10q-4-22-26.5-34.5T465-166t-51-5ZM363,53q20,0 41.5,13.5t40.5,33t31.5,39T490,170l15,152q1,4 1,12q0,15-11.5,20T455,359q-64,0-107.5-57.5T304,143q0-47 18-68.5T363,53Z"/>
      <glyph unicode="A" glyph-name="A" horiz-adv-x="684" d="M24-3q-4,4-4,15q0,14 4,14q12,0 31,5T81,45q11,14 22.5,37T128,139L302,586q6,15 7.5,21t3,10.5T319,633q7,14 14,22t23,8l9-3L565,132q9-23 16.5-41T594,60q4-10 17.5-17.5t28-12T662,26q4,0 4-19q0-2-0.5-4.5T664-3q-50,2-77.5,3.5T554,2L438-3q-4,4-3.5,16.5T439,26q12,0 30,5t21,13q1,4 1.5,8t0.5,8q0,13-3,30.5T482,118L437,242q-3,4-6,4q-39,3-76,3q-26,0-57.5-1.5T228,244l-5-3L180,131q-10-25-13.5-42T163,62q0-14 8-20q9-7 29-11.5T229,26q3,0 3.5-12T231-3L128,2Q100,4 73.5,1.5T24-3ZM320,297q45,0 91,3l3,5L333,526L247,303q0-4 2-4q26-1 43.5-1.5T320,297Z"/>
      <glyph unicode="B" glyph-name="B" horiz-adv-x="592" d="M40-3q-3,3-3,16t3,13q9,0 24,3.5T92.5,38T109,49q7,11 7,94V521q0,29-1.5,51T109,607q-2,6-15.5,11t-29,8T40,629q-4,0-4,12q0,13 4,17q26-1 55.5-1.5T159,656l84,1h57q13,0 26.5-1t26.5-3q40-7 75.5-26.5t58-52.5T509,493q0-35-23-67q-23-31-42.5-43T410,366q-8-3-5-6q20-3 45-18t48-38.5T536.5,250T552,187q0-57-31.5-99T432,23T298,0H161L40-3ZM269,373q32,0 56,3q41,4 68.5,28.5T421,470q0,69-34.5,107.5T284,616q-47,0-71-7q-6-1-6-9l-4-101V380q0-7 66-7Zm4-328q25,0 49.5,4T381,65q34,11 55,39.5T457,176t-19,78t-58,56T279,331q-11,0-29-1t-43-3q-4-11-4-33V148q0-76 16-89q16-14 54-14Z"/>
      <glyph unicode="C" glyph-name="C" horiz-adv-x="656" d="M361-6Q295-6 237.5,20t-101,71t-68,104.5T44,322q0,71 25,133.5t70,110T243.5,640T372,667q59,0 120-6t123-19l-2-144q0-15-21-15q-10,0-13,5q-3,13-7.5,26.5T553,550q-24,35-68.5,55T375,625q-49,0-92-23.5T207.5,538T157,447.5T139,343q0-83 28-149q28-68 88.5-112.5T399,37q99,0 153,58q16,17 25,40t14,40t10,17q6,0 14.5-1.5T629,186l5-3q0-6-4-28t-10-48.5T608.5,60T600,38Q526-6 361-6Z"/>
      <glyph unicode="D" glyph-name="D" horiz-adv-x="722" d="M38-3q-3,3-3,15q0,14 3,14q9,0 24,3.5T90.5,38T107,49q7,11 7,94V521q0,29-1.5,51T107,607q-2,6-15.5,11t-29,8T38,629q-4,0-4,12q0,13 4,17q26-1 55.5-1.5T157,656l97,1q29,0 48,0.5t29,0.5q109,0 186-44.5T635,496t41-160q0-96-41.5-174T515.5,39T330-3L259-1q-30,1-55,1.5T159,0L38-3ZM346,43q230,0 230,297q0,76-27,138t-79.5,99T339,614h-5q-108,0-120-16q-13-17-13-63V139q0-41 15-76q2-5 17-8.5t36.5-6t42.5-4T346,43Z"/>
      <glyph unicode="E" glyph-name="E" horiz-adv-x="571" d="M495-4q-25,0-65.5,0.5T334-2T234-0.5T154,0L33-3q-3,3-3,16t3,13q9,0 24,3.5T85.5,38T102,49q7,11 7,94V521q0,29-1.5,51T102,607q-2,6-15.5,11t-29,8T33,629q-4,0-4,12q0,13 4,17q26-1 55.5-1.5T152,656q23,0 62,1t94,3q56,2 97.5,3t69.5,1q2-14 6-33.5T491,588q5-24 8.5-39t4.5-21q-5-5-18-5t-14,7q-15,55-42,70.5T356,616H289q-87,0-88-13q-2-12-3.5-33T196,519V359q0-6 43-6h53q34,0 46,0.5t17.5,2.5t21.5,6q10,2 15.5,23.5T402,421q1,7 15,7q12,0 17-5V234q-4-4-16-4q-13,0-16,8q-4,14-7,24t-5,17q-5,14-7.5,16t-8.5,6q-14,8-106,8q-72,0-72-9V145q0-65 9-91q3-10 68-10h48q92,0 126,17q15,8 33.5,35.5T510,162q2,6 14,6q19,0 25-6q-3-8-9.5-24.5T527,104T517,75q-6-18-13-41T495-4Z"/>
      <glyph unicode="F" glyph-name="F" horiz-adv-x="551" d="M46-3q-4,4-4,15q0,14 4,14q9,0 24,2.5T98,36t15,10q7,25 7,90V521q0,29-1.5,51T113,607q-2,6-15.5,11t-29,8T44,629q-4,0-4,12q0,13 4,17q26-1 55.5-1.5T163,656q23,0 62,1t94,3q56,2 97.5,3t69.5,1q2-14 6-33.5T502,588q5-24 8.5-39t4.5-21q-5-5-18-5t-14,7q-15,55-42,70.5T367,616H300q-87,0-88-13q-2-12-3.5-33T207,519V356q0-6 42-6h53q45,0 65,3.5t28,17T410,414l2,9q1,7 15,7q12,0 17-5V231q-4-4-16-4q-13,0-16,8q-4,14-7,24t-5,17q-5,14-7.5,16t-8.5,6q-14,8-106,8q-71,0-71-9V139q0-58 9-93q2-4 15-9t28-8t21-3q4,0 4-15q0-6-2-14q-50,2-79,3.5T166,2L46-3Z"/>
      <glyph unicode="G" glyph-name="G" horiz-adv-x="715" d="M361-6Q295-6 237.5,20t-101,71t-68,104.5T44,322q0,71 25,133.5t70,110T243.5,640T372,667q71,0 237-45l4-124q0-15-21-15q-10,0-13,5Q552,625 375,625q-66,0-119-39T172,481T141,335q0-55 19.5-108.5t54-96t82-68T399,37q89,0 130,22q7,3 7,15l-1,82v7q0,64-8,86q-2,7-17,11.5T478,268t-28,3q-4,0-4,13q0,12 4,16l131-5l108,5q2-8 2-14q0-15-4-15t-15.5-3t-24-7T629,253q-10-7-10-67q0-10 0.5-21.5T621,141l1-27q0-20 7-35t7-20q0-8-25-18q-16-8-27-11t-15-5q-5-2-22-7.5T519,10q-27-5-50-8.5T421-4T361-6Z"/>
      <glyph unicode="H" glyph-name="H" horiz-adv-x="707" d="M42-3q-4,4-4,15q0,14 4,14q9,0 24,2.5T94,36t15,10q4,14 5.5,36t1.5,53V523q0,31-1.5,53.5T109,612q-2,6-15,10.5T66,630t-24,3q-4,0-4,13q0,12 4,16q9,0 30.5-1.5t46.5-3t43-1.5q32,0 64,2.5t52,3.5q2-4 1.5-16.5T276,633q-6,0-21-3.5t-28-8T212,612q-9-34-9-93V370l2-3q49-1 87-1.5t65-0.5q29,0 66,0.5t82,1.5q2,2 2,4V523q0,31-1.5,53.5T500,612q-2,6-15,10.5T457,630t-24,3q-4,0-4,13q0,12 4,16q8,0 30-1.5t47.5-3T554,656q32,0 63,2.5t51,3.5q2-8 2-15q0-14-4-14q-6,0-21-3.5t-28-8T602,612q-4-16-6-39t-2-54V139q0-31 2-54t6-39q2-4 15-9t28-8t21-3q4,0 4-15q0-6-2-14q-50,2-78.5,3.5T554,2L433-3q-4,4-4,17q0,12 4,12q9,0 24,2.5T485,36t15,10q4,14 5.5,36t1.5,53V311l-2,4q-47,1-84,1.5T357,317q-154,0-154-5V139q0-58 9-93q2-4 15-9t28-8t21-3q3,0 3.5-12T278-3q-50,2-79,3.5T162,2L42-3Z"/>
      <glyph unicode="I" glyph-name="I" horiz-adv-x="318" d="M42-3q-4,4-4,15q0,14 4,14q9,0 24,2.5T94,36t15,10q4,14 5.5,36t1.5,53V523q0,31-1.5,53.5T109,612q-2,6-15,10.5T66,630t-24,3q-4,0-4,13q0,12 4,16l120-5q8,0 37,1.5t79,3.5q2-8 2-15q0-14-4-14q-6,0-21-3.5t-28-8T212,612q-9-34-9-93V139q0-58 9-93q2-4 15-9t28-8t21-3q4,0 4-15q0-6-2-14q-50,2-79,3.5T162,2L42-3Z"/>
      <glyph unicode="J" glyph-name="J" horiz-adv-x="322" d="M-31-227q-11,0-24,4t-21,8l-7,4q-12,14-12,37q0,22 18.5,36T-33-124q18,0 41-22q23-21 35-21q28,0 57,55q14,27 23,76.5T132,77V523q0,31-1.5,53.5T125,612q-2,6-15,10.5T82,630t-24,3q-4,0-4,13q0,12 4,16q9,0 30.5-1.5t46.5-3t43-1.5q32,0 64,2.5t52,3.5q2-8 2-15q0-14-4-14q-6,0-21-3.5t-28-8T228,612q-9-34-9-93V85q0-63-18.5-119.5t-52-99.5T69-202T-31-227Z"/>
      <glyph unicode="K" glyph-name="K" horiz-adv-x="693" d="M45-3q-4,4-4,15q0,14 4,14q9,0 24,2.5T97,36t15,10q4,14 5.5,36t1.5,53V523q0,31-1.5,53.5T112,612q-2,6-15,10.5T69,630t-24,3q-4,0-4,13q0,12 4,16q9,0 30.5-1.5t46.5-3t43-1.5q32,0 64,2.5t52,3.5q2-4 1.5-16.5T279,633q-6,0-21-3.5t-28-8T215,612q-9-34-9-93V356l7-6h7q32,0 58,29q59,65 101.5,116T450,582q24,29 24,38q0,17-57,17q-4,0-4,9q0,5 0.5,8.5T415,662q29-2 58-4t49-2q17,0 37.5,1.5t38,3T623,662q2-4 1.5-14.5T621,637q-60-7-92-42L328,361q-8-9 7-27L576,69q20-21 51-32t55-11q5,0 5-18q0-5-2-11q-50,2-81,3.5T561,2q-42,0-75.5-1.5T426-3q-4,4-4,17q0,12 4,12q12,0 27.5,4T469,42q0,32-227,265q-4,4-29,4q-7,0-7-8V139q0-58 9-93q2-4 15-9t28-8t21-3q3,0 3.5-12T281-3q-50,2-79,3.5T165,2L45-3Z"/>
      <glyph unicode="L" glyph-name="L" horiz-adv-x="568" d="M501-4Q449-4 339-1Q284,1 239,2T160,2L39-1q-3,3-3,16t3,13q10,0 24.5,3t28,7.5T108,49q7,11 7,94V521q0,66-7,91q-2,6-15,10.5T65,630t-24,3q-4,0-4,13q0,12 4,16q9,0 30.5-1.5t46.5-3t43-1.5q32,0 64,2.5t52,3.5q2-8 2-15q0-14-4-14q-6,0-21-3.5t-28-8T211,612q-9-34-9-93V142q0-53 9-88q3-10 68-10h48q92,0 126,17q15,8 33.5,35.5T516,162q2,6 14,6q19,0 25-6q-3-8-9.5-24.5T533,104T523,75q-6-18-13-41T501-4Z"/>
      <glyph unicode="M" glyph-name="M" horiz-adv-x="910" d="M31-3q-5,5-5,15q0,14 5,14q10,0 26,3t31,8t21,11q17,18 18,87q2,116 4.5,208.5t4.5,152t2,76.5q0,27-4,40q-2,6-17.5,10.5T83,630t-28,3q-4,0-4,14q0,11 4,15q24-1 53-3t59-2q19,0 41.5,1.5T259,662q8-22 198-501q2-2 4-2q4,0 5,4q49,115 88,210t68,169l40,120q32-2 52.5-3t30.5-1q31,0 59,1t53,3q3-9 3-15q0-14-5-14h-2q-11,0-29-6.5T797,613q-12-9-12-67l9-406q2-58 15-92q3-6 16-11t28.5-8T876,26q4,0 4-14q0-7-2-15q-50,2-79.5,3.5T759,2L639-3q-4,4-4,16q0,13 4,13q10,0 30.5,5T699,41q12,8 12,43v53L699,489q0,11-2.5,24.5t-5.5,24T684,548q-2,0-5-7L470,41Q451-2 433-2q-1,0-9,2L195,582q-3-141-7-251.5T181.5,153T179,75q0-18 6-26q4-5 20-10.5t33.5-9T262,26q4,0 4-15q0-6-2-14q-50,2-79,3.5T148,2L31-3Z"/>
      <glyph unicode="N" glyph-name="N" horiz-adv-x="721" d="M590-5q-16,0-33,23L169,568V141q0-68 7-93q2-4 17.5-9.5t33.5-9T251,26q3,0 3.5-12T253-3q-50,2-78.5,3.5T138,2L23-3q-3,3-3,15q0,14 3,14q10,0 28,3.5t34,9T103,50q10,24 10,94V537q0,51-7,75q-2,6-17.5,10.5T55,630t-28,3q-4,0-4,13q0,12 4,16q39-1 64.5-1.5T129,660q26,0 46,0.5t34,1.5q19-34 103.5-156.5T548,172q3,17 3,41V524q0,63-7,88q-2,6-18,11t-34,8.5T465,635q-4,0-4,12q0,11 4,15q9,0 30-1.5t45.5-3T583,656q26,0 66,3q39,3 46,3q2-8 2-15q0-12-4-12q-6,0-25-4t-35.5-9T614,612q-4-16-6-39t-2-54V139q0-62 3-140q-4-4-19-4Z"/>
      <glyph unicode="O" glyph-name="O" horiz-adv-x="728" d="M138,89Q44,187 44,328q0,70 25,131.5t68.5,108t101.5,73T363,667t124-26.5t102-73t69-108T683,328q0-141-94-239Q525,21 444-1.5t-161.5,0T138,89ZM379,33q64,0 112,42q48,41 70.5,102.5T584,309q0,79-26,151q-26,71-81,118T348,625q-63,0-109-38.5t-71-101T143,350q0-79 26-151q26-71 81-118.5T379,33Z"/>
      <glyph unicode="P" glyph-name="P" horiz-adv-x="545" d="M44-3q-3,3-3,18q0,13 3,13q10,0 24.5,3t28,7.5T113,49q7,11 7,94V521q0,29-1.5,51T113,607q-2,6-15.5,11t-29,8T44,629q-4,0-4,12q0,13 4,17l120-2q15,0 33,0.5t38,1.5t38,1.5t32,0.5q33,0 67-10t65-30q32-20 51.5-57T508,477q0-31-13-66t-38.5-65.5t-64-49.5T304,277q-56,0-77,28q-6,7-3,23q2,5 3,3q31-11 67-11q34,0 61.5,19.5t44,52T416,462q0,71-31,112.5T289,616q-46,0-70-7q-9-1-10.5-31T207,499V142q0-66 8-87q4-8 19.5-15T268,29.5T294,26q4,0 4-14q0-7-2-15q-50,2-82.5,3.5T166,2L44-3Z"/>
      <glyph unicode="Q" glyph-name="Q" horiz-adv-x="724" d="M604-136q-47,0-104,26Q439-82 382.5-49T277,0q-36,11-74,37t-75,66T67.5,202.5T44,328q0,70 25,131.5t68.5,108t101.5,73T363,667t124-26.5t102-73t69-108T683,328q0-64-20-119.5T610,110T537.5,40T459,5q14-7 32.5-17T534-36q32-18 55.5-28.5t47.5-15T692-84q29,0 46.5,4T760-76q12,0 12-20v-5q-67-35-168-35ZM379,33q64,0 111,39t72.5,102T588,309q0,63-16.5,119.5t-48,101t-76,70T348,625q-63,0-110-38.5T165,485T139,350q0-63 16.5-120t48-101.5t76-70T379,33Z"/>
      <glyph unicode="R" glyph-name="R" horiz-adv-x="660" d="M640-5Q501-5 397,139q-8,11-20.5,30T331,236q-16,23-28.5,38.5t-29,23.5T229,306q-11,0-17.5-3T205,289V142q0-66 8-87q4-8 19.5-15T266,29.5T292,26q4,0 4-14q0-7-2-15q-50,2-82.5,4T164,2L42-3q-3,3-3,18q0,13 3,13q10,0 24.5,3t28,7.5T111,49q7,11 7,94V521q0,29-1.5,51T111,607q-2,6-15.5,11t-29,8T42,629q-4,0-4,12q0,13 4,17l120-2q29-1 71,1.5t70,2.5q54,0 103.5-21t81-62T519,477q0-42-31.5-88T402,318q-10-4-6-10q49-104 115-176Q607,27 667,27q3-6 3-14q0-9-3-15q-10-3-27-3ZM292,349h25q24,0 49.5,16t43,45T427,477q0,139-140,139q-46,0-70-7q-9-2-10.5-32.5T205,499V378q0-29 87-29Z"/>
      <glyph unicode="S" glyph-name="S" horiz-adv-x="491" d="M246-10q-24,0-51,3.5T150,1Q113,8 96.5,12.5T66,19Q53,81 47,120.5T41,178q0,6 16,6q18,0 25-9Q117,31 248,31q50,0 85,30t35,85q0,18-7.5,44T327,235q-20,15-33,22.5t-26,14T235,290l-40,24q-31,19-62,43.5T81.5,415T61,490q0,53 27.5,92.5t72,61.5T257,666q22,0 41.5-2.5T331,658q30-7 42.5-11t34.5-9q12-52 12-143q0-7-10-7q-25,0-26,10q-5,30-22,59t-46,48.5T247,625q-41,0-64-15.5t-32.5-39T141,521q0-25 12-50t35-42q31-23 62.5-43T316,345q32-20 64-44.5T433.5,245T455,173q0-53-29-94.5t-76.5-65T246-10Z"/>
      <glyph unicode="T" glyph-name="T" horiz-adv-x="669" d="M217-3q-4,4-4,15q0,14 4,14q9,0 24,2.5T269,36t15,10q4,14 5.5,36t1.5,53V497q0,87-9,103q-7,15-108,15q-38,0-59-6.5T83,583T62,526q-2-5-10-5q-17,0-24,7L47,671q22-5 39-8t30-3q72,0 127-2t92-2q77,0 132.5,2t87.5,2q13,0 30,3t39,8l19-143q-7-7-24-7q-8,0-10,5q-9,38-20.5,57T556,608.5T497,615q-105,0-110-15q-9-31-9-100V139q0-58 9-93q2-4 15-9t28-8t21-3q4,0 4-15q0-6-2-14q-50,2-79,3.5T337,2L217-3Z"/>
      <glyph unicode="U" glyph-name="U" horiz-adv-x="719" d="M358,0Q239,0 175,70T111,296V523q0,31-1.5,53.5T104,612q-2,6-15,10.5T61,630t-24,3q-4,0-4,13q0,12 4,16l120-5q8,0 37,1.5t79,3.5q2-8 2-14q0-15-4-15q-6,0-21-3.5t-28-8T207,612q-9-34-9-93V296q0-113 48-180T382,49q171,0 171,225V524q0,63-7,88q-2,6-18,11t-34,8.5T467,635q-4,0-4,12q0,11 4,15q9,0 30-1.5t45.5-3T585,656q26,0 66,3q39,3 46,3q2-8 2-15q0-12-4-12q-6,0-25-4t-35.5-9T616,612q-4-16-6-39t-2-54V276q0-103-29-163.5T494,26T358,0Z"/>
      <glyph unicode="V" glyph-name="V" horiz-adv-x="709" d="M345-9q-7,0-10,6L130,514q-25,66-45,96q-7,11-29,17t-35,6q-4,0-4,13q0,12 4,16q24-1 54-3t61-2q12,0 43,1.5t81,3.5q2-4 1.5-16.5T258,633q-19,0-39-8t-20-25q0-29 126-337q14-34 24.5-60.5T368,157q3-5 8.5-2.5T384,162L534,524q19,48 19,70q0,15-13,23.5t-29.5,12T483,633q-4,0-4,13q0,12 4,16q47-2 73.5-3.5T590,657l101,5q2-8 2-15q0-14-4-14q-45,0-60-28q-11-21-23.5-46.5T580,502L380,24Q367-9 345-9Z"/>
      <glyph unicode="W" glyph-name="W" horiz-adv-x="1076" d="M405-8q-6,0-9,5L136,514q-14,29-29,53T78,610q-8,10-27,16.5T20,633q-4,0-4,13q0,12 4,16l126-5l105,5q2-4 1.5-16.5T249,633q-16,0-33-7.5T199,604q0-30 23-74L429,120q3-5 8-2.5t7,7.5l83,173L422,514q-14,29-29,53t-29,43q-8,10-27,16.5T306,633q-4,0-4,15q0,10 4,14l126-5l104,5q2-4 1.5-16.5T534,633q-16,0-32.5-7T485,604q0-13 5.5-31.5T508,530l66-135l70,147q14,29 14,58q0,17-21.5,25T599,633q-4,0-4,13q0,12 4,16q40-2 65.5-4t35.5-1l104,5q2-4 1.5-16.5T802,633q-6,0-20-3.5t-28-10T733,605q-9-11-23.5-36.5T675,502L598,344L707,120q5-9 12,5L898,536q9,20 13,36t4,27q0,17-20.5,25.5T858,633q-4,0-4,13q0,12 4,16q40-2 65.5-3.5T960,657q29,0 54,2t45,3q2-8 2-15q0-14-4-14q-10,0-32-7.5T992,605q-28-34-58-101L722,24Q708-8 683-8q-6,0-9,5L552,247L444,24Q429-8 405-8Z"/>
      <glyph unicode="X" glyph-name="X" horiz-adv-x="688" d="M9-3Q8,0 7.5,3T7,10q0,16 4,16q21,0 47,6.5T99,54L313,334L173,548q-31,50-66,69q-26,16-56,16q-4,0-4,13q0,12 4,16l125-5q14-1 46,1t82,4q2-4 1.5-16.5T302,633q-18,0-39-7.5T242,601q0-12 12-30L369,396l24,31q13,17 20,26t14.5,18.5T447,496q28,37 46,59t18,47q0,11-20.5,21T441,633q-4,0-4,13q0,12 4,16q47-2 78.5-3.5T568,657q6,0 34,1.5t78,3.5q2-4 1.5-16.5T678,633q-9,0-29.5-3.5t-40-10T582,604L394,358L586,66q14-20 42-30t56-10q5,0 5-16q0-7-2-13L582,2L436-3q-4,4-4,17q0,12 4,12q10,0 23.5,3.5t24,10T494,54q0,4-5,12L339,295Q175,74 175,55q0-10 18.5-19.5T243,26q4,0 4-16q0-9-2-13q-46,2-74.5,3.5T132,2Q121,2 90,0.5T9-3Z"/>
      <glyph unicode="Y" glyph-name="Y" horiz-adv-x="649" d="M207-3q-4,4-4,14q0,13 4,13q8,0 22.5,3t27,8.5T271,46q4,16 6,40t2,56V267q0,14-21,56q-11,20-42,77T133,549q-16,30-24.5,41.5T84,613q-11,8-33,15t-32,7q-4,0-4,11q0,12 4,16l54-3q19-1 35.5-2t30.5-1q12,0 132,6q2-4 1.5-15.5T269,635q-17,0-38.5-8.5T209,601q0-10 11-30L332,359q6-5 10,2Q478,566 478,602q0,11-20,22t-49,11q-4,0-4,12q0,11 4,15l118-6q16-1 32,0.5t32,2.5q33,3 42,3q2-8 2-15q0-12-4-12q-8,0-25-4t-33.5-11T549,604q-15-24-38-60.5t-48-78t-47-79T380,323t-14-32V139q0-31 2-54t6-39q2-4 14.5-9.5t26.5-9T435,24q4,0 4-13q0-6-2-14q-50,2-78,3.5T325,2L207-3Z"/>
      <glyph unicode="Z" glyph-name="Z" horiz-adv-x="600" d="M46,0q-8,10-8,26q0,13 4,17L425,608H213q-44,0-70.5-12T100,557T71,484q-1-4-10-4q-23,0-32,9Q56,615 62,665q5-1 25.5-3t46.5-3t48.5-2t31.5-1H323q35,0 87.5,2.5T533,666q3-1 6.5-13t3.5-20L169,76q-7-10-7-15q0-10 14-10H402q72,0 105,43q17,22 24,36.5T548,172q2,3 14,3q15,0 24-9q-16-52-27-93.5T542,0H46Z"/>
      <glyph unicode="[" glyph-name="bracketleft" horiz-adv-x="361" d="M295-114q-73,12-155,12q-19,0-19,23V717q0,23 19,23q36,0 69.5,2t58,4.5T300,749q6,0 6-12q0-22-18-31q-49-11-101-11q-5,0-7-6V-49q2-8 7-8q51,0 102-17q12-4 12-22q0-11-5-16l-1-2Z"/>
      <glyph unicode="\" glyph-name="backslash" horiz-adv-x="430" d="M373-39l-24,2L36,755q8,6 21,6q39,0 49-22L393,13q3-6 3-20q0-27-23-32Z"/>
      <glyph unicode="]" glyph-name="bracketright" horiz-adv-x="361" d="M67-114q-6,2-6,12t6,20l9,8q48,17 100,17q6,0 6,6l1,2V687q-2,8-7,8q-24,0-49.5,2.5T88,703l-13,3l-1,1q-4,1-8,7q-9,8-9,23q0,12 5,12h1q78-9 160-9q18,0 18-23V-79q0-23-18-23q-36,0-75-3t-60-6l-21-3Z"/>
      <glyph unicode="^" glyph-name="asciicircum" horiz-adv-x="445" d="M84,475q-4,0-7.5,6T72,493l-1,6q5,14 30.5,39t56,60T208,677q6,13 10,13q11,0 21.5-16T263,634.5T293,588q29-37 54.5-60T375,500q0-5-4-15t-9-10q-8,0-32.5,19t-54,47T222,597q-21-27-50.5-55.5t-54-47.5T84,475Z"/>
      <glyph unicode="_" glyph-name="underscore" horiz-adv-x="468" d="M6-43q-6,5-6,9Q0-24 3.5-5.5T14,13H461q6,0 6-9q0-13-9-40q-1-5-6-7H6Z"/>
      <glyph unicode="`" glyph-name="grave" horiz-adv-x="188" d="M166,527q-5,0-22.5,10.5t-40,27.5t-44,36T24,636.5T10,663q0,9 11,16.5T51,687q25,0 34-9q43-50 68-90t25-48q0-13-12-13Z"/>
      <glyph unicode="a" glyph-name="a" horiz-adv-x="423" d="M145-7Q99-7 69,17.5T39,91q0,60 78,100q34,17 67.5,27T252,241q9,3 9,15v75q0,32-20,49.5T193,398q-30,0-50-20.5T123,324q0-35-41-35q-29,0-39,19q0,21 17.5,43.5T106,393t61.5,31T234,436q55,0 79-26.5T337,324V93q0-21 11-35t30-14q13,0 35,14q4,0 4-8q0-13-5-21Q371-6 342-6q-23,0-44,19T269,53q-5-4-12.5-10.5T244,32Q223,16 198.5,4.5T145-7Zm38,57q28,0 53,16t25,34V203q-26-10-49.5-18T174,172q-18-7-34.5-25T123,106q0-30 18.5-43T183,50Z"/>
      <glyph unicode="b" glyph-name="b" horiz-adv-x="499" d="M235-6q-34,0-66.5,6.5T126,7q-9,0-22-5.5T88-4Q84-4 75.5-1T67,6q0,6 6,38.5T79,135V549q0,34-6,64q-4,16-51,16H13q-6,0-6,11q0,16 6,16q56,5 88.5,15T148,691l4,3h2q4,0 8-5.5t5-10.5q-11-33-11-87V416q0-11 3-11q1,0 1.5,0.5T162,406q14,10 43,21t51,11q64,0 110-30.5T436.5,330T461,233q0-48-19-91T390.5,65.5T317.5,13T235-6Zm19,42q38,0 65,25t41.5,65.5T375,212q0,79-41.5,128T224,389q-28,0-48-15.5T156,329V96q0-31 29.5-45.5T254,36Z"/>
      <glyph unicode="c" glyph-name="c" horiz-adv-x="405" d="M239-6Q184-6 138,23T64.5,100.5T37,209q0,62 22.5,113.5t66,82.5T231,436q110,0 152-51q0-67-37-67q-17,0-26,7.5T297,353q-31,46-74,46q-41,0-74.5-39T115,244q0-80 39.5-133T264,58q42,0 70.5,12.5T376,93l7,5q6,0 6-13q0-7-6-18q-20-28-59-50.5T239-6Z"/>
      <glyph unicode="d" glyph-name="d" horiz-adv-x="497" d="M349-6q-6,0-6,17V23q0,5-4,4Q284-4 233-4q-55,0-99.5,27.5t-70,73T38,196q0,48 18.5,92t50,78.5t71.5,54T261,440t75-17q7,0 7,18V549q0,34-6,64q-4,16-51,16h-9q-6,0-6,11q0,16 6,16q56,5 88.5,15T412,691l4,3h2q4,0 8-5.5t5-10.5q-11-33-11-87V141q0-47 6-76q3-10 17.5-12.5T474,48l9-1q3-1 3-12q0-15-6-15q-33-2-68-10.5T358-4l-9-2ZM271,45q34,0 53,15.5T343,102V340q0,21-22.5,39.5T248,398q-38,0-66-24t-43-63.5T124,225q0-48 17.5-89T192,70t79-25Z"/>
      <glyph unicode="e" glyph-name="e" horiz-adv-x="430" d="M239-6Q184-6 138,23T64.5,100.5T37,209q0,70 26,121t71,78.5T235,436q46,0 81-17.5T370,374q18-28 26.5-56.5T405,261q0-20-6-24.5T376,232H124q-8,0-8-5q0-42 17-80.5T183,83t81-25q42,0 70.5,12.5T376,93l7,5q6,0 6-13q0-7-6-18q-20-28-59-50.5T239-6ZM124,274H319q5,0 5,10q0,22-11.5,48.5T278,379t-58,20q-32,0-55-21.5t-35-49T118,281q0-7 6-7Z"/>
      <glyph unicode="f" glyph-name="f" horiz-adv-x="301" d="M30-3q-3,3-3.5,16T30,26q8,0 21,3t24.5,8T88,46q5,20 7.5,42T98,135V365q0,7-5,7H40q-3,0-3,6q0,9 15.5,25T87,419h6q5,0 5,6v13q0,53 17,99t45.5,82t64,56T297,695q73,0 95-39q0-63-36-63q-11,0-20,9.5t-18.5,22t-22,22T266,656q-29,0-50-25t-31.5-66T174,475V424q0-5 5-5H290q5,0 5-7q0-16-12-40H180q-6,0-6-6V135q0-54 9-89q2-4 13-9t24-8t19-3q3,0 4-12T242-3L135,2L30-3Z"/>
      <glyph unicode="g" glyph-name="g" horiz-adv-x="474" d="M213-227q-47,0-89.5,12T55-178T29-116q0,62 98,106Q100-6 77,15T54,66q0,26 22.5,54T127,166q-20,8-38.5,27T58,238T46,292q0,40 23,71.5t61.5,50T217,432q39,0 85-13t79-13h58q6-1 6-25q0-14-6-14H368q-4,0-4-3l10-24q11-25 11-48q0-36-22-68t-59.5-52T219,152q-16,0-30,1t-26,3q-19-14-30.5-29T121,97q0-25 28-32t72-7q62-1 105.5-7.5T395,33q50-24 50-71q0-51-29.5-94t-82-68.5T213-227Zm5,413q39,0 64.5,30T308,288q0,46-28.5,78T213,398q-39,0-64.5-30T123,296q0-46 28.5-78T218,186Zm24-376q40,0 71,15t48.5,39T379-85q0,42-41,56Q298-14 179-14q-8,0-27.5-9t-36-26.5T99-94q0-28 21-50t53.5-34T242-190Z"/>
      <glyph unicode="h" glyph-name="h" horiz-adv-x="530" d="M22-3q-4,4-4,17q0,12 4,12q8,0 22,3t26,8t13,9q7,27 7,69V549q0,34-6,64q-4,16-51,16H24q-6,0-6,11q0,16 6,16q51,5 86,16.5T158,691l5,3h2q4,0 8-5.5t5-10.5q-11-33-11-87V372q0-4 2-4q1,0 3,2q15,16 38.5,31.5t50.5,26T312,438q67,0 96-48t29-148V134q0-28 2-50t6-38q2-4 14-9t26-8t20-3q3,0 4-12T508-3L401,2L296-3q-4,4-4,17q0,12 4,12q8,0 21,3t24,8t12,9q4,14 5.5,32t1.5,38V222q0,62-11,95.5T315,364t-59,13q-20,0-40.5-11.5T181,339t-14-27V135q0-29 2-51t6-38q2-4 14-9t26-8t20-3q3,0 4-12T238-3L131,2L22-3Z"/>
      <glyph unicode="i" glyph-name="i" horiz-adv-x="282" d="M36-3q-4,4-4,17q0,12 4,12q8,0 22,3t26,8t13,9q4,14 5.5,32t1.5,38V305q0,38-14,54q-10,13-24,16.5t-24,4T32,382q0,24 6,25q53,8 81,13.5T169,431l12,3q4,1 5-8t0-13q-2-20-3.5-38T181,341V135q0-29 2-51t6-38q2-4 14-9t26-8t20-3q3,0 4-12T252-3L145,2L36-3Zm99,546q-20,0-35,15T85,593q0,21 15,35.5T135,643q21,0 35.5-14.5T185,593q0-20-14.5-35T135,543Z"/>
      <glyph unicode="j" glyph-name="j" horiz-adv-x="264" d="M15-231q-7,5-12,15q-3,5-1,7l12,6q12,6 27.5,21T73-142t27,74T111,45V305q0,38-14,54q-10,12-23.5,16t-24,5T39,382q0,24 6,25q53,8 87,14.5t41,8.5l12,4h3q4,0 5-8.5t0-12.5q-2-20-3.5-38T188,341V68q0-126-39-188q-25-39-63.5-69T15-231ZM142,543q-20,0-35,15T92,593q0,21 15,35.5T142,643q21,0 35.5-14.5T192,593q0-20-14.5-35T142,543Z"/>
      <glyph unicode="k" glyph-name="k" horiz-adv-x="496" d="M18-3q-4,4-4,17q0,12 4,12q8,0 22,3t26,8t13,9q4,14 5.5,32T86,116V549q0,34-6,64q-4,16-51,16H20q-6,0-6,11q0,16 6,16q51,5 86,16.5T154,691l5,3h2q4,0 8-5.5t5-10.5q-11-33-11-87V241q20,4 25,9l46,39l36,30q17,14 29.5,26T312,367q0,13-22,14q-20,1-23,4q-8,20 1,23h79q35,0 57,2t53,3q6-1 5-14.5T456,385q-8,0-22.5-3T406,375.5T387,368q-11-6-37.5-26T293,296.5T239,247q77-82 120.5-132T416,53q17-14 43-21.5T496,24q4,0 4-16q0-10-1-11L390,2L286-3q-4,4-4,16q0,11 4,11q10,0 23,4t13,9q0,2-1,3L175,198l-12-3V135q0-33 2.5-55.5T171,46q2-4 14-9t26-8t20-3q3,0 4-12T234-3L127,2L18-3Z"/>
      <glyph unicode="l" glyph-name="l" horiz-adv-x="251" d="M19-3q-4,4-4,17q0,12 4,12q8,0 22,3t26,8t13,9q4,14 5.5,32T87,116V549q0,34-6,64q-4,16-51,16H21q-6,0-6,11q0,16 6,16q60,7 89,16t40,16l10,6h2q4,0 8-5.5t5-10.5q-11-33-11-87V135q0-29 2-51t6-38q2-4 14-9t26-8t20-3q3,0 4-12T235-3L128,2L19-3Z"/>
      <glyph unicode="m" glyph-name="m" horiz-adv-x="800" d="M31-3q-4,4-4,17q0,12 4,12q8,0 22,3t26,8t13,9q4,14 5.5,32T99,116V305q0,38-14,54q-10,12-23.5,16t-24,4.5T27,382q0,24 6,25q53,8 83.5,14T163,431l13,3q4,1 5-7.5t0-13.5q-2-14-3-24t-1-16q0-4 2-4q1,0 3,2q23,24 62.5,45.5T320,438q40,0 66.5-21.5T423,367q76,71 155,71q126,0 126-192V135q0-29 2-51t6-38q2-4 14-9t26-8t20-3q3,0 4-12T775-3L668,2L559-3q-4,4-4,17q0,12 4,12q8,0 22,3t26,8t13,9q4,14 5.5,30.5T627,110V223q0,154-101,154q-24,0-45-10.5T447.5,343T435,320q3-19 4-38.5t1-42.5V126q0-25 2-44.5T448,46q2-4 14-9t26-8t20-3q3,0 4-12T511-3L404,2L295-3q-4,4-4,17q0,12 4,12q8,0 22,3t26,8t13,9q4,14 5.5,32t1.5,38V218q0,159-96,159q-20,0-41-10.5t-35.5-26T176,311V135q0-29 2-51t6-38q2-4 14-9t26-8t20-3q3,0 4-12T247-3L140,2L31-3Z"/>
      <glyph unicode="n" glyph-name="n" horiz-adv-x="543" d="M33-3q-4,4-4,17q0,12 4,12q8,0 22,3t26,8t13,9q4,14 5.5,32t1.5,38V305q0,38-14,54q-10,12-23.5,16t-24,4.5T29,382q0,24 6,25q53,8 86,14.5t41,8.5l16,4q4,1 5-8t0-13q-2-14-3-24t-1-16q0-4 2-4q1,0 3,2q23,24 62.5,45.5T322,438q70,0 98-50t28-162V135q0-29 2-51t6-38q2-4 14-9t26-8t20-3q3,0 4-12T519-3L412,2L307-3q-4,4-4,17q0,12 4,12q8,0 21,3t24,8t12,9q4,14 5.5,32t1.5,38V216q0,93-24,127t-78,34q-21,0-42-11.5T192,339t-14-28V135q0-29 2-51t6-38q2-4 14-9t26-8t20-3q3,0 4-12T249-3L142,2L33-3Z"/>
      <glyph unicode="o" glyph-name="o" horiz-adv-x="510" d="M256-7Q196-7 146,23T66.5,104T37,216q0,62 28.5,112T143,407.5T254,437q60,0 109.5-30t79-80T472,216T443,104T365.5,23T256-7Zm9,39q36,0 63,23t42.5,62T386,202q0,54-20,98.5t-52.5,71T243,398q-35,0-62.5-22.5t-42.5-60T123,231q0-54 19.5-99.5t52-72.5T265,32Z"/>
      <glyph unicode="p" glyph-name="p" horiz-adv-x="511" d="M21-226q-4,4-4,16q0,13 4,13q8,0 22,3t26,8t13,9q4,14 5.5,32T89-107V306q0,38-14,54q-10,12-23.5,16t-24,4.5T17,383q0,24 6,25q106,16 136,25l7,2q5,0 4-10.5T168,407l-1-6q10,7 28,15t38.5,14t35.5,6q68,0 113.5-30.5t68-77T473,234t-18-91.5T406,65T335.5,11.5T254-8q-31,0-47,4.5T170,11q-4-4-4-13V-88q0-29 2-51t6-38q2-4 14-9t26-8t20-3q3,0 4-12.5T237-226l-107,5L21-226ZM258,34q40,0 68.5,24.5t44.5,64T387,206q0,56-20.5,96.5T312,365t-75,22q-31,0-51-16.5T166,323V98q0-27 29-45.5T258,34Z"/>
      <glyph unicode="q" glyph-name="q" horiz-adv-x="489" d="M275-227q-4,4-4,16q0,13 4,13q8,0 22,3t26,8t13,9q4,14 5.5,32t1.5,38V16q0,5-1.5,8.5T336,26Q276-4 240-4Q182-4 136.5,25t-72,76.5T38,203q0,44 18,86t49.5,76T178,419.5T265,440q43,0 72.5-5.5T377,429q9,0 22.5,4t15.5,4q3,0 12-3t9-7q0-7-8-45.5T420,293V-101q0-23 2-42t6-35q2-4 14-9t26-8t20-3q3,0 4-12t-1-17l-107,5l-109-5Zm0,272q23,0 45.5,13.5T343,105V337q0,27-25,44t-70,17q-39,0-67-25t-42.5-64T124,226q0-89 44-135T275,45Z"/>
      <glyph unicode="r" glyph-name="r" horiz-adv-x="380" d="M37-3q-4,4-4,17q0,12 4,12q8,0 22,3t26,8t13,9q4,14 5.5,32t1.5,38V305q0,38-14,54q-10,12-23.5,16t-24,4.5T33,382q0,24 6,25q109,17 126,22l17,5q4,1 5-8t0-13l-6-50q18,27 49.5,50.5T293,437q58,0 78-29q0-35-11-51t-27-16q-18,0-33,17t-41,17q-20,0-38-13.5t-28.5-34T182,285V135q0-29 2-51t6-38q2-4 14-9t26.5-8T251,26q3,0 4-12T254-3L146,2L37-3Z"/>
      <glyph unicode="s" glyph-name="s" horiz-adv-x="359" d="M175-11q-31,0-56,7T58,8q-4,11-8,30T43.5,78T41,112q8,6 12,6q15,0 16-6q4-20 20-40t39-33.5T175,25q32,0 52.5,17.5T248,93q0,35-27,58q-21,17-35.5,24.5t-28,14T124,208Q46,253 46,315q0,36 20,63.5t53.5,43T191,437q11,0 25-1.5t31-3.5q17-3 28-5t18-3q11-46 12-102q0-5-13-5q-14,0-15,7q-5,28-28.5,53T195,402q-72,0-72-59q0-15 3.5-26.5T143,295q31-24 73.5-48T287,202q42-32 42-75q0-39-21-70.5T252,7T175-11Z"/>
      <glyph unicode="t" glyph-name="t" horiz-adv-x="314" d="M197-7q-50,0-83.5,33T80,120V374H22q-5,0-5,21q0,6 1,7q30,14 63,53q23,27 34.5,47T127,526q30,0 30-5V422l79-1h56q8,0 8-9q0-19-10-38H157V129q0-40 20.5-64T231,41q31,0 62,19q3,2 9-8.5T307,40Q292,24 261,8.5T197-7Z"/>
      <glyph unicode="u" glyph-name="u" horiz-adv-x="517" d="M367-8q-8,0-8,16V59q0,5-2,5Q291-7 226-7q-47,0-74.5,27.5t-39,70T101,179V305q0,38-14,54q-10,12-23.5,16t-24,4.5T29,382q0,24 6,25q53,8 85.5,14.5T158,429l20,5q4,1 5-8t0-13q-6-48-6-74V204q0-77 23-113.5T275,54q20,0 39.5,11t32,26.5T359,118V305q0,38-14,54q-10,12-23.5,16t-24,5T287,382q0,24 6,25q53,8 79.5,13t42.5,9l21,5q4,1 5-8t0-13q-6-48-6-72V141q0-45 7-76q3-10 16-12.5T488,48l13-1q3-1 3-11q0-3-2.5-9.5T496,20q-30-2-66-10.5T376-6l-9-2Z"/>
      <glyph unicode="v" glyph-name="v" horiz-adv-x="493" d="M236-7q-8,19-26.5,62T162,165q-29,68-54,122.5T61,385Q50,405 2,405q-4,0-4,13q0,12 4,16q26-1 52-3t52-2q25,0 50,2t50,3q2-4 0.5-16.5T202,405q-49,0-49-17q0-1 1-3.5t2-4.5L274,113L375,343q5,10 6.5,17.5T383,373q0,32-72,32q-4,0-4,13q0,12 4,16q11-1 41-3.5t54-1.5l100,5q2-8 2-15q0-14-7-14q-14,0-37-8t-31-26L274,12Q267-4 253-8.5T236-7Z"/>
      <glyph unicode="w" glyph-name="w" horiz-adv-x="734" d="M254-11q-11,0-12,4q-12,27-25.5,59.5T188,123q-31,75-58,135.5T67,383q-13,22-54,22q-4,0-4,13q0,12 4,16q21-1 47-3.5t52-1.5l100,5q2-4 1.5-16.5T210,405q-50,0-50-23q0-7 33-74.5T279,120q35,99 55.5,156T355,341q0,5-5.5,17T336,385q-8,12-22,16t-29,4q-4,0-4,13q0,12 4,16q21-1 46.5-3t50.5-2q32,0 56.5,2t41.5,3q2-8 2-17q0-10-3-12q-48,0-48-39q0-20 110-246q20,62 39,114.5t31,88T623,370q0,35-66,35h-4q-4,0-4,13q0,12 4,16q22-1 48-3t53-2q24,0 46.5,2t42.5,3q2-8 2-15q0-14-5-14q-13,0-35-8.5T676,369L545,11q-7-22-28-22q-11,0-12,4L382,287L281,11q-3-7-10.5-14.5T254-11Z"/>
      <glyph unicode="x" glyph-name="x" horiz-adv-x="467" d="M6-3Q5,1 4.5,4.5T4,11Q4,26 8,26Q76,37 98,68L199,203q4,7 4,9q0,4-3,8L98,370q-6,9-21,17T45,400t-29,5q-3,8-3,14q0,9 4,15l100-5l105,5q1-3 1-12q0-17-3-17q-40,0-40-17q0-4 5-12l65-101q14,23 25.5,39T294,340q8,12 15,26t7,21q0,10-11,13t-24,3.5T262,405q-3,2-3,16q0,9 3,13l105-5l91,5q1-5 1.5-8.5T460,420q0-15-3-15q-67-8-87-34L278,251q-6-7-6-13t4-11L382,70q26-39 84-44q3,0 3-14q0-11-4-15L371,2L260-3q-1,5-1.5,8.5T258,10q0,16 3,16q42,3 42,18q0,3-2,6L225,170L156,67q-7-10-7-19t15-15.5T199,26h5q3,0 3-15q0-10-4-14L103,2L6-3Z"/>
      <glyph unicode="y" glyph-name="y" horiz-adv-x="454" d="M120-227q-21,0-31,13T79-188q0,21 14,32q83,0 110,86q5,15 12,36T226,0L83,350q-5,12-10,20.5T63,384q-9,9-27.5,15T6,405q-4,0-4,13q0,12 4,16q27-1 53.5-2.5T114,430q32,0 55,1.5t42,2.5q2-8 2-15q0-14-4-14t-14.5-3T174,394.5T162,384v-2q0-17 107-261l76,219q7,20 7,31q0,15-15.5,24.5T295,405q-4,0-4,13q0,12 4,16q13-1 39-3t50-2q22,0 48,2t39,3q2-8 2-15q0-14-4-14q-13,0-35-9t-30-29L225-116q-23-62-52-86.5T120-227Z"/>
      <glyph unicode="z" glyph-name="z" horiz-adv-x="414" d="M49,0Q29,12 29,23q0,3 1,4L287,384l-149,1q-28,0-41-15.5t-17.5-33T73,312q-3-6-24-6q-11,0-11,3q0,2 1.5,14T45,357q8,44 9,73q59-6 95-6H271q28,0 58.5,2t63.5,6q3-4 3-24L142,61q-7-10-7-14q0-7 12-7H278q42,0 61.5,21T370,120q2,11 8,11q22,0 29-12L386,0H49Z"/>
      <glyph unicode="{" glyph-name="braceleft" horiz-adv-x="324" d="M266-125q-43,0-79,23.5T130-37T109,55q0,30 24,85q24,54 24,79q0,19-8,32t-22,20q-22,10-33.5,11.5T66,292q-3,6-3,18t4,19q14,4 25.5,7t19.5,6q15,6 30,22.5T157,406q0,27-25,81t-25,88q0,55 21,94t57.5,60T266,750q4,0 4-8q0-19-11-21q-19-1-42.5-16t-40-38.5T160,613q0-37 25-91t25-99q0-30-13-56t-32-42t-39-17q20,0 39.5-15T198,253t13-56q0-44-25-93q-26-52-26-86q0-29 17-54.5T217.5-78T259-96q11-2 11-22q0-7-4-7Z"/>
      <glyph unicode="|" glyph-name="bar" horiz-adv-x="264" d="M105-123q-5,0-5,8V757q-2,6 5,8q22,7 50,7q5,0 6-1q2-2 2-3v-2l1-872q0-3-13-7t-27.5-7T105-123Z"/>
      <glyph unicode="}" glyph-name="braceright" horiz-adv-x="325" d="M58-125q-4,0-4,7q0,20 11,22q19,2 42,18t40,41.5T164,18q0,36-25,86q-26,50-26,93q0,31 13,56t32.5,40T198,308q-19,1-38.5,17T127,367t-13,56q0,45 25,99t25,91q0,30-16.5,53.5T108,705T65,721q-11,2-11,21q0,8 4,8q45,0 81-21t57-60t21-94q0-34-25-88t-25-81q0-24 15-41q15-16 30.5-22.5T257,329q4-7 4-19t-3-18q-16-4-29-8.5T205,275q-19-8-28.5-20.5T167,219q0-25 24-79q24-55 24-85q0-51-21-92t-56.5-64.5T58-125Z"/>
      <glyph unicode="~" glyph-name="asciitilde" horiz-adv-x="576" d="M393,250q-47,0-118,27q-72,26-119,26q-17,0-36-8q-12-5-18.5-9t-14-9.5T65,259q-9,5-9,17q0,21 24,39q31,23 52,31t54,8q46,0 118-26q71-27 118-27q21,0 32.5,6t16.5,8q3,1 12,8t18.5,14t10.5,8q9-4 9-17q0-22-23-39q-31-23-51.5-31T393,250Z"/>
      <glyph unicode="&#xa0;" glyph-name="uni00A0" horiz-adv-x="229"/>
      <glyph unicode="&#xa1;" glyph-name="exclamdown" horiz-adv-x="165" d="M82,432q24,0 41.5-17T141,374t-16.5-41.5T82,315q-25,0-41.5,17.5T24,374t17,41t41,17Zm1-167q11,5 15-1t5-17L119,21q5-70 9-116t4-67q0-25-14.5-44T80-225q-22,0-33.5,18.5T35-162q0,21 5.5,81t13,143.5T66,236q1,15 4,20t13,9Z"/>
      <glyph unicode="&#xa2;" glyph-name="cent" horiz-adv-x="464" d="M231-45q-35,0-35,9l6,35Q138,16 99,70.5T60,211q0,59 25,110t69,82.5T254,435q9,0 19,0l6,39q35,0 35-8l-6-35q34-6 60.5-18T406,381q0-63-36-63q-7,0-11,2.5t-7,6.5q-1,1-10,11.5T331,350q-10,12-16.5,19T300,382L248,57q19-5 41-5q41,0 71,16.5T400,94q12,12 12-9q0-12-6-18Q337-8 258-8q-11,0-21,1l-6-38ZM136,245q0-58 19.5-104T214,72l53,325q-12,3-23,3q-42,0-75-37.5T136,245Z"/>
      <glyph unicode="&#xa3;" glyph-name="sterling" horiz-adv-x="473" d="M65-9Q56-9 51-2.5T46,10q5,8 11,18.5T71,50L93,82q2,4 4,9t3,10q3,11 5,31.5t3,40.5t1,28v48q0,7-1,30H50q-5,0-5,13q0,18 6,27h55q-1,6-1,13q-2,37-3.5,60T100,423q0,63 23,110.5T187,608t95,27q52,0 77-37q0-59-30-59q-20,0-43,27q-22,27-43,27q-49,0-62-50q-7-24-9-46t-2-53q0-10 1-35t3-66l1-24H318q5,0 5-10q0-19-15-30H177l1-21q0-97-45-174q23,9 72,9q30,0 84-16t73-16q23,0 37,17t21,35t10,22q11,0 16.5-10t1.5-17Q404-8 331-8Q296-8 230,11q-67,18-90,18Q106,29 65-9Z"/>
      <glyph unicode="&#xa4;" glyph-name="currency" horiz-adv-x="468" d="M390,100l-52,55q-49-35-106-35q-65,0-114,40L65,110q-7-7-21.5,8.5T24,154l54,51Q48,252 48,307q0,64 38,116L34,479q-7,7 8.5,21.5T78,520l52-55q44,31 102,31q62,0 112-41l59,55q7,7 21.5-8.5T444,466l-60-56q29-49 29-103q0-58-33-108l54-58q7-7-8.5-21.5T390,100ZM240,152q30,0 52.5,19.5T328,223t13,71q0,46-16.5,84.5t-43,61.5T223,463q-29,0-52.5-20T134,390.5T121,319q0-45 16.5-83T181,175t59-23Z"/>
      <glyph unicode="&#xa5;" glyph-name="yen" horiz-adv-x="621" d="M188-3q-4,4-4,13q0,14 4,14q8,0 22,3t26,8.5T250,46q4,16 6,38.5t2,53.5H166q-5,0-5,13q0,16 6,25h91v40H166q-5,0-5,13q0,16 6,25h91q0,15-1,16q-4,17-141,262q-9,17-19.5,33T73,594q-9,9-30.5,15T9,615q-4,0-4,11q0,12 4,16l53-3q36-3 63-3l125,6q2-4 1.5-15.5T248,615q-17,0-37.5-8T190,583q0-12 10-29L309,348q6-5 10,2Q451,550 451,584q0,11-19,21t-48,10q-4,0-4,12q0,11 4,15q8,0 24.5-1.5t35-3T476,636q21,0 138,6q2-8 2-15q0-12-4-12q-8,0-28-4t-39-10.5T519,586q-17-26-39.5-63T433,446.5t-44.5-75t-33.5-60T342,282V254h92q5,0 5-13q0-16-6-25H342V176h92q5,0 5-13q0-16-6-25H342q0-32 1.5-55T349,46q2-4 14-9.5t25.5-9T408,24q4,0 4-12q0-7-2-15q-49,2-76,3.5T302,2L188-3Z"/>
      <glyph unicode="&#xa6;" glyph-name="brokenbar" horiz-adv-x="137" d="M48,382q-8-1-9.5,0T37,387V753q-2,6 5,8q22,7 49,7q5,0 6-1q2-2 2-3v-2l1-365q0,0-2-2l-3-3q-4-1-15.5-4.5T48,382ZM42-123q-5,0-5,8V249q-2,6 5,8q22,7 49,7q5,0 6-1q2-2 2-3v-2l1-364l-2-2q-9-9-50-14l-3-1H42Z"/>
      <glyph unicode="&#xa7;" glyph-name="section" horiz-adv-x="382" d="M163-41Q96-41 74-7q-1,1-1.5,5.5T72,7q0,45 33,45q12,0 40-26Q172-1 196-1q28,0 44.5,16.5T257,62q0,37-24,61t-57,40q-17,8-34,16t-34,17q-34,18-58,55.5T26,345q0,82 59,124q-14,25-14,49q0,64 42,98.5T217,651q64,0 88-36q2-22-3-40t-23-18q-17,0-30,13.5t-27.5,27T183,611q-27,0-43.5-17.5T123,547q0-36 24-60t58-39l67-34q34-19 58-57t24-94q0-82-59-123q14-33 14-50q0-38-14.5-65T257-16q-23-13-46.5-19T163-41ZM282,173q14,14 20,23.5t6,28.5q0,39-25.5,67.5T224,337q-33,15-70.5,41T98,435q-26-21-26-52q0-39 25.5-67.5T156,272q32-15 70-41.5T282,173Z"/>
      <glyph unicode="&#xa8;" glyph-name="dieresis" horiz-adv-x="299" d="M240,504q-19,0-33.5,14.5T192,552q0,20 14.5,34T240,600q20,0 34.5-14T289,552q0-19-14.5-33.5T240,504ZM59,504q-19,0-34,14.5T10,552q0,20 15,34t34,14q20,0 34-14t14-34q0-19-14-33.5T59,504Z"/>
      <glyph unicode="&#xa9;" glyph-name="copyright" horiz-adv-x="603" d="M301,68q-52,0-101,20t-87.5,57T51,232T28,342q0,57 21,106.5t58.5,87t87,58.5T301,615t106.5-21t87-58.5t59-87T575,342q0-60-22.5-110T491,145.5t-88-57T301,68Zm1,32q67,0 121.5,33T511,221t33,121q0,68-33.5,123T422,552T302,584q-45,0-88-17.5t-77.5-50T81.5,440T61,342q0-66 32.5-121T181,133t121-33Zm0,95q-40,0-72.5,19T178,265t-19,71q0,41 18.5,74T228,463t72,20q64,0 112-19q16-55 16-61q0-9-16-9q-1,0-7,2q-4,20-28.5,36.5T312,449t-68-31t-28-73q0-56 33-87t72-31q52,0 72,19q7,7 9.5,20t5.5,13q19,0 20-3q0-3-4-18t-8.5-28.5T408,214q-45-19-106-19Z"/>
      <glyph unicode="&#xaa;" glyph-name="ordfeminine" horiz-adv-x="316" d="M102,249q-32,0-53,17T28,317q0,23 15.5,40T83,387q9,5 16.5,8t13.5,5q26,8 41,14t21,7q6,2 6,10v58q0,18-13.5,29T134,529q-21,0-34.5-14T86,478q0-22-34-22q-21,0-21,11q0,20 20,40.5T101,542t59,14q42,0 59-17.5T236,484V318q0-14 7-24.5T262,283q6,0 12,3t10,5l3,2q3-1 3-3l-4-17q-32-23-48-23t-30.5,13.5T188,291l-8-7q-17-15-36-25t-42-10Zm26,40q18,0 35.5,12T181,324v68q-19-6-34-11t-25-9q-12-5-23-16.5T88,328q0-19 11.5-29T128,289Z"/>
      <glyph unicode="&#xab;" glyph-name="guillemotleft" horiz-adv-x="469" d="M420,73q-9,10-38.5,34t-73,56T214,227q-7,3-7,14q0,17 8,27q128,77 206,155q23-6 23-19q0-7-26-32t-82-82l-41-43l87-90l46-45q10-10 12.5-13t2.5-8q0-11-10.5-13.5T420,73ZM240,73q-9,10-38.5,34t-73,56T34,227q-7,3-7,14q0,17 8,27q128,77 206,155q23-6 23-19q0-7-26-32t-82-82l-41-43l87-90l46-45q10-10 12.5-13t2.5-8q0-11-10.5-13.5T240,73Z"/>
      <glyph unicode="&#xac;" glyph-name="logicalnot" horiz-adv-x="538" d="M447,154q-9,0-7,6V354q0,10-11,10H35q-6,0-6,10q4,46 15,46H488q12,0 12-11V169q-11-11-49-15h-4Z"/>
      <glyph unicode="&#xae;" glyph-name="registered" horiz-adv-x="604" d="M302,132q-53,0-102,20.5t-87.5,58T51.5,298T29,407q0,57 21,106.5t58.5,87t87,58.5T302,680t106.5-21t87-58.5t59-87T576,407q0-56-21.5-106t-60-88T407,153.5T302,132Zm1,33q67,0 121.5,33T512,286t33,121q0,70-34,124.5t-89,86T303,649q-63,0-118-31.5T96,531T62,407q0-66 32.5-121T182,198t121-33ZM441,272q-31,0-51.5,8.5T348,316t-55,82q-5,8-14,8q-7,2-18,0q-2,0-2-7V335q0-15 1.5-25.5T263,294q1-3 11.5-6t14.5-3q1,0 1.5-5t-0.5-7q-8,1-24,1t-39,0q-15,0-27.5,0T177,273q-2,2-2,7t2,5q5,0 16,3t12,6q2,5 3,11t0,14l-1,16V490q1,4 1,8t0,8q0,16-3,25q-1,3-11.5,6.5T178,541q-1,0-1,5q0,6 1,7q20-3 48-3q7,0 16,0.5t21,1.5t21,1.5t16,0.5q22,0 43.5-8.5t36-25.5T394,477q0-42-48-63q-1,0-1-2q0-13 70-105q17-21 40-21q1-1 1-6q0-8-15-8ZM306,428q14,0 26,13.5T344,474q0,55-50,55q-22,0-31-3q-3,0-3-3l-1-37V441q0-13 47-13Z"/>
      <glyph unicode="&#xaf;" glyph-name="macron" horiz-adv-x="245" d="M16,550l-4,2q-2,4-2,7q0,37 12,37H230q5,0 5-7q0-9-6-32q-2-4-2-4l-3-3H16Z"/>
      <glyph unicode="&#xb0;" glyph-name="degree" horiz-adv-x="233" d="M117,437q-41,0-70,29.5T18,536t29,69t70,29t69.5-29T215,536q0-41-29-70t-69-29Zm0,37q25,0 43,18t18,44t-18,43.5T117,597q-26,0-44-18T55,536q0-26 18.5-44T117,474Z"/>
      <glyph unicode="&#xb1;" glyph-name="plusminus" horiz-adv-x="533" d="M244,92q-5,0-5,8V299q0,5-6,5H34q-6,0-6,10q0,12 8,41q1,5 6,5H234q5,0 5,6V556q-2,5 5,7q29,8 41,8l10-6V365q0-5 4-5H499q8,0 8-5q0-9-10-45q-2-4-2-4q-2-2-3-2H299q-4,0-4-3V109q0-10-45-16h-3q-1-1-3-1ZM35,6q-8,0-6,13q2,11 4,20.5T37,57q1,2 3,4q1,1 2,1H491q10,0 8-11q-3-22-6.5-32T485,7l-2-1H35Z"/>
      <glyph unicode="&#xb2;" glyph-name="uni00B2" horiz-adv-x="322" d="M38,366q-7,9-9,26q28,27 58.5,61T145,522.5t43.5,67T205,642q0,25-19,41t-48,16q-27,0-46.5-13.5t-30-27T49,645q-4,0-8.5,7.5T36,665q44,86 136,86q30,0 51.5-13.5T257,704t12-41q0-33-17.5-67.5T209,533q-22-25-35-38.5t-22.5-22t-20.5-18T102,427q-6-6 2-6H218q22,0 33,11q9,11 12,18.5t7,16.5q2,3 14,3q8,0 8-3q-9-44-14-69t-6-32l-99,1L38,366Z"/>
      <glyph unicode="&#xb3;" glyph-name="uni00B3" horiz-adv-x="306" d="M128,359q-30,0-57.5,9T32,391q-2,8-2,9q0,11 9.5,19T57,427q19,0 41-19t43-19q71,0 71,85q0,32-22.5,53.5T139,549q-12,0-41-9q-6,8-6,19q0,2 0.5,5t1.5,7q40,8 69.5,28T193,652q0,54-59,54q-30,0-68-47q-4,0-9.5,10.5T53,683q40,64 109,64q32,0 60-25t28-60q0-55-62-81q19,0 39-13t34.5-35T276,483q0-38-21.5-66t-55-43T128,359Z"/>
      <glyph unicode="&#xb4;" glyph-name="acute" horiz-adv-x="188" d="M22,527q-12,0-12,13q0,21 16,45.5t38,49T103,678q9,9 34,9q19,0 30-7.5T178,663q0-10-14-26.5T128.5,601t-44-36t-40-27.5T22,527Z"/>
      <glyph unicode="&#xb5;" glyph-name="uni00B5" horiz-adv-x="509" d="M122-227q-6,0-18.5,7T80-204.5T69-190q0,13 1,48.5t3,83t5,98T84,134t6,70q0,6-0.5,18T88,252q-1,17-1.5,29T86,298V417q12,20 24,20q6,0 19-6.5T152.5,415T163,400q0-23-5.5-61.5T140,246l-5-23q0-67 13-112q14-47 38-47q31,0 57.5,22.5t48,60T328,227V417q12,20 24,20q6,0 19-6.5T394.5,415T405,400q0-23-5.5-61.5T382,246l-5-23Q376,67 435,67q17,0 33.5,10T492,97q4,0 10-10q3-6 3-11q-10-33-36.5-56.5T412-4q-22,0-37,22q-16,22-21.5,46T342,128Q283-9 192-9Q171-9 158,5.5T137.5,40T124,76q0-22 1.5-68t6-103T146-207q-12-20-24-20Z"/>
      <glyph unicode="&#xb6;" glyph-name="paragraph" horiz-adv-x="496" d="M170-4q-2,4-1.5,15.5T172,23q6,0 20,3.5t27,9T233,45q2,11 3.5,45.5T238,183V284q0,7-20,7q-52,0-91,27T67,386.5T46,469q0,52 24.5,93.5t64,65.5T217,652q23,0 55.5-2t55.5-2l113,5q4-4 4-16q0-13-4-13q-8,0-22-2.5t-25.5-7T380,604q-3-10-3-104l1-91V350q0-6 5-4l43,8q4-7 4-13q-2-20-20-25l-26-7q-5-3-5-5q0-116 1.5-181T386,45q2-5 14.5-10.5t27-8.5T450,23q4,0 4-12q0-11-4-15q-12,1-41.5,2T346,0.5T289,2q-34,0-66.5-2T170-4ZM292,332l37,6q5,0 5,6q0,115-0.5,179T332,600q0,3-8,7t-15,4q-23,0-23-12q-1-79-1.5-144.5T284,338q0-8 8-6ZM310,36q7,0 13.5,4.5T330,50q2,23 3,84t1,161q0,4-4,4q-1,0-11.5-2T291,293q-7-1-7-7l2-237q0-13 24-13Z"/>
      <glyph unicode="&#xb7;" glyph-name="periodcentered" horiz-adv-x="211" d="M106,205q-24,0-41.5,17T47,263t17,41.5T106,322q26,0 42-17.5T164,263t-17-41t-41-17Z"/>
      <glyph unicode="&#xb8;" glyph-name="cedilla" horiz-adv-x="151" d="M47-152q-20,0-34,9l-1,5q-2,6-2,9q0,5 4.5,9.5T24-115q7,0 17-7q11-6 20-6q20,0 31.5,9.5T104-95q0,16-10,25T73-61T47-68q-2,0-6.5,5T37-55q3,4 9.5,14T60-20T69-4H90L72-27H97q19,0 31.5-14.5T141-76q0-34-27-55T47-152Z"/>
      <glyph unicode="&#xb9;" glyph-name="uni00B9" horiz-adv-x="236" d="M55,366q-3,3-3,13q0,11 3,11q19,0 38,10q8,5 8,36V637q0,37-8,37q-13,0-47-19q-10,8-11,16.5t2,9.5q53,29 85,51t36,22h2q3,0 8-17q-7-18-7-55V440q0-35 8-40q19-10 35-10q4,0 4-13q0-5-2-11q-27,2-45,3t-28,1q-12,0-31.5-1T55,366Z"/>
      <glyph unicode="&#xba;" glyph-name="ordmasculine" horiz-adv-x="370" d="M187,247q-43,0-79,20.5T50.5,323T29,399q0,43 21,78t57,56t80,21q43,0 77.5-21.5T320,476t21-77t-20.5-76.5t-55-55T187,247Zm8,24q38,0 57.5,36.5T272,391q0,37-10.5,68t-31,50.5T180,529q-39,0-60.5-35.5T98,411q0-36 11.5-68T143,291t52-20Z"/>
      <glyph unicode="&#xbb;" glyph-name="guillemotright" horiz-adv-x="471" d="M51,73q-2,2-12.5,4.5T28,91q0,5 2.5,8T43,112l46,45l87,90l-41,43q-56,57-82,82T27,404q0,13 23,19q79-78 206-155q8-10 8-27q0-11-7-14q-51-32-94.5-64t-73-56T51,73Zm180,0q-2,2-12.5,4.5T208,91q0,5 2.5,8T223,112l46,45l87,90l-41,43q-56,57-82,82t-26,32q0,13 23,19q79-78 206-155q8-10 8-27q0-11-7-14q-51-32-94.5-64t-73-56T231,73Z"/>
      <glyph unicode="&#xbc;" glyph-name="onequarter" horiz-adv-x="763" d="M29,253q-4,0-4,14q0,11 4,11q8,0 20.5,2T73,285.5T85,292q6,17 6,31V518q0,33-4,42t-15,9q-7,0-51-15q-9,2-11.5,7T7,570q0,7 3,8q47,19 83.5,38.5T145,644l15,8q6,0 14-23q-9-42-9-81V340q0-28 8-47q2-3 12-6.5t22-5.5t17-2q4,0 4-16q0-9-1-10q-49,2-68,2.5T129,256t-32-0.5T56,254t-27-1ZM210-11q-2-5-5-5q-19,0-34,19q-3,3-1,8L518,643q3,5 12.5,2.5T549,637t9-15q0-1-2-5L210-11ZM616-4q-29,0-29,8V98q-2,2-5,2H441q-7,7-9,37q17,21 41,51.5T528,259q62,80 96,120q7,7 15,7t8-6V146q0-2 6-4h36q9,0 9-34l-6-8H651q-4,0-4-4V3l-3-3q-7-4-28-4ZM482,142H582q5,2 5,4V278q0,5-2,5q0,0-1-1L478,149l-1-2q0-5 5-5Z"/>
      <glyph unicode="&#xbd;" glyph-name="onehalf" horiz-adv-x="764" d="M29,253q-4,0-4,14q0,11 4,11q8,0 20.5,2T73,285.5T85,292q6,17 6,31V518q0,33-4,42t-15,9q-7,0-51-15q-9,2-11.5,7T7,570q0,7 3,8q47,19 83.5,38.5T145,644l15,8q6,0 14-23q-9-42-9-81V340q0-28 8-47q2-3 12-6.5t22-5.5t17-2q4,0 4-16q0-9-1-10q-49,2-68,2.5T129,256t-32-0.5T56,254t-27-1ZM210-11q-2-5-5-5q-19,0-34,19q-3,3-1,8L518,643q3,5 12.5,2.5T549,637t9-15q0-1-2-5L210-11ZM480,0q-7,9-9,26q28,27 58.5,61T587,156.5t43.5,67T647,276q0,25-19,41t-48,16q-27,0-46.5-13.5t-30-27T491,279q-4,0-8.5,7.5T478,299q44,86 136,86q30,0 51.5-13.5T699,338t12-41q0-33-17.5-67.5T651,167q-22-25-35-38.5t-22.5-22T573,88.5T544,61q-6-6 2-6H660q22,0 33,11q9,11 12,18.5t7,16.5q2,3 14,3q8,0 8-3q-9-44-14-69T714,0L615,1L480,0Z"/>
      <glyph unicode="&#xbe;" glyph-name="threequarters" horiz-adv-x="807" d="M110,247q-29,0-53,8.5T27,273v7q0,15 8,26t20,11q14,0 36-17t38-17q35,0 61.5,22.5T217,371q0,35-18,54t-47,19q-5,0-52-6q-9,9-9,19q0,8 9,11q40,8 66,29.5T192,554q0,19-15.5,30.5T140,596q-18,0-33.5-9.5T81,567.5T67,558q-3,0-6.5,8.5T55,584t-2,9q44,54 121,54q19,0 38-9.5t32.5-27T258,569q0-21-10-37t-21.5-24.5T192,484q18,0 40.5-12.5t39-34.5T288,385q0-42-25-73t-65.5-48T110,247ZM254-11q-2-5-5-5q-19,0-34,19q-3,3-1,8L562,643q3,5 12.5,2.5T593,637t9-15q0-1-2-5L254-11ZM660-4q-29,0-29,8V98q-2,2-5,2H485q-7,7-9,37q17,21 41,51.5T572,259q62,80 96,120q7,7 15,7t8-6V146q0-2 6-4h36q9,0 9-34l-6-8H695q-4,0-4-4V3l-3-3q-7-4-28-4ZM526,142H626q5,2 5,4V278q0,5-2,5q0,0-1-1L522,149l-1-2q0-5 5-5Z"/>
      <glyph unicode="&#xbf;" glyph-name="questiondown" horiz-adv-x="366" d="M224,432q24,0 41.5-17T283,374t-16.5-41.5T224,315q-25,0-41.5,17.5T166,374t17,41t41,17Zm8-175q13,0 13-8V202q1-16 1-28t0-19q0-27-6.5-46.5T204,67L160,34Q134,15 114.5,1T84-27.5T73-65q0-38 24.5-60.5T154-148q10,0 26.5,2t31.5,3.5t18,1.5q16,0 31.5-9T277-181q0-24-7-34q-19-10-50-10q-30,0-64,14T91.5-172T42-113T23-40q0,52 22.5,86.5T124,113q14,8 31.5,20.5t31,24.5T202,175q10,17 10,69q0,13 20,13Z"/>
      <glyph unicode="&#xc0;" glyph-name="Agrave" horiz-adv-x="684" d="M24-3q-4,4-4,15q0,14 4,14q12,0 31,5T81,45q11,14 22.5,37T128,139L302,586q6,15 7.5,21t3,10.5T319,633q7,14 14,22t23,8l9-3L565,132q9-23 16.5-41T594,60q4-10 17.5-17.5t28-12T662,26q4,0 4-19q0-2-0.5-4.5T664-3q-50,2-77.5,3.5T554,2L438-3q-4,4-3.5,16.5T439,26q12,0 30,5t21,13q1,4 1.5,8t0.5,8q0,13-3,30.5T482,118L437,242q-3,4-6,4q-39,3-76,3q-26,0-57.5-1.5T228,244l-5-3L180,131q-10-25-13.5-42T163,62q0-14 8-20q9-7 29-11.5T229,26q3,0 3.5-12T231-3L128,2Q100,4 73.5,1.5T24-3ZM320,297q45,0 91,3l3,5L333,526L247,303q0-4 2-4q26-1 43.5-1.5T320,297ZM424,729q-7,0-27.5,7.5t-46,19.5T301,782t-40,27.5T245,832q0,11 13,20.5t39,9.5q12,0 18-3q14-10 33.5-28T388,794t33-34t13-18q0-13-10-13Z"/>
      <glyph unicode="&#xc1;" glyph-name="Aacute" horiz-adv-x="684" d="M24-3q-4,4-4,15q0,14 4,14q12,0 31,5T81,45q11,14 22.5,37T128,139L302,586q6,15 7.5,21t3,10.5T319,633q7,14 14,22t23,8l9-3L565,132q9-23 16.5-41T594,60q4-10 17.5-17.5t28-12T662,26q4,0 4-19q0-2-0.5-4.5T664-3q-50,2-77.5,3.5T554,2L438-3q-4,4-3.5,16.5T439,26q12,0 30,5t21,13q1,4 1.5,8t0.5,8q0,13-3,30.5T482,118L437,242q-3,4-6,4q-39,3-76,3q-26,0-57.5-1.5T228,244l-5-3L180,131q-10-25-13.5-42T163,62q0-14 8-20q9-7 29-11.5T229,26q3,0 3.5-12T231-3L128,2Q100,4 73.5,1.5T24-3ZM320,297q45,0 91,3l3,5L333,526L247,303q0-4 2-4q26-1 43.5-1.5T320,297ZM308,729q-10,0-10,13q0,3 13,18t33,34t40,37t33,28q6,3 18,3q26,0 39-9.5T487,832q0-9-16-22.5T431,782t-49.5-26T336,736.5T308,729Z"/>
      <glyph unicode="&#xc2;" glyph-name="Acircumflex" horiz-adv-x="684" d="M24-3q-4,4-4,15q0,14 4,14q12,0 31,5T81,45q11,14 22.5,37T128,139L302,586q6,15 7.5,21t3,10.5T319,633q7,14 14,22t23,8l9-3L565,132q9-23 16.5-41T594,60q4-10 17.5-17.5t28-12T662,26q4,0 4-19q0-2-0.5-4.5T664-3q-50,2-77.5,3.5T554,2L438-3q-4,4-3.5,16.5T439,26q12,0 30,5t21,13q1,4 1.5,8t0.5,8q0,13-3,30.5T482,118L437,242q-3,4-6,4q-39,3-76,3q-26,0-57.5-1.5T228,244l-5-3L180,131q-10-25-13.5-42T163,62q0-14 8-20q9-7 29-11.5T229,26q3,0 3.5-12T231-3L128,2Q100,4 73.5,1.5T24-3ZM320,297q45,0 91,3l3,5L333,526L247,303q0-4 2-4q26-1 43.5-1.5T320,297ZM248,717q-10,0-10,20l26,24q11,10 19.5,17.5T299,793q14,13 24.5,24.5T341,839q8,8 10,8q6,0 11-8q11-14 21-26t20-22q26-23 44-37t18-17q0-20-9-20q-20,0-105,58q-16-12-38-25.5t-40.5-23T248,717Z"/>
      <glyph unicode="&#xc3;" glyph-name="Atilde" horiz-adv-x="684" d="M24-3q-4,4-4,15q0,14 4,14q12,0 31,5T81,45q11,14 22.5,37T128,139L302,586q6,15 7.5,21t3,10.5T319,633q7,14 14,22t23,8l9-3L565,132q9-23 16.5-41T594,60q4-10 17.5-17.5t28-12T662,26q4,0 4-19q0-2-0.5-4.5T664-3q-50,2-77.5,3.5T554,2L438-3q-4,4-3.5,16.5T439,26q12,0 30,5t21,13q1,4 1.5,8t0.5,8q0,13-3,30.5T482,118L437,242q-3,4-6,4q-39,3-76,3q-26,0-57.5-1.5T228,244l-5-3L180,131q-10-25-13.5-42T163,62q0-14 8-20q9-7 29-11.5T229,26q3,0 3.5-12T231-3L128,2Q100,4 73.5,1.5T24-3ZM320,297q45,0 91,3l3,5L333,526L247,303q0-4 2-4q26-1 43.5-1.5T320,297Zm94,446q-30,0-71,22q-42,21-69,21q-32,0-49-35q-1-1-6-1q-9,0-9,16q0,19 13,34.5T254.5,826T288,836q29,0 69-21q41-21 69-21q36,0 51,34q1,1 6,1q9,0 9-16q0-18-13-34t-31-26t-34-10Z"/>
      <glyph unicode="&#xc4;" glyph-name="Adieresis" horiz-adv-x="684" d="M24-3q-4,4-4,15q0,14 4,14q12,0 31,5T81,45q11,14 22.5,37T128,139L302,586q6,15 7.5,21t3,10.5T319,633q7,14 14,22t23,8l9-3L565,132q9-23 16.5-41T594,60q4-10 17.5-17.5t28-12T662,26q4,0 4-19q0-2-0.5-4.5T664-3q-50,2-77.5,3.5T554,2L438-3q-4,4-3.5,16.5T439,26q12,0 30,5t21,13q1,4 1.5,8t0.5,8q0,13-3,30.5T482,118L437,242q-3,4-6,4q-39,3-76,3q-26,0-57.5-1.5T228,244l-5-3L180,131q-10-25-13.5-42T163,62q0-14 8-20q9-7 29-11.5T229,26q3,0 3.5-12T231-3L128,2Q100,4 73.5,1.5T24-3ZM320,297q45,0 91,3l3,5L333,526L247,303q0-4 2-4q26-1 43.5-1.5T320,297ZM441,730q-19,0-33.5,14.5T393,778q0,20 14.5,34T441,826q20,0 34.5-14T490,778q0-19-14.5-33.5T441,730Zm-181,0q-19,0-34,14.5T211,778q0,20 15,34t34,14q20,0 34-14t14-34q0-19-14-33.5T260,730Z"/>
      <glyph unicode="&#xc5;" glyph-name="Aring" horiz-adv-x="684" d="M24-3q-4,4-4,15q0,14 4,14q12,0 31,5T81,45q11,14 22.5,37T128,139L302,586q6,15 7.5,21t3,10.5T319,633q7,14 14,22t23,8l9-3L565,132q9-23 16.5-41T594,60q4-10 17.5-17.5t28-12T662,26q4,0 4-19q0-2-0.5-4.5T664-3q-50,2-77.5,3.5T554,2L438-3q-4,4-3.5,16.5T439,26q12,0 30,5t21,13q1,4 1.5,8t0.5,8q0,13-3,30.5T482,118L437,242q-3,4-6,4q-39,3-76,3q-26,0-57.5-1.5T228,244l-5-3L180,131q-10-25-13.5-42T163,62q0-14 8-20q9-7 29-11.5T229,26q3,0 3.5-12T231-3L128,2Q100,4 73.5,1.5T24-3ZM320,297q45,0 91,3l3,5L333,526L247,303q0-4 2-4q26-1 43.5-1.5T320,297Zm33,362q-34,0-61.5,25T264,749q0,37 26,63t62,26t61.5-26T439,749q0-39-26.5-64.5T353,659Zm-1,34q22,0 38,16.5T406,749t-15.5,39T352,804t-39-16t-16-39t16-39.5T352,693Z"/>
      <glyph unicode="&#xc6;" glyph-name="AE" horiz-adv-x="982" d="M883-4Q826-4 706-1Q645,1 604.5,2T542,2L424-3q-4,4-4,15q0,14 4,14q8,0 23,3.5t28,9T490,49q4,14 5.5,35.5T497,135v98q0,8-13,11q-21,3-76,3q-11,0-36-1.5T309,242l-5-3L235,129q-15-24-23-41.5T202,60q-3-13 4-20q14-14 54-14q2,0-0.5-12T255-3Q195,0 153,0Q117,0 48-3q-2,2 0,13q3,16 7,16q44,0 61,17q28,26 69,94L462,584q7,11 7,20q0,12-16,18.5T424,629q-4,0-4,14q0,11 4,15q25-1 53.5-1.5T540,656q22,0 61,1t94,3q56,2 98,3t70,1q2-14 6-33.5T879,588q5-24 8.5-39t4.5-21q-5-5-18-5t-14,7q-15,55-42,70.5T744,616H677q-87,0-88-13q-2-12-3.5-33T584,519V359q0-6 43-6h53q34,0 46,0.5t17.5,2.5t21.5,6q10,2 15.5,23.5T790,421q1,7 15,7q12,0 17-5V234q-4-4-16-4q-13,0-16,8q-4,14-7,24t-5,17q-5,14-7.5,16t-8.5,6q-14,8-106,8q-72,0-72-9V145q0-65 9-91q3-10 68-10h48q92,0 126,17q15,8 33.5,35.5T898,162q2,6 14,6q19,0 25-6q-3-8-9.5-24.5T915,104T905,75q-6-18-13-41T883-4ZM413,295q10,0 28,0.5t44,1.5q12,0 12,11V523q0,8-9,8q-5,0-9-7L342,301q-1-4 1-4q26-1 43.5-1.5T413,295Z"/>
      <glyph unicode="&#xc7;" glyph-name="Ccedilla" horiz-adv-x="656" d="M361-6Q295-6 237.5,20t-101,71t-68,104.5T44,322q0,71 25,133.5t70,110T243.5,640T372,667q59,0 120-6t123-19l-2-144q0-15-21-15q-10,0-13,5q-3,13-7.5,26.5T553,550q-24,35-68.5,55T375,625q-49,0-92-23.5T207.5,538T157,447.5T139,343q0-83 28-149q28-68 88.5-112.5T399,37q99,0 153,58q16,17 25,40t14,40t10,17q6,0 14.5-1.5T629,186l5-3q0-6-4-28t-10-48.5T608.5,60T600,38Q526-6 361-6ZM342-174q-27,0-40,10l-2,7q-1,3-1.5,5.5T298-147q0,18 10,17t24-8.5t26-7.5q24,0 37.5,11.5T409-107q0,19-11.5,29.5T373-67q-10,0-31-8q-2,0-7.5,6T330-60l18,27q8,11 13,19.5T368,0h25L371-27h30q23,0 37.5-17T453-85q0-40-32-64.5T342-174Z"/>
      <glyph unicode="&#xc8;" glyph-name="Egrave" horiz-adv-x="571" d="M495-4q-25,0-65.5,0.5T334-2T234-0.5T154,0L33-3q-3,3-3,16t3,13q9,0 24,3.5T85.5,38T102,49q7,11 7,94V521q0,29-1.5,51T102,607q-2,6-15.5,11t-29,8T33,629q-4,0-4,12q0,13 4,17q26-1 55.5-1.5T152,656q23,0 62,1t94,3q56,2 97.5,3t69.5,1q2-14 6-33.5T491,588q5-24 8.5-39t4.5-21q-5-5-18-5t-14,7q-15,55-42,70.5T356,616H289q-87,0-88-13q-2-12-3.5-33T196,519V359q0-6 43-6h53q34,0 46,0.5t17.5,2.5t21.5,6q10,2 15.5,23.5T402,421q1,7 15,7q12,0 17-5V234q-4-4-16-4q-13,0-16,8q-4,14-7,24t-5,17q-5,14-7.5,16t-8.5,6q-14,8-106,8q-72,0-72-9V145q0-65 9-91q3-10 68-10h48q92,0 126,17q15,8 33.5,35.5T510,162q2,6 14,6q19,0 25-6q-3-8-9.5-24.5T527,104T517,75q-6-18-13-41T495-4ZM359,729q-7,0-27.5,7.5t-46,19.5T236,782t-40,27.5T180,832q0,11 13,20.5t39,9.5q12,0 18-3q14-10 33.5-28T323,794t33-34t13-18q0-13-10-13Z"/>
      <glyph unicode="&#xc9;" glyph-name="Eacute" horiz-adv-x="571" d="M495-4q-25,0-65.5,0.5T334-2T234-0.5T154,0L33-3q-3,3-3,16t3,13q9,0 24,3.5T85.5,38T102,49q7,11 7,94V521q0,29-1.5,51T102,607q-2,6-15.5,11t-29,8T33,629q-4,0-4,12q0,13 4,17q26-1 55.5-1.5T152,656q23,0 62,1t94,3q56,2 97.5,3t69.5,1q2-14 6-33.5T491,588q5-24 8.5-39t4.5-21q-5-5-18-5t-14,7q-15,55-42,70.5T356,616H289q-87,0-88-13q-2-12-3.5-33T196,519V359q0-6 43-6h53q34,0 46,0.5t17.5,2.5t21.5,6q10,2 15.5,23.5T402,421q1,7 15,7q12,0 17-5V234q-4-4-16-4q-13,0-16,8q-4,14-7,24t-5,17q-5,14-7.5,16t-8.5,6q-14,8-106,8q-72,0-72-9V145q0-65 9-91q3-10 68-10h48q92,0 126,17q15,8 33.5,35.5T510,162q2,6 14,6q19,0 25-6q-3-8-9.5-24.5T527,104T517,75q-6-18-13-41T495-4ZM243,729q-10,0-10,13q0,3 13,18t33,34t40,37t33,28q6,3 18,3q26,0 39-9.5T422,832q0-9-16-22.5T366,782t-49.5-26T271,736.5T243,729Z"/>
      <glyph unicode="&#xca;" glyph-name="Ecircumflex" horiz-adv-x="571" d="M495-4q-25,0-65.5,0.5T334-2T234-0.5T154,0L33-3q-3,3-3,16t3,13q9,0 24,3.5T85.5,38T102,49q7,11 7,94V521q0,29-1.5,51T102,607q-2,6-15.5,11t-29,8T33,629q-4,0-4,12q0,13 4,17q26-1 55.5-1.5T152,656q23,0 62,1t94,3q56,2 97.5,3t69.5,1q2-14 6-33.5T491,588q5-24 8.5-39t4.5-21q-5-5-18-5t-14,7q-15,55-42,70.5T356,616H289q-87,0-88-13q-2-12-3.5-33T196,519V359q0-6 43-6h53q34,0 46,0.5t17.5,2.5t21.5,6q10,2 15.5,23.5T402,421q1,7 15,7q12,0 17-5V234q-4-4-16-4q-13,0-16,8q-4,14-7,24t-5,17q-5,14-7.5,16t-8.5,6q-14,8-106,8q-72,0-72-9V145q0-65 9-91q3-10 68-10h48q92,0 126,17q15,8 33.5,35.5T510,162q2,6 14,6q19,0 25-6q-3-8-9.5-24.5T527,104T517,75q-6-18-13-41T495-4ZM183,717q-10,0-10,20l26,24q11,10 19.5,17.5T234,793q14,13 24.5,24.5T276,839q8,8 10,8q6,0 11-8q11-14 21-26t20-22q26-23 44-37t18-17q0-20-9-20q-20,0-105,58q-16-12-38-25.5t-40.5-23T183,717Z"/>
      <glyph unicode="&#xcb;" glyph-name="Edieresis" horiz-adv-x="571" d="M495-4q-25,0-65.5,0.5T334-2T234-0.5T154,0L33-3q-3,3-3,16t3,13q9,0 24,3.5T85.5,38T102,49q7,11 7,94V521q0,29-1.5,51T102,607q-2,6-15.5,11t-29,8T33,629q-4,0-4,12q0,13 4,17q26-1 55.5-1.5T152,656q23,0 62,1t94,3q56,2 97.5,3t69.5,1q2-14 6-33.5T491,588q5-24 8.5-39t4.5-21q-5-5-18-5t-14,7q-15,55-42,70.5T356,616H289q-87,0-88-13q-2-12-3.5-33T196,519V359q0-6 43-6h53q34,0 46,0.5t17.5,2.5t21.5,6q10,2 15.5,23.5T402,421q1,7 15,7q12,0 17-5V234q-4-4-16-4q-13,0-16,8q-4,14-7,24t-5,17q-5,14-7.5,16t-8.5,6q-14,8-106,8q-72,0-72-9V145q0-65 9-91q3-10 68-10h48q92,0 126,17q15,8 33.5,35.5T510,162q2,6 14,6q19,0 25-6q-3-8-9.5-24.5T527,104T517,75q-6-18-13-41T495-4ZM376,730q-19,0-33.5,14.5T328,778q0,20 14.5,34T376,826q20,0 34.5-14T425,778q0-19-14.5-33.5T376,730Zm-181,0q-19,0-34,14.5T146,778q0,20 15,34t34,14q20,0 34-14t14-34q0-19-14-33.5T195,730Z"/>
      <glyph unicode="&#xcc;" glyph-name="Igrave" horiz-adv-x="318" d="M42-3q-4,4-4,15q0,14 4,14q9,0 24,2.5T94,36t15,10q4,14 5.5,36t1.5,53V523q0,31-1.5,53.5T109,612q-2,6-15,10.5T66,630t-24,3q-4,0-4,13q0,12 4,16l120-5q8,0 37,1.5t79,3.5q2-8 2-15q0-14-4-14q-6,0-21-3.5t-28-8T212,612q-9-34-9-93V139q0-58 9-93q2-4 15-9t28-8t21-3q4,0 4-15q0-6-2-14q-50,2-79,3.5T162,2L42-3ZM239,729q-7,0-27.5,7.5t-46,19.5T116,782T76,809.5T60,832q0,11 13,20.5t39,9.5q12,0 18-3q14-10 33.5-28T203,794t33-34t13-18q0-13-10-13Z"/>
      <glyph unicode="&#xcd;" glyph-name="Iacute" horiz-adv-x="318" d="M42-3q-4,4-4,15q0,14 4,14q9,0 24,2.5T94,36t15,10q4,14 5.5,36t1.5,53V523q0,31-1.5,53.5T109,612q-2,6-15,10.5T66,630t-24,3q-4,0-4,13q0,12 4,16l120-5q8,0 37,1.5t79,3.5q2-8 2-15q0-14-4-14q-6,0-21-3.5t-28-8T212,612q-9-34-9-93V139q0-58 9-93q2-4 15-9t28-8t21-3q4,0 4-15q0-6-2-14q-50,2-79,3.5T162,2L42-3Zm81,732q-10,0-10,13q0,3 13,18t33,34t40,37t33,28q6,3 18,3q26,0 39-9.5T302,832q0-9-16-22.5T246,782t-49.5-26T151,736.5T123,729Z"/>
      <glyph unicode="&#xce;" glyph-name="Icircumflex" horiz-adv-x="318" d="M42-3q-4,4-4,15q0,14 4,14q9,0 24,2.5T94,36t15,10q4,14 5.5,36t1.5,53V523q0,31-1.5,53.5T109,612q-2,6-15,10.5T66,630t-24,3q-4,0-4,13q0,12 4,16l120-5q8,0 37,1.5t79,3.5q2-8 2-15q0-14-4-14q-6,0-21-3.5t-28-8T212,612q-9-34-9-93V139q0-58 9-93q2-4 15-9t28-8t21-3q4,0 4-15q0-6-2-14q-50,2-79,3.5T162,2L42-3ZM63,717q-10,0-10,20l26,24q11,10 19.5,17.5T114,793q14,13 24.5,24.5T156,839q8,8 10,8q6,0 11-8q11-14 21-26t20-22q26-23 44-37t18-17q0-20-9-20q-20,0-105,58q-16-12-38-25.5t-40.5-23T63,717Z"/>
      <glyph unicode="&#xcf;" glyph-name="Idieresis" horiz-adv-x="318" d="M42-3q-4,4-4,15q0,14 4,14q9,0 24,2.5T94,36t15,10q4,14 5.5,36t1.5,53V523q0,31-1.5,53.5T109,612q-2,6-15,10.5T66,630t-24,3q-4,0-4,13q0,12 4,16l120-5q8,0 37,1.5t79,3.5q2-8 2-15q0-14-4-14q-6,0-21-3.5t-28-8T212,612q-9-34-9-93V139q0-58 9-93q2-4 15-9t28-8t21-3q4,0 4-15q0-6-2-14q-50,2-79,3.5T162,2L42-3ZM256,730q-19,0-33.5,14.5T208,778q0,20 14.5,34T256,826q20,0 34.5-14T305,778q0-19-14.5-33.5T256,730ZM75,730q-19,0-34,14.5T26,778q0,20 15,34t34,14q20,0 34-14t14-34q0-19-14-33.5T75,730Z"/>
      <glyph unicode="&#xd0;" glyph-name="Eth" horiz-adv-x="731" d="M55-3q-3,3-3,15q0,14 3,14q9,0 24,3.5T107.5,38T124,49q7,11 7,94V308H70q-5,0-5,13q0,18 6,27h60V521q0,29-1.5,51T124,607q-2,6-15.5,11t-29,8T55,629q-4,0-4,12q0,13 4,17q26-1 55.5-1.5T174,656l96,1q29,1 48.5,1t29.5,0q109,0 186-44.5T652,496t41-160q0-96-41.5-173T532.5,41.5T347-3L275-1q-31,1-55.5,1.5T176,0L55-3ZM363,43q115,0 174.5,75.5T597,340q0,76-28,138t-81.5,99T356,614h-5q-108,0-120-16q-13-17-13-63V348H416q6,0 6-10q0-16-6-30H218V139q0-41 15-76q2-5 17-8.5t36.5-6t42.5-4T363,43Z"/>
      <glyph unicode="&#xd1;" glyph-name="Ntilde" horiz-adv-x="721" d="M590-5q-16,0-33,23L169,568V141q0-68 7-93q2-4 17.5-9.5t33.5-9T251,26q3,0 3.5-12T253-3q-50,2-78.5,3.5T138,2L23-3q-3,3-3,15q0,14 3,14q10,0 28,3.5t34,9T103,50q10,24 10,94V537q0,51-7,75q-2,6-17.5,10.5T55,630t-28,3q-4,0-4,13q0,12 4,16q39-1 64.5-1.5T129,660q26,0 46,0.5t34,1.5q19-34 103.5-156.5T548,172q3,17 3,41V524q0,63-7,88q-2,6-18,11t-34,8.5T465,635q-4,0-4,12q0,11 4,15q9,0 30-1.5t45.5-3T583,656q26,0 66,3q39,3 46,3q2-8 2-15q0-12-4-12q-6,0-25-4t-35.5-9T614,612q-4-16-6-39t-2-54V139q0-62 3-140q-4-4-19-4ZM424,743q-30,0-71,22q-42,21-69,21q-32,0-49-35q-1-1-6-1q-9,0-9,16q0,19 13,34.5T264.5,826T298,836q29,0 69-21q41-21 69-21q36,0 51,34q1,1 6,1q9,0 9-16q0-18-13-34t-31-26t-34-10Z"/>
      <glyph unicode="&#xd2;" glyph-name="Ograve" horiz-adv-x="728" d="M138,89Q44,187 44,328q0,70 25,131.5t68.5,108t101.5,73T363,667t124-26.5t102-73t69-108T683,328q0-141-94-239Q525,21 444-1.5t-161.5,0T138,89ZM379,33q64,0 112,42q48,41 70.5,102.5T584,309q0,79-26,151q-26,71-81,118T348,625q-63,0-109-38.5t-71-101T143,350q0-79 26-151q26-71 81-118.5T379,33Zm64,696q-7,0-27.5,7.5t-46,19.5T320,782t-40,27.5T264,832q0,11 13,20.5t39,9.5q12,0 18-3q14-10 33.5-28T407,794t33-34t13-18q0-13-10-13Z"/>
      <glyph unicode="&#xd3;" glyph-name="Oacute" horiz-adv-x="728" d="M138,89Q44,187 44,328q0,70 25,131.5t68.5,108t101.5,73T363,667t124-26.5t102-73t69-108T683,328q0-141-94-239Q525,21 444-1.5t-161.5,0T138,89ZM379,33q64,0 112,42q48,41 70.5,102.5T584,309q0,79-26,151q-26,71-81,118T348,625q-63,0-109-38.5t-71-101T143,350q0-79 26-151q26-71 81-118.5T379,33ZM327,729q-10,0-10,13q0,3 13,18t33,34t40,37t33,28q6,3 18,3q26,0 39-9.5T506,832q0-9-16-22.5T450,782t-49.5-26T355,736.5T327,729Z"/>
      <glyph unicode="&#xd4;" glyph-name="Ocircumflex" horiz-adv-x="728" d="M138,89Q44,187 44,328q0,70 25,131.5t68.5,108t101.5,73T363,667t124-26.5t102-73t69-108T683,328q0-141-94-239Q525,21 444-1.5t-161.5,0T138,89ZM379,33q64,0 112,42q48,41 70.5,102.5T584,309q0,79-26,151q-26,71-81,118T348,625q-63,0-109-38.5t-71-101T143,350q0-79 26-151q26-71 81-118.5T379,33ZM267,717q-10,0-10,20l26,24q11,10 19.5,17.5T318,793q14,13 24.5,24.5T360,839q8,8 10,8q6,0 11-8q11-14 21-26t20-22q26-23 44-37t18-17q0-20-9-20q-20,0-105,58q-16-12-38-25.5t-40.5-23T267,717Z"/>
      <glyph unicode="&#xd5;" glyph-name="Otilde" horiz-adv-x="728" d="M138,89Q44,187 44,328q0,70 25,131.5t68.5,108t101.5,73T363,667t124-26.5t102-73t69-108T683,328q0-141-94-239Q525,21 444-1.5t-161.5,0T138,89ZM379,33q64,0 112,42q48,41 70.5,102.5T584,309q0,79-26,151q-26,71-81,118T348,625q-63,0-109-38.5t-71-101T143,350q0-79 26-151q26-71 81-118.5T379,33Zm54,710q-30,0-71,22q-42,21-69,21q-32,0-49-35q-1-1-6-1q-9,0-9,16q0,19 13,34.5T273.5,826T307,836q29,0 69-21q41-21 69-21q36,0 51,34q1,1 6,1q9,0 9-16q0-18-13-34t-31-26t-34-10Z"/>
      <glyph unicode="&#xd6;" glyph-name="Odieresis" horiz-adv-x="728" d="M138,89Q44,187 44,328q0,70 25,131.5t68.5,108t101.5,73T363,667t124-26.5t102-73t69-108T683,328q0-141-94-239Q525,21 444-1.5t-161.5,0T138,89ZM379,33q64,0 112,42q48,41 70.5,102.5T584,309q0,79-26,151q-26,71-81,118T348,625q-63,0-109-38.5t-71-101T143,350q0-79 26-151q26-71 81-118.5T379,33Zm81,697q-19,0-33.5,14.5T412,778q0,20 14.5,34T460,826q20,0 34.5-14T509,778q0-19-14.5-33.5T460,730Zm-181,0q-19,0-34,14.5T230,778q0,20 15,34t34,14q20,0 34-14t14-34q0-19-14-33.5T279,730Z"/>
      <glyph unicode="&#xd7;" glyph-name="multiply" horiz-adv-x="414" d="M56,60q-3,0-10,9.5T33,91t-6,17L165,243q1,1 1,3q0,3-2,5L27,388q0,7 6.5,18t14,20T58,435q1,0 5-4L205,290q2-2 4-2l2,1L352,430q3,3 5,3q4,0 10.5-10T380,401.5t6-17.5L251,249q-1-1-1-3v-2L386,108q0-7-5-18.5T370,69t-10-9q-5,0-8,3L212,203q-2,2-4,2t-4-2L61,63q-3-3-5-3Z"/>
      <glyph unicode="&#xd8;" glyph-name="Oslash" horiz-adv-x="696" d="M151-13q-9,3-20.5,11T122,10l31,49Q93,108 58.5,179.5T24,328q0,65 24.5,126t68,109T219,639t128,28q45,0 86-12.5T510,620l30,47q8-2 20-10t9-12l-30-46q58-47 93-117.5T667,328q0-70-25-131.5t-69-108T471,16T347-10q-46,0-87,12.5T183,38L151-13ZM127,350q0-61 17-121t50-106L475,565q-28,28-63.5,44T332,625q-63,0-109-38.5T152,485T127,350ZM363,33q50,0 88,23.5t64,63T554.5,208T568,309q0,62-17,122T500,536L219,94q28-28 64-44.5T363,33Z"/>
      <glyph unicode="&#xd9;" glyph-name="Ugrave" horiz-adv-x="719" d="M358,0Q239,0 175,70T111,296V523q0,31-1.5,53.5T104,612q-2,6-15,10.5T61,630t-24,3q-4,0-4,13q0,12 4,16l120-5q8,0 37,1.5t79,3.5q2-8 2-14q0-15-4-15q-6,0-21-3.5t-28-8T207,612q-9-34-9-93V296q0-113 48-180T382,49q171,0 171,225V524q0,63-7,88q-2,6-18,11t-34,8.5T467,635q-4,0-4,12q0,11 4,15q9,0 30-1.5t45.5-3T585,656q26,0 66,3q39,3 46,3q2-8 2-15q0-12-4-12q-6,0-25-4t-35.5-9T616,612q-4-16-6-39t-2-54V276q0-103-29-163.5T494,26T358,0Zm86,729q-7,0-27.5,7.5t-46,19.5T321,782t-40,27.5T265,832q0,11 13,20.5t39,9.5q12,0 18-3q14-10 33.5-28T408,794t33-34t13-18q0-13-10-13Z"/>
      <glyph unicode="&#xda;" glyph-name="Uacute" horiz-adv-x="719" d="M358,0Q239,0 175,70T111,296V523q0,31-1.5,53.5T104,612q-2,6-15,10.5T61,630t-24,3q-4,0-4,13q0,12 4,16l120-5q8,0 37,1.5t79,3.5q2-8 2-14q0-15-4-15q-6,0-21-3.5t-28-8T207,612q-9-34-9-93V296q0-113 48-180T382,49q171,0 171,225V524q0,63-7,88q-2,6-18,11t-34,8.5T467,635q-4,0-4,12q0,11 4,15q9,0 30-1.5t45.5-3T585,656q26,0 66,3q39,3 46,3q2-8 2-15q0-12-4-12q-6,0-25-4t-35.5-9T616,612q-4-16-6-39t-2-54V276q0-103-29-163.5T494,26T358,0ZM328,729q-10,0-10,13q0,3 13,18t33,34t40,37t33,28q6,3 18,3q26,0 39-9.5T507,832q0-9-16-22.5T451,782t-49.5-26T356,736.5T328,729Z"/>
      <glyph unicode="&#xdb;" glyph-name="Ucircumflex" horiz-adv-x="719" d="M358,0Q239,0 175,70T111,296V523q0,31-1.5,53.5T104,612q-2,6-15,10.5T61,630t-24,3q-4,0-4,13q0,12 4,16l120-5q8,0 37,1.5t79,3.5q2-8 2-14q0-15-4-15q-6,0-21-3.5t-28-8T207,612q-9-34-9-93V296q0-113 48-180T382,49q171,0 171,225V524q0,63-7,88q-2,6-18,11t-34,8.5T467,635q-4,0-4,12q0,11 4,15q9,0 30-1.5t45.5-3T585,656q26,0 66,3q39,3 46,3q2-8 2-15q0-12-4-12q-6,0-25-4t-35.5-9T616,612q-4-16-6-39t-2-54V276q0-103-29-163.5T494,26T358,0ZM268,717q-10,0-10,20l26,24q11,10 19.5,17.5T319,793q14,13 24.5,24.5T361,839q8,8 10,8q6,0 11-8q11-14 21-26t20-22q26-23 44-37t18-17q0-20-9-20q-20,0-105,58q-16-12-38-25.5t-40.5-23T268,717Z"/>
      <glyph unicode="&#xdc;" glyph-name="Udieresis" horiz-adv-x="719" d="M358,0Q239,0 175,70T111,296V523q0,31-1.5,53.5T104,612q-2,6-15,10.5T61,630t-24,3q-4,0-4,13q0,12 4,16l120-5q8,0 37,1.5t79,3.5q2-8 2-14q0-15-4-15q-6,0-21-3.5t-28-8T207,612q-9-34-9-93V296q0-113 48-180T382,49q171,0 171,225V524q0,63-7,88q-2,6-18,11t-34,8.5T467,635q-4,0-4,12q0,11 4,15q9,0 30-1.5t45.5-3T585,656q26,0 66,3q39,3 46,3q2-8 2-15q0-12-4-12q-6,0-25-4t-35.5-9T616,612q-4-16-6-39t-2-54V276q0-103-29-163.5T494,26T358,0ZM461,730q-19,0-33.5,14.5T413,778q0,20 14.5,34T461,826q20,0 34.5-14T510,778q0-19-14.5-33.5T461,730Zm-181,0q-19,0-34,14.5T231,778q0,20 15,34t34,14q20,0 34-14t14-34q0-19-14-33.5T280,730Z"/>
      <glyph unicode="&#xdd;" glyph-name="Yacute" horiz-adv-x="649" d="M207-3q-4,4-4,14q0,13 4,13q8,0 22.5,3t27,8.5T271,46q4,16 6,40t2,56V267q0,14-21,56q-11,20-42,77T133,549q-16,30-24.5,41.5T84,613q-11,8-33,15t-32,7q-4,0-4,11q0,12 4,16l54-3q19-1 35.5-2t30.5-1q12,0 132,6q2-4 1.5-15.5T269,635q-17,0-38.5-8.5T209,601q0-10 11-30L332,359q6-5 10,2Q478,566 478,602q0,11-20,22t-49,11q-4,0-4,12q0,11 4,15l118-6q16-1 32,0.5t32,2.5q33,3 42,3q2-8 2-15q0-12-4-12q-8,0-25-4t-33.5-11T549,604q-15-24-38-60.5t-48-78t-47-79T380,323t-14-32V139q0-31 2-54t6-39q2-4 14.5-9.5t26.5-9T435,24q4,0 4-13q0-6-2-14q-50,2-78,3.5T325,2L207-3Zm90,732q-10,0-10,13q0,3 13,18t33,34t40,37t33,28q6,3 18,3q26,0 39-9.5T476,832q0-9-16-22.5T420,782t-49.5-26T325,736.5T297,729Z"/>
      <glyph unicode="&#xde;" glyph-name="Thorn" horiz-adv-x="556" d="M54-3q-4,4-4,15q0,14 4,14q9,0 24,2.5T106,36t15,10q4,14 5.5,36t1.5,53V523q0,31-1.5,53.5T121,612q-2,6-15,10.5T78,630t-24,3q-4,0-4,13q0,12 4,16l120-5q8,0 37,1.5t79,3.5q2-8 2-15q0-14-4-14q-6,0-21-3.5t-28-8T224,612q-9-34-9-88V504q0-7 4-7q5,0 32.5,7t61.5,7q33,0 67-10t65-30q32-20 51.5-57T516,328q0-31-13-66t-38.5-65.5t-64-49.5T312,128q-56,0-77,28q-6,7-3,23q2,5 3,3q31-11 67-11q34,0 61.5,19.5t44,52T424,313q0,71-31,112.5T297,467q-52,0-70-7q-12-4-12-37V139q0-58 9-93q2-4 15-9t28-8t21-3q4,0 4-15q0-6-2-14q-50,2-79,3.5T174,2L54-3Z"/>
      <glyph unicode="&#xdf;" glyph-name="germandbls" horiz-adv-x="578" d="M399-10q-42,0-75.5,14T281,33q0,58 34,58q13,0 23-10.5T356.5,57t19-23.5T400,23q28,0 45.5,21T463,102q0,27-20,48t-49,36q-14,7-29,15t-29,16q-29,17-49,44t-20,64q0,26 12.5,46.5T310,408q30,26 54,57t24,84q0,50-25.5,80.5T290,660q-63,0-82-63q-9-30-12-57.5T193,475l1-340q0-31 1.5-53T201,46q2-4 12.5-9T236,29t18-3q3,0 4-12T257-3L155,2q-1,0-26.5-1.5T51-3q-4,4-4,15q0,14 4,14q12,0 32.5,6.5T106,46q9,35 9,89l1,226q0,8-5,8H58q-3,0-3,6q0,10 5.5,25.5T70,416h41q5,0 5,6v16q0,125 46,190t125,65q80,0 128-32.5T463,561q0-38-21.5-71T394,438t-47.5-40.5T325,359q0-27 25.5-48T423,265q28-14 52.5-30t40-38.5T531,137q0-40-17.5-73.5T466.5,10T399-10Z"/>
      <glyph unicode="&#xe0;" glyph-name="agrave" horiz-adv-x="423" d="M145-7Q99-7 69,17.5T39,91q0,60 78,100q34,17 67.5,27T252,241q9,3 9,15v75q0,32-20,49.5T193,398q-30,0-50-20.5T123,324q0-35-41-35q-29,0-39,19q0,21 17.5,43.5T106,393t61.5,31T234,436q55,0 79-26.5T337,324V93q0-21 11-35t30-14q13,0 35,14q4,0 4-8q0-13-5-21Q371-6 342-6q-23,0-44,19T269,53q-5-4-12.5-10.5T244,32Q223,16 198.5,4.5T145-7Zm38,57q28,0 53,16t25,34V203q-26-10-49.5-18T174,172q-18-7-34.5-25T123,106q0-30 18.5-43T183,50Zm64,447q-5,0-22.5,10.5t-40,27.5t-44,36T105,606.5T91,633q0,9 11,16.5t30,7.5q13,0 22.5-3T171,642q39-52 63.5-88T259,510q0-13-12-13Z"/>
      <glyph unicode="&#xe1;" glyph-name="aacute" horiz-adv-x="423" d="M145-7Q99-7 69,17.5T39,91q0,60 78,100q34,17 67.5,27T252,241q9,3 9,15v75q0,32-20,49.5T193,398q-30,0-50-20.5T123,324q0-35-41-35q-29,0-39,19q0,21 17.5,43.5T106,393t61.5,31T234,436q55,0 79-26.5T337,324V93q0-21 11-35t30-14q13,0 35,14q4,0 4-8q0-13-5-21Q371-6 342-6q-23,0-44,19T269,53q-5-4-12.5-10.5T244,32Q223,16 198.5,4.5T145-7Zm38,57q28,0 53,16t25,34V203q-26-10-49.5-18T174,172q-18-7-34.5-25T123,106q0-30 18.5-43T183,50ZM170,497q-12,0-12,13q14,28 41,68.5T251,648q9,9 34,9q19,0 30-7.5T326,633q0-11-14-28t-35.5-35.5t-44-35t-40-27T170,497Z"/>
      <glyph unicode="&#xe2;" glyph-name="acircumflex" horiz-adv-x="423" d="M145-7Q99-7 69,17.5T39,91q0,60 78,100q34,17 67.5,27T252,241q9,3 9,15v75q0,32-20,49.5T193,398q-30,0-50-20.5T123,324q0-35-41-35q-29,0-39,19q0,21 17.5,43.5T106,393t61.5,31T234,436q55,0 79-26.5T337,324V93q0-21 11-35t30-14q13,0 35,14q4,0 4-8q0-13-5-21Q371-6 342-6q-23,0-44,19T269,53q-5-4-12.5-10.5T244,32Q223,16 198.5,4.5T145-7Zm38,57q28,0 53,16t25,34V203q-26-10-49.5-18T174,172q-18-7-34.5-25T123,106q0-30 18.5-43T183,50ZM121,492q-9,0-9,23q2,3 22,26q10,11 17.5,20T166,578q11,14 20.5,27T203,631q6,10 8,10q6,0 10-10q12-19 21-33t15-22q21-27 37.5-42.5T311,515q0-23-7-23q-5,0-21.5,10.5t-36,26T211,558q-14-14-33-29.5t-35-26T121,492Z"/>
      <glyph unicode="&#xe3;" glyph-name="atilde" horiz-adv-x="423" d="M145-7Q99-7 69,17.5T39,91q0,60 78,100q34,17 67.5,27T252,241q9,3 9,15v75q0,32-20,49.5T193,398q-30,0-50-20.5T123,324q0-35-41-35q-29,0-39,19q0,21 17.5,43.5T106,393t61.5,31T234,436q55,0 79-26.5T337,324V93q0-21 11-35t30-14q13,0 35,14q4,0 4-8q0-13-5-21Q371-6 342-6q-23,0-44,19T269,53q-5-4-12.5-10.5T244,32Q223,16 198.5,4.5T145-7Zm38,57q28,0 53,16t25,34V203q-26-10-49.5-18T174,172q-18-7-34.5-25T123,106q0-30 18.5-43T183,50Zm92,449q-30,0-71,22q-42,21-69,21q-32,0-49-35q-2-1-5-1q-10,0-10,16q0,19 13,34.5T115.5,582T149,592q29,0 69-21q41-21 69-21q36,0 51,34q2,1 5,1q10,0 10-16q0-18-13-34t-31-26t-34-10Z"/>
      <glyph unicode="&#xe4;" glyph-name="adieresis" horiz-adv-x="423" d="M145-7Q99-7 69,17.5T39,91q0,60 78,100q34,17 67.5,27T252,241q9,3 9,15v75q0,32-20,49.5T193,398q-30,0-50-20.5T123,324q0-35-41-35q-29,0-39,19q0,21 17.5,43.5T106,393t61.5,31T234,436q55,0 79-26.5T337,324V93q0-21 11-35t30-14q13,0 35,14q4,0 4-8q0-13-5-21Q371-6 342-6q-23,0-44,19T269,53q-5-4-12.5-10.5T244,32Q223,16 198.5,4.5T145-7Zm38,57q28,0 53,16t25,34V203q-26-10-49.5-18T174,172q-18-7-34.5-25T123,106q0-30 18.5-43T183,50ZM302,504q-19,0-33.5,14.5T254,552q0,20 14.5,34T302,600q20,0 34.5-14T351,552q0-19-14.5-33.5T302,504Zm-181,0q-19,0-34,14.5T72,552q0,20 15,34t34,14q20,0 34-14t14-34q0-19-14-33.5T121,504Z"/>
      <glyph unicode="&#xe5;" glyph-name="aring" horiz-adv-x="423" d="M145-7Q99-7 69,17.5T39,91q0,60 78,100q34,17 67.5,27T252,241q9,3 9,15v75q0,32-20,49.5T193,398q-30,0-50-20.5T123,324q0-35-41-35q-29,0-39,19q0,21 17.5,43.5T106,393t61.5,31T234,436q55,0 79-26.5T337,324V93q0-21 11-35t30-14q13,0 35,14q4,0 4-8q0-13-5-21Q371-6 342-6q-23,0-44,19T269,53q-5-4-12.5-10.5T244,32Q223,16 198.5,4.5T145-7Zm38,57q28,0 53,16t25,34V203q-26-10-49.5-18T174,172q-18-7-34.5-25T123,106q0-30 18.5-43T183,50Zm30,452q-34,0-61.5,25T124,592q0,37 26,63t62,26t61.5-26T299,592q0-39-26.5-64.5T213,502Zm-1,34q22,0 38,16.5T266,592t-15.5,39T212,647t-39-16t-16-39t16-39.5T212,536Z"/>
      <glyph unicode="&#xe6;" glyph-name="ae" horiz-adv-x="675" d="M156-7Q110-7 80,17.5T50,91q0,33 22,60.5T128,197q35,17 68,27.5T263,241q9,2 9,15v84q0,25-20.5,41.5T204,398q-30,0-50-20.5T134,324q0-35-41-35q-29,0-39,19q0,21 17.5,43.5T117,393t61.5,31T245,436t60-14.5T341,382q54,54 127,54q46,0 80-16.5T599,376q17-28 24.5-55t7.5-56q0-8-0.5-14t-5.5-9l-3-2q-1-1-5-1q-13-2-10-2t-5,0q-99-7-239-15q-8,0-8-8q0-42 20-77.5t54-57T504,58q33,0 58.5,10T604,88t19,10q6,0 6-13t-7-20Q562-6 480-6Q375-6 318,78q-16-19-41.5-39T220,6T156-7ZM362,261q21,1 51,3.5t60,5t51.5,5T549,278q5,2 5,9q0,18-12.5,44.5t-33,47T464,399q-32,0-56.5-21.5t-38-52T356,267q0-6 6-6ZM272,100V203q-138-25-138-97q0-29 21-42t48-12.5t48,13T272,100Z"/>
      <glyph unicode="&#xe7;" glyph-name="ccedilla" horiz-adv-x="405" d="M239-6Q184-6 138,23T64.5,100.5T37,209q0,62 22.5,113.5t66,82.5T231,436q110,0 152-51q0-67-37-67q-17,0-26,7.5T297,353q-31,46-74,46q-41,0-74.5-39T115,244q0-80 39.5-133T264,58q42,0 70.5,12.5T376,93l7,5q6,0 6-13q0-7-6-18q-20-28-59-50.5T239-6ZM173-152q-20,0-34,9l-1,5q-2,6-2,9q0,5 4.5,9.5T150-115q7,0 17-7q11-6 20-6q20,0 31.5,9.5T230-95q0,16-10,25t-21,9t-26-7q-2,0-6.5,5T163-55q3,4 9.5,14T186-20t9,16h21L198-27h25q19,0 31.5-14.5T267-76q0-34-27-55t-67-21Z"/>
      <glyph unicode="&#xe8;" glyph-name="egrave" horiz-adv-x="430" d="M239-6Q184-6 138,23T64.5,100.5T37,209q0,70 26,121t71,78.5T235,436q46,0 81-17.5T370,374q18-28 26.5-56.5T405,261q0-20-6-24.5T376,232H124q-8,0-8-5q0-42 17-80.5T183,83t81-25q42,0 70.5,12.5T376,93l7,5q6,0 6-13q0-7-6-18q-20-28-59-50.5T239-6ZM124,274H319q5,0 5,10q0,22-11.5,48.5T278,379t-58,20q-32,0-55-21.5t-35-49T118,281q0-7 6-7ZM267,497q-5,0-22.5,10.5t-40,27.5t-44,36T125,606.5T111,633q0,9 11,16.5t30,7.5q13,0 22.5-3T191,642q39-52 63.5-88T279,510q0-13-12-13Z"/>
      <glyph unicode="&#xe9;" glyph-name="eacute" horiz-adv-x="430" d="M239-6Q184-6 138,23T64.5,100.5T37,209q0,70 26,121t71,78.5T235,436q46,0 81-17.5T370,374q18-28 26.5-56.5T405,261q0-20-6-24.5T376,232H124q-8,0-8-5q0-42 17-80.5T183,83t81-25q42,0 70.5,12.5T376,93l7,5q6,0 6-13q0-7-6-18q-20-28-59-50.5T239-6ZM124,274H319q5,0 5,10q0,22-11.5,48.5T278,379t-58,20q-32,0-55-21.5t-35-49T118,281q0-7 6-7Zm66,223q-12,0-12,13q14,28 41,68.5T271,648q9,9 34,9q19,0 30-7.5T346,633q0-11-14-28t-35.5-35.5t-44-35t-40-27T190,497Z"/>
      <glyph unicode="&#xea;" glyph-name="ecircumflex" horiz-adv-x="430" d="M239-6Q184-6 138,23T64.5,100.5T37,209q0,70 26,121t71,78.5T235,436q46,0 81-17.5T370,374q18-28 26.5-56.5T405,261q0-20-6-24.5T376,232H124q-8,0-8-5q0-42 17-80.5T183,83t81-25q42,0 70.5,12.5T376,93l7,5q6,0 6-13q0-7-6-18q-20-28-59-50.5T239-6ZM124,274H319q5,0 5,10q0,22-11.5,48.5T278,379t-58,20q-32,0-55-21.5t-35-49T118,281q0-7 6-7Zm17,218q-9,0-9,23q2,3 22,26q10,11 17.5,20T186,578q11,14 20.5,27T223,631q6,10 8,10q6,0 10-10q12-19 21-33t15-22q21-27 37.5-42.5T331,515q0-23-7-23q-5,0-21.5,10.5t-36,26T231,558q-14-14-33-29.5t-35-26T141,492Z"/>
      <glyph unicode="&#xeb;" glyph-name="edieresis" horiz-adv-x="430" d="M239-6Q184-6 138,23T64.5,100.5T37,209q0,70 26,121t71,78.5T235,436q46,0 81-17.5T370,374q18-28 26.5-56.5T405,261q0-20-6-24.5T376,232H124q-8,0-8-5q0-42 17-80.5T183,83t81-25q42,0 70.5,12.5T376,93l7,5q6,0 6-13q0-7-6-18q-20-28-59-50.5T239-6ZM124,274H319q5,0 5,10q0,22-11.5,48.5T278,379t-58,20q-32,0-55-21.5t-35-49T118,281q0-7 6-7ZM322,504q-19,0-33.5,14.5T274,552q0,20 14.5,34T322,600q20,0 34.5-14T371,552q0-19-14.5-33.5T322,504Zm-181,0q-19,0-34,14.5T92,552q0,20 15,34t34,14q20,0 34-14t14-34q0-19-14-33.5T141,504Z"/>
      <glyph unicode="&#xec;" glyph-name="igrave" horiz-adv-x="282" d="M33-3q-4,4-4,17q0,12 4,12q8,0 22,3t26,8t13,9q4,14 5.5,32t1.5,38V305q0,38-14,54q-10,13-24,16.5t-24,4T29,382q0,24 6,25q53,8 81,13.5T166,431l12,3q4,1 5-8t0-13q-2-20-3.5-38T178,341V135q0-29 2-51t6-38q2-4 14-9t26-8t20-3q3,0 4-12T249-3L142,2L33-3ZM167,497q-5,0-22.5,10.5t-40,27.5t-44,36T25,606.5T11,633q0,9 11,16.5T52,657q13,0 22.5-3T91,642q39-52 63.5-88T179,510q0-13-12-13Z"/>
      <glyph unicode="&#xed;" glyph-name="iacute" horiz-adv-x="282" d="M33-3q-4,4-4,17q0,12 4,12q8,0 22,3t26,8t13,9q4,14 5.5,32t1.5,38V305q0,38-14,54q-10,13-24,16.5t-24,4T29,382q0,24 6,25q53,8 81,13.5T166,431l12,3q4,1 5-8t0-13q-2-20-3.5-38T178,341V135q0-29 2-51t6-38q2-4 14-9t26-8t20-3q3,0 4-12T249-3L142,2L33-3ZM90,497q-12,0-12,13q14,28 41,68.5T171,648q9,9 34,9q19,0 30-7.5T246,633q0-11-14-28t-35.5-35.5t-44-35t-40-27T90,497Z"/>
      <glyph unicode="&#xee;" glyph-name="icircumflex" horiz-adv-x="282" d="M33-3q-4,4-4,17q0,12 4,12q8,0 22,3t26,8t13,9q4,14 5.5,32t1.5,38V305q0,38-14,54q-10,13-24,16.5t-24,4T29,382q0,24 6,25q53,8 81,13.5T166,431l12,3q4,1 5-8t0-13q-2-20-3.5-38T178,341V135q0-29 2-51t6-38q2-4 14-9t26-8t20-3q3,0 4-12T249-3L142,2L33-3Zm8,495q-9,0-9,23q2,3 22,26q10,11 17.5,20T86,578q11,14 20.5,27T123,631q6,10 8,10q6,0 10-10q12-19 21-33t15-22q21-27 37.5-42.5T231,515q0-23-7-23q-5,0-21.5,10.5t-36,26T131,558q-14-14-33-29.5t-35-26T41,492Z"/>
      <glyph unicode="&#xef;" glyph-name="idieresis" horiz-adv-x="309" d="M237,504q-19,0-33.5,14.5T189,552q0,20 14.5,34T237,600q20,0 34.5-14T286,552q0-19-14.5-33.5T237,504ZM78,504q-19,0-34,14.5T29,552q0,20 15,34t34,14q20,0 34-14t14-34q0-19-14-33.5T78,504ZM53-3q-4,4-4,17q0,12 4,12q8,0 22,3t26,8t13,9q4,14 5.5,32t1.5,38V305q0,38-14,54q-10,13-24,16.5t-24,4T49,382q0,24 6,25q53,8 81,13.5T186,431l12,3q4,1 5-8t0-13q-2-20-3.5-38T198,341V135q0-29 2-51t6-38q2-4 14-9t26-8t20-3q3,0 4-12T269-3L162,2L53-3Z"/>
      <glyph unicode="&#xf0;" glyph-name="eth" horiz-adv-x="514" d="M255-7Q189-7 137.5,24.5T57,106.5T28,215q0,42 16.5,82t46,71.5T159,419t84,19q29,0 59.5-9T344,408q-9,44-37.5,87T226,578L119,509q-23,26-17,32l92,60q-53,34-122,63q0,6 4.5,15t9.5,9q39-9 76.5-23.5T236,628l120,77q22-27 18-31L269,606q10-7 20-15q74-58 118.5-141T452,260q0-74-25.5-135t-70-96.5T255-7Zm-9,39q38,0 64.5,25T351,124t14,94q0,95-19,120q-46,60-116,60q-34,0-60-24t-41-64t-15-88q0-50 18-93.5t48-70T246,32Z"/>
      <glyph unicode="&#xf1;" glyph-name="ntilde" horiz-adv-x="543" d="M33-3q-4,4-4,17q0,12 4,12q8,0 22,3t26,8t13,9q4,14 5.5,32t1.5,38V305q0,38-14,54q-10,12-23.5,16t-24,4.5T29,382q0,24 6,25q53,8 86,14.5t41,8.5l16,4q4,1 5-8t0-13q-2-14-3-24t-1-16q0-4 2-4q1,0 3,2q23,24 62.5,45.5T322,438q70,0 98-50t28-162V135q0-29 2-51t6-38q2-4 14-9t26-8t20-3q3,0 4-12T519-3L412,2L307-3q-4,4-4,17q0,12 4,12q8,0 21,3t24,8t12,9q4,14 5.5,32t1.5,38V216q0,93-24,127t-78,34q-21,0-42-11.5T192,339t-14-28V135q0-29 2-51t6-38q2-4 14-9t26-8t20-3q3,0 4-12T249-3L142,2L33-3ZM335,499q-30,0-71,22q-42,21-69,21q-32,0-49-35q-2-1-5-1q-10,0-10,16q0,19 13,34.5T175.5,582T209,592q29,0 69-21q41-21 69-21q36,0 51,34q2,1 5,1q10,0 10-16q0-18-13-34t-31-26t-34-10Z"/>
      <glyph unicode="&#xf2;" glyph-name="ograve" horiz-adv-x="510" d="M256-7Q196-7 146,23T66.5,104T37,216q0,62 28.5,112T143,407.5T254,437q60,0 109.5-30t79-80T472,216T443,104T365.5,23T256-7Zm9,39q36,0 63,23t42.5,62T386,202q0,54-20,98.5t-52.5,71T243,398q-35,0-62.5-22.5t-42.5-60T123,231q0-54 19.5-99.5t52-72.5T265,32Zm25,465q-5,0-22.5,10.5t-40,27.5t-44,36T148,606.5T134,633q0,9 11,16.5t30,7.5q13,0 22.5-3T214,642q39-52 63.5-88T302,510q0-13-12-13Z"/>
      <glyph unicode="&#xf3;" glyph-name="oacute" horiz-adv-x="510" d="M256-7Q196-7 146,23T66.5,104T37,216q0,62 28.5,112T143,407.5T254,437q60,0 109.5-30t79-80T472,216T443,104T365.5,23T256-7Zm9,39q36,0 63,23t42.5,62T386,202q0,54-20,98.5t-52.5,71T243,398q-35,0-62.5-22.5t-42.5-60T123,231q0-54 19.5-99.5t52-72.5T265,32ZM213,497q-12,0-12,13q14,28 41,68.5T294,648q9,9 34,9q19,0 30-7.5T369,633q0-11-14-28t-35.5-35.5t-44-35t-40-27T213,497Z"/>
      <glyph unicode="&#xf4;" glyph-name="ocircumflex" horiz-adv-x="510" d="M256-7Q196-7 146,23T66.5,104T37,216q0,62 28.5,112T143,407.5T254,437q60,0 109.5-30t79-80T472,216T443,104T365.5,23T256-7Zm9,39q36,0 63,23t42.5,62T386,202q0,54-20,98.5t-52.5,71T243,398q-35,0-62.5-22.5t-42.5-60T123,231q0-54 19.5-99.5t52-72.5T265,32ZM164,492q-9,0-9,23q2,3 22,26q10,11 17.5,20T209,578q11,14 20.5,27T246,631q6,10 8,10q6,0 10-10q12-19 21-33t15-22q21-27 37.5-42.5T354,515q0-23-7-23q-5,0-21.5,10.5t-36,26T254,558q-14-14-33-29.5t-35-26T164,492Z"/>
      <glyph unicode="&#xf5;" glyph-name="otilde" horiz-adv-x="510" d="M256-7Q196-7 146,23T66.5,104T37,216q0,62 28.5,112T143,407.5T254,437q60,0 109.5-30t79-80T472,216T443,104T365.5,23T256-7Zm9,39q36,0 63,23t42.5,62T386,202q0,54-20,98.5t-52.5,71T243,398q-35,0-62.5-22.5t-42.5-60T123,231q0-54 19.5-99.5t52-72.5T265,32Zm53,467q-30,0-71,22q-42,21-69,21q-32,0-49-35q-2-1-5-1q-10,0-10,16q0,19 13,34.5T158.5,582T192,592q29,0 69-21q41-21 69-21q36,0 51,34q2,1 5,1q10,0 10-16q0-18-13-34t-31-26t-34-10Z"/>
      <glyph unicode="&#xf6;" glyph-name="odieresis" horiz-adv-x="510" d="M256-7Q196-7 146,23T66.5,104T37,216q0,62 28.5,112T143,407.5T254,437q60,0 109.5-30t79-80T472,216T443,104T365.5,23T256-7Zm9,39q36,0 63,23t42.5,62T386,202q0,54-20,98.5t-52.5,71T243,398q-35,0-62.5-22.5t-42.5-60T123,231q0-54 19.5-99.5t52-72.5T265,32Zm80,472q-19,0-33.5,14.5T297,552q0,20 14.5,34T345,600q20,0 34.5-14T394,552q0-19-14.5-33.5T345,504Zm-181,0q-19,0-34,14.5T115,552q0,20 15,34t34,14q20,0 34-14t14-34q0-19-14-33.5T164,504Z"/>
      <glyph unicode="&#xf7;" glyph-name="divide" horiz-adv-x="528" d="M262,390q-20,0-33.5,12.5T213,435v4q0,19 15,33.5T262,487q20,0 33.5-12T311,443v-5q0-18-15-33t-34-15ZM34,215l-4,2q-2,4-2,7q0,7 1.5,19.5t5,23.5T42,278H491q7-1 7-10q0-12-8-46q-1-6-6-6l-2-1H34ZM262,5q-20,0-33.5,13T213,52v4q0,19 15,34t34,15q20,0 33.5-13.5T311,57V55q0-18-15-34T262,5Z"/>
      <glyph unicode="&#xf8;" glyph-name="oslash" horiz-adv-x="510" d="M137-8Q107,7 110,13l15,24Q85,68 61,114.5T37,216q0,62 28.5,112T143,407.5T254,437q58,0 108-29l18,29q30-13 27-20l-18-28q38-31 60.5-76T472,216q0-61-29-112T365.5,23T256-7Q202-7 154,19L137-8ZM123,231q0-39 10.5-74T162,95L329,357q-18,19-40,30t-46,11q-35,0-62.5-22.5t-42.5-60T123,231ZM265,32q36,0 63,23t42.5,62T386,202q0,36-9.5,68.5T351,329L185,68q37-36 80-36Z"/>
      <glyph unicode="&#xf9;" glyph-name="ugrave" horiz-adv-x="517" d="M367-8q-8,0-8,16V59q0,5-2,5Q291-7 226-7q-47,0-74.5,27.5t-39,70T101,179V305q0,38-14,54q-10,12-23.5,16t-24,4.5T29,382q0,24 6,25q53,8 85.5,14.5T158,429l20,5q4,1 5-8t0-13q-6-48-6-74V204q0-77 23-113.5T275,54q20,0 39.5,11t32,26.5T359,118V305q0,38-14,54q-10,12-23.5,16t-24,5T287,382q0,24 6,25q53,8 79.5,13t42.5,9l21,5q4,1 5-8t0-13q-6-48-6-72V141q0-45 7-76q3-10 16-12.5T488,48l13-1q3-1 3-11q0-3-2.5-9.5T496,20q-30-2-66-10.5T376-6l-9-2ZM294,497q-5,0-22.5,10.5t-40,27.5t-44,36T152,606.5T138,633q0,9 11,16.5t30,7.5q13,0 22.5-3T218,642q39-52 63.5-88T306,510q0-13-12-13Z"/>
      <glyph unicode="&#xfa;" glyph-name="uacute" horiz-adv-x="517" d="M367-8q-8,0-8,16V59q0,5-2,5Q291-7 226-7q-47,0-74.5,27.5t-39,70T101,179V305q0,38-14,54q-10,12-23.5,16t-24,4.5T29,382q0,24 6,25q53,8 85.5,14.5T158,429l20,5q4,1 5-8t0-13q-6-48-6-74V204q0-77 23-113.5T275,54q20,0 39.5,11t32,26.5T359,118V305q0,38-14,54q-10,12-23.5,16t-24,5T287,382q0,24 6,25q53,8 79.5,13t42.5,9l21,5q4,1 5-8t0-13q-6-48-6-72V141q0-45 7-76q3-10 16-12.5T488,48l13-1q3-1 3-11q0-3-2.5-9.5T496,20q-30-2-66-10.5T376-6l-9-2ZM217,497q-12,0-12,13q14,28 41,68.5T298,648q9,9 34,9q19,0 30-7.5T373,633q0-11-14-28t-35.5-35.5t-44-35t-40-27T217,497Z"/>
      <glyph unicode="&#xfb;" glyph-name="ucircumflex" horiz-adv-x="517" d="M367-8q-8,0-8,16V59q0,5-2,5Q291-7 226-7q-47,0-74.5,27.5t-39,70T101,179V305q0,38-14,54q-10,12-23.5,16t-24,4.5T29,382q0,24 6,25q53,8 85.5,14.5T158,429l20,5q4,1 5-8t0-13q-6-48-6-74V204q0-77 23-113.5T275,54q20,0 39.5,11t32,26.5T359,118V305q0,38-14,54q-10,12-23.5,16t-24,5T287,382q0,24 6,25q53,8 79.5,13t42.5,9l21,5q4,1 5-8t0-13q-6-48-6-72V141q0-45 7-76q3-10 16-12.5T488,48l13-1q3-1 3-11q0-3-2.5-9.5T496,20q-30-2-66-10.5T376-6l-9-2ZM168,492q-9,0-9,23q2,3 22,26q10,11 17.5,20T213,578q11,14 20.5,27T250,631q6,10 8,10q6,0 10-10q12-19 21-33t15-22q21-27 37.5-42.5T358,515q0-23-7-23q-5,0-21.5,10.5t-36,26T258,558q-14-14-33-29.5t-35-26T168,492Z"/>
      <glyph unicode="&#xfc;" glyph-name="udieresis" horiz-adv-x="517" d="M367-8q-8,0-8,16V59q0,5-2,5Q291-7 226-7q-47,0-74.5,27.5t-39,70T101,179V305q0,38-14,54q-10,12-23.5,16t-24,4.5T29,382q0,24 6,25q53,8 85.5,14.5T158,429l20,5q4,1 5-8t0-13q-6-48-6-74V204q0-77 23-113.5T275,54q20,0 39.5,11t32,26.5T359,118V305q0,38-14,54q-10,12-23.5,16t-24,5T287,382q0,24 6,25q53,8 79.5,13t42.5,9l21,5q4,1 5-8t0-13q-6-48-6-72V141q0-45 7-76q3-10 16-12.5T488,48l13-1q3-1 3-11q0-3-2.5-9.5T496,20q-30-2-66-10.5T376-6l-9-2ZM349,504q-19,0-33.5,14.5T301,552q0,20 14.5,34T349,600q20,0 34.5-14T398,552q0-19-14.5-33.5T349,504Zm-181,0q-19,0-34,14.5T119,552q0,20 15,34t34,14q20,0 34-14t14-34q0-19-14-33.5T168,504Z"/>
      <glyph unicode="&#xfd;" glyph-name="yacute" horiz-adv-x="454" d="M120-227q-21,0-31,13T79-188q0,21 14,32q83,0 110,86q5,15 12,36T226,0L83,350q-5,12-10,20.5T63,384q-9,9-27.5,15T6,405q-4,0-4,13q0,12 4,16q27-1 53.5-2.5T114,430q32,0 55,1.5t42,2.5q2-8 2-15q0-14-4-14t-14.5-3T174,394.5T162,384v-2q0-17 107-261l76,219q7,20 7,31q0,15-15.5,24.5T295,405q-4,0-4,13q0,12 4,16q13-1 39-3t50-2q22,0 48,2t39,3q2-8 2-15q0-14-4-14q-13,0-35-9t-30-29L225-116q-23-62-52-86.5T120-227Zm95,724q-12,0-12,13q14,28 41,68.5T296,648q9,9 34,9q19,0 30-7.5T371,633q0-11-14-28t-35.5-35.5t-44-35t-40-27T215,497Z"/>
      <glyph unicode="&#xfe;" glyph-name="thorn" horiz-adv-x="513" d="M46-226q-4,4-4,16q0,13 4,13q8,0 22,3t26,8t13,9q4,14 5.5,32t1.5,38V548q0,35-6,65q-4,16-51,16H48q-6,0-6,11q0,16 6,16q51,5 86,16.5T182,691l5,3h2q4,0 8-5.5t5-10.5q-11-33-11-87V407q0-5 3-5q10,7 27.5,14.5T259,430t35,6q64,0 109.5-30.5t70-76.5T498,234q0-48-18-91.5T431,65T360.5,11.5T279-8q-31,0-50.5,6.5T195,11q-4-4-4-13V-88q0-29 2-51t6-38q2-4 14-9t26-8t20-3q3,0 4-12.5T262-226l-107,5L46-226ZM283,34q40,0 68.5,24.5t44.5,64T412,206q0,56-20.5,96.5T337,365t-75,22q-31,0-51-16.5T191,323V98q0-27 29-45.5T283,34Z"/>
      <glyph unicode="&#xff;" glyph-name="ydieresis" horiz-adv-x="454" d="M120-227q-21,0-31,13T79-188q0,21 14,32q83,0 110,86q5,15 12,36T226,0L83,350q-5,12-10,20.5T63,384q-9,9-27.5,15T6,405q-4,0-4,13q0,12 4,16q27-1 53.5-2.5T114,430q32,0 55,1.5t42,2.5q2-8 2-15q0-14-4-14t-14.5-3T174,394.5T162,384v-2q0-17 107-261l76,219q7,20 7,31q0,15-15.5,24.5T295,405q-4,0-4,13q0,12 4,16q13-1 39-3t50-2q22,0 48,2t39,3q2-8 2-15q0-14-4-14q-13,0-35-9t-30-29L225-116q-23-62-52-86.5T120-227ZM347,504q-19,0-33.5,14.5T299,552q0,20 14.5,34T347,600q20,0 34.5-14T396,552q0-19-14.5-33.5T347,504Zm-181,0q-19,0-34,14.5T117,552q0,20 15,34t34,14q20,0 34-14t14-34q0-19-14-33.5T166,504Z"/>
      <glyph unicode="&#x2013;" glyph-name="endash" horiz-adv-x="499" d="M34,200q-6,5-6,9q0,7 1.5,19.5t5,23T42,262H467q6,0 6-9q0-10-9-46q-1-5-6-7H34Z"/>
      <glyph unicode="&#x2014;" glyph-name="emdash" horiz-adv-x="979" d="M28,200q-6,5-6,9q0,7 1.5,19.5t5,23T36,262H951q6,0 6-9q0-10-9-46q-1-5-6-7H28Z"/>
      <glyph unicode="&#x2018;" glyph-name="quoteleft" horiz-adv-x="160" d="M126,706q14,0 20-17q-36-21-53.5-48.5T75,598q0-11 10.5-23.5T106,550t10-24q0-18-20-30.5T51,483q-9,0-20,3q-14,20-14,70q0,26 10.5,51.5T53,650q21,23 43.5,39.5T126,706Z"/>
      <glyph unicode="&#x2019;" glyph-name="quoteright" horiz-adv-x="160" d="M38,485q-14,0-20,17q36,21 53.5,48.5T89,593q0,12-10,24T58.5,641T48,665q0,18 20,30.5T113,708q10,0 20-3q14-20 14-70q0-26-10.5-51.5T111,541q-21-23-43-39.5T38,485Z"/>
      <glyph unicode="&#x201a;" glyph-name="quotesinglbase" horiz-adv-x="160" d="M38-97Q24-97 18-80Q54-59 71.5-31.5T89,11q0,12-10,24T58.5,59T48,83q0,18 20,30.5T113,126q10,0 20-3q14-20 14-70q0-26-10.5-51.5T111-41Q90-64 68-80.5T38-97Z"/>
      <glyph unicode="&#x201c;" glyph-name="quotedblleft" horiz-adv-x="309" d="M271,705q14,0 20-17q-36-21-53.5-48.5T220,597q0-11 10.5-23.5T251,549t10-24q0-18-20-30.5T196,482q-9,0-20,3q-14,20-14,70q0,26 10.5,51.5T198,649q21,23 43.5,39.5T271,705Zm-148,0q14,0 20-17q-36-21-53.5-48.5T72,597q0-11 10.5-23.5T103,549t10-24q0-18-20-30.5T48,482q-9,0-20,3q-14,20-14,70q0,26 10.5,51.5T50,649q21,23 43.5,39.5T123,705Z"/>
      <glyph unicode="&#x201d;" glyph-name="quotedblright" horiz-adv-x="310" d="M38,485q-14,0-20,17q36,21 53.5,48.5T89,593q0,12-10,24T58.5,641T48,665q0,18 20,30.5T113,708q10,0 20-3q14-20 14-70q0-26-10.5-51.5T111,541q-21-23-43-39.5T38,485Zm142,0q-14,0-20,17q36,21 53.5,48.5T231,593q0,12-10,24t-20.5,24T190,665q0,18 20,30.5T255,708q10,0 20-3q14-20 14-70q0-26-10.5-51.5T253,541q-21-23-43-39.5T180,485Z"/>
      <glyph unicode="&#x201e;" glyph-name="quotedblbase" horiz-adv-x="309" d="M38-97Q24-97 18-80Q54-59 71.5-31.5T89,11q0,12-10,24T58.5,59T48,83q0,18 20,30.5T113,126q10,0 20-3q14-20 14-70q0-26-10.5-51.5T111-41Q90-64 68-80.5T38-97Zm142,0q-14,0-20,17q36,21 53.5,48.5T231,11q0,12-10,24T200.5,59T190,83q0,18 20,30.5T255,126q10,0 20-3q14-20 14-70q0-26-10.5-51.5T253-41q-21-23-43-39.5T180-97Z"/>
      <glyph unicode="&#x2022;" glyph-name="bullet" horiz-adv-x="409" d="M203,154q-27,0-52,14.5T110.5,208T95,263q0,44 32,76t76,32t75.5-32T310,263q0-32-16-57t-40.5-38.5T203,154Z"/>
      <glyph unicode="&#x2039;" glyph-name="guilsinglleft" horiz-adv-x="290" d="M240,73q-9,10-38.5,34t-73,56T34,227q-7,3-7,14q0,17 8,27q128,77 206,155q23-6 23-19q0-7-26-32t-82-82l-41-43l87-90l46-45q10-10 12.5-13t2.5-8q0-11-10.5-13.5T240,73Z"/>
      <glyph unicode="&#x203a;" glyph-name="guilsinglright" horiz-adv-x="292" d="M51,73q-2,2-12.5,4.5T28,91q0,5 2.5,8T43,112l46,45l87,90l-41,43q-56,57-82,82T27,404q0,13 23,19q79-78 206-155q8-10 8-27q0-11-7-14q-51-32-94.5-64t-73-56T51,73Z"/>
    </font>
</defs>
</svg>
