<?xml version="1.0" standalone="no"?>
<!DOCTYPE svg PUBLIC "-//W3C//DTD SVG 1.1//EN" "http://www.w3.org/Graphics/SVG/1.1/DTD/svg11.dtd">
<svg xmlns="http://www.w3.org/2000/svg">
  <defs>
    <font id="CrimsonText" horiz-adv-x="480">
      <font-face font-family="Crimson Text" units-per-em="1024" panose-1="0 0 0 0 0 0 0 0 0 0" ascent="972" descent="-359" alphabetic="0"/>
      <glyph unicode=" " glyph-name="space" horiz-adv-x="209"/>
      <glyph unicode="!" glyph-name="exclam" horiz-adv-x="193" d="M92,190q-13,0-17,22q-4,23-9,62T55.5,359T45,449t-8,78t-3,48q0,31 19,49t47,18q25,0 43.5-18.5T162,574q0-8-3-37.5T151,465t-10.5-87.5t-11-87T120,221q-4-31-28-31ZM99-11Q62-11 43,13T24,65t18,51t55,23q30,0 51.5-21.5T170,66q0-31-20.5-54T99-11Z"/>
      <glyph unicode="&quot;" glyph-name="quotedbl" horiz-adv-x="323" d="M78,434q-14,0-15,13q-2,23-7,50T44,555q-15,62-15,80q0,11 8.5,25.5t21,26T83,698h19q15,0 22-12q7-13 7-53q0-29-15-91q-15-61-18-93q-1-7-7.5-11T78,434Zm163,0q-14,0-15,13q-2,23-7,50t-12,58q-15,62-15,80q0,11 8.5,25.5t21,26T246,698h19q15,0 22-12q7-13 7-53q0-29-15-91q-15-61-18-93q-1-7-7.5-11T241,434Z"/>
      <glyph unicode="#" glyph-name="numbersign" horiz-adv-x="473" d="M105,15q-12,0-14,9l23,147H32q-6,0-6,10q0,22 8,51q1,5 6,5h83l12,74H32q-6,2-6,11q0,22 8,51q1,5 6,5H144l24,152q0,9 57,9q12,0 10-9L212,378h82l24,152q0,9 57,9q12,0 10-9L361,378h78q7,0 7-7q0-24-9-53l-6-7H352l-13-74H439q7,0 7-7q0-24-9-53q-1-1-2-3.5t-3-2.5H331L307,24l-3-4q-7-5-27-5H254q-13,0-13,7v2l22,147H181L159,24q0-4-8.5-6.5T128,15H105Zm85,222h83l12,74H203l-13-74Z"/>
      <glyph unicode="$" glyph-name="dollar" horiz-adv-x="464" d="M192-40q-39,0-39,9l4,26Q110,1 47,16Q39,48 33,88t-8,87q-1,10 17,10q23,0 30-4q7-30 31.5-67.5T167,58l34,205l-4,3l-35,22q-19,12-30,19t-19.5,14T89,341q-23,20-31,35q-10,15-18.5,39.5T31,467q0,50 30,90t77,63t97,23q14,0 28-1l4,26q39,0 39-8l-4-22q28-5 49.5-11t36.5-9q11-43 16.5-83t5.5-77q-7-10-30-10q-18,0-18,7q0,10-12,40q-7,18-22.5,39T291,569L261,385q8-6 16-11q41-26 68-44.5T383,300q55-52 55-129q0-52-32-92.5t-82.5-64T216-9q-9,0-19,1l-5-32ZM158,507q0-42 67-96l29,176q-9,2-18,2q-37,0-57.5-22T158,507ZM305,145q0,24-17.5,46.5T237,238L206,47q7-1 14-1q35,0 60,27.5T305,145Z"/>
      <glyph unicode="%" glyph-name="percent" horiz-adv-x="660" d="M91-4Q55-4 52,10L533,632q12,14 19,14q31,0 53-17L124,7Q115-4 91-4Zm89,341q-66,0-111,45q-31,31-41.5,69t0,76.5T69,597q45,45 111,45q44,0 80-20.5T317,566t21-77t-21-76.5t-57-55T180,337Zm7,38q28,0 41,27.5T241,466q0,139-71,139q-52,0-52-95q0-135 69-135ZM477,1Q411,1 366,46q-31,31-41.5,69t0,76.5T366,261q45,45 111,45q44,0 80-20.5T614,230t21-77T614,76.5t-57-55T477,1Zm7,37q28,0 41,27.5T538,130q0,138-70,138q-29,0-41-28t-12-66q0-136 69-136Z"/>
      <glyph unicode="&amp;" glyph-name="ampersand" horiz-adv-x="701" d="M223-4q-53,0-98.5,18T52,69T25,162q0,48 22,82.5t55.5,61T171,354q-10,15-23.5,39t-24,52.5T113,500q0,51 23.5,85.5t64,52.5T292,656q76,1 122-33.5T460,533q0-61-36-103T320,346q20-32 48-70.5T431,191q53,62 53,71q0,13-13.5,15.5T438,280q-1,4-1.5,9T436,300q0,11 3,12l103-1q44,0 111,3q5-2 5-17q0-19-8-21q-49-7-67-19q-11-7-31-31.5T511,174t-37-43l5-6q11-13 27.5-28T543,82t38,17.5T609,134q7,0 17.5-8.5T637,110q-4-12-17-30.5T588.5,42T548,10T503-3q-33,0-62.5,13.5T398,38L385,52Q320-4 223-4Zm59,411q37,26 54,51t17,66q0,28-16.5,53.5T289,603q-30,0-43-23t-13-56q0-31 16.5-61T282,407ZM258,56q47,0 81,45q-8,10-26,35t-39,56t-38,57l-25,39q-46-33-46-125q0-53 27-80t66-27Z"/>
      <glyph unicode="&apos;" glyph-name="quotesingle" horiz-adv-x="200" d="M99,434q-14,0-15,13q-2,23-7,50T65,555q-15,62-15,80q0,11 8.5,25.5t21,26T104,698h19q15,0 22-12q7-13 7-53q0-29-15-91q-15-61-18-93q-1-7-7.5-11T99,434Z"/>
      <glyph unicode="(" glyph-name="parenleft" horiz-adv-x="309" d="M275-137q-16,0-40,18T186-74T139-18T103,33Q71,84 49,156.5T27,305q0,74 21.5,146.5T102,576q28,45 60.5,84.5T225,724t50,24q5,0 8.5-10t3.5-17q0-2-1-3q-24-16-47.5-56t-43-96.5T164,442.5T152,305q0-76 13.5-146T200,33t44-92.5T285-106q2-2 2-5q0-7-3.5-16.5T275-137Z"/>
      <glyph unicode=")" glyph-name="parenright" horiz-adv-x="309" d="M34-137q-5,0-8.5,9T22-112q0,4 2,6q19,9 42,46t43.5,94.5t34,127T157,305q0,71-12,137.5t-31.5,123T70.5,662T23,718q-1,1-1,3q0,7 3.5,17T34,748q25,0 63.5-36T176,623q29-37 53-89t38.5-110.5T282,305T267.5,186.5T229,76.5T177-13q-40-52-78.5-88T34-137Z"/>
      <glyph unicode="*" glyph-name="asterisk" horiz-adv-x="416" d="M187,300q-14,0-26,10t-12,29q0,14 7.5,33T170,404q8,18 14,32.5t7,22.5q1,6-1,8t-9,1q-15-2-35.5-12t-41-19T67,428q-18,0-31,12T23,467q0,18 15,29.5T76,508q18,0 39.5-3.5T159,501q29,0 29,6q0,7-12,22.5T150,559q-13,14-26.5,30T110,624q0,18 11,29.5T148,665q19,0 29.5-12.5t16-31T202,584q4-20 7.5-33t7.5-21q5-10 8-10t10,9q5,6 12,17t17,29q11,21 25.5,40.5T328,635q17,0 27.5-11T366,598q0-25-21-39.5T302,532q-34-19-45-30q-7-7-7-10t12-8q5-2 18-5.5t32-7.5q29-5 54.5-15.5T392,416q0-16-12-26.5T352,379q-18,0-37,15t-31,26q-14,14-26,23t-20,14q-5,4-9,1t-5-13q-1-14 3-51q3-24 3-40q0-19-9.5-36.5T187,300Z"/>
      <glyph unicode="+" glyph-name="plus" horiz-adv-x="532" d="M235,6q-6,0-6,8V205q0,5-6,5H32q-6,0-6,10q0,28 8,57q1,5 6,5H224q5,0 5,6V470q-2,5 5,7q29,8 57,8l10-6V287q0-5 4-5H497q8,0 8-7q0-23-10-59q-2-4-2-4q-2-2-3-2H305q-4,0-4-3V23Q287,13 241,7h-3q-1-1-3-1Z"/>
      <glyph unicode="," glyph-name="comma" horiz-adv-x="219" d="M46-168q-6,0-14,13.5T24-134q0,1 18,11q17,10 34.5,34.5T94-27q0,10-9.5,20.5T65.5,20T56,62q0,14 9,30.5t27,29T136,134q24,0 40-11q14-33 14-68q0-37-16.5-81t-48-82.5T48-168H46Z"/>
      <glyph unicode="-" glyph-name="hyphen" horiz-adv-x="325" d="M38,193q-7,0-7,11q0,27 4,45t8,18l243,12q6,0 6-9q0-22-3-38.5T282,210l-3-6L38,193Z"/>
      <glyph unicode="." glyph-name="period" horiz-adv-x="204" d="M105-11Q68-11 49,13T30,65t18,51t55,23q30,0 51.5-21.5T176,66q0-31-20.5-54T105-11Z"/>
      <glyph unicode="/" glyph-name="slash" horiz-adv-x="425" d="M40-35q-5,0-10,1t-8,6L318,739q10,22 49,22q25,0 37-6L108-12q-2-6-23-14.5T40-35Z"/>
      <glyph unicode="0" glyph-name="zero" horiz-adv-x="515" d="M260-3q-46,0-88,24.5t-74.5,68T46,190T27,311T46,432T97.5,532.5t74.5,68T260,625q45,0 86-24.5t73-68t50.5-100T488,311q0-64-18.5-121T419,89.5t-73-68T260-3Zm1,52q44,0 66,72q21,72 21,196q0,117-23,189q-22,69-64,69q-43,0-69-72q-25-71-25-191q0-117 28-189q27-74 66-74Z"/>
      <glyph unicode="1" glyph-name="one" horiz-adv-x="383" d="M78-4q-4,4-4,21q0,16 4,16q8,0 21.5,4t26,10.5T139,59q6,24 6,57V452q0,50-20,50q-14,0-70-33q-6,3-10.5,11T40,493q0,10 2,12q95,62 158,100t70,38h2q8,0 12-19q-9-28-9-94V129q0-20 2-38t6-34q2-4 13.5-10t25-10T340,33q3,0 3-21q0-10-2-16q-7,1-33,2.5T254,2T210,4q-12,0-31.5-1t-41-2.5t-38-3T78-4Z"/>
      <glyph unicode="2" glyph-name="two" horiz-adv-x="475" d="M35,0Q25,12 23,33q48,53 91.5,111T192,258.5T245.5,365T265,451q0,43-23,75.5T180,559q-31,0-54.5-14T82,502L72,488q-8,0-18.5,7.5T43,513q8,18 21.5,36.5T100,591q23,23 57,37t75,14q50,0 89-21t61.5-59.5T405,470q0-61-23.5-102.5T329,286q-14-21-55-62q-20-20-32-32t-22.5-21.5t-25-23T155,111q-2-2-1-5.5t5-3.5H330q29,0 44.5,12T398,146.5T412,191q1,7 17,7t23-6q-10-43-19.5-87T413,14Q411,0 401,0H35Z"/>
      <glyph unicode="3" glyph-name="three" horiz-adv-x="456" d="M153-4Q88-4 36,30q-6,17-6,29q0,23 9.5,41.5T72,119q29,0 56-36q26-35 70-35q47,0 72,36.5T295,188q0,58-28,94.5T190,319q-11,0-25-1.5T135,314q-7,8-7,30q0,8 3,15q57,9 89.5,44.5T253,493q0,41-18.5,60T192,572q-56,0-94-42q-7,0-15,10t-8,17q29,38 76,61.5T254,642q28,0 54.5-13t44-38.5T370,527q0-32-13-61.5T324.5,413T285,378q20,0 44.5-12.5T377,331t38-52t15-65q0-49-23-89.5t-63-69t-89-44T153-4Z"/>
      <glyph unicode="4" glyph-name="four" horiz-adv-x="492" d="M394,644q18,0 18-10V244h41q15,0 15-60q0-7-6-9l-3-1H412V4q-24-9-66-9Q288-5 288,8V174H39q-15,15-15,48L367,630q12,14 27,14ZM288,244V445q0,9-3,9q-1,0-5-4L118,256q-1-1-1-3q0-9 7-9H288Z"/>
      <glyph unicode="5" glyph-name="five" horiz-adv-x="448" d="M144-3Q79-3 27,31q-6,17-6,29q0,23 9.5,41.5T63,120q29,0 56-36q26-35 70-35q34,0 55.5,19T276,118t10,65q0,65-33.5,105T174,328q-34,0-55-3.5T84,317l-11-3q-11,6-17,14q14,63 27.5,142.5T112,638q116,0 179.5,1.5T366,643q8-13 8-34q0-54-11-74q-83-3-136.5-3T159,532q-11-1-13-9L127,412q40,10 81,10q39,0 76.5-15T353,366t49.5-59.5T421,235q0-68-37-122T284.5,28T144-3Z"/>
      <glyph unicode="6" glyph-name="six" horiz-adv-x="460" d="M237-6Q182-6 134,20T56.5,93T27,202q0,80 32.5,152.5T147,482t117,95t130,68q14-3 15.5-17t2.5-17q-84-36-145-99.5T183,376q-3-13 2-21q29,12 57,12q53,0 96.5-24.5T408,277t26-91T406.5,92t-72-71T237-6Zm1,52q35,0 48,31q14,33 14,100q0,68-20,103t-67,35q-37,0-44-28q-3-11-4.5-35.5T162,190q0-144 76-144Z"/>
      <glyph unicode="7" glyph-name="seven" horiz-adv-x="470" d="M151-11q-14,0-25,10T115,23L369,536H145q-22,0-31.5-9T95,507q-18-20-19.5-37T72,449q-1-3-10.5-5t-20-1.5T27,447q12,46 23,90.5T71,626q3,12 19,12H385q8,0 18,0.5t23,1.5l26,1q7,0 7-9q0-16-27-67L158-10q-2-1-7-1Z"/>
      <glyph unicode="8" glyph-name="eight" horiz-adv-x="464" d="M226-6Q170-6 124,12T51,66.5T24,159q0,95 117,156q7,3-1,8q-14,10-27.5,23T88,370q-21,22-33,48T43,486q0,43 26,76t68.5,52T228,633q52,0 96.5-17.5t72-49.5T424,489q0-80-110-148q-2-2-2-3q0-2 2-4q14-14 29-23.5T374,287q27-23 46.5-50.5T440,170q0-52-30-91.5t-78.5-62T226-6Zm30,390q4,0 6,2q32,32 32,97q0,97-63,97q-58,0-58-86q0-27 13-49q9-15 15-23t15.5-14.5T243,388q4-4 13-4ZM234,46q32,0 52,25.5T306,134q0,29-15,53t-38,44.5T205,270q-7,6-14,6q-4,0-5-1q-28-15-28-116q0-45 19.5-79T234,46Z"/>
      <glyph unicode="9" glyph-name="nine" horiz-adv-x="453" d="M63-6Q45-1 45,28q84,36 145,99.5T274,263q3,13-2,21q-28-12-57-12q-52,0-96,24.5t-70,66T23,453q0,51 27.5,94.5T123,618t97,27q56,0 103.5-26t77-73T430,437q0-80-32.5-152.5T310,157T193,62T63-6ZM244,324q37,0 44,28q3,11 4.5,35.5T295,449q0,144-76,144q-35,0-48-31q-14-33-14-100q0-68 20-103t67-35Z"/>
      <glyph unicode=":" glyph-name="colon" horiz-adv-x="202" d="M104-11Q67-11 48,13T29,65t18,51t55,23q30,0 51.5-21.5T175,66q0-31-20.5-54T104-11Zm0,292q-37,0-56,24T29,357t18,51t55,23q30,0 51.5-21.5T175,358q0-31-20.5-54T104,281Z"/>
      <glyph unicode=";" glyph-name="semicolon" horiz-adv-x="215" d="M45-166q-6,0-14,13.5T23-132q0,1 18,11q17,10 34.5,34.5T93-25q0,10-9.5,20.5T64.5,22T55,64q0,14 9,30.5t27,29T135,136q24,0 40-11q14-33 14-68q0-37-16.5-81t-48-82.5T47-166H45Zm71,447q-37,0-56,24T41,357t18,51t55,23q30,0 51.5-21.5T187,358q0-31-20.5-54T116,281Z"/>
      <glyph unicode="&lt;" glyph-name="less" horiz-adv-x="464" d="M423-15l-5,2L43,177q-18,11-18,40q0,15 18,24L416,428l5,2q7,0 17-57l-3-9L117,209L436,51q3-1 3-6t-3-20T429.5-2.5T423-15Z"/>
      <glyph unicode="=" glyph-name="equal" horiz-adv-x="530" d="M38,251q-7,0-7,10q5,62 15,62H495q4,0 4-5q0-25-10-61q-2-4-2-4q-2-2-3-2H38Zm0-142q-7,0-7,10q0,26 9,57q1,5 6,5H491q8,0 8-5q0-25-10-61q-2-4-2-4q-2-2-3-2H38Z"/>
      <glyph unicode="&gt;" glyph-name="greater" horiz-adv-x="467" d="M43-15q-2,0-6,12.5T30,25T27,45l3,6L349,209L31,364l-3,9q11,57 17,57l5-2L423,241q18-9 18-24q0-29-18-40L48-13q-6-2-5-2Z"/>
      <glyph unicode="?" glyph-name="question" horiz-adv-x="350" d="M96,190q-4,0-8,7t-5,15l-4,56q-4,48 6.5,72.5T126,380q24,12 50.5,26T222,439.5T241,486q0,50-57,50q-24,0-41.5-7T96,522q-32,0-52.5,21T23,590q0,30 9,43q25,13 59,13q59-2 113-23.5t88.5-60T327,469q0-72-30-110.5T206,293q-28-12-43-18t-22-12q-13-10-13-42q0-13-9-22t-23-9ZM106-11Q69-11 50,13T31,65t18,51t55,23q30,0 51.5-21.5T177,66q0-31-20.5-54T106-11Z"/>
      <glyph unicode="@" glyph-name="at" horiz-adv-x="781" d="M389-171q-80,0-146.5,32T128-54.5T53.5,60.5T27,185q0,90 30.5,162.5T143,471t128.5,78.5T432,577q74,0 133-30.5T666.5,466t65-111T754,233q0-64-19-120.5t-59-91T572-13q-51,0-85.5,25T452,69q0,1-1.5,1T447,67q-8-17-28.5-34.5T370,4T310-7q-35,0-62,21.5T206.5,70T192,141q0,71 36,132t100,99t148,38q18,0 43-1.5t41-4.5l17-3q-2-16-4-29.5T570,348L549,143q-1-10-1.5-17T547,115q-1-81 37-81q107,0 107,180q0,87-33,156T564.5,479T421,519q-91,0-163.5-37.5t-114-104T102,223q0-106 36-184.5T250-83t194-43q37,0 70,13l2-9q0-14-14-23.5t-35-15t-42.5-8T389-171ZM338,53q17,0 35,15t34.5,37.5t27,43.5T446,182l15,140q1,4 1,12q0,12-6,18.5T430,359q-29,0-59-27t-49.5-75.5T302,143q0-17 1.5-38T313,68.5T338,53Z"/>
      <glyph unicode="A" glyph-name="A" horiz-adv-x="720" d="M15-4q-4,4-4,15q0,21 2,21q8,0 24,5T68.5,49.5T88,64q8,12 17,29.5T118,122l5,12L344,642q11,26 37,26q15,0 24-13L610,148q9-23 17.5-43.5T643,66q4-10 18-17.5T691.5,37T717,33q4,0 4-17q0-16-2-20L658,0q-29,2-50,3.5T574,4L423-4q-4,4-4,21q0,16 4,16q22,0 45,9.5T491,68q0,1-5.5,18T466,135l-30,73q-4,4-7,4q-10,1-34,1t-62,0q-33,0-58.5,0T232,212q-4,0-7-5l-33-76q-17-40-19.5-58T190,45q18-9 31.5-10.5T245,33q3-1 3-16q0-13-2-21q-45,3-65.5,5T150,3.5T128.5,3T92,0.5T15-4ZM333,273q20,0 37.5,0.5T404,275l3,5L335,459L257,280q0-4 2-4q30-3 74-3Z"/>
      <glyph unicode="B" glyph-name="B" horiz-adv-x="605" d="M31-4q-4,4-4,17q0,20 4,20q8,0 23,3t28,8.5T97,55q6,23 6,88V521q0,56-6,78q-2,6-15.5,12.5T53,622.5T30,627q-4,0-4,18q0,16 3,19q40-2 76.5-3.5T176,659l151,2q37,0 75-9.5T476,622q35-20 57-56t22-83q0-34-14.5-61T507,377.5T472,354q-8-3-5-6q24-4 49.5-25T560,267.5T578,187q0-57-32-100T457,21.5T324,0L177,2q-30,0-66.5-1.5T52-2L31-4ZM295,371q39,0 57,9q16,8 23,15q8,7 17.5,29.5T402,482q0,124-92,124q-46,0-58-4q-9-1-9-12V385q0-14 52-14ZM325,55q103,0 103,121q0,139-123,139q-31,0-51-5q-11-5-11-9V76q0-10 7-14q10-7 75-7Z"/>
      <glyph unicode="C" glyph-name="C" horiz-adv-x="638" d="M345-7Q279-7 221,19T119,90.5t-69,105T25,322q0,71 25,133.5t69.5,110t105,74.5T355,667q55,0 112-7.5T584,638q6-2 13-67q4-37 6.5-58T601,483.5T577,475l-16,3q-5,18-16,38t-34,43q-22,23-62,37.5T360,611q-179,0-179-268q0-83 24.5-150.5T277.5,86T392,47q74,0 128,54q16,16 24.5,36.5t13,36.5t8.5,16q41,0 45-10q0-7-4.5-29.5t-11-49T582,55.5T570,34Q456-7 345-7Z"/>
      <glyph unicode="D" glyph-name="D" horiz-adv-x="724" d="M31-4q-4,4-4,17q0,20 4,20q8,0 23,3t28,8.5T97,55q6,23 6,88V521q0,56-6,78q-2,6-15.5,12.5T53,622.5T30,627q-4,0-4,18q0,16 3,19q40-2 76.5-3.5T176,659H350q81,0 145.5-26T605,562t68.5-103T697,336q0-96-42-172.5T535,42T349-3q-10,0-29.5,0.5T271-1q-29,2-53,3T177,2L31-4ZM365,53q84,0 130,72t46,215q0,74-22,133.5T456.5,568T358,603h-5q-85,0-97-16q-13-17-13-63V136q0-65 9-70q22-13 113-13Z"/>
      <glyph unicode="E" glyph-name="E" horiz-adv-x="598" d="M31-4q-4,4-4,17q0,20 4,20q8,0 23,3t28,8.5T97,55q6,23 6,88V521q0,56-6,78q-2,6-15.5,12.5T53,622.5T30,627q-4,0-4,18q0,16 3,19q40-2 76.5-3.5T176,659q44,0 155,3q56,1 98,1.5t70,0.5q1-5 8-42t21-106q-5-5-23-5q-11,0-14,7q-12,26-35.5,46.5t-51,33T351,610H313q-64,0-65-13q-2-12-3.5-31.5T243,519V365q0-6 43-6h53q63,0 68,4q5,5 8,29q2,16 6,29q1,7 15,7q17,0 22-5V234q-4-4-21-4q-13,0-16,8q-12,39-16,48q-4,7-5.5,6.5T393,296q-14,8-78,8q-72,0-72-9V141q0-47 8-71q4-16 68-16h26q62,0 112,26q17,9 38.5,34T529,170q2,6 14,6q24,0 30-6Q523,32 519-2q-25,0-65.5,0.5T357,0Q302,1 257,2.5T177,2L31-4Z"/>
      <glyph unicode="F" glyph-name="F" horiz-adv-x="553" d="M31-4q-4,4-4,17q0,20 4,20q8,0 23,3t28,8.5T97,55q6,23 6,88V521q0,56-6,78q-2,6-15.5,12.5T53,622.5T30,627q-4,0-4,18q0,16 3,19q45-2 82-3.5t65-1.5q65,0 168,3q52,1 90.5,1.5T499,664q1-5 8-42t21-106q-5-5-23-5q-11,0-14,7q-12,26-35.5,46.5t-51,33T351,610H313q-64,0-65-13q-2-12-3.5-31.5T243,519V365q0-6 43-6h53q63,0 68,4q5,5 8,29q2,16 6,29q1,7 15,7q17,0 22-5V234q-4-4-21-4q-13,0-16,8q-12,39-16,48q-4,7-5.5,6.5T393,296q-14,8-78,8q-72,0-72-9V141q0-53 7-82q2-8 17-14t33-9t28-3q4,0 4-19q0-10-2-18Q210,2 177,2L31-4Z"/>
      <glyph unicode="G" glyph-name="G" horiz-adv-x="705" d="M343-9Q277-9 219.5,17T118,89T49.5,195T25,322q0,71 25.5,133T121,565t104.5,75T354,667q55,0 112-7.5T583,638q3,0 6.5-22.5t7.5-53t6.5-56T606,474q0-8-18-8q-19,0-31,5q-5,19-16,39t-33,45t-61,40.5T359,611q-180,0-180-266q0-73 20-139q13-43 39.5-79t65-58T391,47q45,0 64,16q11,9 11,30v70q0,53-7,77q-7,27-66,27q-2,0-3.5,8T389,292.5t3,11.5q40-2 80-4t69-2q15,0 135,6q3-9 3-20q0-18-4-18q-23,0-53-15q-16-7-16-79V114q0-18 3-27t3-11q0-17-21-28q-37-19-57-27q-21-9-73.5-19.5T343-9Z"/>
      <glyph unicode="H" glyph-name="H" horiz-adv-x="727" d="M30-4q-4,4-4,17q0,20 2,20q8,0 23.5,3.5T80,46T95,57q7,25 7,81V520q0,63-7,78q-3,8-15.5,14t-26,9.5T32,625q-4,0-4,20q0,15 2,17l139-6q13-1 49.5,1t96.5,5q3-4 3-21q0-16-4-16q-6,0-20.5-4t-28-9.5T250,601q-8-22-8-85V374l2-3l120-2q14,0 43,0.5t74,1.5q2,2 2,4V520q0,54-7,79q-2,6-14.5,12T435,621t-22,4q-2,0-3.5,8T409,650.5t3,11.5l149-6q15,0 135,6q3-9 3-18q0-19-5-19q-6,0-20.5-4T646,611.5T631,601q-4-15-6-36t-2-49V142q0-27 2-48t6-37q2-4 14.5-9.5t27-9.5T693,34q4,0 4-21q0-8-3-17q-4,0-19,1T635,0T591,3T559,4T523.5,3t-46-2.5T435-2.5T410-4q-2,3-3,12t0.5,17t3.5,8q8,0 23,4t28,10.5T477,59q6,23 6,79V305l-2,4l-117,2q-124-1-124-3l2-2V142q0-26 2-47t6-37q2-4 14.5-10t27-10.5T312,33q4,0 4.5-15T314-4q-49,3-82.5,5.5T171,4q-33,0-66.5-2.5T30-4Z"/>
      <glyph unicode="I" glyph-name="I" horiz-adv-x="346" d="M30-4q-4,4-4,16q0,21 3,21q8,0 23,4T80,47T95,58q4,14 5.5,34t1.5,46V522q0,64-8,78q-3,6-15.5,11.5T53,621t-21,4q-4,0-4,17q0,18 2,20l48-3q22-2 36-3t27.5-0.5T175,656t140,6q3-9 3-18q0-19-4-19q-6,0-21-4t-28.5-9.5T249,601q-3-12-5-33.5T242,531V146q0-28 2-50t6-38q2-4 14.5-10t27-10.5T312,33q4,0 4-19q0-10-2-18q-4,0-19,1T254,0T208,3T175,4q-18,0-49-2T67.5-1.5T30-4Z"/>
      <glyph unicode="J" glyph-name="J" horiz-adv-x="370" d="M-28-218q-34,0-57,18q-15,24-15,52q0,25 19,43t44,18q24,0 52-31q27-30 41-30q45,0 58,70q7,35 10.5,88.5T128,135V522q0,64-8,78q-3,6-15.5,11.5T79,621t-21,4q-4,0-4,17q0,18 2,20l145-6q10-1 45,1t95,5q3-9 3-18q0-19-4-19q-6,0-21-4t-28.5-9.5T275,601q-7-25-7-85V143q0-113-36-194T130-175T-28-218Z"/>
      <glyph unicode="K" glyph-name="K" horiz-adv-x="720" d="M30-4q-4,4-4,16q0,21 3,21q8,0 23,4T80,47T95,58q4,14 5.5,34t1.5,46V522q0,64-8,78q-3,6-15.5,11.5T53,621t-21,4q-4,0-4,17q0,18 2,20l145-6q10-1 45,1t95,5q3-9 3-18q0-19-4-19q-6,0-21-4t-28.5-9.5T249,601q-7-25-7-85V358q0-8 6-8h8q6,0 44,38q43,44 88.5,93.5T482,586q8,11 8,23q0,7-10.5,10.5T455,625t-25,2q-4,0-6,14t0,21q111-6 134-6q12,0 132,6q2-4 1.5-19T688,627l-6-1q-10,0-21.5-1.5T639,621q-13-3-34.5-12.5T572,586L400,396q-12-13-1-29L636,58q11-13 34.5-19T706,33q4,0 4-19q0-11-4-18L643,0q-31,2-53,3T555,4q-27,0-62.5-2T413-4q-4,4-4,21q0,16 4,16q11,0 29,6t18,14q0,33-178,233q-3,3-14,3q-26,0-26-17V146q0-28 2-50t6-38q2-4 14.5-10t27-10.5T312,33q4,0 4-19q0-10-2-18q-4,0-19,1T254,0T208,3T175,4q-18,0-49-2T67.5-1.5T30-4Z"/>
      <glyph unicode="L" glyph-name="L" horiz-adv-x="598" d="M30-4q-4,4-4,17q0,20 4,20q8,0 23,3t28,8.5T96,55q6,23 6,88V525q0,61-8,75q-3,6-15.5,11.5T53,621t-21,4q-4,0-4,17q0,18 2,20l145-6q10-1 45,1t95,5q3-9 3-18q0-19-4-19q-6,0-21-4t-28.5-9.5T249,601q-4-13-5.5-33.5T242,521V142q0-48 8-72q4-16 68-16h26q62,0 112,26q17,9 38.5,34T528,170q2,6 14,6q24,0 30-6Q522,32 518-2q-28,0-72.5,0.5T340,0T238.5,2T176,2L30-4Z"/>
      <glyph unicode="M" glyph-name="M" horiz-adv-x="907" d="M19-4q-4,4-4,17q0,19 3,19q12,0 35.5,7t44,18.5T119,83l4,48q11,179 13,298t5,158q0,11-3,18q-2,6-17,10.5T89.5,623T64,626q-4,0-4,21q0,11 4,15q10,0 30.5-1.5t44-3T179,656q14,0 35.5,1.5t41.5,3t28,1.5q5-16 25.5-63T366,474q36-79 63-139.5T473,230h2q2,0 2,1q38,95 69,174t53,141l33,112q9-1 29.5-1.5T713,656l126,6q4-5 4-16q0-21-5-21h-1q-25,0-42-12q-16-11-14-41l20-420q3-60 15-92q3-6 14.5-12T855,37.5T874,33q4,0 4-20q0-9-2-17q-7,1-31,2.5T794,2T749,4T700,2T641.5-1.5T604-4q-5,5-5,16q0,21 3,21q8,0 21,4.5t25.5,11T664,61q8,16 8,28q0,11-0.5,26T670,148l-8,254q-4,67-8,67q-2,0-5-7L476,31q-4-10-16-21.5T436-2q-1,0-9,2L207,494L190,109q0-14 0-23t1-13q2-6 14.5-13T235,47t32.5-10T289,33q4,0 4-20q0-9-2-17q-60,0-90.5,1T157-1T138,0.5T123,1T91,0T19-4Z"/>
      <glyph unicode="N" glyph-name="N" horiz-adv-x="777" d="M628-5q-11,0-31,23L190,524V141q0-53 8-71q6-11 24-19.5T259,38t29-4q2,0 3-8.5T292,8T290-4q-48,0-81.5,4T155,4q-24,0-38-1T85.5,0T31-4q-3,3-3,18q0,19 3,19q23,0 48.5,9.5T116,71q10,16 10,73V537q0,52-15,71q-3,5-18.5,8.5t-33,6T32,625q-2,0-3.5,8t-1,17.5T30,662l64-4q23-2 41.5-3t31.5-1q17,0 41.5,2t56.5,6q20-40 55.5-88t80-101.5t92-110.5T583,248q1,4 1.5,14t0.5,27V524q0,58-13,72q-6,8-21.5,14.5t-32,10.5T494,625q-2,0-3.5,8T489,650.5t2,11.5q46-4 79-6t53-2q17,0 43,2t49.5,4t31.5,2q4-7 4-18q0-19-5-19q-54,0-83-33q-14-17-14-73V139q0-18 1-53t3-87q-4-4-25-4Z"/>
      <glyph unicode="O" glyph-name="O" horiz-adv-x="703" d="M125,89Q30,189 30,328q0,70 25,131.5t69.5,108t102.5,73T351,667t124.5-26.5t102.5-73t69.5-108T673,328q0-139-95-239Q513,21 432-1.5t-161.5,0T125,89ZM367,46q50,0 83.5,35t50,94.5T517,309q0,55-8.5,105T481,510q-19,47-56,74t-89,27q-53,0-88-38q-35-39-48.5-95T186,350q0-102 39-197q20-48 56.5-77.5T367,46Z"/>
      <glyph unicode="P" glyph-name="P" horiz-adv-x="572" d="M31-4q-4,4-4,17q0,20 4,20q8,0 23,3t28,8.5T97,55q6,23 6,88V521q0,56-6,78q-2,6-15.5,12.5T53,622.5T30,627q-4,0-4,18q0,16 3,19q45-2 82-3.5t65-1.5q14,0 30.5,0.5T240,661t33,1t31,0q60,0 111-16q35-10 64.5-33.5t47.5-57T545,479q0-54-28.5-99t-77-72.5T331,280q-20,0-39.5,6T265,302q-4,6-5,22t4,16q14-8 45-8q84,0 84,136q0,137-92,137q-35,0-46-8q-12-9-12-98V141q0-53 7-82q2-8 17-14t33-9t28-3q4,0 4-19q0-10-2-18Q210,2 177,2L31-4Z"/>
      <glyph unicode="Q" glyph-name="Q" horiz-adv-x="730" d="M553-143q-48,0-97,28Q401-83 353-49T258,0q-36,11-74,37t-75,66T48.5,202.5T25,328q0,70 25,131.5t68.5,108t101.5,73T344,667t124-26.5t102-73t69-108T664,328q0-64-20-119.5T591,110T518.5,40T440,5q30-13 59-30t51-28q17-8 46-14.5T662-74q32,0 52,5t24,5q12,0 12-20v-5q-43-23-98-38.5T553-143ZM360,51q50,0 83.5,33.5t50,92T510,309q0,55-8.5,103T474,505t-56,71.5T329,603t-85-32.5T195,481T179,350q0-102 39-195q20-46 56.5-75T360,51Z"/>
      <glyph unicode="R" glyph-name="R" horiz-adv-x="682" d="M638-7q-49,0-89.5,9.5T484,24q-25,12-49,36q-12,12-22,23t-21.5,27.5t-29.5,44T315,228q-39,59-52,64q-2,1-11,1t-9-16V141q0-53 7-82q2-8 17-14t33-9t28-3q4,0 4-19q0-10-2-18q-60,3-98,5T177,2L31-4q-4,4-4,17q0,20 4,20q8,0 23,3t28,8.5T97,55q6,23 6,88V521q0,56-6,78q-2,6-15.5,12.5T53,622.5T30,627q-4,0-4,18q0,16 3,19q46-2 82.5-3.5T176,659q48,1 75,1t41,0t24,0q40,0 80.5-10T471,619.5t54.5-52T546,492t-18-82t-46.5-64T423,310q-8-3-3-11q22-37 34-56t20.5-30.5t20.5-28T529,135q17-24 40.5-47.5t51-39T673,33q4-4 4-18q0-12-4-20q-7-1-15.5-1.5T638-7ZM285,348h27q39,0 60.5,34T394,472q0,133-93,133q-35,0-46-8q-12-9-12-98V391q0-28 11.5-35.5T285,348Z"/>
      <glyph unicode="S" glyph-name="S" horiz-adv-x="483" d="M238-10q-40,0-87,6.5T48,16Q43,38 37.5,71t-9,64.5T25,182q3,10 18,10q31,0 32-6q6-30 27-62.5T153.5,69T218,47q99,0 99,109q0,29-22.5,53t-52,43T192,285l-30,20q-34,23-64,47.5t-48.5,57T31,489q0,51 31,92t80,65t102,24q21,0 43.5-3t38.5-6q30-6 51.5-11.5T412,642q5-49 8-90t3-76q-4-10-15-10q-30,0-31,7q-4,34-22,66t-46,53.5T245,614q-34,0-57.5-21T164,526q0-41 36.5-72T295,386l51-32q28-17 53-37.5t41-53T456,175q0-53-30.5-95t-80-66T238-10Z"/>
      <glyph unicode="T" glyph-name="T" horiz-adv-x="665" d="M188-4q-4,4-4,16q0,21 3,21q8,0 23,4t28,10t15,11q4,14 5.5,33t1.5,44V497q0,78-8,92l-5,9q-4,4-26,6.5T170,607q-41,0-67-22.5T63,509q-2-5-10-5q-22,0-29,7L43,674q22-5 39-8t30-3q51,0 109.5-3T331,657t110,3t110,3q13,0 30,3t39,8l19-164q-7-7-29-7q-8,0-10,5q-25,99-107,99q-80,0-85-18q-4-14-6-36t-2-53V139q0-25 2-45t6-36q2-4 14.5-10t27-10.5T470,33q4,0 4-19q0-10-2-18q-4,0-19,1T412,0T366,3T333,4q-18,0-49-2T225.5-1.5T188-4Z"/>
      <glyph unicode="U" glyph-name="U" horiz-adv-x="733" d="M359-5Q278-5 217,28.5T122.5,132T89,311V522q0,64-8,78q-3,6-15.5,11.5T40,621t-21,4q-4,0-4,17q0,18 2,20l145-6q10-1 45,1t95,5q3-9 3-18q0-19-4-19q-6,0-21-4t-28.5-9.5T236,601q-7-25-7-85V279q0-92 41.5-148T383,75q74,0 121.5,48.5T552,286V524q0,58-13,72q-6,8-21.5,14.5t-32,10.5T461,625q-2,0-3.5,8T456,650.5t2,11.5q46-4 79-6t53-2q17,0 43,2t49.5,4t31.5,2q4-7 4-18q0-19-5-19q-54,0-83-33q-14-17-14-73V291q0-97-32.5-163T493,28.5T359-5Z"/>
      <glyph unicode="V" glyph-name="V" horiz-adv-x="729" d="M354-10q-14,0-23,13L126,510L93,592q-4,11-18,18T45.5,621T20,625q-4,0-4,17q0,16 2,20l62-4q28-2 48.5-3t33.5-1l151,8q4-4 4-20q0-17-4-17q-11,0-27-4t-27.5-12T247,589q0-8 23-66L404,193L545,522q20,46 20,68q0,15-20.5,25T494,625q-3,2-3,16q0,13 2,21q42-3 63-5t30.5-2.5T602,654t17,1t34.5,3t69.5,4q4-4 4-15q0-21-2-21q-11,0-35-8.5T651,597q-9-9-38-73L397,27q-8-17-20.5-27T354-10Z"/>
      <glyph unicode="W" glyph-name="W" horiz-adv-x="1094" d="M392-13q-6,0-9,5L112,527q-13,26-24.5,45.5T66,604q-8,10-27.5,15.5T6,625q-4,0-4,19q0,16 2,18l142-6q16,0 136,6q2-6 2.5-21T282,625q-46,0-46-34l12-31L432,195q5-13 15,5l62,110L399,527q-31,62-43,73q-25,25-58,25q-4,0-4,19q0,16 2,18l139-6q12,0 132,6q2-6 2.5-21T567,625q-16,0-31-7.5T521,593l12-31l58-115l48,95q11,20 15.5,33.5T659,594q0,12-12,19t-29,10t-33,3q-2,0-3.5,8T581,651t3,11q48-3 78-5t41-1l125,6q2-6 2.5-20.5T828,626q-15,0-39-9.5T755,596q-28-29-56-86L629,372l87-171q5-11 13,4L900,544q18,36 18,50q0,12-13,19t-29.5,10T847,626q-2,0-3.5,8T843,651t3,11q48-3 78-5t41-1l125,6q3-7 3-25q0-11-3-11q-15,0-38-9t-33-19q-28-29-58-88L714,19q-17-32-34-32q-8,0-11,5L546,233L426,19q-18-32-34-32Z"/>
      <glyph unicode="X" glyph-name="X" horiz-adv-x="768" d="M31-4Q27,7 27,10q0,23 4,23q9,0 27,4.5t36,12T119,67L312,332L178,537q-43,66-54,73q-21,15-53,15q-4,0-4,17q0,16 4,20l59-3q53-3 82-3q24,0 144,6q2-2 2-11.5T357,633t-3-8q-15,0-33.5-5.5T301,604q0-9 8-22L420,414l33,41q11,13 20,23.5T489,499q64,80 64,95q0,12-23.5,21.5T479,625q-2,0-3.5,8T475,650.5t3,11.5q111-6 124-6t133,6q3-4 3-21q0-16-4-16q-14,0-43-9t-46-30L458,356Q631,96 648,76q19-22 45.5-32.5T733,33q3,0 3-22q0-9-3-15Q613,2 587,2q-32,0-91-3L429-4q-2,3-2.5,12t1,17t3.5,8q9,0 22,3.5t23.5,10T487,61q0,7-3,11L354,269Q214,82 214,66q0-15 24-24t50-9q5,0 5-21q0-10-2-16Q192,2 159,2L31-4Z"/>
      <glyph unicode="Y" glyph-name="Y" horiz-adv-x="669" d="M195-4q-4,4-4,16q0,21 3,21q8,0 23,4t28,10t15,11q7,25 7,81V309q0,8-31,64L173,484l-31,53q-17,30-30,48.5T88,610q-25,15-53,15q-4,0-4,17q0,16 4,20q38-2 76-4t66-2q23,0 143,6q2-2 2-11.5T321,633t-3-8q-15,0-33.5-5.5T265,604q0-8 8-22L373,405q6-5 10,2q15,21 33.5,51T452,518t28.5,53.5T492,603q0,22-64,22q-2,0-3.5,8T424,650.5t3,11.5q90-6 121-6q26,0 113,6q3-9 3-18q0-18-4-18q-18,0-41-9t-37-27q-10-14-31-45.5T505.5,474t-47-76t-37-63T407,304V145q0-28 2-49.5T415,58q2-4 14.5-10t27-10.5T477,33q4,0 4-19q0-10-2-18q-4,0-19,1T419,0T373,3T340,4q-18,0-49-2T232.5-1.5T195-4Z"/>
      <glyph unicode="Z" glyph-name="Z" horiz-adv-x="635" d="M38,0q-8,10-8,26q0,13 4,17L402,599H231q-36,0-59.5-7T133,567q-10-12-15.5-20.5t-9.5-19T96,497l-5-13q-1-6-13-6q-29,0-33,4Q69,610 75,662q24-6 162-6H346q46,0 104,2.5T578,666q3-1 6.5-13t3.5-20L223,82q-7-10-7-15q0-10 14-10H389q70,0 114.5,33.5T565,174q3,6 13,6q24,0 31-6q-6-17-16.5-47T576,79T563.5,38.5T555,0H38Z"/>
      <glyph unicode="[" glyph-name="bracketleft" horiz-adv-x="310" d="M282-133q-68,11-125,17T53-110q-19,0-19,23V747q0,23 19,23q56,0 113,6t116,17q6,0 6-15q0-22-10-26q-15-8-36.5-15.5t-42-12T166,720q-9,0-9-9V-52q0-8 8-8q17,0 52-9.5T278-92q10-4 10-25q0-14-6-16Z"/>
      <glyph unicode="\" glyph-name="backslash" horiz-adv-x="413" d="M358-39l-24,2L21,755q8,6 21,6q49,0 59-22L388,13q3-6 3-19q0-18-11.5-25.5T358-39Z"/>
      <glyph unicode="]" glyph-name="bracketright" horiz-adv-x="310" d="M27-133q-6,2-6,16q0,21 10,25Q57-79 92-69.5T144-60q8,0 8,8V711q0,9-9,9q-12,0-33,4.5t-42,12T31,752q-10,4-10,26q0,15 6,15q59-11 116.5-17T256,770q19,0 19-23V-87q0-23-19-23q-46,0-103.5-6T27-133Z"/>
      <glyph unicode="^" glyph-name="asciicircum" horiz-adv-x="388" d="M69,469q-4,0-7.5,7.5T57,492l-1,7q5,14 30.5,39t56,60T193,677q3,6 3.5,9.5T203,690q11,0 21.5-16T248,634.5T278,588q29-37 54.5-60T360,500q0-6-4-18.5T347,469q-8,0-33,17t-54.5,43.5T207,582q-20-26-49-52.5T104,486T69,469Z"/>
      <glyph unicode="_" glyph-name="underscore" horiz-adv-x="529" d="M37-43q-7,0-7,10q4,46 15,46H494q4,0 4-5q0-4-1.5-12.5T490-32q-3-11-11-11H37Z"/>
      <glyph unicode="`" glyph-name="grave" horiz-adv-x="247" d="M198,522q-5,0-22.5,10.5t-40,27.5t-44,36T56,631.5T42,658q0,9 11.5,19T88,687q25,0 34-9q43-50 68-90t25-48q0-5-6-11.5T198,522Z"/>
      <glyph unicode="a" glyph-name="a" horiz-adv-x="486" d="M148-7Q93-7 60.5,23.5T28,100q0,39 24.5,68T114,214q14,6 26,10.5t22,8.5q38,12 61,17.5t34,9.5q9,3 9,15v36q0,82-50,82q-58,0-58-67q0-22-18-32.5T100,283q-46,0-63,30q0,26 18.5,50t49,43.5t69,31T251,449q70,0 107.5-38.5T396,271V109q0-34 24-34q18,0 34,13q7-4 7-15q0-26-7-37Q440,23 408.5,8.5T349-6Q325-6 303,8.5T274,42q-1,0-11-7T248,24Q228,11 202,2T148-7Zm63,72q26,0 40.5,12.5T266,108V209l-52-18q-21-7-38.5-21T158,133q0-36 15.5-52T211,65Z"/>
      <glyph unicode="b" glyph-name="b" horiz-adv-x="564" d="M121-9q-2,0-10,4.5T96,6t-7,9q0,6 4,36t4,77V531q0,42-6,72q-4,16-52,16H30q-6,0-6,20q0,17 6,17q58,5 109.5,17T213,692l10,3h2q4,0 8-6t5-11q-11-47-11-101V431q0-10 1-12.5t5-0.5q37,29 87,29q60,0 110-29.5T510,338t30-112q0-66-31.5-119T424,23T305-8q-36,0-56.5,4.5T213,5.5T176,10q-15,0-31-9.5T121-9ZM308,46q45,0 66.5,40.5T396,193q0,193-87,193q-39,0-60.5-22T227,318V129q0-40 23-61.5T308,46Z"/>
      <glyph unicode="c" glyph-name="c" horiz-adv-x="452" d="M252-7Q188-7 137,24T56,108T26,226q0,62 32,112t86.5,79.5T265,447q51,0 94-17.5T421,388q0-92-54-92q-39,0-59,50q-9,23-22.5,34.5T248,392q-80,0-80-150Q168,73 281,73q34,0 63,10q20,6 31,11t20.5,11.5T418,122q9-4 9-19q0-13-4-20q-6-16-31-37.5t-61.5-37T252-7Z"/>
      <glyph unicode="d" glyph-name="d" horiz-adv-x="554" d="M226-6Q172-6 124.5,21t-77,76T18,212q0,67 31.5,120t86,84T258,447q42,0 70-9q3,0 3,14v79q0,42-6,72q-4,16-52,16h-9q-6,0-6,20q0,17 6,17q58,5 109.5,17T447,692l10,3h2q4,0 8-6t5-11q-11-47-11-101V147q0-22 2-47.5T472,67q8-6 18-6.5T516,58l10-1q3-1 3-12q0-25-6-25q-25-1-57.5-6T402,4T352-4L337-6q-6-1-6,17V32q0,8-4,4Q285-6 226-6Zm26,61q34,0 56.5,19.5T331,122V304q0,12-2,23t-9,28t-24.5,27.5T252,393q-47,0-68.5-37.5T162,236q0-181 90-181Z"/>
      <glyph unicode="e" glyph-name="e" horiz-adv-x="461" d="M240-7Q179-7 127.5,24t-82,83T15,221q0,64 27.5,115T119,417t113,30q63,0 107.5-29.5t68-73T431,257q0-23-9.5-30T384,220H158q-6,0-6-7q0-36 13.5-68t40-52T270,73q34,0 63,10q20,6 31,11t20.5,11.5T407,122q9-4 9-19q0-13-4-20q-6-16-31.5-37t-62-37T240-7ZM159,275H286q14,0 14,19q0,38-20.5,68T227,392q-29,0-45.5-20.5t-23-45.5T152,285q0-10 7-10Z"/>
      <glyph unicode="f" glyph-name="f" horiz-adv-x="380" d="M42-4q-4,4-4,21q0,16 4,16q8,0 22.5,4.5T92.5,48T107,58q7,28 7,76V363q0,7-5,7H42q-3,0-3,6q0,9 5.5,21.5T60,420t21,10h28q5,0 5,6v7q0,70 29,127t79.5,91.5T336,696q44,0 76.5-10T453,662q3-19 3-40q0-22-13-39.5T406,565q-21,0-36,18q-17,19-30.5,35T306,634q-32,0-47-46T244,475V434q0-5 5-5H360q5,0 5-7q0-28-12-52H250q-6,0-6-6V149q0-66 7-91q2-4 15-10t27.5-10.5T314,33q2,0 3-8t1-17T316-4q-6,0-23,1.5t-39.5,3T211,3T179,4T146.5,3T104,0.5t-39-3T42-4Z"/>
      <glyph unicode="g" glyph-name="g" horiz-adv-x="485" d="M203-218q-50,0-91,13.5T47-166T23-108q0,22 23.5,47T105-25Q79-14 58,10.5T37,64q0,25 22.5,43T113,142q-19,11-37,33T47,225.5T36,282q0,55 25,92t67.5,56T223,449q37,0 85-13q24-7 43.5-10t33.5-3h55q2,0 6.5-9t8.5-18.5t4-14.5q0-14-6-14H394q-4-1-4-3l8-27q3-13 5-26t2-24q0-42-23.5-80T318,144.5T226,120q-20,0-37,1.5T158,125q-13-4-18.5-14T134,95q0-9 17-14q14-4 42-7t56-4t43-1Q451,62 453-36q0-37-21.5-70t-58-58t-81-39.5T203-218Zm19,390q38,0 46,28t8,68q0,64-12,96t-48,32q-24,0-35-14t-13.5-36T165,299v-5q0-32 4-60t16-45t37-17Zm-2-329q52,0 84.5,19T337-81q0,45-168,45q-25-7-38-17T118-86q0-30 31.5-50.5T220-157Z"/>
      <glyph unicode="h" glyph-name="h" horiz-adv-x="591" d="M30-4q-4,4-4,21q0,16 4,16q8,0 23,4.5T81,48T95,58q7,28 7,76V531q0,23-1.5,41T97,603q-4,16-52,16H36q-6,0-6,20q0,17 6,17q58,5 109.5,17T219,692l10,3h2q4,0 8-6t5-11q-12-45-12-101V391q0-7 4-7q1,0 5,4q22,25 62,41.5T386,446q58,0 94.5-49T517,248V149q0-66 7-91q2-4 15-10t27.5-10.5T587,33q2,0 3-8t1-17T589-4q-6,0-23,1.5t-39.5,3T484,3T452,4q-16,0-44.5-2T353-1.5T319-4q-4,4-4,21q0,16 4,16q8,0 21.5,4.5t26,10.5T380,58q7,28 7,76v90q0,74-20,105.5T302,361q-70,0-70-44V149q0-66 7-91q2-4 14-10t26-10.5T298,33q2,0 3-8t1-17T300-4q-8,1-34,2.5T211.5,2T167,4q-12,0-32.5-1T92,0.5t-39-3T30-4Z"/>
      <glyph unicode="i" glyph-name="i" horiz-adv-x="327" d="M32-4q-4,4-4,19t4,15q8,0 21,4T78,44T91,55q7,28 7,76V277q0,56-18,75q-8,10-21.5,14T35,371.5T25,375q0,29 5,29q9,0 33,4t53.5,10t56,12T213,440l11,3q5,0 10-6.5t5-10.5q-5-44-8-69t-3-31V146q0-57 8-91q2-4 13.5-10T274,34.5T292,30q3,0 3.5-15T294-4q-8,1-33.5,2.5T207,2T163,4T119,2T66-1.5T32-4ZM158,542q-31,0-52.5,21.5T84,616t21.5,52.5T158,690t52.5-21.5T232,616t-21.5-52.5T158,542Z"/>
      <glyph unicode="j" glyph-name="j" horiz-adv-x="305" d="M6-218q-16,9-16,24q0,9 1,10q15,8 19.5,12T28-154Q59-122 76-53.5T93,100V277q0,56-18,75q-8,10-21,14t-23,5.5T21,375q0,29 4,29q9,0 33,4t52,9.5T160.5,428t29.5,7l29,8q6,0 11-6.5t5-10.5q-2-26-5-41t-5-27.5T223,326V120q0-147-48-222q-12-19-35-39.5t-49.5-38T41-207.5T6-218ZM158,542q-31,0-52.5,21.5T84,616t21.5,52.5T158,690t52.5-21.5T232,616t-21.5-52.5T158,542Z"/>
      <glyph unicode="k" glyph-name="k" horiz-adv-x="620" d="M30-4q-4,4-4,21q0,16 4,16q8,0 23,4.5T81,48T95,58q7,28 7,76V531q0,23-1.5,41T97,603q-4,16-52,16H36q-6,0-6,20q0,17 6,17q39,4 75.5,11t65,14.5T219,692l12,3q4,1 8-5.5t5-11.5q-12-45-12-101V259q27,8 34,13q20,17 42.5,36T350,344q17,15 25.5,24.5T384,388q0,14-17,14.5T338,405q-1,4-1.5,9T336,426q0,14 4,15l114-1q29,0 55.5,0.5T558,442q4-1 4.5-10.5t-0.5-18t-3-8.5q-30,0-70-23q-69-40-137-109q78-85 126.5-142.5T546,59q13-11 34-18.5T610,33q5,0 5-19q0-11-2-17L487,3q-12,1-31-0.5T411-1L354-4q-4,4-4,21q0,16 4,16q10,0 23,4t13,9q0,2-1,3L243,216l-11-3V149q0-66 7-91q2-4 15-10t27.5-10.5T302,33q2,0 3-8t1-17T304-4q-6,0-23,1.5t-39.5,3T199,3T167,4T134.5,3T92,0.5t-39-3T30-4Z"/>
      <glyph unicode="l" glyph-name="l" horiz-adv-x="334" d="M30-4q-4,4-4,21q0,16 4,16q8,0 23,4.5T81,48T95,58q7,28 7,76V531q0,23-1.5,41T97,603q-4,16-52,16H36q-6,0-6,20q0,17 6,17q58,5 109.5,17T219,692l10,3h2q4,0 8-6t5-11q-11-47-11-101l-1-428q0-66 7-91q2-4 15-10t27.5-10.5T302,33q2,0 3-8t1-17T304-4q-6,0-23,1.5t-39.5,3T199,3T167,4T134.5,3T92,0.5t-39-3T30-4Z"/>
      <glyph unicode="m" glyph-name="m" horiz-adv-x="888" d="M31-4q-4,4-4,21q0,16 4,16q8,0 23,4.5T82,48T96,58q7,28 7,76V271q0,56-18,75q-8,10-21.5,14T40,365.5T30,369q0,35 5,35q30,2 73,12.5T209,438l20,5q5,0 10.5-6.5T244,426l-4-31q0-5 1-6q2,0 7,5q55,52 139,52q72,0 106-69q62,68 180,69q58,0 94.5-49T804,248V149q0-66 7-91q2-4 14.5-10T852,37.5T872,33q2,0 3-8t1-17T874-4q-6,0-23,1.5t-38.5,3T771,3T739,4q-16,0-45-2T638.5-1.5T604-4q-4,4-4,21q0,16 4,16q8,0 22.5,4.5t27,10.5T667,58q7,28 7,76v90q0,69-20.5,103T588,361q-28,0-47-10t-25-36q0-9 1-23.5t1-43.5V149q0-66 7-91q2-4 14.5-10T566,37.5T586,33q2,0 3-8t1-17T588-4q-6,0-23,1.5t-38.5,3T485,3T453,4q-16,0-45-2T352.5-1.5T318-4q-4,4-4,21q0,16 4,16q8,0 22.5,4.5t27,10.5T381,58q7,28 7,76v90q0,74-20.5,105.5T302,361q-31,0-50-11.5T233,317V149q0-66 7-91q2-4 14-10t26-10.5T299,33q2,0 3-8t1-17T301-4q-8,1-34,2.5T212.5,2T168,4q-12,0-32.5-1T93,0.5t-39-3T31-4Z"/>
      <glyph unicode="n" glyph-name="n" horiz-adv-x="605" d="M24-4q-4,4-4,21q0,16 4,16q8,0 22.5,4.5T74.5,48T89,58q7,28 7,76V271q0,56-18,75q-8,10-21.5,14T33,365.5T23,369q0,35 5,35q26,0 74,11.5T211,440l5,1q1,1 4,1l2,1q5,0 10.5-6.5T237,426l-4-31q0-5 1-6q2,0 7,5q55,52 139,52q58,0 94.5-49T511,248V149q0-66 7-91q2-4 15-10t27.5-10.5T581,33q2,0 3-8t1-17T583-4q-6,0-23,1.5t-39.5,3T478,3T446,4q-16,0-44.5-2T347-1.5T313-4q-4,4-4,21q0,16 4,16q8,0 21.5,4.5t26,10.5T374,58q7,28 7,76v90q0,74-20.5,105.5T295,361q-31,0-50-11.5T226,317V149q0-66 7-91q2-4 14-10t26-10.5T292,33q2,0 3-8t1-17T294-4q-8,1-34,2.5T205.5,2T161,4q-12,0-32.5-1T86,0.5t-39-3T24-4Z"/>
      <glyph unicode="o" glyph-name="o" horiz-adv-x="523" d="M261-7Q196-7 142.5,23.5t-85,82T26,220q0,64 31.5,115t85,81.5T261,447q66,0 119-30.5T464.5,335T496,220q0-63-31-114.5t-84.5-82T261-7Zm10,55q28,0 46,19t26.5,50.5T352,185q0,207-105,207q-28,0-45.5-20T176,320t-8-69Q168,48 271,48Z"/>
      <glyph unicode="p" glyph-name="p" horiz-adv-x="567" d="M28-218q-4,4-4,20q0,17 4,17q8,0 23,4.5T79-166t14,10q7,28 7,76V271q0,56-18,75q-8,10-21.5,14T37,365.5T27,369q0,35 5,35q31,0 71,7.5T193,433q30,10 33,10q6,0 6-13q0-3-0.5-7.5T230,412q43,34 92,34q64,0 113.5-30.5t78-80.5T542,227q0-74-32.5-126.5T420.5,20T292-8q-24,0-40,4.5T234,1q-4,0-4-16V-65q0-66 7-91q2-4 15-10t27.5-10.5T300-181q2,0 3-8t1-17t-2-12q-6,0-23,1.5t-39.5,3T197-211t-32,1t-32.5-1T90-213.5t-39-3T28-218ZM308,46q90,0 90,148q0,194-91,194q-35,0-56-21t-21-53V125q0-38 25-58.5T308,46Z"/>
      <glyph unicode="q" glyph-name="q" horiz-adv-x="516" d="M269-218q-4,4-4,20q0,17 4,17q8,0 23,4.5T320-166t14,10q7,28 7,76V8q0,14-4,14Q291-8 244-8Q189-8 139.5,21T59,100T28,213q0,68 32,121t86,83t120,30q46,0 73.5-9t52.5-9q14,0 32,9.5t22,9.5q3,0 11.5-4.5t16-10T480,424q-3-21-6-54t-3-63V-65q0-66 7-91q2-4 15-10t27.5-10.5T541-181q2,0 3-8t1-17t-2-12q-6,0-23,1.5t-39.5,3T438-211t-32,1t-32.5-1T331-213.5t-39-3T269-218ZM264,55q30,0 53.5,17.5T341,116V302q0,91-82,91q-87,0-87-149q0-30 3-63t12-61.5T214.5,73T264,55Z"/>
      <glyph unicode="r" glyph-name="r" horiz-adv-x="465" d="M31-4q-4,4-4,21q0,16 4,16q8,0 23,4.5T82,48T96,58q7,28 7,76V271q0,56-18,75q-8,10-21.5,14T40,365.5T30,369q0,35 5,35q26,0 72.5,11.5T206,438l23,5q5,0 10-6.5t5-10.5q-1-6-2.5-24T239,382q50,65 113,65q45,0 86-37q0-52-12.5-77T380,308q-20,0-46,23t-46,23t-32-15.5T238.5,299T233,249V148q0-65 7-90q2-4 14-10t26-10.5T299,33q2,0 3-8t1-17T301-4q-8,1-34,2.5T212.5,2T168,4q-12,0-32.5-1T93,0.5t-39-3T31-4Z"/>
      <glyph unicode="s" glyph-name="s" horiz-adv-x="392" d="M183-10q-23,0-51,5T80,9T43,28Q31,97 31,150q5,3 15,3q32,0 33-9Q96,45 187,45q24,0 40,11t16,33q0,21-17,36t-40,27t-42,22q-58,28-86,61.5T30,318q0,46 24,74.5T118,435t86,14q87,0 130-20q10-44 10-124q0-9-13-9q-31,0-33,8q-9,42-30.5,66T199,394q-22,0-36-10.5T149,353q0-23 20-39.5T228,278q33-15 64-34.5t50.5-48T362,124q0-66-50.5-100T183-10Z"/>
      <glyph unicode="t" glyph-name="t" horiz-adv-x="365" d="M222-7q-55,0-94.5,34.5T88,139V370H23q-8,0-8,31q0,7 2,11q28,14 50.5,27.5T107,466q44,35 64,53t21,19q8,0 17-3.5t9-7.5V429H326q8,0 8-10q0-30-10-49H218V133q0-76 54-76q28,0 39.5,7.5T327,72t8.5-10T340,47q0-8-19.5-21t-47-23T222-7Z"/>
      <glyph unicode="u" glyph-name="u" horiz-adv-x="599" d="M386-5q-6,0-6,18V50q0,8-4,4q-21-22-61.5-40T227-4q-39,0-68.5,24T113,84.5T97,174v97q0,56-18,75q-8,10-21.5,14T34,365.5T24,369q0,35 5,35q9,0 33.5,4t53.5,9.5t55.5,12T212,440q3,1 5.5,2t5.5,1q5,0 10-6.5t5-10.5q-5-44-8-69t-3-31V219q0-78 20-109.5T314,78q34,0 51,15.5T382,128V271q0,56-18,75q-8,10-21.5,14T319,365.5T309,369q0,35 5,35q9,0 33.5,4t53.5,9.5t55.5,12T497,440l11,3q5,0 10-6.5t5-10.5q-5-44-8-69t-3-30V131q0-53 10-63q5-5 16-7.5T560,58h10q4-1 4-8q0-29-6-29Q506,15 464.5,9T400-2L386-5Z"/>
      <glyph unicode="v" glyph-name="v" horiz-adv-x="597" d="M281-11q-11,0-16,8L99,371q-9,20-32,27.5T29,406q-4,0-4,20q0,13 4,17q6,0 23-1.5t39.5-3T134,436t32-1q13,0 32.5,1t47.5,3q27,2 43,3t20,1q4-4 4-20q0-17-4-17q-10,0-26-3.5t-29-10T241,376q0-7 3-15l78-185l79,166q14,30 1,43q-21,21-66,21q-3,2-3,16q0,13 2,21l55-4q20-2 35-3t26-1q12,0 27.5,1.5T513,439l53,4q4-4 4-17q0-20-4-20q-10,0-26-5t-31-13.5T487,366L311,18q-15-29-30-29Z"/>
      <glyph unicode="w" glyph-name="w" horiz-adv-x="880" d="M276-11q-10,0-16,11L91,372q-7,14-29,23.5T28,405q-4,0-4,19q0,16 3,19q8,0 33.5-2t53.5-4t44-2q11,0 30,1t47,3q27,2 42.5,3t19.5,1q2-6 2.5-20.5T297,407q-8,0-23-4.5T247,391t-12-16q0-13 81-198q6,12 18,37.5t25.5,54t23,51T392,348q0,39-21,48.5T320,406q-2,0-3.5,8T316,431.5t3,11.5q9,0 33.5-2t51.5-4t43-2q11,0 29.5,1t44.5,3t41,3t20,1q2-5 0.5-21.5T578,405q-17,0-35.5-7T524,375q0-14 78-199q22,47 41.5,86.5t32.5,66T689,363q0,23-26.5,32.5T607,405q-2,0-3.5,8.5t-1,18T605,443l62-5q23-2 41-3t29-1t25.5,1t33.5,3t32.5,3t21.5,2q3-9 3-20q0-17-4-17q-7,0-25-6.5T788.5,382T764,357L599,10q-3-7-14.5-14T562-11q-10,0-15,11L428,258L314,11q-3-7-13-14.5T276-11Z"/>
      <glyph unicode="x" glyph-name="x" horiz-adv-x="605" d="M32-4q-1,4-1.5,9T30,15q0,18 4,18q25,4 50.5,14.5T119,68L227,187q5,5 5,11q0,5-4,9L100,368q-13,17-32.5,27T32,405q-5,0-5,20q0,12 3,18q62-4 96-5.5t41-1.5q5,0 39,1.5t96,5.5q3-4 3-18q0-19-5-19q-14,0-29.5-7T255,382q0-5 5-12l62-77q30,41 47,61.5T386,385q0,21-62,21q-4,0-4,18q0,15 4,19q59-4 90.5-5.5T451,436t35,1.5t83,5.5q3-6 3-18q0-19-3-19q-70-7-89-28L369,256q-6-7-6-11q0-6 4-10L487,84q35-44 81-53q4,0 4-21q0-10-4-14q-38,2-69.5,5T436,4q-40,0-71.5-3T298-4L296,8q0,25 4,25q13,1 29.5,10.5T346,65q0,4-5,9l-65,76L219,78q-7-10-7-19q0-10 17-16q14-5 25.5-6.5T276,33q2,0 2-18q0-15-4-19q-5,1-27,2.5T199.5,2T156,4Q121,4 92,1T32-4Z"/>
      <glyph unicode="y" glyph-name="y" horiz-adv-x="544" d="M76-218q-30,0-48.5,16T9-165q0,30 23,47q128,0 165,78l31,66L74,368q-10,22-30.5,30T8,406q-4,0-4,15q0,20 2,22q4,0 19.5-1T69,439t47.5-3t31.5-1q15,0 43,2t54.5,4t33.5,2q3-9 3-21q0-16-4-16q-8,0-23-4t-27-9.5T216,380q2-15 21.5-65T295,176q34,74 52.5,114.5T369,338q6,14 6,30q0,13-19,25.5T304,406q-4,0-4,18q0,7 0.5,11.5T302,443q8,0 33.5-2t53.5-4t44-2q11,0 25,1.5t31,2.5l51,4q4-7 4-17q0-20-4-20q-10,0-27.5-4.5t-34-13T456,366L270-37Q186-218 76-218Z"/>
      <glyph unicode="z" glyph-name="z" horiz-adv-x="430" d="M45,0Q25,12 25,23q0,2 4,9L230,369l-61,1q-26,1-46-11T90,330.5T71,300q-3-6-25-6q-12,0-12,2t1.5,16T41,351q8,50 9,79q59-6 95-6H267q32,0 64,2t65,6q3-4 3-24L191,75q-7-10-7-14q0-7 12-7h62q80,0 108,76q3,9 27,9q7,0 11-4L387,0H45Z"/>
      <glyph unicode="{" glyph-name="braceleft" horiz-adv-x="328" d="M302-125q-35,0-71.5,15T163-69.5T113-11T94,58q0,23 4,52.5t8,58.5t4,50q0,27-11,39T69,276.5T25,291q-3,6-3,19q0,11 4,18q41,10 62.5,26T110,406q0,21-4.5,50t-9,60T92,572q0,39 19,72t50,56.5T229,737t73,13q4,0 4-12q0-19-6-21q-18-1-37.5-15t-33-36.5T216,613q0-38 4.5-62.5T229,501t4-67q0-31-12.5-60T190,326.5T153,308q19,0 37-17t30.5-44.5T233,187q0-41-4-65t-8.5-46.5T216,18q0-30 13.5-54.5t33-39T300-92q6-1 6-22q0-11-4-11Z"/>
      <glyph unicode="|" glyph-name="bar" horiz-adv-x="156" d="M42-121q-7,0-7,6V757q-2,6 5,8q22,7 74,7q5,0 6-1q2-2 2-3V-106q0-2-11-4.5t-26-5t-27.5-4T42-121Z"/>
      <glyph unicode="}" glyph-name="braceright" horiz-adv-x="328" d="M26-125q-4,0-4,11q0,21 6,22q18,2 37.5,16.5t33,39T112,18q0,35-4,57.5T99.5,122T95,187q0,32 12.5,59.5t31,44.5T175,308q-18,0-36.5,18.5t-31,47.5T95,434q0,42 4.5,67t8.5,49.5t4,62.5q0,30-13.5,52.5T66,702T28,717q-6,2-6,21q0,12 4,12q36,0 73-13t68-36.5T217,644t19-72q0-25-4.5-56t-9-60T218,406q0-36 21.5-52T302,328q4-7 4-18q0-13-3-19q-25-8-44-14.5T229,258t-11-39q0-21 4-50t8-58.5T234,58q0-36-19-69T165-69.5T97.5-110T26-125Z"/>
      <glyph unicode="~" glyph-name="asciitilde" horiz-adv-x="570" d="M387,245q-47,0-118,27q-72,26-119,26q-17,0-36-8q-12-5-18.5-9t-14-9.5T59,254q-9,5-9,27q0,23 24,39q57,39 106,39q46,0 118-26q71-27 118-27q21,0 32.5,6t16.5,8q3,1 12,8t18.5,14t10.5,8q9-4 9-27q0-22-23-39q-49-39-105-39Z"/>
      <glyph unicode="&#xa0;" glyph-name="uni00A0" horiz-adv-x="209"/>
      <glyph unicode="&#xa1;" glyph-name="exclamdown" horiz-adv-x="195" d="M96,442q38,0 56.5-23.5T171,366q0-28-18-51T98,292q-30,0-51.5,21.5T25,365q0,31 20.5,54T96,442Zm7-201q13,0 17-22q4-23 9-62t10.5-85T150-18t8-78t3-48q0-31-19-49T95-211q-25,0-43.5,18.5T33-143q0,8 3,37.5T44-34T54.5,53.5t11,87T75,210q4,31 28,31Z"/>
      <glyph unicode="&#xa2;" glyph-name="cent" horiz-adv-x="462" d="M231-45q-39,0-39,9l6,35q-50,12-89,45T48,124T26,226q0,62 32,112t86.5,79.5T265,447h6l4,27q39,0 39-8l-4-23q42-7 71.5-24T421,388q0-92-54-92q-39,0-59,50q-2,6-5,11t-5,9L251,76q14-3 30-3q34,0 63,10q20,6 31,11t20.5,11.5T418,122q9-4 9-19q0-13-4-20q-6-16-31-37.5t-61.5-37T252-7H237l-6-38ZM213,95l48,296q-4,1-13,1q-80,0-80-150q0-108 45-147Z"/>
      <glyph unicode="&#xa3;" glyph-name="sterling" horiz-adv-x="491" d="M79-8Q63-5 54.5,4.5T46,20L98,83q12,32 12,135q0,19-9,72H56q-5,0-5,13q0,23 6,32H94Q81,403 81,439q0,60 28,105.5T184.5,616T290,642q39,0 75.5-12T414,600q0-85-52-85q-16,0-28.5,11.5T314,553q-7,14-20,25.5T265,590q-39,0-57-25.5T190,484q0-13 4-38t12-63q5-26 8-48H335q5,0 5-10q0-24-15-35H220q1-16 1-30q0-98-41-157q20,9 51,9t77-15q47-15 60-15q17,0 25,4t20,11q17,11 25.5,30T450,149q5,0 11.5-7t6.5-15q0-2-0.5-5.5T466,114q-6-27-22-55.5T404,11T348-8Q315-8 252,9q-65,17-86,17q-23,0-46-8T79-8Z"/>
      <glyph unicode="&#xa4;" glyph-name="currency" horiz-adv-x="469" d="M388,98l-46,50q-49-29-105-29q-65,0-118,38L67,108q-5-5-14,1.5T35.5,129T23,156l51,48Q42,253 42,308q0,63 41,116L34,476q-5,5 1.5,14T55,508t27,12l49-53q47,30 106,30q62,0 114-35l51,48q5,5 14-1.5T434,489t12-27l-49-46q35-50 35-108q0-68-41-118l45-48q5-5-1.5-14T415,110.5T388,98ZM246,164q35,0 51,34.5T313,279q0,173-87,173q-35,0-50-35t-15-83q0-170 85-170Z"/>
      <glyph unicode="&#xa5;" glyph-name="yen" horiz-adv-x="689" d="M184-4q-4,4-4,16q0,21 3,21q8,0 23,4t28,10t15,11q3,13 4.5,31.5T256,133H186q-5,0-5,13q0,16 6,32h69v36H186q-5,0-5,13q0,16 6,32h69v30q0,8-31,64q-31,57-63,111l-31,53q-33,61-54,73q-25,15-53,15q-4,0-4,17q0,16 4,20q38-2 76-4t66-2q23,0 143,6q2-2 2-11.5T310,613t-3-8q-15,0-33.5-5.5T254,584q0-8 8-22L362,385q6-5 10,2q15,21 33.5,51T441,498t28.5,53.5T481,583q0,22-64,22q-2,0-3.5,8T413,630.5t3,11.5q90-6 121-6q26,0 113,6q3-9 3-18q0-18-4-18q-18,0-41-9t-37-27q-10-14-31-45.5T494.5,454t-47-76t-37-63T396,284V259h69q5,0 5-12q0-22-6-33H396V178h69q5,0 5-12q0-22-6-33H396q0-45 8-75q2-4 14.5-10t27-10.5T466,33q4,0 4-19q0-10-2-18q-4,0-19,1T408,0T362,3T329,4q-18,0-49-2T221.5-1.5T184-4Z"/>
      <glyph unicode="&#xa6;" glyph-name="brokenbar" horiz-adv-x="154" d="M41,384q-7,0-7,6V753q-2,6 5,8q22,7 74,7q5,0 6-1q2-2 2-3V399q0-2-11-4.5t-26-5t-27.5-4T41,384Zm0-505q-7,0-7,6V248q-2,6 5,8q22,7 74,7q8,0 8-5V-106q0-2-11-4.5t-26-5t-27.5-4T41-121Z"/>
      <glyph unicode="&#xa7;" glyph-name="section" horiz-adv-x="410" d="M177-41q-34,0-61,12T80-4q-1,3-1,18q0,26 10.5,38.5T112,65q18,0 46-24q29-24 51-24q27,0 44.5,11.5T271,58q0,30-25.5,54.5T184,156q-18,9-36,19t-36,21q-36,21-61.5,55T25,330q0,87 64,133q-10,16-10,55q0,64 44.5,98.5T231,651q34,0 60-12t35-26q2-11 2.5-15t0.5-5q0-28-8.5-39T293,543q-14,0-40,25t-51,25q-65,0-65-43q0-29 25.5-52T224,458q18-9 36-18.5T297,420q36-20 61.5-53T384,290q0-30-10.5-59T348,180t-30-32q11-25 11-59q0-37-15-64.5T274-16q-49-25-97-25ZM298,185q18,18 18,40q0,35-25,62t-57,43q-32,15-69.5,40.5T110,424q-15-12-15-43q0-30 15-52t40-36t53-28.5t53.5-33T298,185Z"/>
      <glyph unicode="&#xa8;" glyph-name="dieresis" horiz-adv-x="405" d="M303,500q-30,0-52,22t-22,53t22,52t52,21q31,0 52.5-22T377,575q0-31-22.5-53T303,500Zm-198,0q-30,0-52.5,22T30,575q0,29 22,51t53,22q29,0 51-21t22-52t-22-53t-51-22Z"/>
      <glyph unicode="&#xa9;" glyph-name="copyright" horiz-adv-x="600" d="M300,66q-52,0-101,20.5T111.5,144T50,231.5T27,342q0,57 21,106.5t58.5,87t87,58.5T300,615t106.5-21t87-58.5t59-87T574,342q0-60-22.5-110T490,144.5t-88-58T300,66Zm0,47q63,0 114.5,30.5T497,226t31,115q0,69-33.5,121T409,543T300,572T191,543t-85.5-81T72,341q0-63 31-115t82.5-82.5T300,113Zm-3,86q-36,0-66.5,19T182,268.5T164,337q0,40 18,72.5t49.5,52T302,481q48,0 96-12q2,0 4-16t4-32t2-20t-8-4q-4,0-7,0.5t-6,1.5q-5,18-24.5,35T304,451q-34,0-52-31t-18-74q0-49 21-83t62-34q37,0 53,15q12,11 17,20t7,9q14,0 17-5q0-4-3-15t-7-21t-9-13q-37-20-95-20Z"/>
      <glyph unicode="&#xaa;" glyph-name="ordfeminine" horiz-adv-x="347" d="M108,248q-42,0-61.5,24T27,330q0,19 11,35t37,29q31,16 53.5,20.5T183,428q6,2 6,11v24q0,55-30,55q-18,0-32-13t-14-38q0-8-13-14t-26-6q-18,0-28.5,10.5T35,482q0,18 19.5,35T105,545t65,11q107,0 107-120V326q0-14 3-21t16-7q9,0 14,4t7,4q5,0 5-9q0-11-6-26q-29-22-71-22q-16,0-30.5,10T195,281l-5-3q-12-7-34-18.5T108,248Zm43,49q18,0 28,8t10,21v68q-12-4-20-6.5T147,380q-11-4-21.5-13T115,343q0-46 36-46Z"/>
      <glyph unicode="&#xab;" glyph-name="guillemotleft" horiz-adv-x="477" d="M418,73q-10,12-39.5,36T306,164t-94,63q-7,3-7,14q0,17 8,27q44,26 77,50t58,43q48,37 71,62q7-1 21-9t14-16t-74-79l-73-71l72-71q36-36 55-55.5T453,98q0-8-14-16t-21-9ZM238,73q-10,12-39.5,36T126,164T32,227q-7,3-7,14q0,17 8,27q44,26 77,50t58,43q48,37 71,62q7-1 21-9t14-16t-74-79l-73-71l72-71q36-36 55-55.5T273,98q0-8-14-16t-21-9Z"/>
      <glyph unicode="&#xac;" glyph-name="logicalnot" horiz-adv-x="539" d="M441,154q-9,0-7,6V346q0,10-11,10H34q-6,0-6,10q4,61 15,61H492q12,0 12-11V169q-7-7-59-15h-4Z"/>
      <glyph unicode="&#xae;" glyph-name="registered" horiz-adv-x="599" d="M300,135q-52,0-101,20t-87.5,57T50,299T27,409q0,57 21,106.5t58.5,87t87,58.5T300,682t106.5-21t87-58.5t59-87T574,409q0-60-22.5-110T490,212.5t-88-57T300,135Zm0,45q63,0 114.5,31T497,294t31,114q0,68-33,119.5T409.5,608T300,637T191,608t-85.5-80.5T72,408q0-62 31-114t82.5-83T300,180Zm141,92q-33,0-59,12q-25,12-35.5,23T319,341q-16,23-25.5,38.5T279,398q-1,1-5,1q-5,0-5-6V324q0-16 3-25q1-3 10.5-7t13.5-4q2,0 2-5q0-4-2-10q-19,0-34.5,2T235,277q-6,0-15-0.5T200,275l-29-2q-2,2-2,7q0,8 1,8q5,0 15,4t11,7q3,14 3,33V496q0,20-3,33q-1,3-11,7t-14,4q-1,0-1,7t1,8q20-1 36-1.5t29-0.5l29,1h30q35,0 66.5-17T393,483q0-29-16.5-50T344,405q-1-1 0-4q16-26 32-47.5T408,315q27-27 43-27q3-3 2-8l-1-7q-2-1-11-1ZM291,425h3q29,0 29,50q0,57-33,57q-14,0-17-3q-3-4-3.5-16T269,487V441q0-11 4-13.5t18-2.5Z"/>
      <glyph unicode="&#xaf;" glyph-name="macron" horiz-adv-x="384" d="M63,530l-5,2q-1,2-1,9q3,58 15,58H320q6,0 6-10q-1-11-1.5-20T322,553q-5-15-7-19l-3-4H63Z"/>
      <glyph unicode="&#xb0;" glyph-name="degree" horiz-adv-x="233" d="M117,437q-41,0-70,29.5T18,536t29,69t70,29t69.5-29T215,536q0-41-29-70t-69-29Zm0,45q22,0 37.5,15.5T170,536q0,25-16,39t-37,15T80,575T64.5,537T79,498.5T117,482Z"/>
      <glyph unicode="&#xb1;" glyph-name="plusminus" horiz-adv-x="530" d="M236,106q-6,0-6,7V304q0,5-6,5H33q-6,0-6,10q0,28 8,57q1,2 3,4q1,1 2,1H225q5,0 5,6V569q-2,5 5,7q29,8 57,8l10-6V386q0-5 4-5H498q8,0 8-7q0-23-10-59q-1-6-6-6H306q-4,0-4-3V122q-14-10-60-16h-6ZM34-1q-8,0-6,13q8,54 8,54q1,5 6,5H490q10,0 8-11Q491,8 482-1H34Z"/>
      <glyph unicode="&#xb2;" glyph-name="uni00B2" horiz-adv-x="320" d="M53,366q-16,16-12,35Q187,547 187,641q0,21-13.5,39.5T135,699q-22,0-39-11.5t-27-23T57,653q-5,0-11,10t-6,16q0,5 1,8q8,14 26,30.5t43.5,28T165,757q48,0 78.5-30.5T274,647q0-38-23-77t-59-73.5T115,435q-2-2-1-4t3-2H231q11,0 19.5,2t13.5,9q8,10 11,16t7,16q3,9 10,9q15,0 20-5l-15-61q-5-22-8.5-34.5T284,366l-103,1L53,366Z"/>
      <glyph unicode="&#xb3;" glyph-name="uni00B3" horiz-adv-x="293" d="M99,359q-48,0-73,20q-3,5-3,18q0,23 7.5,26t21-4t31-15.5T120,395q30,0 47.5,21T185,478t-19.5,58T106,553H84q-6,9-6,16q0,6 2,14q76,16 76,84q0,20-11,31t-25,11q-19,0-40-18q-22-19-24-19q-7,0-15,8.5T36,693q16,25 50.5,45T156,758q28,0 55-18t27-53q0-33-23.5-61T166,585q20,0 44.5-10t42-29.5T270,495q0-43-24-73.5T183,375T99,359Z"/>
      <glyph unicode="&#xb4;" glyph-name="acute" horiz-adv-x="234" d="M44,513q-5,0-11,6.5T27,531q0,8 25,48t68,90q9,9 34,9q23,0 34.5-10T200,649q0-10-14-26.5T150.5,587t-44-36t-40-27.5T44,513Z"/>
      <glyph unicode="&#xb5;" glyph-name="uni00B5" horiz-adv-x="535" d="M113-227q-10,0-26.5,7t-30,15.5T43-190q0,13 1,48.5t3,83t5,98T58,134t6,70q0,6-0.5,18T62,252q-1,17-1.5,29T60,298V426q4,6 22.5,13t28.5,7q6,0 21.5-6.5t29-15.5T175,409q0-31-4.5-67T158,266l-6-43q0-59 18-96t45-37q33,0 50.5,19.5t26,50.5T303,227V426q4,6 22.5,13t27.5,7q7,0 25-6.5T412.5,424T429,409q0-28-6-68.5T406,246l-5-23q-1-23 0-42t2-33q3-28 14.5-49T451,78q17,0 36,11t26,20q6,0 13-13q3-6 3-20q-10-33-36.5-56.5T436-4q-22,1-42,19.5T361,64t-18,64Q315,62 285.5,26.5T209-9q-12,0-22,4.5T168,16l-7,11q-3,3-6,13q-4,11-9,23t-5,13q0-22 1-68t6-103t15-112q-4-6-20.5-13T113-227Z"/>
      <glyph unicode="&#xb6;" glyph-name="paragraph" horiz-adv-x="468" d="M159-4q-2,4-1.5,18T161,28q6,0 17.5,3.5t22,9T212,50q2,11 3.5,44t1.5,89v73q0,7-20,7q-56,0-96.5,25.5T38,359T16,460q0,51 18,90t47,61q57,41 125,41q15,0 29-0.5t27-1.5t27-2t28,0l121,6q4-4 2-18t-6-14q-13,0-32.5-5T379,604q-3-10-3-104l1-92V348q0-7 5-5l43,9q3-6 3-19q0-17-20-29q-10-5-25-10q-5-2-5-4q0-106 1.5-165.5T385,52q3-8 23-15t31-7q4,0 4-12q0-18-4-22q-12,1-41.5,2T335,0.5T278,2q-34,0-66.5-2T159-4ZM287,326q11,0 23,6q7,4 7,8q0,115-0.5,179T315,596q0,3-4.5,6.5T299,606q-18,0-18-12q-1-80-1.5-145.5T279,332q0-6 8-6ZM299,44q14,0 14,14q2,23 3,76t1,136q0,4-4,4q-11,0-26-4q-8-2-8-9l2-204q0-13 18-13Z"/>
      <glyph unicode="&#xb7;" glyph-name="periodcentered" horiz-adv-x="205" d="M105,188q-37,0-56,24T30,264t18,51t55,23q30,0 51.5-21.5T176,265q0-31-20.5-54T105,188Z"/>
      <glyph unicode="&#xb8;" glyph-name="cedilla" horiz-adv-x="443" d="M202-156q-32,0-48,16q-2,8-2,17q0,14 7,14l19-7q19-8 31-8q19,0 29,8.5T248-95q0,28-24,28q-15,0-30-6q-2,0-8.5,6.5T180-57l15,28Q205-6 208-2h32L226-28l19,1q22,0 38-15.5T299-78q0-36-26-57t-71-21Z"/>
      <glyph unicode="&#xb9;" glyph-name="uni00B9" horiz-adv-x="272" d="M4,365q-2,2-2,16q0,13 2,13q8,0 27,5t24,11q11,16 11,33V642q0,31-13,31q-4,0-43-17q-4,1-9.5,7.5T-5,676v9q155,76 159,76h1q3,0 9.5-8.5T172,741q-13-46-13-85V444q0-26 10-36q6-6 24-10t26-4q4,0 4-15q0-11-3-14q-28,0-55,2.5T110,370q-26,0-53-2.5T4,365Z"/>
      <glyph unicode="&#xba;" glyph-name="ordmasculine" horiz-adv-x="370" d="M185,247q-44,0-80,20.5T48,323T27,400q0,43 21,77.5T105,533t80,21t80-21t57.5-55.5T344,400q0-42-21-77t-57-55.5T185,247Zm7,37q29,0 42,28t13,65q0,140-71,140q-28,0-40.5-28.5T123,421q0-137 69-137Z"/>
      <glyph unicode="&#xbb;" glyph-name="guillemotright" horiz-adv-x="479" d="M61,73q-7,1-21,9T26,98q0,4 19,23.5T100,177l72,71L99,319q-74,71-74,79t14,16t21,9q23-25 71-62q26-19 59-43t76-50q8-10 8-27q0-11-7-14q-51-32-94-63t-72.5-55T61,73Zm180,0q-7,1-21,9T206,98q0,4 19,23.5T280,177l72,71l-73,71q-74,71-74,79t14,16t21,9q23-25 71-62q26-19 59-43t76-50q8-10 8-27q0-11-7-14q-51-32-94-63t-72.5-55T241,73Z"/>
      <glyph unicode="&#xbc;" glyph-name="onequarter" horiz-adv-x="697" d="M4,251q-2,2-2,16q0,13 2,13q8,0 27,5t24,11q11,16 11,33V528q0,31-13,31q-4,0-43-17q-4,1-9.5,7.5T-5,562v9q155,76 159,76h1q3,0 9.5-8.5T172,627q-13-46-13-85V330q0-26 10-36q6-6 24-10t26-4q4,0 4-15q0-11-3-14q-28,0-55,2.5T110,256q-26,0-53-2.5T4,251ZM547,617L201-10q-4-6-6-6q-10,0-18.5,4.5T163-2q-9,10-6,14L502,644q2,3 6,3q18,0 32-14q10-11 7-16ZM596-3q-43,0-43,6V97q-1,3-6,3H391q-8,5-8,23L605,388q7,10 20,10q17,0 17-7V158q0-2 6-4h19q10,0 10-50q0-2-1-3l-3-3H646q-4,0-4-5V2q-11-2-22.5-3.5T596-3ZM468,156h79q6,3 6,4V261q0,6-1,6l-3-1L464,164v-2q0-6 4-6Z"/>
      <glyph unicode="&#xbd;" glyph-name="onehalf" horiz-adv-x="703" d="M4,251q-2,2-2,16q0,13 2,13q8,0 27,5t24,11q11,16 11,33V528q0,31-13,31q-4,0-43-17q-4,1-9.5,7.5T-5,562v9q155,76 159,76h1q3,0 9.5-8.5T172,627q-13-46-13-85V330q0-26 10-36q6-6 24-10t26-4q4,0 4-15q0-11-3-14q-28,0-55,2.5T110,256q-26,0-53-2.5T4,251ZM547,617L201-10q-4-6-6-6q-10,0-18.5,4.5T163-2q-9,10-6,14L502,644q2,3 6,3q18,0 32-14q10-11 7-16ZM436,0q-16,16-12,35Q570,181 570,275q0,21-13.5,39.5T518,333q-22,0-39-11.5t-27-23T440,287q-5,0-11,10t-6,16q0,5 1,8q8,14 26,30.5t43.5,28T548,391q48,0 78.5-30.5T657,281q0-38-23-77t-59-73.5T498,69q-2-2-1-4t3-2H614q11,0 19.5,2T647,74q8,10 11,16t7,16q3,9 10,9q15,0 20-5L680,49q-5-22-8.5-34.5T667,0L564,1L436,0Z"/>
      <glyph unicode="&#xbe;" glyph-name="threequarters" horiz-adv-x="718" d="M99,246q-48,0-73,20q-3,5-3,18q0,23 7.5,26t21-4t31-15.5T120,282q30,0 47.5,21T185,365t-19.5,58T106,440H84q-6,9-6,16q0,6 2,14q76,16 76,84q0,20-11,31t-25,11q-19,0-40-18q-22-19-24-19q-7,0-15,8.5T36,580q16,25 50.5,45T156,645q28,0 55-18t27-53q0-33-23.5-61T166,472q20,0 44.5-10t42-29.5T270,382q0-43-24-73.5T183,262T99,246ZM568,617L222-10q-4-6-6-6q-10,0-18.5,4.5T184-2q-9,10-6,14L523,644q2,3 6,3q18,0 32-14q10-11 7-16ZM617-3q-43,0-43,6V97q-1,3-6,3H412q-8,5-8,23L626,388q7,10 20,10q17,0 17-7V158q0-2 6-4h19q10,0 10-50q0-2-1-3l-3-3H667q-4,0-4-5V2q-11-2-22.5-3.5T617-3ZM489,156h79q6,3 6,4V261q0,6-1,6l-3-1L485,164v-2q0-6 4-6Z"/>
      <glyph unicode="&#xbf;" glyph-name="questiondown" horiz-adv-x="349" d="M244,447q38,0 56.5-23.5T319,371q0-28-18-51t-55-23q-30,0-51.5,21.5T173,370q0,31 20.5,54T244,447Zm10-201q5,0 8.5-7t4.5-15l4-56q4-48-6.5-72.5T224,56q-23-12-50-26T128-3T109-50q0-50 57-50q24,0 41.5,7T254-86q32,0 52.5-21T327-154q0-29-9-43q-25-13-59-13q-58,3-112.5,24t-89,60T23-33Q23,39 53,77.5T144,143q29,12 43.5,18T209,173q13,10 13,42q0,13 9.5,22t22.5,9Z"/>
      <glyph unicode="&#xc0;" glyph-name="Agrave" horiz-adv-x="720" d="M15-4q-4,4-4,15q0,21 2,21q8,0 24,5T68.5,49.5T88,64q8,12 17,29.5T118,122l5,12L344,642q11,26 37,26q15,0 24-13L610,148q9-23 17.5-43.5T643,66q4-10 18-17.5T691.5,37T717,33q4,0 4-17q0-16-2-20L658,0q-29,2-50,3.5T574,4L423-4q-4,4-4,21q0,16 4,16q22,0 45,9.5T491,68q0,1-5.5,18T466,135l-30,73q-4,4-7,4q-10,1-34,1t-62,0q-33,0-58.5,0T232,212q-4,0-7-5l-33-76q-17-40-19.5-58T190,45q18-9 31.5-10.5T245,33q3-1 3-16q0-13-2-21q-45,3-65.5,5T150,3.5T128.5,3T92,0.5T15-4ZM333,273q20,0 37.5,0.5T404,275l3,5L335,459L257,280q0-4 2-4q30-3 74-3Zm78,455q-7,0-27.5,7.5t-46,19.5t-50,26T247,808t-16,23q0,19 19,28.5t37,9.5q11,0 18-4q17-12 37.5-30.5t39-37.5t31-32.5T425,748q0-5-4.5-12.5T411,728Z"/>
      <glyph unicode="&#xc1;" glyph-name="Aacute" horiz-adv-x="720" d="M15-4q-4,4-4,15q0,21 2,21q8,0 24,5T68.5,49.5T88,64q8,12 17,29.5T118,122l5,12L344,642q11,26 37,26q15,0 24-13L610,148q9-23 17.5-43.5T643,66q4-10 18-17.5T691.5,37T717,33q4,0 4-17q0-16-2-20L658,0q-29,2-50,3.5T574,4L423-4q-4,4-4,21q0,16 4,16q22,0 45,9.5T491,68q0,1-5.5,18T466,135l-30,73q-4,4-7,4q-10,1-34,1t-62,0q-33,0-58.5,0T232,212q-4,0-7-5l-33-76q-17-40-19.5-58T190,45q18-9 31.5-10.5T245,33q3-1 3-16q0-13-2-21q-45,3-65.5,5T150,3.5T128.5,3T92,0.5T15-4ZM333,273q20,0 37.5,0.5T404,275l3,5L335,459L257,280q0-4 2-4q30-3 74-3Zm-1,456q-5,0-9.5,7.5T318,749q0,3 12.5,16.5t31,32.5T401,835.5T438,866q7,4 18,4q18,0 37-9.5T512,832q0-10-16-23t-40.5-27t-50-26t-46-19.5T332,729Z"/>
      <glyph unicode="&#xc2;" glyph-name="Acircumflex" horiz-adv-x="720" d="M15-4q-4,4-4,15q0,21 2,21q8,0 24,5T68.5,49.5T88,64q8,12 17,29.5T118,122l5,12L344,642q11,26 37,26q15,0 24-13L610,148q9-23 17.5-43.5T643,66q4-10 18-17.5T691.5,37T717,33q4,0 4-17q0-16-2-20L658,0q-29,2-50,3.5T574,4L423-4q-4,4-4,21q0,16 4,16q22,0 45,9.5T491,68q0,1-5.5,18T466,135l-30,73q-4,4-7,4q-10,1-34,1t-62,0q-33,0-58.5,0T232,212q-4,0-7-5l-33-76q-17-40-19.5-58T190,45q18-9 31.5-10.5T245,33q3-1 3-16q0-13-2-21q-45,3-65.5,5T150,3.5T128.5,3T92,0.5T15-4ZM333,273q20,0 37.5,0.5T404,275l3,5L335,459L257,280q0-4 2-4q30-3 74-3ZM257,729q-10,0-10,19q14,11 32.5,27T320,813q11,10 21.5,22T363,861q8,9 13,9q6,0 15-9l15-17q7-7 13-14t12-13q24-24 43-41t33-28q0-19-10-19q-6,0-28,10.5T421,765t-44,26q-17-11-43.5-26T285,739.5T257,729Z"/>
      <glyph unicode="&#xc3;" glyph-name="Atilde" horiz-adv-x="720" d="M15-4q-4,4-4,15q0,21 2,21q8,0 24,5T68.5,49.5T88,64q8,12 17,29.5T118,122l5,12L344,642q11,26 37,26q15,0 24-13L610,148q9-23 17.5-43.5T643,66q4-10 18-17.5T691.5,37T717,33q4,0 4-17q0-16-2-20L658,0q-29,2-50,3.5T574,4L423-4q-4,4-4,21q0,16 4,16q22,0 45,9.5T491,68q0,1-5.5,18T466,135l-30,73q-4,4-7,4q-10,1-34,1t-62,0q-33,0-58.5,0T232,212q-4,0-7-5l-33-76q-17-40-19.5-58T190,45q18-9 31.5-10.5T245,33q3-1 3-16q0-13-2-21q-45,3-65.5,5T150,3.5T128.5,3T92,0.5T15-4ZM333,273q20,0 37.5,0.5T404,275l3,5L335,459L257,280q0-4 2-4q30-3 74-3ZM459,728q-38,0-96,34t-96,34q-19,0-44-28q-26-29-30-29q-8,0-8,22q0,25 18,50q38,51 88,51q38,0 96-34t96-34q19,0 43,29q24,28 29,28q8,0 8-22q0-25-18-51q-35-50-86-50Z"/>
      <glyph unicode="&#xc4;" glyph-name="Adieresis" horiz-adv-x="720" d="M15-4q-4,4-4,15q0,21 2,21q8,0 24,5T68.5,49.5T88,64q8,12 17,29.5T118,122l5,12L344,642q11,26 37,26q15,0 24-13L610,148q9-23 17.5-43.5T643,66q4-10 18-17.5T691.5,37T717,33q4,0 4-17q0-16-2-20L658,0q-29,2-50,3.5T574,4L423-4q-4,4-4,21q0,16 4,16q22,0 45,9.5T491,68q0,1-5.5,18T466,135l-30,73q-4,4-7,4q-10,1-34,1t-62,0q-33,0-58.5,0T232,212q-4,0-7-5l-33-76q-17-40-19.5-58T190,45q18-9 31.5-10.5T245,33q3-1 3-16q0-13-2-21q-45,3-65.5,5T150,3.5T128.5,3T92,0.5T15-4ZM333,273q20,0 37.5,0.5T404,275l3,5L335,459L257,280q0-4 2-4q30-3 74-3ZM477,726q-30,0-52,22t-22,53t22,52t52,21q31,0 52.5-22T551,801q0-31-22.5-53T477,726Zm-198,0q-30,0-52.5,22T204,801q0,29 22,51t53,22q29,0 51-21t22-52t-22-53t-51-22Z"/>
      <glyph unicode="&#xc5;" glyph-name="Aring" horiz-adv-x="720" d="M15-4q-4,4-4,15q0,21 2,21q8,0 24,5T68.5,49.5T88,64q8,12 17,29.5T118,122l5,12L344,642q11,26 37,26q15,0 24-13L610,148q9-23 17.5-43.5T643,66q4-10 18-17.5T691.5,37T717,33q4,0 4-17q0-16-2-20L658,0q-29,2-50,3.5T574,4L423-4q-4,4-4,21q0,16 4,16q22,0 45,9.5T491,68q0,1-5.5,18T466,135l-30,73q-4,4-7,4q-10,1-34,1t-62,0q-33,0-58.5,0T232,212q-4,0-7-5l-33-76q-17-40-19.5-58T190,45q18-9 31.5-10.5T245,33q3-1 3-16q0-13-2-21q-45,3-65.5,5T150,3.5T128.5,3T92,0.5T15-4ZM333,273q20,0 37.5,0.5T404,275l3,5L335,459L257,280q0-4 2-4q30-3 74-3Zm42,387q-41,0-70,29t-29,70q0,40 29,69t70,29t69.5-28.5T473,759t-29-70t-69-29Zm0,45q22,0 37.5,15.5T428,759q0,25-17,39.5T374,813q-22,0-37-15.5T322,760q0-21 14.5-38T375,705Z"/>
      <glyph unicode="&#xc6;" glyph-name="AE" horiz-adv-x="931" d="M12-4Q10-2 10,8q0,5 2.5,15T16,33q8,0 27.5,5.5T82,52.5T106,69l41,63L429,584q4,5 4,14q0,11-19,20t-30,9q-4,0-4,17t3,20q35-4 69.5-6t68.5-2q23,0 62,1t94,3q56,2 97.5,3t69.5,1q1-5 8-42t21-106q-5-5-23-5q-11,0-14,7q-12,26-35.5,46.5t-51,33T696,610H658q-64,0-65-13q-2-12-3.5-31.5T588,519V365q0-6 43-6h53q63,0 68,4q5,5 8,29q2,16 6,29q1,7 15,7q17,0 22-5V234q-4-4-21-4q-13,0-16,8q-12,39-16,48q-4,7-5.5,6.5T738,296q-14,8-78,8q-72,0-72-9V141q0-47 8-71q4-16 68-16h26q62,0 112,26q17,9 38.5,34T874,170q2,6 14,6q24,0 30-6Q868,32 864-2q-28,0-72.5,0.5T686,0T584.5,2T522,2L382-4q-4,4-4,17q0,20 4,20q8,0 21.5,4t25,9.5T442,56q6,23 6,79v65q0,10-9,10q-13,1-30,1t-39,0q-28,0-51.5,0T278,210q-6,0-8-5l-47-76q-14-23-22.5-38.5T190,67q-3-16 10-23q25-11 60-11q3,0 0-15.5T254-4L202,1q-37,3-63,3T71,1Q50-1 35-2T12-4ZM383,271q12,0 29,1t27,1q9,0 9,9V475q0,5-3,5q-4,0-7-5L316,278q0-4 2-4q30-3 65-3Z"/>
      <glyph unicode="&#xc7;" glyph-name="Ccedilla" horiz-adv-x="638" d="M345-7Q279-7 221,19T119,90.5t-69,105T25,322q0,71 25,133.5t69.5,110t105,74.5T355,667q55,0 112-7.5T584,638q6-2 13-67q4-37 6.5-58T601,483.5T577,475l-16,3q-5,18-16,38t-34,43q-22,23-62,37.5T360,611q-179,0-179-268q0-83 24.5-150.5T277.5,86T392,47q74,0 128,54q16,16 24.5,36.5t13,36.5t8.5,16q41,0 45-10q0-7-4.5-29.5t-11-49T582,55.5T570,34Q456-7 345-7ZM320-184q-38,0-57,19q-1,4-1.5,9T261-145q0,16 8,16l22-9q22-8 37-8q23,0 34.5,10T374-112q0,33-29,33q-20,0-35-7q-2,0-9.5,8T294-67l19,35q6,13 9.5,20.5T327-2h37L348-33l22,1q25,1 44.5-18T434-92q0-42-30.5-67T320-184Z"/>
      <glyph unicode="&#xc8;" glyph-name="Egrave" horiz-adv-x="598" d="M31-4q-4,4-4,17q0,20 4,20q8,0 23,3t28,8.5T97,55q6,23 6,88V521q0,56-6,78q-2,6-15.5,12.5T53,622.5T30,627q-4,0-4,18q0,16 3,19q40-2 76.5-3.5T176,659q44,0 155,3q56,1 98,1.5t70,0.5q1-5 8-42t21-106q-5-5-23-5q-11,0-14,7q-12,26-35.5,46.5t-51,33T351,610H313q-64,0-65-13q-2-12-3.5-31.5T243,519V365q0-6 43-6h53q63,0 68,4q5,5 8,29q2,16 6,29q1,7 15,7q17,0 22-5V234q-4-4-21-4q-13,0-16,8q-12,39-16,48q-4,7-5.5,6.5T393,296q-14,8-78,8q-72,0-72-9V141q0-47 8-71q4-16 68-16h26q62,0 112,26q17,9 38.5,34T529,170q2,6 14,6q24,0 30-6Q523,32 519-2q-25,0-65.5,0.5T357,0Q302,1 257,2.5T177,2L31-4ZM316,728q-7,0-27.5,7.5t-46,19.5t-50,26T152,808t-16,23q0,19 19,28.5t37,9.5q11,0 18-4q17-12 37.5-30.5t39-37.5t31-32.5T330,748q0-5-4.5-12.5T316,728Z"/>
      <glyph unicode="&#xc9;" glyph-name="Eacute" horiz-adv-x="598" d="M31-4q-4,4-4,17q0,20 4,20q8,0 23,3t28,8.5T97,55q6,23 6,88V521q0,56-6,78q-2,6-15.5,12.5T53,622.5T30,627q-4,0-4,18q0,16 3,19q40-2 76.5-3.5T176,659q44,0 155,3q56,1 98,1.5t70,0.5q1-5 8-42t21-106q-5-5-23-5q-11,0-14,7q-12,26-35.5,46.5t-51,33T351,610H313q-64,0-65-13q-2-12-3.5-31.5T243,519V365q0-6 43-6h53q63,0 68,4q5,5 8,29q2,16 6,29q1,7 15,7q17,0 22-5V234q-4-4-21-4q-13,0-16,8q-12,39-16,48q-4,7-5.5,6.5T393,296q-14,8-78,8q-72,0-72-9V141q0-47 8-71q4-16 68-16h26q62,0 112,26q17,9 38.5,34T529,170q2,6 14,6q24,0 30-6Q523,32 519-2q-25,0-65.5,0.5T357,0Q302,1 257,2.5T177,2L31-4ZM237,729q-5,0-9.5,7.5T223,749q0,3 12.5,16.5t31,32.5T306,835.5T343,866q7,4 18,4q18,0 37-9.5T417,832q0-10-16-23t-40.5-27t-50-26t-46-19.5T237,729Z"/>
      <glyph unicode="&#xca;" glyph-name="Ecircumflex" horiz-adv-x="598" d="M31-4q-4,4-4,17q0,20 4,20q8,0 23,3t28,8.5T97,55q6,23 6,88V521q0,56-6,78q-2,6-15.5,12.5T53,622.5T30,627q-4,0-4,18q0,16 3,19q40-2 76.5-3.5T176,659q44,0 155,3q56,1 98,1.5t70,0.5q1-5 8-42t21-106q-5-5-23-5q-11,0-14,7q-12,26-35.5,46.5t-51,33T351,610H313q-64,0-65-13q-2-12-3.5-31.5T243,519V365q0-6 43-6h53q63,0 68,4q5,5 8,29q2,16 6,29q1,7 15,7q17,0 22-5V234q-4-4-21-4q-13,0-16,8q-12,39-16,48q-4,7-5.5,6.5T393,296q-14,8-78,8q-72,0-72-9V141q0-47 8-71q4-16 68-16h26q62,0 112,26q17,9 38.5,34T529,170q2,6 14,6q24,0 30-6Q523,32 519-2q-25,0-65.5,0.5T357,0Q302,1 257,2.5T177,2L31-4ZM162,729q-10,0-10,19q14,11 32.5,27T225,813q11,10 21.5,22T268,861q8,9 13,9q6,0 15-9l15-17q7-7 13-14t12-13q24-24 43-41t33-28q0-19-10-19q-6,0-28,10.5T326,765t-44,26q-17-11-43.5-26T190,739.5T162,729Z"/>
      <glyph unicode="&#xcb;" glyph-name="Edieresis" horiz-adv-x="598" d="M31-4q-4,4-4,17q0,20 4,20q8,0 23,3t28,8.5T97,55q6,23 6,88V521q0,56-6,78q-2,6-15.5,12.5T53,622.5T30,627q-4,0-4,18q0,16 3,19q40-2 76.5-3.5T176,659q44,0 155,3q56,1 98,1.5t70,0.5q1-5 8-42t21-106q-5-5-23-5q-11,0-14,7q-12,26-35.5,46.5t-51,33T351,610H313q-64,0-65-13q-2-12-3.5-31.5T243,519V365q0-6 43-6h53q63,0 68,4q5,5 8,29q2,16 6,29q1,7 15,7q17,0 22-5V234q-4-4-21-4q-13,0-16,8q-12,39-16,48q-4,7-5.5,6.5T393,296q-14,8-78,8q-72,0-72-9V141q0-47 8-71q4-16 68-16h26q62,0 112,26q17,9 38.5,34T529,170q2,6 14,6q24,0 30-6Q523,32 519-2q-25,0-65.5,0.5T357,0Q302,1 257,2.5T177,2L31-4ZM382,726q-30,0-52,22t-22,53t22,52t52,21q31,0 52.5-22T456,801q0-31-22.5-53T382,726Zm-198,0q-30,0-52.5,22T109,801q0,29 22,51t53,22q29,0 51-21t22-52t-22-53t-51-22Z"/>
      <glyph unicode="&#xcc;" glyph-name="Igrave" horiz-adv-x="346" d="M30-4q-4,4-4,16q0,21 3,21q8,0 23,4T80,47T95,58q4,14 5.5,34t1.5,46V522q0,64-8,78q-3,6-15.5,11.5T53,621t-21,4q-4,0-4,17q0,18 2,20l48-3q22-2 36-3t27.5-0.5T175,656t140,6q3-9 3-18q0-19-4-19q-6,0-21-4t-28.5-9.5T249,601q-3-12-5-33.5T242,531V146q0-28 2-50t6-38q2-4 14.5-10t27-10.5T312,33q4,0 4-19q0-10-2-18q-4,0-19,1T254,0T208,3T175,4q-18,0-49-2T67.5-1.5T30-4ZM209,728q-7,0-27.5,7.5t-46,19.5t-50,26T45,808T29,831q0,19 19,28.5T85,869q11,0 18-4q17-12 37.5-30.5t39-37.5t31-32.5T223,748q0-5-4.5-12.5T209,728Z"/>
      <glyph unicode="&#xcd;" glyph-name="Iacute" horiz-adv-x="346" d="M30-4q-4,4-4,16q0,21 3,21q8,0 23,4T80,47T95,58q4,14 5.5,34t1.5,46V522q0,64-8,78q-3,6-15.5,11.5T53,621t-21,4q-4,0-4,17q0,18 2,20l48-3q22-2 36-3t27.5-0.5T175,656t140,6q3-9 3-18q0-19-4-19q-6,0-21-4t-28.5-9.5T249,601q-3-12-5-33.5T242,531V146q0-28 2-50t6-38q2-4 14.5-10t27-10.5T312,33q4,0 4-19q0-10-2-18q-4,0-19,1T254,0T208,3T175,4q-18,0-49-2T67.5-1.5T30-4ZM130,729q-5,0-9.5,7.5T116,749q0,3 12.5,16.5t31,32.5T199,835.5T236,866q7,4 18,4q18,0 37-9.5T310,832q0-10-16-23t-40.5-27t-50-26t-46-19.5T130,729Z"/>
      <glyph unicode="&#xce;" glyph-name="Icircumflex" horiz-adv-x="346" d="M30-4q-4,4-4,16q0,21 3,21q8,0 23,4T80,47T95,58q4,14 5.5,34t1.5,46V522q0,64-8,78q-3,6-15.5,11.5T53,621t-21,4q-4,0-4,17q0,18 2,20l48-3q22-2 36-3t27.5-0.5T175,656t140,6q3-9 3-18q0-19-4-19q-6,0-21-4t-28.5-9.5T249,601q-3-12-5-33.5T242,531V146q0-28 2-50t6-38q2-4 14.5-10t27-10.5T312,33q4,0 4-19q0-10-2-18q-4,0-19,1T254,0T208,3T175,4q-18,0-49-2T67.5-1.5T30-4ZM55,729q-10,0-10,19q14,11 32.5,27T118,813q11,10 21.5,22T161,861q8,9 13,9q6,0 15-9l15-17q7-7 13-14t12-13q24-24 43-41t33-28q0-19-10-19q-6,0-28,10.5T219,765t-44,26q-17-11-43.5-26T83,739.5T55,729Z"/>
      <glyph unicode="&#xcf;" glyph-name="Idieresis" horiz-adv-x="346" d="M30-4q-4,4-4,16q0,21 3,21q8,0 23,4T80,47T95,58q4,14 5.5,34t1.5,46V522q0,64-8,78q-3,6-15.5,11.5T53,621t-21,4q-4,0-4,17q0,18 2,20l48-3q22-2 36-3t27.5-0.5T175,656t140,6q3-9 3-18q0-19-4-19q-6,0-21-4t-28.5-9.5T249,601q-3-12-5-33.5T242,531V146q0-28 2-50t6-38q2-4 14.5-10t27-10.5T312,33q4,0 4-19q0-10-2-18q-4,0-19,1T254,0T208,3T175,4q-18,0-49-2T67.5-1.5T30-4ZM275,726q-30,0-52,22t-22,53t22,52t52,21q31,0 52.5-22T349,801q0-31-22.5-53T275,726ZM77,726q-30,0-52.5,22T2,801q0,29 22,51t53,22q29,0 51-21t22-52t-22-53T77,726Z"/>
      <glyph unicode="&#xd0;" glyph-name="Eth" horiz-adv-x="706" d="M16-4q-4,4-4,17q0,20 4,20q8,0 23,3t28,8.5T82,55q6,23 6,88V307H37q-5,0-5,15q0,22 6,31H88V521q0,56-6,78q-2,6-15.5,12.5T38,622.5T15,627q-4,0-4,18q0,16 3,19q41-2 77.5-3.5T161,659H335q110,0 191-48q80-48 117-120t37-155q0-96-41.5-173T519.5,41.5T334-3q-10,0-29,0.5T257-1q-58,3-95,3L16-4ZM350,53q85,0 131.5,72T528,340q0,74-22.5,133.5T442,568t-99,35h-5q-85,0-97-16q-13-17-13-63V353H383q6,0 6-14q0-18-6-32H228V136q0-65 9-70q22-13 113-13Z"/>
      <glyph unicode="&#xd1;" glyph-name="Ntilde" horiz-adv-x="777" d="M628-5q-11,0-31,23L190,524V141q0-53 8-71q6-11 24-19.5T259,38t29-4q2,0 3-8.5T292,8T290-4q-48,0-81.5,4T155,4q-24,0-38-1T85.5,0T31-4q-3,3-3,18q0,19 3,19q23,0 48.5,9.5T116,71q10,16 10,73V537q0,52-15,71q-3,5-18.5,8.5t-33,6T32,625q-2,0-3.5,8t-1,17.5T30,662l64-4q23-2 41.5-3t31.5-1q17,0 41.5,2t56.5,6q20-40 55.5-88t80-101.5t92-110.5T583,248q1,4 1.5,14t0.5,27V524q0,58-13,72q-6,8-21.5,14.5t-32,10.5T494,625q-2,0-3.5,8T489,650.5t2,11.5q46-4 79-6t53-2q17,0 43,2t49.5,4t31.5,2q4-7 4-18q0-19-5-19q-54,0-83-33q-14-17-14-73V139q0-18 1-53t3-87q-4-4-25-4ZM471,728q-38,0-96,34t-96,34q-19,0-44-28q-26-29-30-29q-8,0-8,22q0,25 18,50q38,51 88,51q38,0 96-34t96-34q19,0 43,29q24,28 29,28q8,0 8-22q0-25-18-51q-35-50-86-50Z"/>
      <glyph unicode="&#xd2;" glyph-name="Ograve" horiz-adv-x="703" d="M125,89Q30,189 30,328q0,70 25,131.5t69.5,108t102.5,73T351,667t124.5-26.5t102.5-73t69.5-108T673,328q0-139-95-239Q513,21 432-1.5t-161.5,0T125,89ZM367,46q50,0 83.5,35t50,94.5T517,309q0,55-8.5,105T481,510q-19,47-56,74t-89,27q-53,0-88-38q-35-39-48.5-95T186,350q0-102 39-197q20-48 56.5-77.5T367,46Zm20,682q-7,0-27.5,7.5t-46,19.5t-50,26T223,808t-16,23q0,19 19,28.5t37,9.5q11,0 18-4q17-12 37.5-30.5t39-37.5t31-32.5T401,748q0-5-4.5-12.5T387,728Z"/>
      <glyph unicode="&#xd3;" glyph-name="Oacute" horiz-adv-x="703" d="M125,89Q30,189 30,328q0,70 25,131.5t69.5,108t102.5,73T351,667t124.5-26.5t102.5-73t69.5-108T673,328q0-139-95-239Q513,21 432-1.5t-161.5,0T125,89ZM367,46q50,0 83.5,35t50,94.5T517,309q0,55-8.5,105T481,510q-19,47-56,74t-89,27q-53,0-88-38q-35-39-48.5-95T186,350q0-102 39-197q20-48 56.5-77.5T367,46ZM308,729q-5,0-9.5,7.5T294,749q0,3 12.5,16.5t31,32.5T377,835.5T414,866q7,4 18,4q18,0 37-9.5T488,832q0-10-16-23t-40.5-27t-50-26t-46-19.5T308,729Z"/>
      <glyph unicode="&#xd4;" glyph-name="Ocircumflex" horiz-adv-x="703" d="M125,89Q30,189 30,328q0,70 25,131.5t69.5,108t102.5,73T351,667t124.5-26.5t102.5-73t69.5-108T673,328q0-139-95-239Q513,21 432-1.5t-161.5,0T125,89ZM367,46q50,0 83.5,35t50,94.5T517,309q0,55-8.5,105T481,510q-19,47-56,74t-89,27q-53,0-88-38q-35-39-48.5-95T186,350q0-102 39-197q20-48 56.5-77.5T367,46ZM233,729q-10,0-10,19q14,11 32.5,27T296,813q11,10 21.5,22T339,861q8,9 13,9q6,0 15-9l15-17q7-7 13-14t12-13q24-24 43-41t33-28q0-19-10-19q-6,0-28,10.5T397,765t-44,26q-17-11-43.5-26T261,739.5T233,729Z"/>
      <glyph unicode="&#xd5;" glyph-name="Otilde" horiz-adv-x="703" d="M125,89Q30,189 30,328q0,70 25,131.5t69.5,108t102.5,73T351,667t124.5-26.5t102.5-73t69.5-108T673,328q0-139-95-239Q513,21 432-1.5t-161.5,0T125,89ZM367,46q50,0 83.5,35t50,94.5T517,309q0,55-8.5,105T481,510q-19,47-56,74t-89,27q-53,0-88-38q-35-39-48.5-95T186,350q0-102 39-197q20-48 56.5-77.5T367,46Zm68,682q-38,0-96,34t-96,34q-19,0-44-28q-26-29-30-29q-8,0-8,22q0,25 18,50q38,51 88,51q38,0 96-34t96-34q19,0 43,29q24,28 29,28q8,0 8-22q0-25-18-51q-35-50-86-50Z"/>
      <glyph unicode="&#xd6;" glyph-name="Odieresis" horiz-adv-x="703" d="M125,89Q30,189 30,328q0,70 25,131.5t69.5,108t102.5,73T351,667t124.5-26.5t102.5-73t69.5-108T673,328q0-139-95-239Q513,21 432-1.5t-161.5,0T125,89ZM367,46q50,0 83.5,35t50,94.5T517,309q0,55-8.5,105T481,510q-19,47-56,74t-89,27q-53,0-88-38q-35-39-48.5-95T186,350q0-102 39-197q20-48 56.5-77.5T367,46Zm86,680q-30,0-52,22t-22,53t22,52t52,21q31,0 52.5-22T527,801q0-31-22.5-53T453,726Zm-198,0q-30,0-52.5,22T180,801q0,29 22,51t53,22q29,0 51-21t22-52t-22-53t-51-22Z"/>
      <glyph unicode="&#xd7;" glyph-name="multiply" horiz-adv-x="425" d="M66,54q-8,0-16,9q-33,39-24,48L160,245q2,2-1,5L30,379q-6,6-2,13q11,20 36,45q5,5 12-2L210,301q3-3 7,1L352,437q5,5 12-2q21-20 34-46l1-5q0-2-1-3L268,251q-4-4-1-7L397,114h1l1-3q1-1-1-5q-13-25-34-46q-2-2-6-4q-3-1-4,0l-2,1L217,192q-4,5-8,1L71,55q-1-1-5-1Z"/>
      <glyph unicode="&#xd8;" glyph-name="Oslash" horiz-adv-x="700" d="M167-18Q128-3 129,4l28,51Q94,103 57.5,176T21,328q0,67 25,128t69.5,108.5t103.5,75T346,667q72,0 137-32l23,41q40-15 38-21l-24-42q67-46 107.5-121T668,328q0-70-25.5-131.5T573,88.5T470.5,16T346-10q-42,0-80,10.5T194,30L167-18Zm14,368q0-46 8.5-96.5T217,160L443,563q-21,23-49,35.5T331,611q-44,0-73-23t-46-61t-24-84t-7-93ZM362,46q50,0 83.5,35t50,94.5T512,309q0,55-8.5,105T476,510q-3,7-6,13L241,115q22-31 51.5-50T362,46Z"/>
      <glyph unicode="&#xd9;" glyph-name="Ugrave" horiz-adv-x="733" d="M359-5Q278-5 217,28.5T122.5,132T89,311V522q0,64-8,78q-3,6-15.5,11.5T40,621t-21,4q-4,0-4,17q0,18 2,20l145-6q10-1 45,1t95,5q3-9 3-18q0-19-4-19q-6,0-21-4t-28.5-9.5T236,601q-7-25-7-85V279q0-92 41.5-148T383,75q74,0 121.5,48.5T552,286V524q0,58-13,72q-6,8-21.5,14.5t-32,10.5T461,625q-2,0-3.5,8T456,650.5t2,11.5q46-4 79-6t53-2q17,0 43,2t49.5,4t31.5,2q4-7 4-18q0-19-5-19q-54,0-83-33q-14-17-14-73V291q0-97-32.5-163T493,28.5T359-5Zm43,733q-7,0-27.5,7.5t-46,19.5t-50,26T238,808t-16,23q0,19 19,28.5t37,9.5q11,0 18-4q17-12 37.5-30.5t39-37.5t31-32.5T416,748q0-5-4.5-12.5T402,728Z"/>
      <glyph unicode="&#xda;" glyph-name="Uacute" horiz-adv-x="733" d="M359-5Q278-5 217,28.5T122.5,132T89,311V522q0,64-8,78q-3,6-15.5,11.5T40,621t-21,4q-4,0-4,17q0,18 2,20l145-6q10-1 45,1t95,5q3-9 3-18q0-19-4-19q-6,0-21-4t-28.5-9.5T236,601q-7-25-7-85V279q0-92 41.5-148T383,75q74,0 121.5,48.5T552,286V524q0,58-13,72q-6,8-21.5,14.5t-32,10.5T461,625q-2,0-3.5,8T456,650.5t2,11.5q46-4 79-6t53-2q17,0 43,2t49.5,4t31.5,2q4-7 4-18q0-19-5-19q-54,0-83-33q-14-17-14-73V291q0-97-32.5-163T493,28.5T359-5ZM323,729q-5,0-9.5,7.5T309,749q0,3 12.5,16.5t31,32.5T392,835.5T429,866q7,4 18,4q18,0 37-9.5T503,832q0-10-16-23t-40.5-27t-50-26t-46-19.5T323,729Z"/>
      <glyph unicode="&#xdb;" glyph-name="Ucircumflex" horiz-adv-x="733" d="M359-5Q278-5 217,28.5T122.5,132T89,311V522q0,64-8,78q-3,6-15.5,11.5T40,621t-21,4q-4,0-4,17q0,18 2,20l145-6q10-1 45,1t95,5q3-9 3-18q0-19-4-19q-6,0-21-4t-28.5-9.5T236,601q-7-25-7-85V279q0-92 41.5-148T383,75q74,0 121.5,48.5T552,286V524q0,58-13,72q-6,8-21.5,14.5t-32,10.5T461,625q-2,0-3.5,8T456,650.5t2,11.5q46-4 79-6t53-2q17,0 43,2t49.5,4t31.5,2q4-7 4-18q0-19-5-19q-54,0-83-33q-14-17-14-73V291q0-97-32.5-163T493,28.5T359-5ZM248,729q-10,0-10,19q14,11 32.5,27T311,813q11,10 21.5,22T354,861q8,9 13,9q6,0 15-9l15-17q7-7 13-14t12-13q24-24 43-41t33-28q0-19-10-19q-6,0-28,10.5T412,765t-44,26q-17-11-43.5-26T276,739.5T248,729Z"/>
      <glyph unicode="&#xdc;" glyph-name="Udieresis" horiz-adv-x="733" d="M359-5Q278-5 217,28.5T122.5,132T89,311V522q0,64-8,78q-3,6-15.5,11.5T40,621t-21,4q-4,0-4,17q0,18 2,20l145-6q10-1 45,1t95,5q3-9 3-18q0-19-4-19q-6,0-21-4t-28.5-9.5T236,601q-7-25-7-85V279q0-92 41.5-148T383,75q74,0 121.5,48.5T552,286V524q0,58-13,72q-6,8-21.5,14.5t-32,10.5T461,625q-2,0-3.5,8T456,650.5t2,11.5q46-4 79-6t53-2q17,0 43,2t49.5,4t31.5,2q4-7 4-18q0-19-5-19q-54,0-83-33q-14-17-14-73V291q0-97-32.5-163T493,28.5T359-5ZM468,726q-30,0-52,22t-22,53t22,52t52,21q31,0 52.5-22T542,801q0-31-22.5-53T468,726Zm-198,0q-30,0-52.5,22T195,801q0,29 22,51t53,22q29,0 51-21t22-52t-22-53t-51-22Z"/>
      <glyph unicode="&#xdd;" glyph-name="Yacute" horiz-adv-x="669" d="M195-4q-4,4-4,16q0,21 3,21q8,0 23,4t28,10t15,11q7,25 7,81V309q0,8-31,64L173,484l-31,53q-17,30-30,48.5T88,610q-25,15-53,15q-4,0-4,17q0,16 4,20q38-2 76-4t66-2q23,0 143,6q2-2 2-11.5T321,633t-3-8q-15,0-33.5-5.5T265,604q0-8 8-22L373,405q6-5 10,2q15,21 33.5,51T452,518t28.5,53.5T492,603q0,22-64,22q-2,0-3.5,8T424,650.5t3,11.5q90-6 121-6q26,0 113,6q3-9 3-18q0-18-4-18q-18,0-41-9t-37-27q-10-14-31-45.5T505.5,474t-47-76t-37-63T407,304V145q0-28 2-49.5T415,58q2-4 14.5-10t27-10.5T477,33q4,0 4-19q0-10-2-18q-4,0-19,1T419,0T373,3T340,4q-18,0-49-2T232.5-1.5T195-4ZM310,729q-5,0-9.5,7.5T296,749q0,3 12.5,16.5t31,32.5T379,835.5T416,866q7,4 18,4q18,0 37-9.5T490,832q0-10-16-23t-40.5-27t-50-26t-46-19.5T310,729Z"/>
      <glyph unicode="&#xde;" glyph-name="Thorn" horiz-adv-x="572" d="M10-4Q6,0 6,12Q6,33 9,33q8,0 23,4T60,47T75,58q4,14 5.5,34T82,138V522q0,64-8,78q-3,6-15.5,11.5T33,621t-21,4q-4,0-4,17q0,18 2,20l145-6q20,0 140,6q3-9 3-18q0-19-4-19q-6,0-21-4t-28.5-9.5T229,601q-4-13-5.5-33.5T222,521v-5q0-4 4-4l10,2q11,2 28,4t32,2q34,0 71-9t74-29q36-19 59.5-57T524,339q0-54-28.5-99t-77-72.5T310,140q-20,0-39.5,6T244,162q-4,6-5,22t4,16q14-8 45-8q84,0 84,136q0,137-92,137q-38,0-46-5q-4-3-6-6q-3-5-4.5-31.5T222,359V141q0-26 2-46.5T230,58q2-4 14.5-10t27-10.5T292,33q4,0 4-19q0-10-2-18q-4,0-19,1T234,0T188,3T155,4q-18,0-49-2T47.5-1.5T10-4Z"/>
      <glyph unicode="&#xdf;" glyph-name="germandbls" horiz-adv-x="608" d="M445-7q-27,0-56.5,9.5T337,25.5T309,49q0,28 10,49.5T348,120q23,0 37-11t19-25t15-25t25-11q11,0 16.5,14T466,90v14q0,28-18.5,49T403,190l-54,33q-27,17-45.5,45T285,334q0,27 11.5,48T324,418q17,14 33,30q17,15 28,40.5T396,549q0,93-96,93q-49,0-61-54q-7-27-9-51t-2-62V139q0-25 2-46t6-39q1-4 12.5-10t25-10T292,30q3,0 3.5-15T294-4q-7,1-33,2.5T207,2T163,4T119,2T65.5-1.5T32-4q-3,3-3,16q0,12 4,12q8,0 20.5,3.5t23,9T88,46q9,35 9,89l1,226q0,8-5,8H40q-3,0-3,6q0,7 2.5,19T46,416t6,10H93q5,0 5,6v20q0,81 31.5,135T215,668.5T334,696q48,0 90-16.5T492,634t26-69q0-45-21-73t-45-39q-25-10-46-29t-21-45q0-60 88-108q28-14 53.5-36.5T568,185t16-55q0-39-18.5-70t-50-49T445-7Z"/>
      <glyph unicode="&#xe0;" glyph-name="agrave" horiz-adv-x="486" d="M148-7Q93-7 60.5,23.5T28,100q0,39 24.5,68T114,214q14,6 26,10.5t22,8.5q38,12 61,17.5t34,9.5q9,3 9,15v36q0,82-50,82q-58,0-58-67q0-22-18-32.5T100,283q-46,0-63,30q0,26 18.5,50t49,43.5t69,31T251,449q70,0 107.5-38.5T396,271V109q0-34 24-34q18,0 34,13q7-4 7-15q0-26-7-37Q440,23 408.5,8.5T349-6Q325-6 303,8.5T274,42q-1,0-11-7T248,24Q228,11 202,2T148-7Zm63,72q26,0 40.5,12.5T266,108V209l-52-18q-21-7-38.5-21T158,133q0-36 15.5-52T211,65Zm59,437q-5,0-22.5,10.5t-40,27.5t-44,36T128,611.5T114,638q0,9 11.5,19T160,667q25,0 34-9q43-50 68-90t25-48q0-5-6-11.5T270,502Z"/>
      <glyph unicode="&#xe1;" glyph-name="aacute" horiz-adv-x="486" d="M148-7Q93-7 60.5,23.5T28,100q0,39 24.5,68T114,214q14,6 26,10.5t22,8.5q38,12 61,17.5t34,9.5q9,3 9,15v36q0,82-50,82q-58,0-58-67q0-22-18-32.5T100,283q-46,0-63,30q0,26 18.5,50t49,43.5t69,31T251,449q70,0 107.5-38.5T396,271V109q0-34 24-34q18,0 34,13q7-4 7-15q0-26-7-37Q440,23 408.5,8.5T349-6Q325-6 303,8.5T274,42q-1,0-11-7T248,24Q228,11 202,2T148-7Zm63,72q26,0 40.5,12.5T266,108V209l-52-18q-21-7-38.5-21T158,133q0-36 15.5-52T211,65Zm-6,437q-5,0-11,6.5T188,520q0,8 25,48t68,90q9,9 34,9q23,0 34.5-10T361,638q0-10-14-26.5T311.5,576t-44-36t-40-27.5T205,502Z"/>
      <glyph unicode="&#xe2;" glyph-name="acircumflex" horiz-adv-x="486" d="M148-7Q93-7 60.5,23.5T28,100q0,39 24.5,68T114,214q14,6 26,10.5t22,8.5q38,12 61,17.5t34,9.5q9,3 9,15v36q0,82-50,82q-58,0-58-67q0-22-18-32.5T100,283q-46,0-63,30q0,26 18.5,50t49,43.5t69,31T251,449q70,0 107.5-38.5T396,271V109q0-34 24-34q18,0 34,13q7-4 7-15q0-26-7-37Q440,23 408.5,8.5T349-6Q325-6 303,8.5T274,42q-1,0-11-7T248,24Q228,11 202,2T148-7Zm63,72q26,0 40.5,12.5T266,108V209l-52-18q-21-7-38.5-21T158,133q0-36 15.5-52T211,65ZM129,493q-9,0-9,23q24,24 66,78q21,27 39,57q6,10 13,10q5,0 12-10l15-21q5-9 11-16.5T287,599q22-29 39-49.5T356,516q0-23-9-23q-5,0-25.5,13t-44,30.5T238,567q-15-13-39-30.5T155,506t-26-13Z"/>
      <glyph unicode="&#xe3;" glyph-name="atilde" horiz-adv-x="486" d="M148-7Q93-7 60.5,23.5T28,100q0,39 24.5,68T114,214q14,6 26,10.5t22,8.5q38,12 61,17.5t34,9.5q9,3 9,15v36q0,82-50,82q-58,0-58-67q0-22-18-32.5T100,283q-46,0-63,30q0,26 18.5,50t49,43.5t69,31T251,449q70,0 107.5-38.5T396,271V109q0-34 24-34q18,0 34,13q7-4 7-15q0-26-7-37Q440,23 408.5,8.5T349-6Q325-6 303,8.5T274,42q-1,0-11-7T248,24Q228,11 202,2T148-7Zm63,72q26,0 40.5,12.5T266,108V209l-52-18q-21-7-38.5-21T158,133q0-36 15.5-52T211,65Zm97,452q-31,0-79,30t-80,30q-14,0-35-25q-21-26-25-26q-7,0-7,20q0,18 16,44q31,46 71,46q31,0 79-30q47-31 79-31q16,0 36,26q19,25 24,25q6,0 6-20q0-19-15-45q-29-44-70-44Z"/>
      <glyph unicode="&#xe4;" glyph-name="adieresis" horiz-adv-x="486" d="M148-7Q93-7 60.5,23.5T28,100q0,39 24.5,68T114,214q14,6 26,10.5t22,8.5q38,12 61,17.5t34,9.5q9,3 9,15v36q0,82-50,82q-58,0-58-67q0-22-18-32.5T100,283q-46,0-63,30q0,26 18.5,50t49,43.5t69,31T251,449q70,0 107.5-38.5T396,271V109q0-34 24-34q18,0 34,13q7-4 7-15q0-26-7-37Q440,23 408.5,8.5T349-6Q325-6 303,8.5T274,42q-1,0-11-7T248,24Q228,11 202,2T148-7Zm63,72q26,0 40.5,12.5T266,108V209l-52-18q-21-7-38.5-21T158,133q0-36 15.5-52T211,65ZM338,500q-30,0-52,22t-22,53t22,52t52,21q31,0 52.5-22T412,575q0-31-22.5-53T338,500Zm-198,0q-30,0-52.5,22T65,575q0,29 22,51t53,22q29,0 51-21t22-52t-22-53t-51-22Z"/>
      <glyph unicode="&#xe5;" glyph-name="aring" horiz-adv-x="486" d="M148-7Q93-7 60.5,23.5T28,100q0,39 24.5,68T114,214q14,6 26,10.5t22,8.5q38,12 61,17.5t34,9.5q9,3 9,15v36q0,82-50,82q-58,0-58-67q0-22-18-32.5T100,283q-46,0-63,30q0,26 18.5,50t49,43.5t69,31T251,449q70,0 107.5-38.5T396,271V109q0-34 24-34q18,0 34,13q7-4 7-15q0-26-7-37Q440,23 408.5,8.5T349-6Q325-6 303,8.5T274,42q-1,0-11-7T248,24Q228,11 202,2T148-7Zm63,72q26,0 40.5,12.5T266,108V209l-52-18q-21-7-38.5-21T158,133q0-36 15.5-52T211,65Zm24,437q-41,0-70,29t-29,70t29,69.5T235,699t69.5-28.5T333,601t-28.5-70T235,502Zm1,45q23,0 37.5,16T288,601q0,23-14.5,38.5T236,655q-22,0-38-15.5T182,601q0-22 16-38t38-16Z"/>
      <glyph unicode="&#xe6;" glyph-name="ae" horiz-adv-x="679" d="M471-8Q377-8 311,61Q274,26 237,9.5T139-7Q84-7 51.5,23.5T19,100q0,45 27,72t56,40q14,6 37,13.5T175,236l68,16q9,2 9,14v45q0,37-12.5,59.5T207,393q-58,0-58-67q0-22-18-32.5T91,283q-46,0-63,30q0,26 18.5,50t49,43.5t69,31T242,449q64,0 104-45q63,45 125,45q46,0 83-19.5T612,380t32.5-60.5T658,262q1-10-7-18q-7-6-33-11q-23-4-80-11.5T392,203q-5-2-5-7q0-11 5.5-28.5T410,127q12-22 37-38t59-16t63,10q20,7 30.5,12t19,11T641,122q9-7 9-18q0-10-5-23q-6-16-32-37T550,7.5T471-8ZM394,264q125,17 132,18q6,2 6,10q0,39-20,69.5T460,392q-25,0-41.5-18t-24-46T387,270q0-6 7-6ZM202,65q24,0 37,12.5T252,108v85q-28-3-51.5-7.5T163,170t-14-37q0-36 15.5-52T202,65Z"/>
      <glyph unicode="&#xe7;" glyph-name="ccedilla" horiz-adv-x="452" d="M252-7Q188-7 137,24T56,108T26,226q0,62 32,112t86.5,79.5T265,447q51,0 94-17.5T421,388q0-92-54-92q-39,0-59,50q-9,23-22.5,34.5T248,392q-80,0-80-150Q168,73 281,73q34,0 63,10q20,6 31,11t20.5,11.5T418,122q9-4 9-19q0-13-4-20q-6-16-31-37.5t-61.5-37T252-7ZM204-156q-32,0-48,16q-2,8-2,17q0,14 7,14l19-7q9-3 16.5-5.5T211-124q19,0 29,8.5T250-95q0,28-24,28q-15,0-30-6q-2,0-8.5,6.5T182-57l15,28q5,10 8,17t5,10h32L228-28l19,1q22,2 38-14.5T301-78q0-36-26-57t-71-21Z"/>
      <glyph unicode="&#xe8;" glyph-name="egrave" horiz-adv-x="461" d="M240-7Q179-7 127.5,24t-82,83T15,221q0,64 27.5,115T119,417t113,30q63,0 107.5-29.5t68-73T431,257q0-23-9.5-30T384,220H158q-6,0-6-7q0-36 13.5-68t40-52T270,73q34,0 63,10q20,6 31,11t20.5,11.5T407,122q9-4 9-19q0-13-4-20q-6-16-31.5-37t-62-37T240-7ZM159,275H286q14,0 14,19q0,38-20.5,68T227,392q-29,0-45.5-20.5t-23-45.5T152,285q0-10 7-10Zm93,227q-5,0-22.5,10.5t-40,27.5t-44,36T110,611.5T96,638q0,9 11.5,19T142,667q25,0 34-9q43-50 68-90t25-48q0-5-6-11.5T252,502Z"/>
      <glyph unicode="&#xe9;" glyph-name="eacute" horiz-adv-x="461" d="M240-7Q179-7 127.5,24t-82,83T15,221q0,64 27.5,115T119,417t113,30q63,0 107.5-29.5t68-73T431,257q0-23-9.5-30T384,220H158q-6,0-6-7q0-36 13.5-68t40-52T270,73q34,0 63,10q20,6 31,11t20.5,11.5T407,122q9-4 9-19q0-13-4-20q-6-16-31.5-37t-62-37T240-7ZM159,275H286q14,0 14,19q0,38-20.5,68T227,392q-29,0-45.5-20.5t-23-45.5T152,285q0-10 7-10Zm28,227q-5,0-11,6.5T170,520q0,8 25,48t68,90q9,9 34,9q23,0 34.5-10T343,638q0-10-14-26.5T293.5,576t-44-36t-40-27.5T187,502Z"/>
      <glyph unicode="&#xea;" glyph-name="ecircumflex" horiz-adv-x="461" d="M240-7Q179-7 127.5,24t-82,83T15,221q0,64 27.5,115T119,417t113,30q63,0 107.5-29.5t68-73T431,257q0-23-9.5-30T384,220H158q-6,0-6-7q0-36 13.5-68t40-52T270,73q34,0 63,10q20,6 31,11t20.5,11.5T407,122q9-4 9-19q0-13-4-20q-6-16-31.5-37t-62-37T240-7ZM159,275H286q14,0 14,19q0,38-20.5,68T227,392q-29,0-45.5-20.5t-23-45.5T152,285q0-10 7-10ZM111,493q-9,0-9,23q24,24 66,78q21,27 39,57q6,10 13,10q5,0 12-10l15-21q5-9 11-16.5T269,599q22-29 39-49.5T338,516q0-23-9-23q-5,0-25.5,13t-44,30.5T220,567q-15-13-39-30.5T137,506t-26-13Z"/>
      <glyph unicode="&#xeb;" glyph-name="edieresis" horiz-adv-x="461" d="M240-7Q179-7 127.5,24t-82,83T15,221q0,64 27.5,115T119,417t113,30q63,0 107.5-29.5t68-73T431,257q0-23-9.5-30T384,220H158q-6,0-6-7q0-36 13.5-68t40-52T270,73q34,0 63,10q20,6 31,11t20.5,11.5T407,122q9-4 9-19q0-13-4-20q-6-16-31.5-37t-62-37T240-7ZM159,275H286q14,0 14,19q0,38-20.5,68T227,392q-29,0-45.5-20.5t-23-45.5T152,285q0-10 7-10ZM320,500q-30,0-52,22t-22,53t22,52t52,21q31,0 52.5-22T394,575q0-31-22.5-53T320,500Zm-198,0q-30,0-52.5,22T47,575q0,29 22,51t53,22q29,0 51-21t22-52t-22-53t-51-22Z"/>
      <glyph unicode="&#xec;" glyph-name="igrave" horiz-adv-x="327" d="M32-4q-4,4-4,19t4,15q8,0 21,4T78,44T91,55q7,28 7,76V277q0,56-18,75q-8,10-21.5,14T35,371.5T25,375q0,29 5,29q9,0 33,4t53.5,10t56,12T213,440l11,3q5,0 10-6.5t5-10.5q-5-44-8-69t-3-31V146q0-57 8-91q2-4 13.5-10T274,34.5T292,30q3,0 3.5-15T294-4q-8,1-33.5,2.5T207,2T163,4T119,2T66-1.5T32-4ZM190,502q-5,0-22.5,10.5t-40,27.5t-44,36T48,611.5T34,638q0,9 11.5,19T80,667q25,0 34-9q43-50 68-90t25-48q0-5-6-11.5T190,502Z"/>
      <glyph unicode="&#xed;" glyph-name="iacute" horiz-adv-x="327" d="M32-4q-4,4-4,19t4,15q8,0 21,4T78,44T91,55q7,28 7,76V277q0,56-18,75q-8,10-21.5,14T35,371.5T25,375q0,29 5,29q9,0 33,4t53.5,10t56,12T213,440l11,3q5,0 10-6.5t5-10.5q-5-44-8-69t-3-31V146q0-57 8-91q2-4 13.5-10T274,34.5T292,30q3,0 3.5-15T294-4q-8,1-33.5,2.5T207,2T163,4T119,2T66-1.5T32-4Zm93,506q-5,0-11,6.5T108,520q0,8 25,48t68,90q9,9 34,9q23,0 34.5-10T281,638q0-10-14-26.5T231.5,576t-44-36t-40-27.5T125,502Z"/>
      <glyph unicode="&#xee;" glyph-name="icircumflex" horiz-adv-x="327" d="M32-4q-4,4-4,19t4,15q8,0 21,4T78,44T91,55q7,28 7,76V277q0,56-18,75q-8,10-21.5,14T35,371.5T25,375q0,29 5,29q9,0 33,4t53.5,10t56,12T213,440l11,3q5,0 10-6.5t5-10.5q-5-44-8-69t-3-31V146q0-57 8-91q2-4 13.5-10T274,34.5T292,30q3,0 3.5-15T294-4q-8,1-33.5,2.5T207,2T163,4T119,2T66-1.5T32-4ZM49,493q-9,0-9,23q24,24 66,78q21,27 39,57q6,10 13,10q5,0 12-10l15-21q5-9 11-16.5T207,599q22-29 39-49.5T276,516q0-23-9-23q-5,0-25.5,13t-44,30.5T158,567q-15-13-39-30.5T75,506T49,493Z"/>
      <glyph unicode="&#xef;" glyph-name="idieresis" horiz-adv-x="387" d="M293,500q-30,0-52,22t-22,53t22,52t52,21q31,0 52.5-22T367,575q0-31-22.5-53T293,500ZM95,500q-30,0-52.5,22T20,575q0,29 22,51t53,22q29,0 51-21t22-52t-22-53T95,500ZM61-4q-4,4-4,19t4,15q8,0 21,4t25,10t13,11q7,28 7,76V277q0,56-18,75q-8,10-21.5,14T64,371.5T54,375q0,29 5,29q9,0 33,4t53.5,10t56,12T242,440l11,3q5,0 10-6.5t5-10.5q-5-44-8-69t-3-31V146q0-57 8-91q2-4 13.5-10T303,34.5T321,30q3,0 3.5-15T323-4q-8,1-33.5,2.5T236,2T192,4T148,2T95-1.5T61-4Z"/>
      <glyph unicode="&#xf0;" glyph-name="eth" horiz-adv-x="521" d="M259-6Q200-6 147,23T61,102.5T28,217q0,42 17,83t47,74.5t70.5,53T250,447q53,0 65-4q-22,66-64,115L144,492q-25,30-18,36l96,59q-59,52-140,75q0,33 10,33q47,0 99-15t104-47l104,64q26-30 19-35l-87-54q81-63 120.5-150.5T491,271q0-77-20-133.5T416,51T342,7.5T259-6Zm11,54q79,0 79,155q-1,83-9,115q-8,35-34.5,54.5T252,392q-82,0-82-147q0-56 10-100.5T212.5,74T270,48Z"/>
      <glyph unicode="&#xf1;" glyph-name="ntilde" horiz-adv-x="605" d="M24-4q-4,4-4,21q0,16 4,16q8,0 22.5,4.5T74.5,48T89,58q7,28 7,76V271q0,56-18,75q-8,10-21.5,14T33,365.5T23,369q0,35 5,35q26,0 74,11.5T211,440l5,1q1,1 4,1l2,1q5,0 10.5-6.5T237,426l-4-31q0-5 1-6q2,0 7,5q55,52 139,52q58,0 94.5-49T511,248V149q0-66 7-91q2-4 15-10t27.5-10.5T581,33q2,0 3-8t1-17T583-4q-6,0-23,1.5t-39.5,3T478,3T446,4q-16,0-44.5-2T347-1.5T313-4q-4,4-4,21q0,16 4,16q8,0 21.5,4.5t26,10.5T374,58q7,28 7,76v90q0,74-20.5,105.5T295,361q-31,0-50-11.5T226,317V149q0-66 7-91q2-4 14-10t26-10.5T292,33q2,0 3-8t1-17T294-4q-8,1-34,2.5T205.5,2T161,4q-12,0-32.5-1T86,0.5t-39-3T24-4ZM374,517q-31,0-79,30t-80,30q-14,0-35-25q-21-26-25-26q-7,0-7,20q0,18 16,44q31,46 71,46q31,0 79-30q47-31 79-31q16,0 36,26q19,25 24,25q6,0 6-20q0-19-15-45q-29-44-70-44Z"/>
      <glyph unicode="&#xf2;" glyph-name="ograve" horiz-adv-x="523" d="M261-7Q196-7 142.5,23.5t-85,82T26,220q0,64 31.5,115t85,81.5T261,447q66,0 119-30.5T464.5,335T496,220q0-63-31-114.5t-84.5-82T261-7Zm10,55q28,0 46,19t26.5,50.5T352,185q0,207-105,207q-28,0-45.5-20T176,320t-8-69Q168,48 271,48Zm23,454q-5,0-22.5,10.5t-40,27.5t-44,36T152,611.5T138,638q0,9 11.5,19T184,667q25,0 34-9q43-50 68-90t25-48q0-5-6-11.5T294,502Z"/>
      <glyph unicode="&#xf3;" glyph-name="oacute" horiz-adv-x="523" d="M261-7Q196-7 142.5,23.5t-85,82T26,220q0,64 31.5,115t85,81.5T261,447q66,0 119-30.5T464.5,335T496,220q0-63-31-114.5t-84.5-82T261-7Zm10,55q28,0 46,19t26.5,50.5T352,185q0,207-105,207q-28,0-45.5-20T176,320t-8-69Q168,48 271,48ZM229,502q-5,0-11,6.5T212,520q0,8 25,48t68,90q9,9 34,9q23,0 34.5-10T385,638q0-10-14-26.5T335.5,576t-44-36t-40-27.5T229,502Z"/>
      <glyph unicode="&#xf4;" glyph-name="ocircumflex" horiz-adv-x="523" d="M261-7Q196-7 142.5,23.5t-85,82T26,220q0,64 31.5,115t85,81.5T261,447q66,0 119-30.5T464.5,335T496,220q0-63-31-114.5t-84.5-82T261-7Zm10,55q28,0 46,19t26.5,50.5T352,185q0,207-105,207q-28,0-45.5-20T176,320t-8-69Q168,48 271,48ZM153,493q-9,0-9,23q24,24 66,78q21,27 39,57q6,10 13,10q5,0 12-10l15-21q5-9 11-16.5T311,599q22-29 39-49.5T380,516q0-23-9-23q-5,0-25.5,13t-44,30.5T262,567q-15-13-39-30.5T179,506t-26-13Z"/>
      <glyph unicode="&#xf5;" glyph-name="otilde" horiz-adv-x="523" d="M261-7Q196-7 142.5,23.5t-85,82T26,220q0,64 31.5,115t85,81.5T261,447q66,0 119-30.5T464.5,335T496,220q0-63-31-114.5t-84.5-82T261-7Zm10,55q28,0 46,19t26.5,50.5T352,185q0,207-105,207q-28,0-45.5-20T176,320t-8-69Q168,48 271,48Zm61,469q-31,0-79,30t-80,30q-14,0-35-25q-21-26-25-26q-7,0-7,20q0,18 16,44q31,46 71,46q31,0 79-30q47-31 79-31q16,0 36,26q19,25 24,25q6,0 6-20q0-19-15-45q-29-44-70-44Z"/>
      <glyph unicode="&#xf6;" glyph-name="odieresis" horiz-adv-x="523" d="M261-7Q196-7 142.5,23.5t-85,82T26,220q0,64 31.5,115t85,81.5T261,447q66,0 119-30.5T464.5,335T496,220q0-63-31-114.5t-84.5-82T261-7Zm10,55q28,0 46,19t26.5,50.5T352,185q0,207-105,207q-28,0-45.5-20T176,320t-8-69Q168,48 271,48Zm91,452q-30,0-52,22t-22,53t22,52t52,21q31,0 52.5-22T436,575q0-31-22.5-53T362,500Zm-198,0q-30,0-52.5,22T89,575q0,29 22,51t53,22q29,0 51-21t22-52t-22-53t-51-22Z"/>
      <glyph unicode="&#xf7;" glyph-name="divide" horiz-adv-x="522" d="M259,378q-25,0-41.5,15.5T198,434v4q0,23 18.5,41.5T259,498q25,0 41.5-15T320,443v-6q0-23-18.5-41T259,378ZM31,211l-4,2q-2,4-2,7q0,8 1.5,23t5,27.5T39,283H488q7-1 7-10q0-21-8-55q-1-6-7-6l-1-1H31ZM198,52v5q0,29 17,44.5t40,16t42-14T320,58V56q0-19-16.5-36.5T264-4.5T222,1T198,52Z"/>
      <glyph unicode="&#xf8;" glyph-name="oslash" horiz-adv-x="523" d="M154-18q-12,4-23.5,10.5T120,4l14,24Q85,58 55.5,108.5T26,220q0,64 31.5,115t85,81.5T261,447q51,0 97-20l15,28q37-13 34-21l-14-25q47-31 75-80t28-109q0-63-31-114.5t-84.5-82T261-7q-48,0-91,17L154-18Zm14,269q0-82 17-131L317,355q-26,37-70,37q-28,0-45.5-20T176,320t-8-69ZM271,48q28,0 46,19t26.5,50.5T352,185q0,77-14,125L207,77q25-29 64-29Z"/>
      <glyph unicode="&#xf9;" glyph-name="ugrave" horiz-adv-x="599" d="M386-5q-6,0-6,18V50q0,8-4,4q-21-22-61.5-40T227-4q-39,0-68.5,24T113,84.5T97,174v97q0,56-18,75q-8,10-21.5,14T34,365.5T24,369q0,35 5,35q9,0 33.5,4t53.5,9.5t55.5,12T212,440q3,1 5.5,2t5.5,1q5,0 10-6.5t5-10.5q-5-44-8-69t-3-31V219q0-78 20-109.5T314,78q34,0 51,15.5T382,128V271q0,56-18,75q-8,10-21.5,14T319,365.5T309,369q0,35 5,35q9,0 33.5,4t53.5,9.5t55.5,12T497,440l11,3q5,0 10-6.5t5-10.5q-5-44-8-69t-3-30V131q0-53 10-63q5-5 16-7.5T560,58h10q4-1 4-8q0-29-6-29Q506,15 464.5,9T400-2L386-5ZM332,502q-5,0-22.5,10.5t-40,27.5t-44,36T190,611.5T176,638q0,9 11.5,19T222,667q25,0 34-9q43-50 68-90t25-48q0-5-6-11.5T332,502Z"/>
      <glyph unicode="&#xfa;" glyph-name="uacute" horiz-adv-x="599" d="M386-5q-6,0-6,18V50q0,8-4,4q-21-22-61.5-40T227-4q-39,0-68.5,24T113,84.5T97,174v97q0,56-18,75q-8,10-21.5,14T34,365.5T24,369q0,35 5,35q9,0 33.5,4t53.5,9.5t55.5,12T212,440q3,1 5.5,2t5.5,1q5,0 10-6.5t5-10.5q-5-44-8-69t-3-31V219q0-78 20-109.5T314,78q34,0 51,15.5T382,128V271q0,56-18,75q-8,10-21.5,14T319,365.5T309,369q0,35 5,35q9,0 33.5,4t53.5,9.5t55.5,12T497,440l11,3q5,0 10-6.5t5-10.5q-5-44-8-69t-3-30V131q0-53 10-63q5-5 16-7.5T560,58h10q4-1 4-8q0-29-6-29Q506,15 464.5,9T400-2L386-5ZM267,502q-5,0-11,6.5T250,520q0,8 25,48t68,90q9,9 34,9q23,0 34.5-10T423,638q0-10-14-26.5T373.5,576t-44-36t-40-27.5T267,502Z"/>
      <glyph unicode="&#xfb;" glyph-name="ucircumflex" horiz-adv-x="599" d="M386-5q-6,0-6,18V50q0,8-4,4q-21-22-61.5-40T227-4q-39,0-68.5,24T113,84.5T97,174v97q0,56-18,75q-8,10-21.5,14T34,365.5T24,369q0,35 5,35q9,0 33.5,4t53.5,9.5t55.5,12T212,440q3,1 5.5,2t5.5,1q5,0 10-6.5t5-10.5q-5-44-8-69t-3-31V219q0-78 20-109.5T314,78q34,0 51,15.5T382,128V271q0,56-18,75q-8,10-21.5,14T319,365.5T309,369q0,35 5,35q9,0 33.5,4t53.5,9.5t55.5,12T497,440l11,3q5,0 10-6.5t5-10.5q-5-44-8-69t-3-30V131q0-53 10-63q5-5 16-7.5T560,58h10q4-1 4-8q0-29-6-29Q506,15 464.5,9T400-2L386-5ZM191,493q-9,0-9,23q24,24 66,78q21,27 39,57q6,10 13,10q5,0 12-10l15-21q5-9 11-16.5T349,599q22-29 39-49.5T418,516q0-23-9-23q-5,0-25.5,13t-44,30.5T300,567q-15-13-39-30.5T217,506t-26-13Z"/>
      <glyph unicode="&#xfc;" glyph-name="udieresis" horiz-adv-x="599" d="M386-5q-6,0-6,18V50q0,8-4,4q-21-22-61.5-40T227-4q-39,0-68.5,24T113,84.5T97,174v97q0,56-18,75q-8,10-21.5,14T34,365.5T24,369q0,35 5,35q9,0 33.5,4t53.5,9.5t55.5,12T212,440q3,1 5.5,2t5.5,1q5,0 10-6.5t5-10.5q-5-44-8-69t-3-31V219q0-78 20-109.5T314,78q34,0 51,15.5T382,128V271q0,56-18,75q-8,10-21.5,14T319,365.5T309,369q0,35 5,35q9,0 33.5,4t53.5,9.5t55.5,12T497,440l11,3q5,0 10-6.5t5-10.5q-5-44-8-69t-3-30V131q0-53 10-63q5-5 16-7.5T560,58h10q4-1 4-8q0-29-6-29Q506,15 464.5,9T400-2L386-5Zm14,505q-30,0-52,22t-22,53t22,52t52,21q31,0 52.5-22T474,575q0-31-22.5-53T400,500Zm-198,0q-30,0-52.5,22T127,575q0,29 22,51t53,22q29,0 51-21t22-52t-22-53t-51-22Z"/>
      <glyph unicode="&#xfd;" glyph-name="yacute" horiz-adv-x="544" d="M76-218q-30,0-48.5,16T9-165q0,30 23,47q128,0 165,78l31,66L74,368q-10,22-30.5,30T8,406q-4,0-4,15q0,20 2,22q4,0 19.5-1T69,439t47.5-3t31.5-1q15,0 43,2t54.5,4t33.5,2q3-9 3-21q0-16-4-16q-8,0-23-4t-27-9.5T216,380q2-15 21.5-65T295,176q34,74 52.5,114.5T369,338q6,14 6,30q0,13-19,25.5T304,406q-4,0-4,18q0,7 0.5,11.5T302,443q8,0 33.5-2t53.5-4t44-2q11,0 25,1.5t31,2.5l51,4q4-7 4-17q0-20-4-20q-10,0-27.5-4.5t-34-13T456,366L270-37Q186-218 76-218ZM267,502q-5,0-11,6.5T250,520q0,8 25,48t68,90q9,9 34,9q23,0 34.5-10T423,638q0-10-14-26.5T373.5,576t-44-36t-40-27.5T267,502Z"/>
      <glyph unicode="&#xfe;" glyph-name="thorn" horiz-adv-x="567" d="M21-218q-4,4-4,20q0,17 4,17q8,0 22.5,4.5t28,10.5T86-156q7,28 7,76V528q0,25-1.5,43.5T88,603q-4,16-52,16H27q-6,0-6,20q0,17 6,17q58,5 109.5,17T210,692l10,3h2q4,0 8-6t5-11q-12-45-12-101V418q0-6 2-6q43,34 90,34q64,0 113.5-30.5t78-80.5T535,227q0-74-32.5-126.5T413.5,20T285-8q-24,0-40,4.5T227,1q-4,0-4-16V-65q0-66 7-91q2-4 15-10t27.5-10.5T293-181q2,0 3-8t1-17t-2-12q-6,0-23,1.5t-39.5,3T190-211t-32,1t-32.5-1T83-213.5t-39-3T21-218ZM301,46q90,0 90,148q0,194-91,194q-35,0-56-21t-21-53V125q0-38 25-58.5T301,46Z"/>
      <glyph unicode="&#xff;" glyph-name="ydieresis" horiz-adv-x="544" d="M76-218q-30,0-48.5,16T9-165q0,30 23,47q128,0 165,78l31,66L74,368q-10,22-30.5,30T8,406q-4,0-4,15q0,20 2,22q4,0 19.5-1T69,439t47.5-3t31.5-1q15,0 43,2t54.5,4t33.5,2q3-9 3-21q0-16-4-16q-8,0-23-4t-27-9.5T216,380q2-15 21.5-65T295,176q34,74 52.5,114.5T369,338q6,14 6,30q0,13-19,25.5T304,406q-4,0-4,18q0,7 0.5,11.5T302,443q8,0 33.5-2t53.5-4t44-2q11,0 25,1.5t31,2.5l51,4q4-7 4-17q0-20-4-20q-10,0-27.5-4.5t-34-13T456,366L270-37Q186-218 76-218ZM400,500q-30,0-52,22t-22,53t22,52t52,21q31,0 52.5-22T474,575q0-31-22.5-53T400,500Zm-198,0q-30,0-52.5,22T127,575q0,29 22,51t53,22q29,0 51-21t22-52t-22-53t-51-22Z"/>
      <glyph unicode="&#x2013;" glyph-name="endash" horiz-adv-x="499" d="M34,194l-4,2q-2,4-2,7q0,8 1.5,23.5t5,28.5T42,268H467q6,0 6-9q0-22-9-58q-1-5-6-7H34Z"/>
      <glyph unicode="&#x2014;" glyph-name="emdash" horiz-adv-x="1087" d="M34,194l-4,2q-2,4-2,7q0,8 1.5,23.5t5,28.5T42,268H1051q6,0 6-9q0-22-9-58q-1-5-6-7H34Z"/>
      <glyph unicode="&#x2018;" glyph-name="quoteleft" horiz-adv-x="160" d="M126,706q7,0 20-9t16-17q-34-20-52-47.5T92,590q0-12 10.5-24t21-24T134,518q0-18-20.5-31T68,474q-23,0-37,11q-15,23-15,70q0,26 10.5,51.5T52,649q21,24 44,40.5T126,706Z"/>
      <glyph unicode="&#x2019;" glyph-name="quoteright" horiz-adv-x="165" d="M45,474q-7,0-20,9T9,500q35,20 52.5,47.5T79,590q0,12-10.5,24t-21,24T37,662q0,18 20.5,31T103,706q23,0 37-11q15-22 15-70q0-26-10.5-51.5T119,531q-21-24-44-40.5T45,474Z"/>
      <glyph unicode="&#x201a;" glyph-name="quotesinglbase" horiz-adv-x="160" d="M40-108q-7,0-20,9T4-82Q39-62 56.5-34.5T74,8q0,12-10.5,24t-21,24T32,80q0,18 20.5,31T98,124q23,0 37-11q15-22 15-70q0-26-10.5-51.5T114-51Q93-75 70-91.5T40-108Z"/>
      <glyph unicode="&#x201c;" glyph-name="quotedblleft" horiz-adv-x="332" d="M274,706q7,0 20-9t16-17q-34-20-52-47.5T240,590q0-12 10.5-24t21-24T282,518q0-18-20.5-31T216,474q-23,0-37,11q-15,23-15,70q0,26 10.5,51.5T200,649q21,24 44,40.5T274,706Zm-148,0q7,0 20-9t16-17q-34-20-52-47.5T92,590q0-12 10.5-24t21-24T134,518q0-18-20.5-31T68,474q-23,0-37,11q-15,23-15,70q0,26 10.5,51.5T52,649q21,24 44,40.5T126,706Z"/>
      <glyph unicode="&#x201d;" glyph-name="quotedblright" horiz-adv-x="332" d="M52,474q-7,0-20,9T16,500q35,20 52.5,47.5T86,590q0,12-10.5,24t-21,24T44,662q0,18 20.5,31T110,706q23,0 37-11q15-22 15-70q0-26-10.5-51.5T126,531q-21-24-44-40.5T52,474Zm149,0q-7,0-20,9t-16,17q35,20 52.5,47.5T235,590q0,12-10.5,24t-21,24T193,662q0,18 20.5,31T259,706q23,0 37-11q15-22 15-70q0-26-10.5-51.5T275,531q-21-24-44-40.5T201,474Z"/>
      <glyph unicode="&#x201e;" glyph-name="quotedblbase" horiz-adv-x="320" d="M48-108q-7,0-20,9T12-82Q47-62 64.5-34.5T82,8q0,12-10.5,24t-21,24T40,80q0,18 20.5,31T106,124q23,0 37-11q15-22 15-70q0-26-10.5-51.5T122-51Q101-75 78-91.5T48-108Zm148,0q-7,0-20,9T160-82q35,20 52.5,47.5T230,8q0,12-10.5,24t-21,24T188,80q0,18 20.5,31T254,124q23,0 37-11q15-22 15-70q0-26-10.5-51.5T270-51q-21-24-44-40.5T196-108Z"/>
      <glyph unicode="&#x2022;" glyph-name="bullet" horiz-adv-x="409" d="M203,121q-35,0-67,18T83.5,189T63,263q0,39 19,71t51,51t70,19q39,0 70.5-19t50-51T342,263q0-42-20-74t-52-50t-67-18Z"/>
      <glyph unicode="&#x2039;" glyph-name="guilsinglleft" horiz-adv-x="324" d="M257,73q-10,12-39.5,36T145,164T51,227q-7,3-7,14q0,17 8,27q44,26 77,50t58,43q48,37 71,62q7-1 21-9t14-16t-74-79l-73-71l72-71q36-36 55-55.5T292,98q0-8-14-16t-21-9Z"/>
      <glyph unicode="&#x203a;" glyph-name="guilsinglright" horiz-adv-x="324" d="M80,73q-7,1-21,9T45,98q0,4 19,23.5T119,177l72,71l-73,71q-74,71-74,79t14,16t21,9q23-25 71-62q26-19 59-43t76-50q8-10 8-27q0-11-7-14q-51-32-94-63t-72.5-55T80,73Z"/>
    </font>
</defs>
</svg>
